<svg width="32" height="32" viewBox="0 0 32 32" fill="none" xmlns="http://www.w3.org/2000/svg">
<path d="M16.0003 2.66699C8.65366 2.66699 2.66699 8.65366 2.66699 16.0003C2.66699 23.347 8.65366 29.3337 16.0003 29.3337C23.347 29.3337 29.3337 23.347 29.3337 16.0003C29.3337 8.65366 23.347 2.66699 16.0003 2.66699ZM20.4803 19.067C20.867 19.4537 20.867 20.0937 20.4803 20.4803C20.2803 20.6803 20.027 20.7737 19.7737 20.7737C19.5203 20.7737 19.267 20.6803 19.067 20.4803L16.0003 17.4137L12.9337 20.4803C12.7337 20.6803 12.4803 20.7737 12.227 20.7737C11.9737 20.7737 11.7203 20.6803 11.5203 20.4803C11.1337 20.0937 11.1337 19.4537 11.5203 19.067L14.587 16.0003L11.5203 12.9337C11.1337 12.547 11.1337 11.907 11.5203 11.5203C11.907 11.1337 12.547 11.1337 12.9337 11.5203L16.0003 14.587L19.067 11.5203C19.4537 11.1337 20.0937 11.1337 20.4803 11.5203C20.867 11.907 20.867 12.547 20.4803 12.9337L17.4137 16.0003L20.4803 19.067Z" fill="white"/>
</svg>
