<svg width="81" height="80" viewBox="0 0 81 80" fill="none" xmlns="http://www.w3.org/2000/svg">
<path d="M67.9668 28.75C67.9668 28.2938 68.148 27.8563 68.4699 27.5344C68.7924 27.2121 69.2296 27.031 69.6855 27.031C70.1415 27.031 70.5787 27.2121 70.9012 27.5344C71.223 27.8563 71.4043 28.2938 71.4043 28.75V75.7812H1.56055V5.9375H54.998C55.4527 5.9375 55.8902 6.11875 56.2137 6.44063C56.536 6.76308 56.717 7.20033 56.717 7.65625C56.717 8.11217 56.536 8.54942 56.2137 8.87187C55.8908 9.19359 55.4538 9.37447 54.998 9.375H4.99805V72.3438H67.9668V28.75Z" fill="#721121"/>
<path d="M32.0123 33.5748C31.6484 33.8496 31.1904 33.9687 30.7388 33.906C30.2873 33.842 29.8794 33.6029 29.6044 33.2388C29.4683 33.0587 29.369 32.8536 29.3121 32.6351C29.2553 32.4166 29.2421 32.189 29.2732 31.9654C29.3357 31.5154 29.5763 31.106 29.9404 30.831C30.779 30.1978 31.7203 29.7136 32.7232 29.3998C33.6816 29.1037 34.6795 28.9551 35.6826 28.9592C36.2279 28.9607 36.7716 29.0013 37.3123 29.0795C37.8513 29.1576 38.3841 29.2717 38.9107 29.417C39.9576 29.7123 40.9716 30.1217 41.9294 30.6373C42.881 31.1467 43.7779 31.7482 44.6091 32.4357C45.4216 33.1045 46.1623 33.8576 46.8169 34.681C47.3554 35.36 47.8377 36.0816 48.2591 36.8388C48.6591 37.556 48.9982 38.3076 49.2685 39.0842C49.7844 40.5709 50.0464 42.1339 50.0435 43.7076C50.0419 44.4295 49.9919 45.1513 49.8904 45.8654C49.7888 46.5857 49.6435 47.2998 49.4529 48.0029C49.2619 48.7159 49.0324 49.4179 48.7654 50.106C48.4935 50.8092 48.1888 51.4998 47.8529 52.1748C47.4572 52.9695 46.9846 53.7237 46.4419 54.4263C45.8888 55.1435 45.2794 55.8138 44.6169 56.431C43.9376 57.0653 43.215 57.6516 42.4544 58.1857C41.6748 58.731 40.8623 59.2279 40.0201 59.6732C38.2974 60.5847 36.4734 61.2901 34.5857 61.7748C33.6373 62.0217 32.6748 62.2092 31.7029 62.3388C30.7357 62.467 29.7607 62.5326 28.7841 62.5342C27.9357 62.5357 27.0873 62.4826 26.2451 62.3748C25.4076 62.2685 24.5779 62.1013 23.7654 61.8748C22.9525 61.6487 22.1593 61.3571 21.3935 61.0029C20.6212 60.6451 19.8828 60.2184 19.1873 59.7279C18.4764 59.2265 17.8155 58.6577 17.2138 58.0295C16.5882 57.3754 16.0282 56.6616 15.5419 55.8982C15.0263 55.0873 14.5888 54.2326 14.2341 53.342C13.5029 51.506 13.0748 49.5654 13.0605 49.3096C13.008 48.3624 13.4926 47.8154 14.1419 48.0888C14.1419 48.0888 15.3873 48.4013 16.6591 48.5201C16.9857 48.5513 17.3138 48.5607 17.6404 48.5482C17.9013 48.5388 18.1591 48.5123 18.4154 48.4685C18.6138 48.4357 18.8107 48.3873 19.0013 48.3232C19.2112 48.2531 19.4138 48.1626 19.606 48.0529C19.7779 47.9545 19.9373 47.8388 20.0826 47.7076C20.2373 47.5685 20.3748 47.4154 20.4966 47.2467C20.6484 47.0359 20.7802 46.8115 20.8904 46.5763C20.956 46.4342 21.0107 46.2873 21.0529 46.1373C21.1013 45.9638 21.1388 45.7873 21.1669 45.6092C21.1998 45.3967 21.2263 45.1842 21.2435 44.9685C21.2654 44.7185 21.2841 44.467 21.3013 44.2154C21.331 43.7154 21.3732 43.217 21.4294 42.7201C21.4998 42.1232 21.6107 41.5326 21.7607 40.9498C21.939 40.2709 22.178 39.6093 22.4748 38.9732C22.8248 38.231 23.2419 37.5232 23.7216 36.8576C23.9873 36.4873 24.3904 36.2373 24.8404 36.1638C25.2904 36.0904 25.7513 36.1998 26.1201 36.4654C26.4904 36.7326 26.7404 37.1342 26.8138 37.5842C26.8873 38.0342 26.7779 38.4951 26.5123 38.8654C26.1563 39.3588 25.8467 39.8839 25.5873 40.4342C25.3794 40.8795 25.2123 41.342 25.0873 41.817C24.9763 42.242 24.8966 42.6763 24.8451 43.1123C24.7951 43.5498 24.7576 43.9888 24.731 44.4279C24.7138 44.7076 24.6935 44.9857 24.6685 45.2638C24.6435 45.556 24.6091 45.8482 24.5638 46.1388C24.5138 46.4513 24.4482 46.7607 24.3623 47.0654C24.2701 47.3935 24.1513 47.7154 24.0076 48.0248C23.8059 48.4581 23.5637 48.8715 23.2841 49.2592C23.0199 49.6235 22.7183 49.9592 22.3841 50.2607C22.0573 50.5562 21.6995 50.8156 21.3169 51.0342C20.9254 51.2597 20.5118 51.4445 20.0826 51.5857C19.7248 51.7045 19.3607 51.7951 18.9888 51.8576C18.7201 51.9034 18.3543 51.9547 17.8916 52.0115C17.6348 52.0429 17.5132 52.2598 17.6202 52.4953C17.9014 53.1139 18.1753 53.6326 18.4419 54.0513C18.8076 54.6248 19.2279 55.1607 19.6966 55.6529C20.1466 56.1217 20.6388 56.5451 21.1685 56.9185C21.6951 57.2904 22.2544 57.6123 22.8388 57.8842C23.435 58.16 24.0527 58.3867 24.6857 58.5623C25.3388 58.7451 26.006 58.8795 26.6794 58.9654C27.3763 59.0529 28.0779 59.0982 28.7794 59.0967C29.606 59.0951 30.431 59.0404 31.2498 58.931C32.0841 58.8201 32.9123 58.6576 33.7279 58.4467C35.3544 58.0279 36.9279 57.4201 38.4138 56.6342C39.1294 56.256 39.8201 55.8342 40.481 55.3701C41.1107 54.9295 41.7091 54.4435 42.2716 53.9185C42.7974 53.4285 43.2818 52.896 43.7201 52.3263C44.1263 51.8013 44.4794 51.2373 44.7763 50.6435C45.0638 50.0638 45.3263 49.4701 45.5591 48.8654C45.7826 48.2904 45.9748 47.7045 46.1341 47.1092C46.2873 46.542 46.4044 45.967 46.4873 45.3857C46.5654 44.8279 46.6044 44.2654 46.606 43.7013C46.6091 42.5154 46.4107 41.3357 46.0232 40.2138C45.8169 39.6259 45.5608 39.0566 45.2576 38.5123C44.926 37.9183 44.5471 37.3519 44.1248 36.8185C43.6205 36.1828 43.0495 35.6029 42.4216 35.0888C41.7654 34.5451 41.056 34.0685 40.3044 33.667C39.5669 33.2685 38.7888 32.9545 37.9826 32.7279C37.5998 32.6201 37.2091 32.5388 36.8154 32.481C36.4373 32.4263 36.0544 32.3982 35.6716 32.3967C35.0185 32.3935 34.3685 32.4904 33.7435 32.6826C33.1194 32.8781 32.5337 33.1799 32.0123 33.5748ZM49.2388 27.6388C48.9164 27.9612 48.4791 28.1422 48.0232 28.1422C47.5673 28.1422 47.13 27.9612 46.8076 27.6388C46.4855 27.3166 46.3047 26.8796 46.3047 26.424C46.3047 25.9684 46.4855 25.5314 46.8076 25.2092L70.7976 1.21916C71.3463 0.67041 72.2374 0.67041 72.7862 1.21932L79.318 7.75213C79.8668 8.30104 79.8666 9.19229 79.3179 9.74104L55.2919 33.7654C54.9697 34.0874 54.5327 34.2683 54.0771 34.2683C53.6215 34.2683 53.1845 34.0874 52.8623 33.7654C52.7022 33.606 52.5752 33.4166 52.4886 33.208C52.402 32.9993 52.3575 32.7757 52.3576 32.5498C52.3576 32.0951 52.5388 31.6576 52.8623 31.3342L74.4554 9.74104C75.0041 9.19229 75.0043 8.30104 74.4555 7.75213L72.7862 6.08182C72.2374 5.53291 71.3463 5.53275 70.7976 6.08166L49.2388 27.6388Z" fill="#721121"/>
</svg>
