<svg width="80" height="80" viewBox="0 0 80 80" fill="none" xmlns="http://www.w3.org/2000/svg">
<path d="M72.2002 34.567C72.3122 34.3701 72.391 34.1561 72.4336 33.9337L74.9336 20.6003C75.0927 19.7163 74.8941 18.8052 74.3815 18.0676C73.8689 17.3299 73.0843 16.8261 72.2002 16.667C71.3162 16.5079 70.4051 16.7064 69.6675 17.219C68.9298 17.7316 68.426 18.5163 68.2669 19.4003L67.0336 26.067C64.259 21 60.1124 16.8177 55.0695 13.9996C50.0266 11.1815 44.2916 9.8418 38.5221 10.1341C32.7526 10.4264 27.1823 12.3389 22.4501 15.6522C17.7178 18.9656 14.0152 23.5456 11.7669 28.867C11.4371 29.6849 11.4449 30.6002 11.7885 31.4123C12.1321 32.2245 12.7836 32.8675 13.6002 33.2003C14.0071 33.3688 14.4433 33.4549 14.8836 33.4539C15.324 33.4528 15.7598 33.3644 16.1658 33.194C16.5718 33.0235 16.94 32.7743 17.2491 32.4607C17.5583 32.1471 17.8022 31.7754 17.9669 31.367C19.762 26.9563 22.8494 23.1919 26.8235 20.5683C30.7975 17.9447 35.4723 16.5847 40.2336 16.667C44.4445 16.6473 48.5859 17.7406 52.2385 19.8362C55.8911 21.9317 58.9252 24.9551 61.0336 28.6003L55.5336 27.7003C55.0958 27.6303 54.6486 27.6472 54.2174 27.75C53.7861 27.8528 53.3794 28.0395 53.0203 28.2995C52.6613 28.5595 52.357 28.8877 52.1247 29.2653C51.8925 29.6429 51.7369 30.0626 51.6669 30.5003C51.5969 30.9381 51.6137 31.3853 51.7165 31.8165C51.8194 32.2478 52.0061 32.6545 52.2661 33.0136C52.5261 33.3726 52.8543 33.6769 53.2319 33.9092C53.6095 34.1414 54.0292 34.297 54.4669 34.367L68.6336 36.7337H69.1669C69.5539 36.7383 69.9383 36.6705 70.3002 36.5337C70.4223 36.4873 70.5352 36.4196 70.6336 36.3337C70.8726 36.2448 71.0972 36.1212 71.3002 35.967L71.5669 35.6337C71.7398 35.4718 71.8961 35.2932 72.0336 35.1003C72.1147 34.9316 72.1708 34.7519 72.2002 34.567ZM66.2669 46.9003C65.858 46.7328 65.4198 46.6482 64.978 46.6516C64.5361 46.6549 64.0992 46.7461 63.6929 46.9198C63.2866 47.0935 62.9188 47.3462 62.6111 47.6634C62.3033 47.9805 62.0617 48.3556 61.9002 48.767C60.0926 53.1313 57.0167 56.8527 53.0708 59.4497C49.1248 62.0466 44.4903 63.3996 39.7669 63.3337C35.5559 63.3533 31.4145 62.26 27.762 60.1645C24.1094 58.0689 21.0753 55.0455 18.9669 51.4003L24.4669 52.3003H25.0002C25.8843 52.371 26.7602 52.0877 27.4354 51.5126C28.1105 50.9375 28.5295 50.1177 28.6002 49.2337C28.671 48.3496 28.3876 47.4737 27.8125 46.7985C27.2374 46.1234 26.4176 45.7044 25.5336 45.6337L11.3669 43.3337C11.0033 43.2666 10.6305 43.2666 10.2669 43.3337H10.0002C9.623 43.434 9.26329 43.5914 8.93357 43.8003C8.70883 43.9739 8.5072 44.1756 8.33357 44.4003L8.03357 44.7337C7.93054 44.9346 7.85219 45.1472 7.80024 45.367C7.68343 45.5373 7.60391 45.7304 7.56691 45.9337L5.06691 59.267C4.95984 59.71 4.94477 60.1703 5.02261 60.6193C5.10046 61.0684 5.26956 61.4967 5.51948 61.8779C5.76941 62.259 6.09483 62.5848 6.47566 62.8352C6.85648 63.0856 7.2846 63.2553 7.73357 63.3337H8.33357C9.12287 63.3465 9.89112 63.0789 10.5015 62.5783C11.112 62.0778 11.5249 61.3769 11.6669 60.6003L12.9002 53.9337C15.672 59.0018 19.8159 63.1862 24.8569 66.007C29.8979 68.8278 35.6319 70.1708 41.4012 69.882C47.1705 69.5932 52.7417 67.6843 57.4758 64.3741C62.2098 61.064 65.9152 56.4866 68.1669 51.167C68.4724 50.3487 68.4444 49.4432 68.0891 48.6453C67.7338 47.8473 67.0795 47.2208 66.2669 46.9003Z" fill="#721121"/>
</svg>
