<svg width="180" height="180" viewBox="0 0 180 180" fill="none" xmlns="http://www.w3.org/2000/svg">
<path d="M47.9997 120C45.0535 120.08 42.1211 119.57 39.3747 118.5C37.11 117.929 35.0388 116.764 33.3747 115.125C31.9165 113.534 30.6572 111.771 29.6247 109.875C28.8524 107.97 28.4699 105.93 28.4997 103.875C28.5093 101.945 28.8913 100.035 29.6247 98.2502C30.6572 96.3547 31.9165 94.5917 33.3747 93.0002C35.0388 91.3614 37.11 90.1963 39.3747 89.6252C42.1211 88.5557 45.0535 88.0457 47.9997 88.1252H48.7497C50.128 84.9748 52.3303 82.2543 55.1247 80.2502C57.2934 78.6213 59.9135 77.7042 62.6247 77.6252C63.8143 77.4146 65.0402 77.5926 66.1208 78.1329C67.2014 78.6732 68.0793 79.5471 68.6247 80.6252C69.2107 81.2765 69.5938 82.0848 69.7271 82.9508C69.8603 83.8168 69.7378 84.7028 69.3747 85.5002C69.0786 86.2591 68.5645 86.9134 67.8972 87.3806C67.2298 87.8477 66.4391 88.1068 65.6247 88.1252H64.8747L61.1247 87.3752L57.7497 85.1252L54.7497 84.3752C52.8747 84.3752 51.3747 85.5002 50.2497 88.1252C52.954 88.3509 55.6088 88.983 58.1247 90.0002C60.1899 90.9382 62.0895 92.2046 63.7497 93.7502C65.1045 95.2721 66.1263 97.0603 66.7497 99.0002C67.483 100.785 67.865 102.695 67.8747 104.625C67.7781 106.585 67.2668 108.502 66.3747 110.25C65.4339 112.091 64.1627 113.744 62.6247 115.125C60.743 116.749 58.5833 118.02 56.2497 118.875C53.5731 119.669 50.7909 120.048 47.9997 120ZM40.4997 133.875C37.5143 134.095 34.5591 133.155 32.2497 131.25C31.394 130.591 30.709 129.736 30.2522 128.757C29.7954 127.779 29.5802 126.704 29.6247 125.625C29.5398 123.875 30.0705 122.15 31.1247 120.75C32.0544 119.249 33.5352 118.172 35.2497 117.75C34.8747 119.625 35.2497 120.75 36.3747 121.5C37.6802 122.427 39.2866 122.829 40.8747 122.625L48.3747 121.875C50.9612 121.317 53.6043 121.066 56.2497 121.125C58.5949 120.994 60.9308 121.513 62.9997 122.625C64.8302 123.589 66.3803 125.01 67.4997 126.75L69.7497 132.375C70.125 134.358 70.125 136.393 69.7497 138.375C69.2973 140.356 68.5381 142.254 67.4997 144C66.3803 145.74 64.8302 147.161 62.9997 148.125C61.0479 149.189 58.8458 149.707 56.6247 149.625C53.7092 149.737 50.8295 148.952 48.3747 147.375C47.3677 146.412 46.5789 145.244 46.0614 143.95C45.5439 142.657 45.3097 141.267 45.3747 139.875C45.3354 139.122 45.448 138.369 45.7057 137.66C45.9634 136.952 46.3609 136.302 46.8747 135.75C47.9757 134.991 49.2876 134.598 50.6247 134.625C51.2341 134.574 51.8478 134.647 52.4281 134.84C53.0083 135.033 53.5431 135.343 53.9997 135.75C54.5325 136.289 54.9425 136.936 55.2014 137.648C55.4604 138.36 55.5621 139.12 55.4997 139.875C55.4997 144.75 56.9997 147.375 59.9997 147.375C60.9354 147.436 61.8715 147.262 62.7229 146.869C63.5744 146.476 64.314 145.877 64.8747 145.125C66.0396 143.618 66.6961 141.78 66.7497 139.875C66.7864 138.833 66.6053 137.794 66.2179 136.825C65.8305 135.857 65.2453 134.98 64.4997 134.25C62.6223 132.975 60.3932 132.32 58.1247 132.375L50.2497 133.125L40.4997 133.875ZM48.3747 88.8752C46.7141 89.0085 45.1386 89.665 43.8747 90.7502C42.7078 91.9161 41.8117 93.3244 41.2497 94.8752C40.5306 96.814 40.0276 98.8261 39.7497 100.875C39.3743 102.858 39.3743 104.893 39.7497 106.875C40.0276 108.924 40.5306 110.936 41.2497 112.875C41.7601 114.451 42.6635 115.87 43.8747 117C44.3374 117.554 44.9092 118.006 45.5544 118.328C46.1996 118.651 46.9043 118.837 47.6247 118.875C49.1919 118.813 50.6726 118.14 51.7497 117C52.9574 115.789 53.9695 114.397 54.7497 112.875C55.4687 110.936 55.9718 108.924 56.2497 106.875C56.5612 104.891 56.6868 102.883 56.6247 100.875L55.4997 94.8752C54.9384 93.2292 53.8927 91.7913 52.4997 90.7502C51.4226 89.6101 49.9419 88.937 48.3747 88.8752Z" fill="white"/>
<path d="M91.4995 133.5C88.0907 133.388 84.7538 132.49 81.7495 130.875C79.097 129.353 76.8969 127.153 75.3746 124.5C73.8011 121.688 72.6632 118.653 71.9996 115.5C71.3075 112.297 71.1805 108.997 71.6246 105.75C72.3568 102.736 73.492 99.8353 74.9996 97.1251C76.5579 94.3701 78.9101 92.1486 81.7495 90.7501C84.8072 88.9324 88.3189 88.0219 91.8746 88.1251L97.8746 88.8751C99.7144 89.3951 101.479 90.1514 103.125 91.1251C104.656 92.2157 105.934 93.6224 106.875 95.2501C107.945 97.0628 108.466 99.1471 108.375 101.25C108.499 102.789 108.241 104.335 107.625 105.75C106.957 106.914 106.065 107.934 105 108.75L101.25 111L97.1245 112.5L92.6246 113.625L88.8746 115.125C86.9996 115.875 85.4995 117 85.4995 118.5C85.3057 119.315 85.3435 120.169 85.6085 120.964C85.8735 121.759 86.3553 122.464 86.9996 123C88.1355 124.293 89.5444 125.318 91.1245 126L96.3746 126.75C98.8874 126.888 101.38 126.232 103.5 124.875C105.701 123.103 107.384 120.772 108.375 118.125C108.177 121.104 107.136 123.965 105.375 126.375C103.846 128.6 101.782 130.405 99.3745 131.625C96.9354 132.866 94.2361 133.509 91.4995 133.5ZM96.7495 92.2501C96.2512 91.3835 95.5442 90.6552 94.6929 90.1312C93.8415 89.6073 92.8727 89.3044 91.8746 89.2501C90.833 89.3345 89.8228 89.6471 88.9155 90.1655C88.0082 90.684 87.2261 91.3956 86.6246 92.2501C85.0624 94.2536 83.9151 96.5482 83.2496 99.0001C82.611 102.082 82.3591 105.231 82.4996 108.375C82.4985 111.472 83.1368 114.536 84.3746 117.375C84.872 116.208 85.6439 115.179 86.6246 114.375L89.6245 112.125C90.9061 111.642 92.0604 110.872 92.9995 109.875C93.9664 109.097 94.8465 108.217 95.6246 107.25C96.6662 106.055 97.4341 104.648 97.8746 103.125C98.3571 101.288 98.609 99.3989 98.6245 97.5001C98.571 95.5957 97.9144 93.7575 96.7495 92.2501Z" fill="white"/>
<path d="M112.875 132.375C113.625 131.25 114 125.25 114 113.625V88.875C116.368 91.0651 119.408 92.3871 122.625 92.625L126.75 91.5L132 89.25L137.625 88.125C146.25 88.125 150.75 92.625 150.75 102V113.625C150.75 125.25 151.125 131.25 151.875 132.375H138.375C139.125 131.25 139.5 125.25 139.5 113.625V100.125C139.5 94.125 138 91.125 134.625 90.375H131.25L127.875 91.875L125.25 93V113.25C125.25 124.875 125.625 130.875 126.75 132L112.875 132.375Z" fill="white"/>
<path d="M29.9999 40.875C26.6249 40.875 24.3749 40.125 23.2499 38.25C21.9828 35.8232 21.7137 32.9974 22.4999 30.375C23.3434 31.179 24.3476 31.7952 25.4464 32.183C26.5452 32.5708 27.7137 32.7214 28.8749 32.625L34.8749 31.5L41.2499 30.75C43.3874 30.7922 45.4687 31.4426 47.2499 32.625C48.0683 33.05 48.7493 33.6984 49.2139 34.4949C49.6786 35.2915 49.9078 36.2034 49.8749 37.125C49.8476 38.1678 49.5915 39.192 49.1249 40.125C48.6382 41.205 48.0074 42.2142 47.2499 43.125L44.9999 46.125L42.3749 50.25C41.5268 52.0431 40.8973 53.9316 40.4999 55.875C39.7109 58.3084 39.2075 60.8253 38.9999 63.375C38.6731 66.7395 38.5479 70.1205 38.6249 73.5H29.9999C30.0648 71.1091 30.3156 68.727 30.7499 66.375C31.1006 64.2472 31.865 62.2087 32.9999 60.375C33.8675 58.7908 34.8712 57.2851 35.9999 55.875C36.815 54.3746 37.8236 52.9877 38.9999 51.75L41.9999 48C43.0512 47.2661 43.8397 46.2147 44.2499 45C44.6179 44.6713 44.9094 44.2659 45.1038 43.8124C45.2981 43.3588 45.3907 42.8682 45.3749 42.375C45.4294 42.1284 45.4335 41.8733 45.3869 41.6251C45.3404 41.3769 45.2442 41.1406 45.1041 40.9305C44.9641 40.7204 44.783 40.5407 44.5717 40.4023C44.3605 40.2639 44.1235 40.1696 43.8749 40.125L40.8749 39.375L35.6249 40.125L29.9999 40.875Z" fill="white"/>
<path d="M69.0004 75.375C66.5957 75.5021 64.1904 75.1352 61.933 74.2967C59.6757 73.4582 57.614 72.1661 55.8754 70.5C54.7883 69.4381 53.9541 68.1452 53.4348 66.717C52.9155 65.2889 52.7243 63.7621 52.8754 62.25C52.8754 60.7772 53.1745 59.3198 53.7547 57.9661C54.3348 56.6124 55.1839 55.3907 56.2504 54.375C58.2277 52.483 60.6963 51.1837 63.3754 50.625C60.7737 50.1528 58.4008 48.8345 56.6254 46.875C55.2456 45.1713 54.456 43.0658 54.3754 40.875C54.327 38.6603 55.1327 36.5118 56.6254 34.875C57.9929 33.2439 59.8238 32.0669 61.8754 31.5C64.1788 30.7625 66.5818 30.3831 69.0004 30.375H74.6254C76.3464 30.8966 77.9869 31.6538 79.5004 32.625C80.7949 33.4162 81.9378 34.4322 82.8754 35.625C83.6377 37.1356 84.0237 38.8081 84.0004 40.5C83.9197 42.6908 83.1302 44.7963 81.7504 46.5C79.975 48.4595 77.6021 49.7778 75.0004 50.25C78.2964 50.9408 81.2286 52.8068 83.2504 55.5C85.0571 57.8466 85.8655 60.811 85.5004 63.75C85.3866 65.3155 84.9233 66.8356 84.1445 68.1985C83.3658 69.5613 82.2914 70.7322 81.0004 71.625C77.5373 74.1916 73.3087 75.513 69.0004 75.375ZM72.7504 52.5C71.6493 51.7409 70.3374 51.3474 69.0004 51.375L65.6254 52.5C64.4817 53.306 63.6795 54.5093 63.3754 55.875C62.6136 57.2509 62.2258 58.8025 62.2504 60.375C61.8815 61.9791 61.8815 63.6459 62.2504 65.25C62.2721 66.8168 62.6572 68.3573 63.3754 69.75C63.8588 71.0316 64.6283 72.1859 65.6254 73.125L69.0004 74.25C70.3374 74.2776 71.6493 73.8841 72.7504 73.125C73.6278 72.0903 74.3828 70.9578 75.0004 69.75L76.1254 65.25C76.4943 63.6459 76.4943 61.9791 76.1254 60.375C76.15 58.8025 75.7621 57.2509 75.0004 55.875C74.6962 54.5093 73.894 53.306 72.7504 52.5ZM63.3754 41.25C63.4727 43.45 63.9815 45.6124 64.8754 47.625C65.2709 48.387 65.8607 49.0311 66.585 49.492C67.3093 49.953 68.1426 50.2144 69.0004 50.25C69.5502 50.272 70.0989 50.1839 70.6141 49.9907C71.1293 49.7975 71.6006 49.5031 72.0004 49.125C72.7504 48.75 73.1254 48 73.8754 46.875C74.6254 45.75 74.2504 45 74.6254 43.875C75.0004 42.75 75.0004 42 75.0004 40.875C75.0481 38.3721 74.3989 35.9052 73.1254 33.75C72.7024 33.0106 72.1058 32.3853 71.3871 31.928C70.6685 31.4707 69.8493 31.1951 69.0004 31.125C67.5004 31.125 66.3754 32.25 65.2504 33.75C63.9275 36.0219 63.2772 38.6229 63.3754 41.25Z" fill="white"/>
<path d="M90 40.125L87.75 31.875H121.5L119.25 40.125C118.151 38.6016 116.746 37.3244 115.125 36.375C113.285 34.8572 111.093 33.8256 108.75 33.375V59.625C108.75 68.25 109.125 72.75 109.875 73.5H99.375C100.125 72.75 100.125 68.25 100.125 59.625V33.375C96.0421 34.3204 92.443 36.7198 90 40.125Z" fill="white"/>
<path d="M141 74.25C138.275 74.1614 135.597 73.5236 133.125 72.375C130.733 71.3021 128.664 69.6213 127.125 67.5C125.437 65.5224 124.162 63.2274 123.375 60.75C122.307 58.3977 121.794 55.8318 121.875 53.25C121.703 50.2932 122.148 47.333 123.181 44.5571C124.214 41.7813 125.812 39.2504 127.875 37.125C129.912 35.1558 132.32 33.6112 134.96 32.5812C137.599 31.5511 140.417 31.0561 143.25 31.125C145.551 31.0649 147.842 31.4468 150 32.25C151.864 32.7967 153.547 33.8326 154.875 35.25C155.597 35.7517 156.181 36.4266 156.574 37.2129C156.967 37.9991 157.156 38.8715 157.125 39.75C157.03 40.9059 156.493 41.9806 155.625 42.75C155.225 43.1281 154.754 43.4224 154.238 43.6156C153.723 43.8088 153.175 43.897 152.625 43.875C152.132 43.8907 151.641 43.7982 151.187 43.6038C150.734 43.4094 150.328 43.118 150 42.75C149.51 42.424 149.114 41.9757 148.851 41.4495C148.588 40.9233 148.467 40.3374 148.5 39.75C148.737 37.7522 148.2 35.7395 147 34.125C146.366 33.4859 145.603 32.9884 144.763 32.6653C143.923 32.3421 143.024 32.2006 142.125 32.25C140.259 32.1682 138.416 32.6946 136.875 33.75C135.462 34.7071 134.303 35.9942 133.5 37.5C132.709 39.1863 132.081 40.9443 131.625 42.75C131.191 44.5958 130.939 46.4799 130.875 48.375C130.854 51.2879 131.232 54.1899 132 57C132.886 59.2432 134.018 61.3812 135.375 63.375C136.634 65.04 138.318 66.3353 140.25 67.125C141.812 68.1348 143.64 68.6569 145.5 68.625C148.05 68.627 150.538 67.8412 152.625 66.375C155.042 64.7338 156.879 62.3716 157.875 59.625C157.498 62.4469 156.471 65.1428 154.875 67.5C153.335 69.6213 151.266 71.3021 148.875 72.375C146.403 73.5236 143.724 74.1614 141 74.25Z" fill="white"/>
</svg>
