<svg width="32" height="32" viewBox="0 0 32 32" fill="none" xmlns="http://www.w3.org/2000/svg">
<path d="M21.586 2.66699H10.4127C5.55935 2.66699 2.66602 5.56033 2.66602 10.4137V21.5737C2.66602 26.4403 5.55935 29.3337 10.4127 29.3337H21.5727C26.426 29.3337 29.3193 26.4403 29.3193 21.587V10.4137C29.3327 5.56033 26.4394 2.66699 21.586 2.66699ZM22.666 23.0003H9.33268C8.78602 23.0003 8.33268 22.547 8.33268 22.0003C8.33268 21.4537 8.78602 21.0003 9.33268 21.0003H22.666C23.2127 21.0003 23.666 21.4537 23.666 22.0003C23.666 22.547 23.2127 23.0003 22.666 23.0003ZM22.666 17.0003H9.33268C8.78602 17.0003 8.33268 16.547 8.33268 16.0003C8.33268 15.4537 8.78602 15.0003 9.33268 15.0003H22.666C23.2127 15.0003 23.666 15.4537 23.666 16.0003C23.666 16.547 23.2127 17.0003 22.666 17.0003ZM22.666 11.0003H9.33268C8.78602 11.0003 8.33268 10.547 8.33268 10.0003C8.33268 9.45366 8.78602 9.00033 9.33268 9.00033H22.666C23.2127 9.00033 23.666 9.45366 23.666 10.0003C23.666 10.547 23.2127 11.0003 22.666 11.0003Z" fill="#721121"/>
</svg>
