<svg width="589" height="484" viewBox="0 0 589 484" fill="none" xmlns="http://www.w3.org/2000/svg">
<path d="M291.51 484.001C449.441 484.001 577.47 425.217 577.47 352.703C577.47 280.189 449.441 221.405 291.51 221.405C133.578 221.405 5.5498 280.189 5.5498 352.703C5.5498 425.217 133.578 484.001 291.51 484.001Z" fill="#F5F5F5"/>
<path d="M291.509 345.828C315.305 345.828 334.595 336.422 334.595 324.819C334.595 313.216 315.305 303.81 291.509 303.81C267.713 303.81 248.423 313.216 248.423 324.819C248.423 336.422 267.713 345.828 291.509 345.828Z" fill="#E0E0E0"/>
<path d="M452.193 401.972C489.809 401.972 520.303 387.108 520.303 368.772C520.303 350.436 489.809 335.572 452.193 335.572C414.576 335.572 384.082 350.436 384.082 368.772C384.082 387.108 414.576 401.972 452.193 401.972Z" fill="#E0E0E0"/>
<path d="M117.961 405.561C155.578 405.561 186.072 390.697 186.072 372.361C186.072 354.025 155.578 339.161 117.961 339.161C80.3448 339.161 49.8506 354.025 49.8506 372.361C49.8506 390.697 80.3448 405.561 117.961 405.561Z" fill="#E0E0E0"/>
<path d="M553.918 345.18L541.053 340.739C539.437 331.35 538.505 321.887 538.263 312.402C538.263 294.656 551.357 272.955 567.972 276.586C584.587 280.218 563.287 300.071 559.831 315.406C556.375 330.742 553.918 345.18 553.918 345.18Z" fill="#721121"/>
<path opacity="0.3" d="M553.918 345.18L541.053 340.739C539.437 331.35 538.505 321.887 538.263 312.402C538.263 294.656 551.357 272.955 567.972 276.586C584.587 280.218 563.287 300.071 559.831 315.406C556.375 330.742 553.918 345.18 553.918 345.18Z" fill="black"/>
<path d="M547.684 343.809C547.824 343.792 547.952 343.73 548.038 343.635C548.124 343.54 548.163 343.419 548.145 343.301C542.013 304.394 562.737 282.78 562.942 282.596C563.033 282.503 563.077 282.383 563.064 282.262C563.051 282.142 562.982 282.03 562.871 281.953C562.761 281.876 562.619 281.838 562.476 281.85C562.333 281.861 562.201 281.919 562.11 282.012C561.905 282.229 540.874 304.103 547.069 343.419C547.079 343.479 547.102 343.537 547.138 343.589C547.174 343.641 547.222 343.687 547.28 343.723C547.337 343.759 547.402 343.785 547.472 343.8C547.541 343.815 547.613 343.818 547.684 343.809Z" fill="white"/>
<path d="M560.522 347.774L553.802 345.202C551.79 336.46 552.096 327.451 554.698 318.821C559.012 304.837 573.374 296.212 580.606 297.639C589.451 299.379 590.309 306.285 587.723 311.094C584.638 316.789 563.364 332.211 560.522 347.774Z" fill="#721121"/>
<path opacity="0.1" d="M560.522 347.774L553.802 345.202C551.79 336.46 552.096 327.451 554.698 318.821C559.012 304.837 573.374 296.212 580.606 297.639C589.451 299.379 590.309 306.285 587.723 311.094C584.638 316.789 563.364 332.211 560.522 347.774Z" fill="black"/>
<path d="M557.029 346.878C557.173 346.864 557.304 346.803 557.395 346.708C557.486 346.613 557.53 346.492 557.515 346.37C554.494 321.686 580.005 302.709 580.274 302.525C580.371 302.437 580.425 302.321 580.425 302.201C580.425 302.08 580.371 301.965 580.274 301.876C580.224 301.833 580.164 301.799 580.098 301.776C580.032 301.752 579.962 301.74 579.89 301.74C579.819 301.74 579.748 301.752 579.682 301.776C579.616 301.799 579.556 301.833 579.506 301.876C579.237 302.071 553.317 321.33 556.376 346.511C556.407 346.631 556.492 346.737 556.614 346.806C556.736 346.875 556.885 346.9 557.029 346.878Z" fill="white"/>
<path d="M43.1843 335.238L52.0166 330.98C52.0166 330.98 56.2407 311.3 53.079 294.376C48.6245 270.6 29.4367 262.376 22.4733 264.743C15.5099 267.109 13.8715 274.156 26.4542 287.903C33.8785 296.008 43.4275 313.159 43.1843 335.238Z" fill="#721121"/>
<g opacity="0.15">
<path d="M43.1843 335.238L52.0166 330.98C52.0166 330.98 56.2407 311.3 53.079 294.376C48.6245 270.6 29.4367 262.376 22.4733 264.743C15.5099 267.109 13.8715 274.156 26.4542 287.903C33.8785 296.008 43.4275 313.159 43.1843 335.238Z" fill="black"/>
</g>
<path d="M46.383 325.793H46.2934C46.2124 325.783 46.1343 325.761 46.0639 325.726C45.9934 325.691 45.9319 325.644 45.883 325.589C45.8342 325.533 45.7989 325.47 45.7792 325.403C45.7596 325.336 45.756 325.266 45.7686 325.198C49.4039 302.924 38.8052 278.522 26.8753 268.687C26.8012 268.641 26.7396 268.583 26.6946 268.515C26.6497 268.448 26.6224 268.373 26.6146 268.296C26.6068 268.219 26.6188 268.141 26.6496 268.069C26.6805 267.996 26.7295 267.929 26.7933 267.874C26.8572 267.818 26.9345 267.775 27.0199 267.747C27.1053 267.719 27.1968 267.706 27.2883 267.711C27.3799 267.715 27.4692 267.736 27.5503 267.772C27.6314 267.808 27.7024 267.858 27.7585 267.92C39.8933 277.884 50.7096 302.741 47.0231 325.328C47.0013 325.458 46.9244 325.577 46.8067 325.662C46.6889 325.748 46.5383 325.794 46.383 325.793Z" fill="white"/>
<path d="M18.7093 347.182C17.3141 347.852 14.4468 346.382 13.3459 345.755C11.4577 344.656 9.93323 343.168 8.91703 341.432C7.78218 339.472 7.39747 337.263 7.8162 335.11C8.03778 333.972 8.35431 332.849 8.76342 331.749L9.87705 328.507C10.3158 327.468 10.5072 326.366 10.4403 325.264C10.1075 323.027 7.75219 321.471 5.62733 320.12C3.25927 318.629 0.814398 316.662 0.827198 313.971C0.992359 311.886 1.97919 309.908 3.63048 308.351C5.14092 306.719 6.94577 305.282 8.32821 303.563C9.41181 302.357 9.96806 300.872 9.90265 299.359C9.75602 298.439 9.39027 297.553 8.82742 296.755C7.53249 295.093 6.40222 293.343 5.44813 291.524C4.66731 289.644 4.78251 287.309 6.52336 285.958C7.29806 285.47 8.18065 285.117 9.11927 284.92C10.0579 284.723 11.0336 284.687 11.9891 284.813C13.8067 284.994 15.5548 285.51 17.1093 286.326C22.1654 288.693 25.0455 293.75 30.4088 295.577C32.5323 296.135 34.6956 296.579 36.8858 296.906C37.9851 297.078 39.0294 297.443 39.951 297.977C40.8727 298.512 41.6513 299.203 42.2364 300.008C44.2076 303.326 40.5595 307.411 41.942 310.934C43.222 314.047 46.7549 315.257 48.7645 318.056C49.5884 319.294 49.9204 320.722 49.7118 322.13C49.5331 324.514 48.8435 326.85 47.6765 329.025C46.3635 331.188 44.8617 333.265 43.1836 335.24C43.1068 335.315 18.9269 347.052 18.7093 347.182Z" fill="#721121"/>
<path d="M33.0326 340.741C32.9485 340.738 32.8659 340.721 32.7895 340.691C32.7131 340.662 32.6444 340.62 32.5873 340.567C32.5303 340.515 32.486 340.454 32.4569 340.387C32.4279 340.321 32.4147 340.25 32.4181 340.179C33.455 319.105 21.6914 295.869 13.1408 289.06C13.0243 288.961 12.959 288.827 12.959 288.687C12.959 288.548 13.0243 288.414 13.1408 288.315C13.2604 288.216 13.4213 288.16 13.5888 288.16C13.7563 288.16 13.9172 288.216 14.0368 288.315C22.7027 295.177 34.7222 318.845 33.6598 340.233C33.6532 340.369 33.5842 340.499 33.4673 340.593C33.3503 340.688 33.1946 340.741 33.0326 340.741Z" fill="white"/>
<path d="M29.2951 315.83H29.1031C23.1888 314.457 17.1161 313.627 10.9906 313.355C10.8209 313.355 10.6581 313.298 10.538 313.197C10.418 313.096 10.3506 312.958 10.3506 312.815C10.3506 312.671 10.418 312.534 10.538 312.433C10.6581 312.331 10.8209 312.274 10.9906 312.274C17.2246 312.548 23.405 313.392 29.4231 314.792C29.5022 314.812 29.5758 314.845 29.6398 314.889C29.7039 314.933 29.757 314.987 29.7962 315.048C29.8355 315.109 29.86 315.177 29.8685 315.246C29.8769 315.315 29.8691 315.385 29.8455 315.452C29.8082 315.554 29.7361 315.644 29.6381 315.711C29.5402 315.778 29.4208 315.82 29.2951 315.83Z" fill="white"/>
<path d="M485.859 361.922L473.929 360.766L470.844 340.47L485.423 344.123L485.859 361.922Z" fill="#B16668"/>
<path d="M459.72 378.479C459.548 378.879 459.477 379.305 459.513 379.729C459.548 380.154 459.689 380.567 459.925 380.943C461.205 382.197 464.508 383.667 469.014 383.937C473.327 384.196 477.167 383.71 479.689 382.359C480.786 381.88 481.724 381.18 482.421 380.32C483.118 379.46 483.552 378.467 483.683 377.431C483.926 375.367 483.683 373.367 484.822 371.779C485.961 370.19 487.612 368.644 487.984 367.845C488.427 366.465 488.427 365.01 487.984 363.63L459.72 378.479Z" fill="#263238"/>
<path d="M471.508 360.409C471.47 361.192 471.302 361.967 471.009 362.711C470.349 364.311 469.464 365.839 468.372 367.261C467.836 368.016 467.237 368.738 466.58 369.422C465.3 370.73 463.662 371.81 462.279 373.064C460.813 374.246 459.873 375.818 459.617 377.517C459.437 380.37 464.814 381.342 467.643 381.764C470.694 382.214 473.825 382.081 476.808 381.375C478.374 381.031 479.789 380.312 480.883 379.306C481.977 378.299 482.704 377.048 482.977 375.701C483.144 374.901 483.08 374.091 483.195 373.302C483.567 371.48 484.469 369.765 485.819 368.309C486.603 367.469 487.277 366.559 487.829 365.596C488.712 363.835 488.008 361.846 487.445 360.095C486.958 358.572 486.369 356.853 485.729 356.972C485.729 357.761 485.729 357.869 485.102 358.399C484.475 358.928 484.232 360.095 483.336 360.69C483.622 360.031 483.832 359.351 483.963 358.658C484.019 358.381 483.95 358.096 483.771 357.858C483.474 357.634 483.119 357.471 482.734 357.383C481.403 357.007 480.031 356.742 478.638 356.594C476.737 356.41 474.817 356.41 472.916 356.594C472.52 356.653 472.162 356.83 471.905 357.091C471.675 357.378 471.55 357.717 471.547 358.064C471.483 358.474 471.534 359.652 471.508 360.409Z" fill="#455A64"/>
<path d="M467.912 367.866C469.192 367.066 473.711 367.055 475.247 367.196C476.812 367.309 478.318 367.755 479.624 368.492C479.816 368.607 480.049 368.662 480.283 368.646C480.517 368.63 480.737 368.545 480.904 368.406C481.001 368.325 481.076 368.227 481.124 368.119C481.172 368.011 481.192 367.896 481.182 367.781C481.173 367.666 481.134 367.554 481.068 367.453C481.002 367.352 480.912 367.264 480.802 367.196C479.367 366.302 477.664 365.766 475.887 365.65C473.669 365.513 471.44 365.622 469.256 365.974C469.256 365.974 467.541 366.915 467.912 367.866Z" fill="#F5F5F5"/>
<path d="M465.021 370.827C466.608 370.038 471.421 370.146 472.97 370.286C474.505 370.419 475.971 370.893 477.219 371.659C477.411 371.772 477.644 371.825 477.878 371.809C478.111 371.793 478.331 371.71 478.499 371.572C478.596 371.491 478.671 371.393 478.719 371.285C478.767 371.178 478.787 371.062 478.777 370.947C478.768 370.832 478.729 370.721 478.663 370.619C478.597 370.518 478.507 370.431 478.397 370.362C476.297 369.443 474.006 368.878 471.651 368.698C467.811 368.471 466.877 369.119 466.877 369.119C466.436 369.269 466.041 369.5 465.72 369.796C465.399 370.091 465.16 370.443 465.021 370.827Z" fill="#F5F5F5"/>
<path d="M477.396 362.592C475.231 362.383 473.038 362.496 470.919 362.927C470.254 363.24 469.806 364.137 470.241 364.364C472.175 363.924 474.182 363.756 476.18 363.867C477.599 363.987 478.984 364.309 480.276 364.818C480.609 364.948 480.993 365.11 481.326 365.272C481.433 365.33 481.553 365.367 481.679 365.382C481.805 365.396 481.932 365.388 482.054 365.357C482.175 365.327 482.287 365.274 482.383 365.203C482.478 365.133 482.554 365.046 482.606 364.948C482.697 364.789 482.715 364.606 482.656 364.437C482.597 364.267 482.465 364.122 482.286 364.029C480.796 363.261 479.129 362.771 477.396 362.592Z" fill="#F5F5F5"/>
<path d="M441.377 352.692L430.036 350.023V330.667L444.104 331.186L441.377 352.692Z" fill="#B16668"/>
<path d="M406.074 363.058C405.754 363.892 405.814 364.798 406.241 365.597C406.663 366.332 411.258 368.526 417.454 368.17C422.043 367.892 426.461 366.586 430.254 364.387C432.609 363.068 435.067 362.82 438.139 362.679C441.211 362.539 445.231 361.231 445.909 360.021C446.255 358.937 446.219 357.792 445.807 356.725L406.074 363.058Z" fill="#263238"/>
<path d="M431.035 346.737L430.549 346.651C430.279 346.597 429.999 346.597 429.73 346.651C429.432 346.733 429.166 346.883 428.962 347.083C428.357 347.741 427.83 348.446 427.387 349.19C426.107 350.974 423.355 352.433 420.385 353.805C418.363 354.724 416.379 355.437 414.292 356.226C412.206 357.015 409.326 357.534 407.662 358.485C405.23 359.868 404.91 363.337 407.662 364.71C410.043 365.898 416.34 367.185 422.933 365.607C426.517 364.742 430.51 361.511 435.221 361.197C438.216 360.992 443.887 360.289 445.82 358.366C446.536 357.512 445.576 354.81 444.796 352.476C443.938 349.925 443.132 345.991 442.133 346.175C442.142 346.358 442.099 346.539 442.007 346.704C441.916 346.87 441.779 347.014 441.608 347.126C441.237 347.45 440.738 347.656 440.328 347.948C439.629 348.528 439.065 349.213 438.664 349.969C438.501 350.305 438.202 350.581 437.819 350.747C437.307 350.898 436.936 350.639 436.539 350.466C435.977 350.248 435.34 350.21 434.747 350.358C434.809 349.851 434.916 349.349 435.067 348.855C435.124 348.701 435.124 348.535 435.067 348.38C434.995 348.223 434.859 348.093 434.683 348.012C433.586 347.377 432.343 346.942 431.035 346.737Z" fill="#455A64"/>
<path d="M423.225 352.389C423.439 352.039 423.754 351.741 424.141 351.522C424.528 351.303 424.975 351.17 425.439 351.135C426.796 350.919 429.202 351.773 430.7 352.81C430.843 352.907 430.955 353.031 431.028 353.173C431.1 353.315 431.13 353.469 431.115 353.623C431.1 353.777 431.04 353.925 430.941 354.055C430.842 354.185 430.706 354.292 430.546 354.367C430.345 354.463 430.113 354.503 429.884 354.482C429.654 354.46 429.438 354.379 429.266 354.248C427.614 352.99 425.448 352.324 423.225 352.389Z" fill="#F5F5F5"/>
<path d="M418.988 354.389C419.285 354.034 419.679 353.746 420.135 353.546C420.592 353.347 421.098 353.243 421.612 353.243C423.717 353.321 425.738 353.961 427.385 355.07C427.52 355.164 427.626 355.285 427.693 355.422C427.761 355.559 427.788 355.707 427.773 355.855C427.758 356.002 427.701 356.144 427.607 356.269C427.512 356.394 427.384 356.498 427.232 356.572C427.032 356.673 426.799 356.716 426.568 356.695C426.337 356.673 426.12 356.588 425.952 356.453C425.046 355.693 423.951 355.113 422.746 354.756C421.542 354.399 420.258 354.273 418.988 354.389Z" fill="#F5F5F5"/>
<path d="M414.395 356.184C414.732 355.858 415.15 355.597 415.618 355.42C416.087 355.243 416.595 355.153 417.108 355.157C419.135 355.263 421.07 355.906 422.638 356.995C422.773 357.091 422.878 357.212 422.946 357.35C423.013 357.487 423.04 357.636 423.025 357.785C423.01 357.933 422.953 358.076 422.859 358.202C422.765 358.328 422.637 358.433 422.484 358.508C422.285 358.609 422.052 358.652 421.821 358.631C421.589 358.609 421.373 358.524 421.204 358.389C420.349 357.602 419.288 356.993 418.107 356.61C416.925 356.228 415.654 356.082 414.395 356.184Z" fill="#F5F5F5"/>
<path d="M483.246 226.41C484.027 246.371 484.078 289.6 484.078 289.6C484.321 292.086 484.577 296.495 484.795 305.444C485.115 318.413 485.857 350.435 485.857 350.435C485.857 350.435 478.523 353.342 471.777 350.975C471.777 350.975 462.407 305.952 460.487 293.113C458.81 281.906 455.597 255.622 455.597 255.622L451.168 288.984C451.168 288.984 451.168 297.63 450.567 305.26C450.068 311.204 443.232 341.821 443.232 341.821C438.768 342.823 434.053 342.691 429.677 341.443C429.677 341.443 429.062 294.442 428.934 288.984C428.793 282.781 430.688 215.711 430.688 215.711L483.246 226.41Z" fill="#FFC07F"/>
<path d="M455.623 255.622L453.934 244.307C448.477 243.129 443.317 241.13 438.701 238.406C438.701 238.406 441.952 242.081 451.502 245.971L453.652 256.238L451.22 288.984L455.623 255.622Z" fill="#37474F"/>
<path d="M430.087 170.396C426.631 174.222 408.851 194.821 408.851 194.821L392.428 184.078C388.588 181.539 387.449 178.21 385.042 175.908C382.636 173.606 379.999 173.055 377.298 171.131C374.597 169.208 373.56 167.749 372.639 169.391C371.717 171.034 374.7 173.898 375.199 174.59C375.698 175.281 378.783 176.935 374.712 176.751C370.642 176.567 362.808 172.644 360.914 171.92C359.019 171.196 358.968 173.174 359.864 174.471C360.76 175.768 360.312 179.377 361.362 181.701C362.411 184.024 364.255 185.451 368.005 187.018C371.5 188.488 379.999 189.406 382.764 190.876C388.831 196.128 400.275 205.931 403.168 207.746C407.149 210.243 411.001 212.545 417.094 207.595C423.187 202.645 440.839 183.225 440.839 183.225L444.487 164.755C438.497 164.571 434.26 165.782 430.087 170.396Z" fill="#B16668"/>
<path d="M408.851 194.818C411.103 196.223 413.446 199.379 413.663 200.795C413.637 199.453 413.282 198.131 412.622 196.911C411.961 195.691 411.008 194.599 409.823 193.705L408.851 194.818Z" fill="#9A4A4D"/>
<path d="M445.894 164.298C445.894 164.298 437.445 164.212 433.733 166.406C430.021 168.6 427.269 171.809 421.24 179.212C415.954 185.697 413.394 188.809 413.394 188.809C416.854 193.131 421.893 196.38 427.743 198.06L443.513 181.568L445.894 164.298Z" fill="#37474F"/>
<path d="M462.241 163.953C467.028 164.342 473.761 164.386 478.497 164.796C481.787 165.942 488.136 170.611 487.662 173.939C485.896 186.378 482.325 206.772 482.325 206.772L483.502 228.386C476.91 233.941 446.061 236.113 430.163 227.23C430.163 227.23 430.675 188.41 431.776 181.839C433.734 170.07 435.45 165.704 442.643 164.667C449.837 163.629 462.241 163.953 462.241 163.953Z" fill="#721121"/>
<path d="M489.352 170.709C492.808 174.535 510.601 195.133 510.601 195.133L527.037 184.391C530.877 181.84 532.016 178.512 534.422 176.221C536.829 173.929 539.466 173.367 542.167 171.444C544.868 169.52 545.904 168.061 546.826 169.693C547.748 171.325 544.765 174.21 544.266 174.902C543.767 175.594 540.682 177.247 544.752 177.064C548.823 176.88 556.644 172.946 558.551 172.222C560.458 171.498 560.484 173.475 559.601 174.772C558.718 176.069 559.14 179.69 558.103 182.013C557.066 184.337 555.21 185.753 551.46 187.33C547.965 188.8 539.466 189.719 536.701 191.189C530.634 196.43 519.19 206.243 516.297 208.048C512.316 210.544 508.463 212.846 502.37 207.907C496.277 202.969 482.351 187.59 482.351 187.59L474.978 165.067C480.955 164.884 485.192 166.094 489.352 170.709Z" fill="#B16668"/>
<path d="M510.602 195.132C508.349 196.537 506.007 199.692 505.789 201.108C505.814 199.765 506.168 198.441 506.829 197.219C507.489 195.996 508.443 194.903 509.629 194.008L510.602 195.132Z" fill="#9A4A4D"/>
<path d="M474.133 164.526C474.133 164.526 481.724 164.126 485.718 166.687C489.314 169.021 492.118 172.091 498.211 179.494C503.497 185.978 506.057 189.091 506.057 189.091C502.589 193.411 497.547 196.659 491.695 198.342L480.956 187.167C475.362 181.18 469.819 172.069 474.133 164.526Z" fill="#37474F"/>
<path d="M463.431 134.687C463.456 137.166 462.61 139.596 460.999 141.669C459.389 143.743 457.086 145.366 454.383 146.335C451.679 147.303 448.697 147.573 445.812 147.11C442.926 146.648 440.269 145.473 438.174 143.735C436.08 141.997 434.643 139.774 434.045 137.346C433.447 134.918 433.716 132.396 434.816 130.097C435.916 127.798 437.799 125.826 440.227 124.431C442.655 123.036 445.518 122.28 448.454 122.258C450.404 122.244 452.338 122.554 454.146 123.171C455.954 123.788 457.601 124.699 458.991 125.854C460.382 127.008 461.49 128.382 462.252 129.897C463.013 131.413 463.414 133.04 463.431 134.687Z" fill="#263238"/>
<path d="M474.349 143.527C474.349 143.527 472.032 153.092 471.085 154.659C470.454 155.632 469.405 156.363 468.153 156.701L468.243 149.979L474.349 143.527Z" fill="#263238"/>
<path d="M471.188 129.879C472.027 129.788 472.88 129.86 473.681 130.091C474.482 130.321 475.21 130.703 475.809 131.208C477.806 132.905 476.756 138.265 474.35 143.528L469.818 144.004L471.188 129.879Z" fill="#263238"/>
<path d="M468.463 144.015C469.372 144.469 470.652 142.934 471.765 141.983C472.879 141.032 476.514 139.606 478.383 142.837C480.252 146.069 476.847 150.532 473.98 151.31C469.026 152.672 468.245 149.981 468.245 149.981L468.04 165.565C461.947 172.298 444.808 171.855 451.873 164.83V160.226C449.667 160.539 447.427 160.651 445.192 160.561C441.531 160.118 439.214 157.697 438.062 154.369C436.231 149.03 435.502 144.707 436.91 134.148C438.446 122.584 454.357 122.347 462.997 126.853C471.637 131.36 468.463 144.015 468.463 144.015Z" fill="#B16668"/>
<path d="M468.476 145.3C468.924 145.3 470.639 142.858 471.765 141.982C473.314 140.761 471.189 129.878 471.189 129.878C471.721 128.913 471.895 127.834 471.69 126.783C471.484 125.732 470.908 124.758 470.037 123.988C467.874 122.011 464.853 119.601 455.125 120.638C448.174 121.384 440.635 123.275 434.503 120.789C433.957 122.475 434.019 124.259 434.68 125.915C435.342 127.57 436.572 129.022 438.215 130.084C438.215 130.084 440.443 131.272 446.267 131.824C451.637 132.122 457.028 131.995 462.37 131.445C464.059 131.24 464.431 132.613 465.378 136.384C466.21 139.681 466.939 145.29 468.476 145.3Z" fill="#263238"/>
<path d="M471.188 130.72L476.654 128.192C476.476 127.879 476.226 127.601 475.917 127.373C475.607 127.145 475.247 126.973 474.856 126.867C474.466 126.761 474.054 126.723 473.645 126.755C473.237 126.788 472.841 126.891 472.481 127.057C471.748 127.41 471.205 127.987 470.965 128.67C470.724 129.352 470.804 130.087 471.188 130.72Z" fill="#263238"/>
<path d="M451.835 160.224C451.835 160.224 459.976 158.776 462.805 157.479C464.473 156.73 465.833 155.574 466.709 154.161C466.296 155.569 465.552 156.892 464.52 158.052C462.459 160.321 451.861 162.05 451.861 162.05L451.835 160.224Z" fill="#9A4A4D"/>
<path d="M451.181 142.912C451.177 143.096 451.217 143.279 451.298 143.45C451.379 143.621 451.499 143.776 451.651 143.908C451.803 144.04 451.985 144.145 452.185 144.217C452.386 144.289 452.601 144.326 452.819 144.328C453.16 144.339 453.496 144.263 453.785 144.111C454.073 143.959 454.302 143.737 454.44 143.474C454.578 143.211 454.619 142.919 454.559 142.637C454.498 142.354 454.339 142.093 454.101 141.887C453.863 141.681 453.557 141.541 453.224 141.483C452.89 141.426 452.544 141.454 452.229 141.564C451.915 141.675 451.647 141.862 451.46 142.102C451.273 142.343 451.176 142.625 451.181 142.912Z" fill="#263238"/>
<path d="M456.034 138.168L452.399 136.773C452.187 137.193 452.176 137.666 452.367 138.092C452.557 138.519 452.936 138.867 453.423 139.065C453.663 139.155 453.923 139.203 454.186 139.206C454.449 139.209 454.71 139.168 454.954 139.084C455.198 139.001 455.419 138.876 455.605 138.719C455.79 138.561 455.936 138.374 456.034 138.168Z" fill="#263238"/>
<path d="M440.48 136.472L437.318 138.568C437.468 138.75 437.66 138.904 437.883 139.02C438.106 139.137 438.355 139.213 438.614 139.244C438.874 139.276 439.138 139.262 439.391 139.203C439.644 139.144 439.879 139.042 440.083 138.903C440.503 138.616 440.778 138.205 440.851 137.754C440.925 137.302 440.792 136.844 440.48 136.472Z" fill="#263238"/>
<path d="M438.573 142.576C438.588 142.834 438.693 143.082 438.874 143.291C439.055 143.499 439.304 143.658 439.591 143.748C439.879 143.837 440.19 143.854 440.488 143.795C440.786 143.736 441.057 143.604 441.268 143.417C441.478 143.229 441.618 142.993 441.671 142.739C441.724 142.484 441.687 142.222 441.565 141.985C441.443 141.748 441.241 141.547 440.984 141.406C440.728 141.265 440.428 141.191 440.122 141.192C439.912 141.197 439.706 141.236 439.514 141.308C439.323 141.38 439.15 141.483 439.006 141.612C438.862 141.74 438.75 141.892 438.675 142.057C438.601 142.223 438.566 142.399 438.573 142.576Z" fill="#263238"/>
<path d="M447.047 141.464L446.125 149.731L441.069 148.089L447.047 141.464Z" fill="#9A4A4D"/>
<path d="M449.824 152.834C449.822 153.097 449.912 153.356 450.083 153.576C450.255 153.796 450.5 153.968 450.787 154.07C451.075 154.172 451.392 154.2 451.698 154.15C452.004 154.1 452.286 153.974 452.507 153.789C452.729 153.603 452.88 153.366 452.942 153.108C453.004 152.85 452.973 152.582 452.855 152.339C452.736 152.095 452.534 151.887 452.275 151.74C452.016 151.594 451.711 151.516 451.399 151.516C450.983 151.516 450.585 151.654 450.29 151.901C449.995 152.148 449.828 152.483 449.824 152.834Z" fill="#9A4A4D"/>
<path d="M489.788 64.7859C492.229 65.2448 494.581 65.9906 496.777 67.0014C498.876 67.9556 500.758 69.2182 502.332 70.7299C503.847 72.1946 504.965 73.9206 505.609 75.7877C506.282 77.7669 506.335 79.8598 505.763 81.8614C505.384 83.4503 504.635 84.9599 503.561 86.3032C502.596 87.4589 501.436 88.4892 500.118 89.3616C498.828 90.2069 497.453 90.9554 496.009 91.5988L491.938 93.4144C490.71 93.9558 489.545 94.5925 488.457 95.3165C487.474 95.9462 486.72 96.7961 486.28 97.7697C486.06 98.2038 485.701 98.5778 485.244 98.8504C485.024 98.992 484.77 99.0898 484.5 99.1366C484.229 99.1834 483.95 99.1779 483.682 99.1206L477.691 98.0399C477.404 97.9887 477.131 97.8897 476.89 97.7487C476.648 97.6077 476.442 97.4275 476.283 97.2185C476.116 97.0229 476.005 96.7966 475.961 96.5581C475.916 96.3197 475.939 96.0757 476.027 95.846C476.526 94.2739 477.397 92.8033 478.587 91.5231C479.66 90.3932 480.899 89.3836 482.274 88.5187C483.602 87.6981 485.011 86.975 486.485 86.3572C487.945 85.7412 489.301 85.1468 490.556 84.5632C491.703 84.0516 492.78 83.4355 493.769 82.726C494.631 82.1132 495.229 81.2775 495.471 80.3484C495.692 79.5369 495.678 78.6923 495.428 77.8868C495.178 77.0813 494.701 76.3388 494.038 75.7229C492.383 74.1957 490.17 73.18 487.753 72.8373C483.281 71.9943 479.501 73.266 476.411 76.6523C476.115 77.023 475.737 77.3422 475.298 77.5925C475.06 77.6947 474.801 77.7559 474.535 77.7726C474.269 77.7893 474.002 77.7611 473.749 77.6898L467.349 76.4902C467.123 76.4535 466.908 76.3791 466.717 76.2715C466.526 76.1639 466.362 76.0251 466.235 75.8634C466.096 75.6978 466.002 75.5082 465.96 75.3082C465.918 75.1083 465.929 74.9029 465.992 74.707C466.53 73.046 467.541 71.5212 468.936 70.2652C470.502 68.8056 472.361 67.591 474.427 66.6772C476.692 65.6734 479.134 64.9872 481.66 64.6454C484.354 64.2452 487.115 64.2929 489.788 64.7859ZM483.029 103.195C483.31 103.246 483.576 103.345 483.809 103.486C484.043 103.627 484.239 103.808 484.386 104.016C484.544 104.218 484.651 104.445 484.701 104.682C484.752 104.92 484.745 105.164 484.68 105.4L483.144 111.257C483.016 111.725 482.677 112.132 482.199 112.392C481.721 112.652 481.142 112.745 480.584 112.651L473.8 111.387C473.521 111.336 473.257 111.238 473.023 111.099C472.79 110.96 472.593 110.782 472.443 110.576C472.284 110.375 472.175 110.149 472.124 109.911C472.074 109.673 472.082 109.428 472.149 109.193L473.685 103.325C473.814 102.857 474.153 102.45 474.631 102.19C475.108 101.93 475.687 101.837 476.245 101.931L483.029 103.195Z" fill="#721121"/>
<path d="M509.909 119.893C511.602 119.657 513.326 119.628 515.029 119.806C516.666 119.963 518.257 120.366 519.727 120.995C521.13 121.601 522.362 122.457 523.337 123.503C524.37 124.623 525.037 125.954 525.27 127.361C525.535 128.455 525.535 129.584 525.27 130.679C525.003 131.631 524.572 132.545 523.989 133.391C523.419 134.207 522.768 134.981 522.044 135.704L519.983 137.757C519.363 138.372 518.806 139.03 518.319 139.724C517.885 140.342 517.664 141.049 517.679 141.767C517.677 142.104 517.561 142.434 517.346 142.718C517.248 142.854 517.116 142.97 516.959 143.058C516.802 143.145 516.624 143.203 516.437 143.226L512.252 143.809C511.847 143.863 511.434 143.782 511.099 143.582C510.935 143.492 510.798 143.371 510.698 143.228C510.598 143.086 510.539 142.926 510.524 142.761C510.348 141.653 510.449 140.527 510.818 139.454C511.15 138.491 511.637 137.571 512.264 136.72C512.864 135.905 513.544 135.135 514.3 134.418C515.055 133.705 515.733 133.035 516.373 132.386C516.95 131.81 517.452 131.183 517.871 130.516C518.238 129.938 518.368 129.273 518.242 128.625C518.138 128.056 517.871 127.516 517.466 127.053C517.06 126.59 516.527 126.217 515.912 125.967C514.395 125.341 512.672 125.166 511.023 125.469C509.53 125.655 508.142 126.225 507.047 127.101C505.952 127.977 505.204 129.117 504.904 130.365C504.823 130.67 504.675 130.959 504.469 131.219C504.221 131.449 503.877 131.588 503.509 131.608L499.054 132.224C498.738 132.268 498.414 132.21 498.146 132.062C498.005 131.985 497.887 131.884 497.798 131.764C497.71 131.645 497.654 131.51 497.634 131.37C497.479 130.19 497.668 128.995 498.184 127.89C498.74 126.613 499.563 125.43 500.616 124.4C501.764 123.268 503.122 122.301 504.635 121.536C506.25 120.704 508.042 120.146 509.909 119.893ZM517.218 146.036C517.414 146.008 517.615 146.014 517.809 146.053C518.002 146.092 518.184 146.163 518.345 146.263C518.505 146.359 518.64 146.481 518.744 146.622C518.847 146.763 518.916 146.92 518.946 147.084L519.74 151.169C519.773 151.335 519.766 151.504 519.72 151.668C519.674 151.831 519.589 151.985 519.471 152.12C519.359 152.257 519.215 152.372 519.047 152.46C518.88 152.547 518.693 152.604 518.498 152.628L513.762 153.287C513.568 153.314 513.369 153.308 513.178 153.269C512.987 153.23 512.807 153.159 512.648 153.06C512.484 152.967 512.345 152.845 512.239 152.704C512.134 152.563 512.064 152.404 512.034 152.239L511.24 148.143C511.182 147.806 511.283 147.464 511.523 147.19C511.763 146.917 512.122 146.735 512.52 146.684L517.218 146.036Z" fill="#721121"/>
<g opacity="0.2">
<path d="M509.909 119.893C511.602 119.657 513.326 119.628 515.029 119.806C516.666 119.963 518.257 120.366 519.727 120.995C521.13 121.601 522.362 122.457 523.337 123.503C524.37 124.623 525.037 125.954 525.27 127.361C525.535 128.455 525.535 129.584 525.27 130.679C525.003 131.631 524.572 132.545 523.989 133.391C523.419 134.207 522.768 134.981 522.044 135.704L519.983 137.757C519.363 138.372 518.806 139.03 518.319 139.724C517.885 140.342 517.664 141.049 517.679 141.767C517.677 142.104 517.561 142.434 517.346 142.718C517.248 142.854 517.116 142.97 516.959 143.058C516.802 143.145 516.624 143.203 516.437 143.226L512.252 143.809C511.847 143.863 511.434 143.782 511.099 143.582C510.935 143.492 510.798 143.371 510.698 143.228C510.598 143.086 510.539 142.926 510.524 142.761C510.348 141.653 510.449 140.527 510.818 139.454C511.15 138.491 511.637 137.571 512.264 136.72C512.864 135.905 513.544 135.135 514.3 134.418C515.055 133.705 515.733 133.035 516.373 132.386C516.95 131.81 517.452 131.183 517.871 130.516C518.238 129.938 518.368 129.273 518.242 128.625C518.138 128.056 517.871 127.516 517.466 127.053C517.06 126.59 516.527 126.217 515.912 125.967C514.395 125.341 512.672 125.166 511.023 125.469C509.53 125.655 508.142 126.225 507.047 127.101C505.952 127.977 505.204 129.117 504.904 130.365C504.823 130.67 504.675 130.959 504.469 131.219C504.221 131.449 503.877 131.588 503.509 131.608L499.054 132.224C498.738 132.268 498.414 132.21 498.146 132.062C498.005 131.985 497.887 131.884 497.798 131.764C497.71 131.645 497.654 131.51 497.634 131.37C497.479 130.19 497.668 128.995 498.184 127.89C498.74 126.613 499.563 125.43 500.616 124.4C501.764 123.268 503.122 122.301 504.635 121.536C506.25 120.704 508.042 120.146 509.909 119.893ZM517.218 146.036C517.414 146.008 517.615 146.014 517.809 146.053C518.002 146.092 518.184 146.163 518.345 146.263C518.505 146.359 518.64 146.481 518.744 146.622C518.847 146.763 518.916 146.92 518.946 147.084L519.74 151.169C519.773 151.335 519.766 151.504 519.72 151.668C519.674 151.831 519.589 151.985 519.471 152.12C519.359 152.257 519.215 152.372 519.047 152.46C518.88 152.547 518.693 152.604 518.498 152.628L513.762 153.287C513.568 153.314 513.369 153.308 513.178 153.269C512.987 153.23 512.807 153.159 512.648 153.06C512.484 152.967 512.345 152.845 512.239 152.704C512.134 152.563 512.064 152.404 512.034 152.239L511.24 148.143C511.182 147.806 511.283 147.464 511.523 147.19C511.763 146.917 512.122 146.735 512.52 146.684L517.218 146.036Z" fill="#721121" fill-opacity="0.5"/>
</g>
<path d="M553.559 131.488C553.939 131.722 554.196 132.073 554.275 132.464C554.354 132.856 554.248 133.258 553.981 133.585L550.602 137.584C550.325 137.905 549.91 138.122 549.446 138.188C548.982 138.255 548.506 138.166 548.118 137.94L543.485 135.163C543.294 135.05 543.132 134.906 543.009 134.738C542.885 134.571 542.804 134.385 542.768 134.19C542.701 133.811 542.806 133.425 543.062 133.109L546.442 129.1C546.716 128.778 547.13 128.56 547.594 128.495C548.044 128.438 548.503 128.531 548.874 128.754L553.559 131.488ZM573.118 104.373C574.788 105.368 576.28 106.562 577.547 107.918C578.77 109.208 579.71 110.672 580.324 112.241C580.911 113.74 581.108 115.329 580.9 116.899C580.66 118.57 579.91 120.16 578.724 121.513C577.84 122.608 576.709 123.544 575.396 124.269C574.229 124.881 572.961 125.344 571.633 125.642C570.345 125.932 569.03 126.127 567.703 126.225L563.94 126.495C562.816 126.582 561.703 126.749 560.612 126.993C559.635 127.21 558.749 127.652 558.052 128.268C557.716 128.544 557.301 128.741 556.848 128.841C556.628 128.885 556.4 128.887 556.178 128.848C555.957 128.809 555.749 128.729 555.568 128.614L551.472 126.16C551.081 125.923 550.815 125.566 550.73 125.166C550.681 124.977 550.684 124.782 550.74 124.594C550.795 124.407 550.901 124.233 551.05 124.085C552.002 123.031 553.2 122.152 554.57 121.502C555.802 120.932 557.12 120.503 558.487 120.227C559.798 119.96 561.134 119.786 562.48 119.708C563.761 119.644 565.041 119.557 566.218 119.46C567.275 119.383 568.319 119.205 569.329 118.93C570.209 118.704 570.975 118.236 571.505 117.601C571.981 117.051 572.29 116.411 572.406 115.736C572.522 115.062 572.441 114.374 572.17 113.732C571.503 112.139 570.223 110.781 568.535 109.874C565.489 108.037 562.16 107.975 558.551 109.69C558.187 109.886 557.783 110.026 557.36 110.101C557.141 110.114 556.92 110.09 556.711 110.031C556.503 109.971 556.31 109.878 556.144 109.755L551.792 107.14C551.475 106.958 551.255 106.678 551.178 106.361C551.141 106.199 551.145 106.032 551.192 105.872C551.238 105.711 551.325 105.561 551.447 105.432C552.46 104.327 553.778 103.447 555.287 102.871C557.018 102.195 558.877 101.781 560.778 101.649C562.86 101.506 564.956 101.645 566.986 102.06C569.191 102.48 571.276 103.266 573.118 104.373Z" fill="#721121"/>
<g opacity="0.6">
<path d="M553.559 131.489C553.939 131.723 554.196 132.074 554.275 132.465C554.354 132.857 554.248 133.259 553.981 133.586L550.602 137.585C550.325 137.906 549.91 138.123 549.446 138.189C548.982 138.256 548.506 138.167 548.118 137.941L543.485 135.164C543.294 135.051 543.132 134.907 543.009 134.739C542.885 134.572 542.804 134.386 542.768 134.191C542.701 133.812 542.806 133.426 543.062 133.11L546.442 129.101C546.716 128.779 547.13 128.561 547.594 128.496C548.044 128.439 548.503 128.532 548.874 128.755L553.559 131.489ZM573.118 104.374C574.788 105.369 576.28 106.563 577.547 107.919C578.77 109.209 579.71 110.673 580.324 112.242C580.911 113.741 581.108 115.33 580.9 116.9C580.66 118.571 579.91 120.161 578.724 121.514C577.84 122.608 576.709 123.545 575.396 124.27C574.229 124.882 572.961 125.344 571.633 125.643C570.345 125.933 569.03 126.128 567.703 126.226L563.94 126.496C562.816 126.583 561.703 126.75 560.612 126.994C559.635 127.211 558.749 127.653 558.052 128.269C557.716 128.545 557.301 128.742 556.848 128.842C556.628 128.886 556.4 128.888 556.178 128.849C555.957 128.81 555.749 128.73 555.568 128.615L551.472 126.161C551.081 125.924 550.815 125.567 550.73 125.167C550.681 124.978 550.684 124.783 550.74 124.595C550.795 124.408 550.901 124.233 551.05 124.086C552.002 123.032 553.2 122.153 554.57 121.503C555.802 120.933 557.12 120.504 558.487 120.228C559.798 119.961 561.134 119.787 562.48 119.709C563.761 119.645 565.041 119.558 566.218 119.461C567.275 119.384 568.319 119.206 569.329 118.931C570.209 118.705 570.975 118.237 571.505 117.602C571.981 117.052 572.29 116.411 572.406 115.737C572.522 115.063 572.441 114.375 572.17 113.733C571.503 112.14 570.223 110.782 568.535 109.875C565.489 108.038 562.16 107.976 558.551 109.691C558.187 109.887 557.783 110.027 557.36 110.102C557.141 110.115 556.92 110.091 556.711 110.032C556.503 109.972 556.31 109.879 556.144 109.756L551.792 107.141C551.475 106.959 551.255 106.679 551.178 106.362C551.141 106.2 551.145 106.033 551.192 105.873C551.238 105.712 551.325 105.562 551.447 105.433C552.46 104.328 553.778 103.448 555.287 102.872C557.018 102.196 558.877 101.782 560.778 101.65C562.86 101.507 564.956 101.646 566.986 102.061C569.191 102.481 571.276 103.267 573.118 104.374Z" fill="#721121" fill-opacity="0.3"/>
</g>
<path d="M141.078 345.452C140.95 342.209 143.714 310.522 143.714 310.522L125.436 321.719C129.186 340.61 129.992 345.073 130.056 348.164C129.979 348.422 129.945 348.687 129.954 348.953C129.954 352.628 134.882 354.605 138.71 357.059C141.963 359.206 145.427 361.115 149.065 362.765C151.843 363.943 157.5 364.051 158.192 362.538C153.532 359.533 146.761 355.038 143.049 351.612C141.282 349.969 141.218 348.672 141.078 345.452Z" fill="#FFA8A7"/>
<path d="M166.142 366.504C166.349 367.009 166.386 367.552 166.248 368.073C166.11 368.594 165.803 369.073 165.361 369.455C162.004 371.498 157.826 372.338 153.739 371.789C147.927 371.151 144.778 369.757 142.461 368.115C140.145 366.472 136.881 364.159 134.244 363.673C132.147 363.336 130.153 362.645 128.381 361.641C127.6 361.003 127.703 358.172 127.703 358.172L166.142 366.504Z" fill="#263238"/>
<path d="M130.019 347.267C129.804 347.272 129.598 347.341 129.437 347.461C129.275 347.582 129.169 347.746 129.136 347.926C128.957 348.704 128.765 350.973 128.381 352.249C127.787 354.503 127.597 356.82 127.818 359.122C128.138 360.581 132.106 361.586 134.653 362.364C137.649 363.465 140.428 364.945 142.896 366.752C146.458 369.001 150.71 370.34 155.146 370.61C159.627 370.61 164.67 369.357 165.835 367.606C167.256 365.444 166.142 364.18 159.499 361.575C158.219 361.089 153.828 358.874 152.318 358.074C148.247 355.912 144.215 352.897 142.333 349.071C142.182 348.604 141.848 348.193 141.386 347.904C140.983 347.757 140.536 347.72 140.106 347.796C138.996 347.933 137.918 348.21 136.906 348.618C136.023 348.974 134.755 349.396 134.768 350.357C134.795 350.691 134.882 351.019 135.024 351.33C135.101 351.535 135.165 351.795 135.024 351.914C134.883 352.033 134.576 351.914 134.397 351.762C133.746 351.2 133.151 350.592 132.618 349.947C132.303 349.616 131.947 349.316 131.555 349.05C131.164 348.862 130.787 348.653 130.429 348.423C129.943 348.131 130.045 347.721 130.019 347.267Z" fill="#455A64"/>
<path d="M142.897 366.807C141.732 366.007 140.503 365.219 139.274 364.527C139.274 364.527 147.083 368.536 150.232 366.688C150.816 366.375 151.243 365.892 151.432 365.329C151.621 364.767 151.558 364.166 151.256 363.641C151.256 363.187 156.222 361.231 158.193 361.036C158.744 361.296 159.205 361.501 159.473 361.609C166.117 364.213 167.23 365.467 165.81 367.639C164.645 369.39 160.997 370.763 155.211 370.763C151.448 370.828 145.585 368.666 142.897 366.807Z" fill="#37474F"/>
<path d="M150.705 362.333C154.839 363.727 153.073 364.376 151.921 364.495C150.769 364.613 143.818 361.252 139.568 358.378C135.319 355.503 132.362 352.185 130.723 351.104C130.109 350.704 129.443 350.207 128.854 349.743C128.97 348.975 129.059 348.273 129.136 347.905C129.169 347.726 129.275 347.561 129.437 347.441C129.598 347.32 129.804 347.252 130.019 347.246C130.019 347.7 129.943 348.121 130.352 348.457C130.711 348.686 131.087 348.896 131.479 349.083C131.87 349.349 132.226 349.65 132.541 349.98C133.074 350.626 133.669 351.233 134.32 351.796C138.926 356.167 144.49 359.745 150.705 362.333Z" fill="#263238"/>
<path d="M151.627 364.007C151.532 364.004 151.442 363.973 151.371 363.92C151.329 363.893 151.294 363.859 151.268 363.82C151.243 363.781 151.226 363.738 151.22 363.694C151.214 363.649 151.219 363.605 151.234 363.562C151.249 363.519 151.273 363.479 151.307 363.445C152.28 362.591 153.459 361.924 154.764 361.487C156.069 361.051 157.47 360.856 158.872 360.916C158.982 360.927 159.082 360.973 159.151 361.046C159.221 361.119 159.254 361.212 159.243 361.305C159.23 361.395 159.176 361.477 159.092 361.533C159.008 361.59 158.902 361.617 158.795 361.607C157.529 361.563 156.267 361.742 155.087 362.133C153.908 362.524 152.839 363.118 151.947 363.877C151.908 363.917 151.859 363.949 151.804 363.972C151.748 363.994 151.688 364.006 151.627 364.007Z" fill="#F5F5F5"/>
<path d="M148.03 362.181C147.932 362.185 147.836 362.158 147.761 362.106C147.688 362.04 147.647 361.953 147.647 361.863C147.647 361.772 147.688 361.685 147.761 361.619C148.737 360.769 149.916 360.104 151.221 359.67C152.526 359.236 153.925 359.042 155.326 359.101C155.435 359.111 155.534 359.157 155.602 359.229C155.671 359.301 155.703 359.393 155.691 359.485C155.679 359.577 155.624 359.661 155.539 359.718C155.454 359.776 155.345 359.803 155.236 359.793C153.97 359.746 152.707 359.924 151.527 360.315C150.348 360.706 149.278 361.301 148.388 362.063C148.344 362.106 148.289 362.139 148.226 362.16C148.164 362.18 148.096 362.188 148.03 362.181Z" fill="#F5F5F5"/>
<path d="M144.418 360.354C144.325 360.355 144.234 360.328 144.162 360.278C144.086 360.214 144.044 360.126 144.044 360.035C144.044 359.944 144.086 359.857 144.162 359.792C145.139 358.942 146.318 358.278 147.623 357.844C148.927 357.409 150.327 357.215 151.727 357.274C151.781 357.278 151.834 357.291 151.881 357.312C151.929 357.334 151.972 357.363 152.006 357.398C152.041 357.433 152.067 357.474 152.083 357.517C152.098 357.561 152.104 357.607 152.099 357.652C152.094 357.698 152.078 357.742 152.053 357.782C152.028 357.823 151.994 357.859 151.952 357.888C151.91 357.917 151.862 357.939 151.81 357.952C151.759 357.965 151.704 357.97 151.651 357.966C150.385 357.919 149.121 358.096 147.941 358.487C146.762 358.878 145.692 359.474 144.802 360.235C144.755 360.28 144.695 360.314 144.628 360.335C144.561 360.356 144.489 360.362 144.418 360.354Z" fill="#F5F5F5"/>
<path d="M141.079 358.333C140.986 358.334 140.895 358.307 140.823 358.258C140.784 358.226 140.753 358.189 140.732 358.147C140.71 358.105 140.699 358.06 140.699 358.014C140.699 357.969 140.71 357.924 140.732 357.882C140.753 357.84 140.784 357.803 140.823 357.771C141.798 356.92 142.977 356.254 144.282 355.82C145.587 355.386 146.987 355.192 148.388 355.253C148.495 355.264 148.592 355.31 148.659 355.38C148.726 355.451 148.757 355.541 148.746 355.631C148.734 355.721 148.679 355.803 148.596 355.86C148.512 355.917 148.405 355.943 148.298 355.934C147.033 355.892 145.771 356.072 144.592 356.462C143.414 356.853 142.344 357.446 141.45 358.204C141.407 358.25 141.35 358.287 141.285 358.309C141.22 358.332 141.149 358.34 141.079 358.333Z" fill="#F5F5F5"/>
<path d="M137.815 356.312C137.723 356.309 137.634 356.282 137.559 356.237C137.483 356.172 137.44 356.085 137.44 355.994C137.44 355.902 137.483 355.815 137.559 355.75C138.614 354.823 139.907 354.111 141.337 353.669C142.768 353.227 144.3 353.066 145.815 353.2C145.869 353.202 145.922 353.214 145.97 353.235C146.018 353.256 146.061 353.285 146.095 353.321C146.129 353.357 146.153 353.398 146.167 353.443C146.18 353.487 146.183 353.533 146.173 353.578C146.161 353.668 146.106 353.75 146.023 353.807C145.939 353.863 145.832 353.89 145.725 353.881C144.348 353.766 142.958 353.912 141.656 354.308C140.354 354.705 139.173 355.341 138.199 356.172C138.154 356.221 138.095 356.259 138.028 356.284C137.961 356.308 137.888 356.318 137.815 356.312Z" fill="#F5F5F5"/>
<path d="M106.645 324.951L88.1992 324.67C88.468 335.067 90.4265 346.598 90.7593 356.346C90.7593 358.183 90.7593 370.612 91.5273 374.394C92.8073 380.068 100.744 379.301 101.166 375.907C101.588 372.514 100.654 358 100.68 356.454C100.603 350.208 104.072 339.649 105.902 328.42C105.979 327.912 106.555 325.491 106.645 324.951Z" fill="#FFA8A7"/>
<path d="M104.162 378.262C104.504 380.863 104.064 383.495 102.882 385.914C102.296 386.875 101.352 387.645 100.195 388.107C99.0373 388.568 97.7321 388.693 96.4816 388.464C93.7551 388.129 90.1582 386.897 89.0573 384.141C88.015 381.603 87.6479 378.902 87.9821 376.23L104.162 378.262Z" fill="#263238"/>
<path d="M90.7088 355.156C89.6207 355.318 89.8256 359.803 89.7232 364.31C89.608 369.152 88.1615 371.27 88.0207 375.236C87.8543 379.775 88.3791 381.721 90.5808 384.293C92.7824 386.865 99.6562 388.94 102.434 384.79C104.7 381.407 104.392 377.895 103.612 373.442C102.831 368.99 102.216 365.618 102.011 362.095C101.807 358.571 101.717 355.448 100.731 355.156C100.731 355.653 100.731 356.291 100.731 356.777C100.731 357.264 100.821 358.939 100.207 359.047C100.112 358.63 100.056 358.207 100.04 357.782C100.069 357.39 99.9175 357.003 99.6178 356.702C99.2476 356.471 98.7978 356.35 98.3378 356.356C97.2413 356.252 96.1387 356.201 95.0353 356.205C94.4849 356.205 93.9217 356.205 93.3841 356.28C92.9111 356.311 92.4478 356.409 92.0144 356.572C91.8868 356.618 91.7719 356.686 91.6772 356.772C91.5824 356.857 91.5098 356.959 91.464 357.069C91.4256 357.241 91.4256 357.416 91.464 357.588C91.5089 357.897 91.5089 358.209 91.464 358.517C91.464 358.658 91.3488 358.831 91.1824 358.809C91.016 358.788 90.9904 358.658 90.9776 358.55C90.9008 358.009 90.9776 357.61 90.9008 356.983C90.9008 356.691 90.9008 356.291 90.9008 355.999C90.9008 355.707 90.7216 355.448 90.7088 355.156Z" fill="#455A64"/>
<path d="M88.1108 373.939C88.1108 374.598 87.9444 378.932 89.3908 379.581C90.8372 380.229 91.4005 376.857 91.4005 376.857C91.4005 376.857 94.7926 375.657 100.118 377.106C99.9383 377.819 100.988 380.045 102.332 379.44C103.676 378.835 103.612 373.896 103.612 373.831C104.342 378.154 104.572 381.504 102.332 384.79C99.5543 388.94 92.6549 386.843 90.4788 384.292C88.3028 381.742 87.7779 379.775 87.9188 375.236C87.9828 374.782 88.0724 374.361 88.1108 373.939Z" fill="#37474F"/>
<path d="M91.8238 377.106C91.9902 378.727 90.0446 378.349 89.6861 376.025C89.3277 373.702 90.1726 368.201 89.6861 364.267C89.7886 359.76 89.5837 355.275 90.6718 355.113C90.6654 355.167 90.6654 355.221 90.6718 355.275L90.7998 357.556C90.7745 357.88 90.7745 358.205 90.7998 358.528C91.1582 361.835 91.3758 368.255 91.3886 371.303C91.4111 373.242 91.5564 375.18 91.8238 377.106Z" fill="#263238"/>
<path d="M99.5033 377.106C99.7541 375.193 99.878 373.27 99.8745 371.346C99.8745 368.32 100.105 361.976 100.463 358.647C100.602 358.031 100.658 357.404 100.63 356.777C100.63 356.323 100.63 355.697 100.63 355.264C100.63 355.264 100.63 355.199 100.63 355.156C101.347 355.383 101.603 357.166 101.756 359.414C101.756 360.722 101.756 362.343 101.615 364.31C101.129 368.244 101.974 373.82 101.615 376.101C101.257 378.381 99.3753 378.727 99.5033 377.106Z" fill="#263238"/>
<path d="M100.259 377.224H100.118C97.3519 376.418 94.3458 376.418 91.5799 377.224C91.5295 377.24 91.4758 377.248 91.4218 377.247C91.3678 377.246 91.3146 377.235 91.2653 377.217C91.216 377.198 91.1715 377.172 91.1343 377.139C91.0971 377.106 91.0681 377.067 91.0487 377.024C91.0294 376.981 91.0202 376.936 91.0216 376.89C91.0231 376.845 91.0351 376.8 91.0571 376.758C91.0791 376.717 91.1106 376.679 91.1498 376.648C91.189 376.616 91.2351 376.592 91.2855 376.576C94.2365 375.686 97.4612 375.686 100.412 376.576C100.463 376.591 100.509 376.615 100.548 376.646C100.587 376.677 100.618 376.714 100.639 376.756C100.661 376.797 100.672 376.842 100.673 376.887C100.673 376.932 100.663 376.977 100.643 377.019C100.611 377.082 100.558 377.136 100.489 377.172C100.42 377.209 100.34 377.227 100.259 377.224Z" fill="#F5F5F5"/>
<path d="M100.784 373.637C100.737 373.647 100.689 373.647 100.643 373.637C97.533 372.822 94.2035 372.822 91.0937 373.637C91.0425 373.652 90.9881 373.659 90.9339 373.656C90.8796 373.654 90.8265 373.642 90.7777 373.622C90.7288 373.602 90.6852 373.574 90.6494 373.539C90.6135 373.505 90.5862 373.464 90.5689 373.421C90.5509 373.378 90.5434 373.333 90.5466 373.288C90.5499 373.243 90.5639 373.199 90.5878 373.159C90.6117 373.118 90.645 373.083 90.6858 373.053C90.7265 373.024 90.7738 373.002 90.8249 372.989C94.1101 372.105 97.6392 372.105 100.924 372.989C101.014 373.017 101.09 373.071 101.137 373.141C101.185 373.211 101.202 373.294 101.185 373.373C101.168 373.453 101.119 373.525 101.046 373.577C100.972 373.63 100.879 373.658 100.784 373.659V373.637Z" fill="#F5F5F5"/>
<path d="M90.9264 370.242C90.8481 370.24 90.7719 370.22 90.7063 370.184C90.6407 370.148 90.5884 370.097 90.5552 370.037C90.5118 369.954 90.509 369.859 90.5473 369.775C90.5857 369.69 90.6621 369.621 90.76 369.583C93.9935 368.51 97.5845 368.49 100.834 369.529C100.884 369.544 100.93 369.568 100.969 369.599C101.008 369.63 101.04 369.668 101.061 369.709C101.083 369.75 101.094 369.795 101.095 369.84C101.095 369.885 101.085 369.93 101.064 369.972C101.024 370.056 100.947 370.123 100.849 370.16C100.751 370.196 100.64 370.199 100.539 370.167C100.539 370.167 95.5218 368.502 91.1056 370.167C91.0534 370.203 90.9922 370.229 90.9264 370.242Z" fill="#F5F5F5"/>
<path d="M90.8378 367.066C90.7605 367.067 90.6846 367.049 90.619 367.014C90.5533 366.98 90.5005 366.93 90.4666 366.872C90.4224 366.79 90.4177 366.696 90.4535 366.612C90.4894 366.527 90.563 366.457 90.6586 366.418C92.2633 365.8 94.0032 365.473 95.7666 365.456C97.53 365.439 99.2782 365.734 100.899 366.32C100.947 366.339 100.991 366.366 101.027 366.399C101.063 366.432 101.091 366.471 101.109 366.513C101.127 366.555 101.135 366.6 101.131 366.645C101.128 366.69 101.115 366.734 101.091 366.774C101.069 366.815 101.037 366.852 100.998 366.883C100.959 366.913 100.913 366.937 100.863 366.952C100.813 366.967 100.759 366.973 100.706 366.971C100.653 366.968 100.601 366.956 100.553 366.936C99.0326 366.405 97.4 366.139 95.7542 366.156C94.1084 366.173 92.4837 366.471 90.9786 367.034C90.9341 367.051 90.8866 367.062 90.8378 367.066Z" fill="#F5F5F5"/>
<path d="M90.7478 363.511C90.654 363.512 90.5626 363.486 90.4889 363.437C90.4151 363.388 90.3634 363.319 90.3424 363.242C90.3214 363.165 90.3325 363.084 90.3736 363.013C90.4148 362.942 90.4836 362.885 90.5686 362.851C95.4455 360.819 100.706 362.765 100.924 362.851C100.975 362.867 101.021 362.893 101.06 362.925C101.098 362.957 101.128 362.996 101.148 363.039C101.167 363.082 101.175 363.128 101.172 363.174C101.169 363.22 101.154 363.264 101.129 363.305C101.084 363.388 101.003 363.452 100.902 363.485C100.801 363.517 100.69 363.515 100.591 363.478C100.591 363.478 95.4711 361.587 90.9398 363.478C90.8806 363.504 90.8141 363.515 90.7478 363.511Z" fill="#F5F5F5"/>
<path d="M94.2665 223.848C87.7639 239.054 88.9031 248.596 90.0167 264.537C91.0408 279.149 92.6664 292.02 92.6664 292.02C92.4104 294.614 88.1351 299.672 87.5463 311.127C87.3576 319.194 87.7851 327.262 88.8263 335.282C88.8263 335.282 97.3386 337.908 104.532 335.282C104.532 335.282 111.893 307.842 113.902 294.43C115.643 282.726 118.69 267.768 118.69 267.768L125.09 294.376C123.839 297.952 123.197 301.66 123.182 305.389C123.182 311.646 126.626 329.046 126.626 329.046C126.626 329.046 136.162 331.65 142.204 327.122C142.204 327.122 144.597 302.082 145.442 292.539C146.569 279.808 144.93 244.911 141.308 227.047L94.2665 223.848Z" fill="#FFC07F"/>
<path d="M118.768 267.725L121.43 247.71C121.43 247.71 133.347 246.37 138.749 242.079C137.199 244.125 135.134 245.858 132.7 247.152C130.266 248.447 127.524 249.272 124.669 249.569L120.828 268.2L125.181 294.332L118.768 267.725Z" fill="#37474F"/>
<path d="M148.234 209.009C142.435 203.973 131.965 192.582 131.965 192.582L126.051 175.291C127.373 175.349 128.697 175.349 130.019 175.291C136.419 175.647 138.301 176.112 142.282 179.787C145.443 182.715 157.501 196.614 161.687 201.293L172.811 189.329C175.486 185.925 175.051 182.11 176.433 179.333C177.815 176.555 180.056 175.334 181.848 172.848C183.64 170.363 184.062 168.698 185.534 169.984C187.006 171.27 185.304 174.729 185.086 175.518C184.868 176.307 182.616 178.652 186.366 177.431C190.117 176.209 195.902 170.427 197.387 169.249C198.872 168.071 199.666 169.898 199.333 171.346C199 172.794 200.613 176.058 200.024 178.446C199.658 180.849 198.243 183.049 196.056 184.617C193.355 186.909 186.75 189.729 184.164 192.744C181.579 195.76 176.062 205.13 172.644 210.771C168.356 217.947 164.708 220.314 159.844 217.893C154.98 215.472 150.371 210.879 148.234 209.009Z" fill="#FFA8A7"/>
<path d="M127.933 175.106C131.206 174.83 134.51 175.2 137.585 176.187C141.054 177.506 143.409 180.337 146.801 184.174C150.193 188.01 156.248 194.722 156.248 194.722C156.248 194.722 154.609 200.547 143.806 205.777L126.167 190.442L127.933 175.106Z" fill="#37474F"/>
<path d="M161.688 201.282C159.578 202.962 158.164 205.171 157.655 207.582C157.655 207.582 156.375 204.113 160.74 200.212L161.688 201.282Z" fill="#F28F8F"/>
<path d="M140.708 205.811C148.58 200.343 145.981 193.221 143.114 188.422C137.367 178.836 131.389 175.064 128.893 175.097L113.238 175.227C105.763 176.091 99.9769 175.659 98.1721 176.016C93.564 176.934 93.4616 180.133 93.2824 184.272C93.0904 188.811 90.3383 188.044 91.7335 195.544C93.3791 198.332 94.8239 201.201 96.06 204.136C96.9049 206.73 99.2857 210.858 98.0185 215.051C97.5321 216.673 96.2264 218.294 94.268 222.735C92.0474 227.728 90.3971 232.889 89.3398 238.147C89.3398 238.147 93.9096 237.25 99.1065 232.581C99.1065 232.581 106.211 240.611 123.299 239.8C141.028 238.957 142.589 231.154 142.589 231.154L139.876 217.105C140.285 211.431 140.464 209.378 140.708 205.811Z" fill="#721121"/>
<path d="M85.6664 168.925C83.3496 167.499 70.8692 181.602 76.7062 185.136C82.5431 188.67 88.7641 178.652 87.5097 173.918C86.2552 169.185 85.6664 168.925 85.6664 168.925Z" fill="#37474F"/>
<path d="M74.3376 161.922C77.4609 158.269 79.5858 155.513 82.4402 152.379C84.0531 150.596 85.0899 149.331 86.6388 147.505C87.714 146.251 88.3412 145.192 89.5444 144.792C90.8877 144.293 92.0882 143.556 93.0645 142.631C93.6624 142.046 94.214 141.429 94.7158 140.783C96.52 138.674 98.6757 136.795 101.116 135.206C103.676 133.531 106.479 132.234 109.091 130.635C110.639 129.684 112.303 128.117 110.371 126.701C109.77 126.292 109.057 126.017 108.297 125.901C103.638 125.112 99.6055 126.528 95.0742 127.576C93.1038 128.03 91.178 128.612 89.314 129.316C88.3887 129.634 87.5256 130.067 86.754 130.602C85.6821 131.548 84.8155 132.646 84.1939 133.845C82.2098 136.925 78.0241 139.67 75.0928 142.08C71.6495 144.911 68.5774 147.483 64.6477 150.628C61.1148 153.438 57.6459 156.032 54.4074 159.101C51.7322 161.63 52.769 163.575 53.1274 164.235C55.4315 168.061 57.9403 169.411 60.9612 171.8C61.9597 172.578 62.9709 173.345 63.9821 174.113C67.899 177.095 71.8159 179.884 75.8865 182.758C80.2386 185.784 82.0306 187.254 85.9091 190.194C88.3566 192.092 90.3964 194.333 91.9381 196.819C98.6583 197.759 105.263 189.081 99.5031 178.933C98.5557 177.291 97.1228 175.884 95.343 174.847C88.2516 170.579 74.3376 161.922 74.3376 161.922Z" fill="#FFA8A7"/>
<path d="M74.3381 161.922C72.2416 164.169 69.4248 165.861 66.2227 166.796C66.2227 166.796 70.5108 167.661 76.2709 163.132L74.3381 161.922Z" fill="#F28F8F"/>
<path d="M98.9087 174.465C97.3342 173.546 93.5069 171.59 85.8651 167.462C85.8651 167.462 87.0427 169.548 85.1867 174.789C83.3306 180.031 79.4137 183.349 76.9561 183.727C76.9561 183.727 81.2314 186.58 85.1739 189.801C89.1164 193.021 92.3549 195.301 94.6333 199.041C94.6333 199.041 100.266 197.82 101.546 189.757C102.442 184.105 101.904 177.469 98.9087 174.465Z" fill="#455A64"/>
<path d="M141.462 149.971C142.587 147.963 143.083 145.745 142.902 143.529C142.72 141.313 141.867 139.173 140.425 137.315C135.574 131.49 127.395 128.669 118.357 128.756H115.554C103.355 128.929 92.2703 137.769 92.0527 147.723C92.0527 154.726 92.0527 161.199 96.6225 165.976C100.834 170.418 107.4 171.877 112.943 172.59C123.542 173.952 135.446 172.914 140.259 166.819C140.259 166.819 133.859 167.9 134.665 162.302C134.78 161.415 133.782 160.443 132.028 159.438C133.257 157.641 134.702 155.957 136.342 154.412C138.147 152.889 140.233 152.035 141.462 149.971Z" fill="#263238"/>
<path d="M138.301 155.081C138.237 165.51 134.282 168.136 132.298 168.914C130.313 169.692 126.422 169.281 122.646 168.817L122.774 175.074C122.774 175.074 127.19 178.846 126.934 181.721C126.678 184.595 120.176 184.963 115.247 182.272C112.533 180.754 110.07 178.937 107.926 176.868C107.516 176.468 107.285 175.96 107.273 175.431L106.966 160.722C106.966 160.722 104.943 162.592 101.257 160.538C100.46 160.127 99.7738 159.581 99.2408 158.934C98.7078 158.287 98.34 157.554 98.1606 156.78C97.9813 156.007 97.9943 155.211 98.199 154.442C98.4036 153.673 98.7954 152.948 99.3494 152.314C99.8702 151.887 100.496 151.561 101.182 151.359C101.868 151.158 102.598 151.086 103.321 151.149C104.043 151.212 104.741 151.408 105.364 151.723C105.987 152.038 106.521 152.465 106.927 152.973C108.054 154.746 107.951 155.999 109.487 155.794C111.023 155.589 111.087 154.184 111.19 153.179C111.292 152.174 111.19 151.849 111.343 150.531C114.991 149.872 118.768 145.581 119.19 142.447C121.661 143.473 124.385 143.992 127.139 143.96C131.222 143.722 133.334 143.031 135.344 140.545C135.823 141.114 136.206 141.736 136.483 142.393C137.052 143.724 137.48 145.094 137.763 146.489C138.219 149.336 138.399 152.209 138.301 155.081Z" fill="#FFA8A7"/>
<path d="M122.646 168.818C118.665 168.429 110.46 166.57 109.129 163.868C109.667 165.24 110.69 166.439 112.06 167.305C114.543 169.034 122.684 170.904 122.684 170.904L122.646 168.818Z" fill="#F28F8F"/>
<path d="M126.653 163.197C126.661 163.469 126.573 163.736 126.4 163.966C126.227 164.195 125.977 164.376 125.682 164.485C125.388 164.595 125.061 164.628 124.744 164.58C124.427 164.533 124.134 164.407 123.901 164.218C123.669 164.03 123.509 163.788 123.44 163.522C123.371 163.256 123.397 162.98 123.515 162.727C123.633 162.473 123.837 162.256 124.102 162.101C124.367 161.946 124.68 161.861 125.002 161.857C125.431 161.851 125.845 161.988 126.155 162.239C126.464 162.49 126.643 162.835 126.653 163.197Z" fill="#B16668"/>
<path d="M124.567 152.931C124.588 153.122 124.564 153.316 124.496 153.5C124.428 153.683 124.318 153.854 124.171 154.002C124.025 154.15 123.845 154.271 123.643 154.36C123.441 154.449 123.219 154.503 122.992 154.519C122.642 154.551 122.289 154.493 121.978 154.354C121.667 154.215 121.412 154.001 121.246 153.739C121.08 153.476 121.011 153.178 121.047 152.883C121.084 152.587 121.224 152.307 121.45 152.079C121.676 151.851 121.977 151.686 122.315 151.603C122.654 151.521 123.013 151.526 123.348 151.617C123.683 151.709 123.978 151.883 124.195 152.117C124.412 152.351 124.542 152.634 124.567 152.931Z" fill="#263238"/>
<path d="M136.112 152.314C136.143 152.666 136.009 153.014 135.739 153.283C135.468 153.553 135.082 153.721 134.665 153.751C134.455 153.773 134.242 153.756 134.04 153.702C133.839 153.648 133.653 153.558 133.497 153.438C133.34 153.318 133.216 153.171 133.132 153.007C133.049 152.842 133.009 152.665 133.014 152.486C132.993 152.311 133.013 152.135 133.074 151.967C133.135 151.798 133.236 151.642 133.369 151.507C133.503 151.372 133.667 151.261 133.852 151.181C134.037 151.1 134.24 151.052 134.448 151.038C134.868 151.024 135.278 151.149 135.589 151.388C135.901 151.626 136.088 151.959 136.112 152.314Z" fill="#263238"/>
<path d="M128.138 150.963L129.367 159.674L134.653 157.815L128.138 150.963Z" fill="#F28F8F"/>
<path d="M118.396 149.169L121.469 146.705C121.851 147.064 122.055 147.534 122.039 148.017C122.022 148.5 121.786 148.959 121.379 149.299C121.176 149.461 120.937 149.587 120.675 149.669C120.413 149.75 120.134 149.786 119.855 149.774C119.576 149.762 119.303 149.702 119.052 149.598C118.801 149.494 118.578 149.348 118.396 149.169Z" fill="#263238"/>
<path d="M133.768 145.905L137.173 148.067C137.017 148.262 136.814 148.428 136.579 148.555C136.343 148.681 136.079 148.766 135.804 148.803C135.528 148.841 135.246 148.83 134.975 148.772C134.704 148.714 134.451 148.61 134.229 148.467C133.783 148.168 133.488 147.738 133.403 147.262C133.317 146.787 133.448 146.302 133.768 145.905Z" fill="#263238"/>
<path d="M84.6932 66.7414C87.1476 66.3463 89.6566 66.2516 92.143 66.4604C94.5191 66.6364 96.8386 67.1708 98.9912 68.0383C101.057 68.8707 102.882 70.0729 104.342 71.5614C105.881 73.1545 106.904 75.0573 107.311 77.084C107.695 78.6743 107.695 80.3137 107.311 81.904C106.967 83.2883 106.381 84.6214 105.571 85.8595C104.784 87.0643 103.872 88.2072 102.844 89.2746C101.82 90.3553 100.847 91.3496 99.9384 92.3114C99.0692 93.2167 98.2981 94.186 97.6344 95.2078C97.0243 96.115 96.7272 97.1482 96.7768 98.1906C96.7842 98.6752 96.6384 99.1528 96.3543 99.5739C96.2203 99.773 96.0363 99.9449 95.8151 100.077C95.594 100.21 95.3411 100.3 95.0743 100.341L89.0453 101.303C88.759 101.351 88.4641 101.35 88.1782 101.3C87.8923 101.25 87.6213 101.152 87.3813 101.011C87.1315 100.891 86.9205 100.72 86.7666 100.515C86.6127 100.309 86.5205 100.076 86.4981 99.8333C86.2042 98.2343 86.3 96.6015 86.7797 95.0349C87.2348 93.639 87.9017 92.2986 88.7637 91.047C89.5972 89.855 90.5523 88.7268 91.6182 87.6751C92.6806 86.5944 93.6407 85.6217 94.5239 84.6707C95.3359 83.8166 96.0395 82.8929 96.6231 81.9148C97.1252 81.0661 97.2826 80.1015 97.0712 79.1698C96.9011 78.3486 96.4963 77.5748 95.8918 76.9156C95.2873 76.2565 94.5014 75.7318 93.6023 75.3872C91.372 74.5315 88.8669 74.3299 86.4853 74.8144C81.9966 75.5349 79.1165 77.963 77.845 82.0985C77.7331 82.5345 77.534 82.9512 77.2562 83.3306C76.9012 83.677 76.4012 83.8938 75.861 83.9358L69.4608 84.9625C69.0187 85.0289 68.5631 84.9558 68.1807 84.7571C67.9797 84.645 67.8087 84.4986 67.6786 84.3274C67.5486 84.1562 67.4624 83.9639 67.4255 83.7629C67.1491 82.0581 67.3687 80.3221 68.0655 78.7051C68.7902 76.8374 69.8995 75.0922 71.3424 73.55C72.9603 71.8613 74.8876 70.4019 77.0514 69.2271C79.3834 67.9875 81.979 67.1432 84.6932 66.7414ZM96.3799 104.297C96.9491 104.214 97.5342 104.32 98.0119 104.595C98.4895 104.869 98.8223 105.289 98.94 105.766L100.22 111.667C100.278 111.904 100.278 112.148 100.218 112.384C100.159 112.621 100.042 112.844 99.8744 113.04C99.7172 113.241 99.5139 113.413 99.2764 113.547C99.039 113.681 98.7723 113.773 98.492 113.818L91.6694 114.899C91.3872 114.948 91.096 114.948 90.814 114.898C90.532 114.847 90.2654 114.748 90.031 114.607C89.7928 114.474 89.5886 114.302 89.4303 114.102C89.2721 113.902 89.1629 113.676 89.1093 113.44L87.8293 107.539C87.7758 107.302 87.78 107.057 87.8416 106.822C87.9032 106.586 88.021 106.363 88.1877 106.166C88.341 105.962 88.5432 105.788 88.7813 105.654C89.0194 105.52 89.2881 105.429 89.5701 105.388L96.3799 104.297Z" fill="#721121"/>
<path d="M149.744 91.0908C151.254 91.7975 152.633 92.6858 153.84 93.7278C155.013 94.7042 155.964 95.8545 156.644 97.1212C157.296 98.3328 157.632 99.6486 157.629 100.979C157.628 102.398 157.186 103.791 156.349 105.021C155.722 106.007 154.874 106.881 153.853 107.593C152.938 108.193 151.925 108.677 150.845 109.031C149.795 109.377 148.712 109.645 147.606 109.831L144.483 110.349C143.546 110.501 142.629 110.729 141.744 111.03C140.947 111.28 140.251 111.714 139.734 112.284C139.483 112.546 139.15 112.744 138.774 112.857C138.597 112.913 138.408 112.935 138.22 112.922C138.032 112.909 137.85 112.861 137.686 112.781L133.987 111.03C133.627 110.864 133.36 110.584 133.244 110.252C133.182 110.094 133.163 109.926 133.189 109.761C133.216 109.596 133.287 109.439 133.398 109.301C134.08 108.346 134.986 107.518 136.061 106.869C137.035 106.295 138.093 105.83 139.209 105.486C140.28 105.164 141.38 104.919 142.499 104.751C143.613 104.589 144.65 104.427 145.622 104.254C146.5 104.099 147.358 103.871 148.182 103.573C148.894 103.308 149.486 102.857 149.872 102.287C150.208 101.786 150.396 101.223 150.418 100.647C150.44 100.071 150.297 99.499 150 98.9801C149.269 97.693 148.048 96.6503 146.531 96.0189C145.225 95.3816 143.718 95.0999 142.215 95.2121C140.713 95.3242 139.288 95.8249 138.134 96.6457C137.849 96.8415 137.523 96.9917 137.174 97.0888C136.808 97.1402 136.432 97.0705 136.125 96.8943L132.182 95.0354C131.903 94.903 131.693 94.687 131.593 94.4302C131.543 94.2959 131.528 94.1542 131.548 94.0145C131.568 93.8748 131.622 93.7402 131.708 93.6197C132.456 92.615 133.479 91.7772 134.691 91.1772C136.071 90.4741 137.588 89.9837 139.171 89.7291C140.904 89.4422 142.681 89.3948 144.432 89.5886C146.301 89.7963 148.104 90.3063 149.744 91.0908ZM136.253 115.353C136.426 115.434 136.579 115.544 136.702 115.676C136.825 115.808 136.916 115.959 136.969 116.12C137.026 116.28 137.044 116.447 137.022 116.612C137 116.778 136.938 116.938 136.841 117.082L134.448 120.703C134.253 120.997 133.929 121.215 133.545 121.308C133.161 121.401 132.749 121.362 132.4 121.2L128.214 119.222C128.038 119.145 127.883 119.036 127.762 118.904C127.64 118.771 127.554 118.618 127.51 118.455C127.449 118.297 127.428 118.129 127.448 117.964C127.467 117.798 127.528 117.638 127.625 117.493L130.019 113.873C130.116 113.727 130.246 113.6 130.402 113.498C130.558 113.396 130.737 113.321 130.928 113.278C131.116 113.228 131.315 113.211 131.511 113.23C131.707 113.248 131.897 113.302 132.067 113.386L136.253 115.353Z" fill="#721121"/>
<g opacity="0.2">
<path d="M149.741 91.0908C151.251 91.7975 152.631 92.6858 153.837 93.7278C155.01 94.7042 155.961 95.8545 156.641 97.1212C157.293 98.3328 157.629 99.6486 157.626 100.979C157.625 102.398 157.183 103.791 156.346 105.021C155.719 106.007 154.871 106.881 153.85 107.593C152.935 108.193 151.922 108.677 150.842 109.031C149.792 109.377 148.709 109.645 147.604 109.831L144.48 110.349C143.543 110.501 142.626 110.729 141.741 111.03C140.944 111.28 140.248 111.714 139.731 112.284C139.48 112.546 139.147 112.744 138.771 112.857C138.595 112.913 138.405 112.935 138.217 112.922C138.029 112.909 137.847 112.861 137.683 112.781L133.984 111.03C133.624 110.864 133.357 110.584 133.242 110.252C133.179 110.094 133.16 109.926 133.186 109.761C133.213 109.596 133.284 109.439 133.395 109.301C134.077 108.346 134.983 107.518 136.058 106.869C137.032 106.295 138.09 105.83 139.206 105.486C140.277 105.164 141.377 104.919 142.496 104.751C143.61 104.589 144.647 104.427 145.619 104.254C146.497 104.099 147.355 103.871 148.18 103.573C148.891 103.308 149.483 102.857 149.869 102.287C150.205 101.786 150.393 101.223 150.415 100.647C150.437 100.071 150.294 99.499 149.997 98.9801C149.266 97.693 148.045 96.6503 146.528 96.0189C145.222 95.3816 143.715 95.0999 142.212 95.2121C140.71 95.3242 139.285 95.8249 138.131 96.6457C137.846 96.8415 137.521 96.9917 137.171 97.0888C136.805 97.1402 136.429 97.0705 136.122 96.8943L132.179 95.0354C131.9 94.903 131.69 94.687 131.59 94.4302C131.54 94.2959 131.525 94.1542 131.545 94.0145C131.565 93.8748 131.619 93.7402 131.705 93.6197C132.453 92.615 133.476 91.7772 134.688 91.1772C136.068 90.4741 137.585 89.9837 139.168 89.7291C140.901 89.4422 142.678 89.3948 144.429 89.5886C146.298 89.7963 148.101 90.3063 149.741 91.0908ZM136.25 115.353C136.423 115.434 136.576 115.544 136.699 115.676C136.822 115.808 136.913 115.959 136.966 116.12C137.023 116.28 137.041 116.447 137.019 116.612C136.997 116.778 136.936 116.938 136.838 117.082L134.445 120.703C134.251 120.997 133.926 121.215 133.542 121.308C133.158 121.401 132.747 121.362 132.397 121.2L128.211 119.222C128.035 119.145 127.881 119.036 127.759 118.904C127.637 118.771 127.551 118.618 127.507 118.455C127.446 118.297 127.425 118.129 127.445 117.964C127.465 117.798 127.525 117.638 127.622 117.493L130.016 113.873C130.113 113.727 130.243 113.6 130.399 113.498C130.555 113.396 130.734 113.321 130.925 113.278C131.113 113.228 131.312 113.211 131.508 113.23C131.704 113.248 131.894 113.302 132.064 113.386L136.25 115.353Z" fill="#721121" fill-opacity="0.8"/>
</g>
<path d="M59.5768 130.774C59.7473 130.638 59.9485 130.533 60.1685 130.464C60.3885 130.396 60.6226 130.365 60.8569 130.375C61.0971 130.377 61.3342 130.421 61.5541 130.503C61.774 130.584 61.9722 130.702 62.1369 130.85L66.0794 134.46C66.2416 134.607 66.3677 134.78 66.4504 134.968C66.5331 135.157 66.5708 135.358 66.5613 135.559C66.5517 135.759 66.4952 135.957 66.3949 136.139C66.2947 136.322 66.1526 136.485 65.977 136.621L61.8041 139.863C61.6297 140 61.4249 140.107 61.2016 140.177C60.9782 140.246 60.7407 140.278 60.5027 140.27C60.2647 140.262 60.031 140.214 59.815 140.13C59.5989 140.045 59.4049 139.925 59.244 139.777L55.3015 136.167C55.1377 136.021 55.0102 135.848 54.9265 135.659C54.8429 135.471 54.8047 135.27 54.8142 135.068C54.8238 134.867 54.8808 134.669 54.9821 134.487C55.0834 134.304 55.2268 134.141 55.4039 134.006L59.5768 130.774ZM32.1841 108.998C33.6809 107.817 35.3707 106.823 37.2018 106.047C38.9406 105.305 40.8215 104.83 42.7571 104.642C44.6153 104.469 46.4958 104.631 48.2741 105.118C50.1635 105.662 51.8529 106.612 53.1766 107.874C54.2843 108.824 55.1548 109.952 55.7367 111.192C56.2062 112.279 56.4822 113.419 56.5559 114.574C56.629 115.699 56.5862 116.828 56.4279 117.946C56.2615 119.027 56.1079 120.108 55.9671 121.113C55.8282 122.059 55.7897 123.014 55.8519 123.966C55.8945 124.822 56.2229 125.65 56.7991 126.354C57.0472 126.677 57.1887 127.05 57.2088 127.435C57.2199 127.624 57.1795 127.813 57.0908 127.988C57.002 128.162 56.8673 128.317 56.6967 128.44L53.0102 131.326C52.6606 131.593 52.202 131.737 51.7302 131.726C51.4962 131.733 51.2635 131.692 51.0518 131.608C50.8402 131.523 50.6558 131.397 50.5142 131.239C49.49 130.234 48.7152 129.065 48.2357 127.802C47.8348 126.668 47.611 125.495 47.5701 124.312C47.5301 123.17 47.6072 122.027 47.8005 120.897C47.9925 119.816 48.1461 118.735 48.2741 117.763C48.3888 116.868 48.3888 115.966 48.2741 115.072C48.1906 114.301 47.8081 113.575 47.1861 113.007C46.6449 112.501 45.9658 112.113 45.2076 111.878C44.4494 111.643 43.6348 111.567 42.834 111.656C40.8588 111.872 39.0231 112.632 37.6114 113.818C34.8636 115.979 34.1084 118.721 35.3457 122.042C35.4975 122.388 35.5755 122.754 35.5762 123.123C35.5445 123.305 35.4705 123.48 35.3584 123.637C35.2464 123.795 35.0985 123.932 34.9233 124.042L30.9936 127.111C30.719 127.335 30.3514 127.459 29.9696 127.457C29.7741 127.454 29.5815 127.416 29.4049 127.345C29.2283 127.274 29.0716 127.172 28.9456 127.046C27.8574 125.983 27.0968 124.71 26.7311 123.339C26.2968 121.771 26.1971 120.149 26.4367 118.551C26.6995 116.8 27.2961 115.095 28.2031 113.504C29.1693 111.797 30.5216 110.266 32.1841 108.998Z" fill="#721121"/>
<g opacity="0.6">
<path d="M59.5768 130.774C59.7473 130.638 59.9485 130.533 60.1685 130.464C60.3885 130.396 60.6226 130.365 60.8569 130.375C61.0971 130.377 61.3342 130.421 61.5541 130.503C61.774 130.584 61.9722 130.702 62.1369 130.85L66.0794 134.46C66.2416 134.607 66.3677 134.78 66.4504 134.968C66.5331 135.157 66.5708 135.358 66.5613 135.559C66.5517 135.759 66.4952 135.957 66.3949 136.139C66.2947 136.322 66.1526 136.485 65.977 136.621L61.8041 139.863C61.6297 140 61.4249 140.107 61.2016 140.177C60.9782 140.246 60.7407 140.278 60.5027 140.27C60.2647 140.262 60.031 140.214 59.815 140.13C59.5989 140.045 59.4049 139.925 59.244 139.777L55.3015 136.167C55.1377 136.021 55.0102 135.848 54.9265 135.659C54.8429 135.471 54.8047 135.27 54.8142 135.068C54.8238 134.867 54.8808 134.669 54.9821 134.487C55.0834 134.304 55.2268 134.141 55.4039 134.006L59.5768 130.774ZM32.1841 108.998C33.6809 107.817 35.3707 106.823 37.2018 106.047C38.9406 105.305 40.8215 104.83 42.7571 104.642C44.6153 104.469 46.4958 104.631 48.2741 105.118C50.1635 105.662 51.8529 106.612 53.1766 107.874C54.2843 108.824 55.1548 109.952 55.7367 111.192C56.2062 112.279 56.4822 113.419 56.5559 114.574C56.629 115.699 56.5862 116.828 56.4279 117.946C56.2615 119.027 56.1079 120.108 55.9671 121.113C55.8282 122.059 55.7897 123.014 55.8519 123.966C55.8945 124.822 56.2229 125.65 56.7991 126.354C57.0472 126.677 57.1887 127.05 57.2088 127.435C57.2199 127.624 57.1795 127.813 57.0908 127.988C57.002 128.162 56.8673 128.317 56.6967 128.44L53.0102 131.326C52.6606 131.593 52.202 131.737 51.7302 131.726C51.4962 131.733 51.2635 131.692 51.0518 131.608C50.8402 131.523 50.6558 131.397 50.5142 131.239C49.49 130.234 48.7152 129.065 48.2357 127.802C47.8348 126.668 47.611 125.495 47.5701 124.312C47.5301 123.17 47.6072 122.027 47.8005 120.897C47.9925 119.816 48.1461 118.735 48.2741 117.763C48.3888 116.868 48.3888 115.966 48.2741 115.072C48.1906 114.301 47.8081 113.575 47.1861 113.007C46.6449 112.501 45.9658 112.113 45.2076 111.878C44.4494 111.643 43.6348 111.567 42.834 111.656C40.8588 111.872 39.0231 112.632 37.6114 113.818C34.8636 115.979 34.1084 118.721 35.3457 122.042C35.4975 122.388 35.5755 122.754 35.5762 123.123C35.5445 123.305 35.4705 123.48 35.3584 123.637C35.2464 123.795 35.0985 123.932 34.9233 124.042L30.9936 127.111C30.719 127.335 30.3514 127.459 29.9696 127.457C29.7741 127.454 29.5815 127.416 29.4049 127.345C29.2283 127.274 29.0716 127.172 28.9456 127.046C27.8574 125.983 27.0968 124.71 26.7311 123.339C26.2968 121.771 26.1971 120.149 26.4367 118.551C26.6995 116.8 27.2961 115.095 28.2031 113.504C29.1693 111.797 30.5216 110.266 32.1841 108.998Z" fill="#721121" fill-opacity="0.2"/>
</g>
<path d="M320.231 206.177C316.583 204.416 301.222 196.916 296 194.365C294.963 193.868 294.31 193.544 294.259 193.511C291.662 192.289 288.628 191.905 285.721 192.431C283.226 192.858 280.836 193.644 278.655 194.754C278.297 194.927 277.939 195.132 277.593 195.327C271.692 198.472 266.623 203.422 262.399 210.23C258.098 216.862 255.79 224.284 255.679 231.845C255.679 239.006 257.94 244.032 262.463 246.921C262.921 247.209 263.4 247.472 263.897 247.71C268.133 249.742 289.382 260.138 289.856 260.365H289.971C289.448 260.123 288.947 259.849 288.473 259.544C283.942 256.662 281.681 251.64 281.689 244.478C281.8 236.918 284.108 229.496 288.409 222.864C292.872 215.659 298.287 210.497 304.653 207.377C310.712 204.423 315.943 204.038 320.346 206.221L320.231 206.177Z" fill="#721121"/>
<path opacity="0.4" d="M320.349 206.242C315.945 204.081 310.714 204.463 304.655 207.388C298.742 210.27 293.643 214.953 289.359 221.437L263.349 208.717C267.368 202.654 272.117 198.191 277.583 195.284C277.928 195.1 278.287 194.884 278.645 194.711C280.823 193.599 283.214 192.817 285.711 192.398C288.618 191.867 291.654 192.251 294.249 193.479L295.99 194.333C301.212 196.872 316.573 204.373 320.221 206.134L320.349 206.242Z" fill="black"/>
<path opacity="0.3" d="M289.971 260.334H289.856C289.382 260.107 268.095 249.711 263.897 247.679C263.4 247.441 262.921 247.178 262.463 246.89C257.94 244.008 255.679 238.986 255.679 231.825C255.787 224.264 258.095 216.841 262.399 210.21C262.706 209.702 263.026 209.205 263.359 208.729L289.356 221.406C289.036 221.882 288.716 222.379 288.409 222.876C284.108 229.508 281.8 236.93 281.689 244.491C281.689 251.652 283.95 256.674 288.473 259.556C288.949 259.846 289.45 260.106 289.971 260.334Z" fill="black"/>
<path d="M308.891 20.7253C321.512 14.5652 332.256 11.9462 341.122 12.8684C344.731 13.2324 348.214 14.2103 351.362 15.7432C351.274 15.7039 351.189 15.6606 351.106 15.6135C348.06 14.1653 329.704 5.22767 325.506 3.14186C322.303 1.56146 318.746 0.560419 315.061 0.202282C306.186 -0.712735 295.438 1.90263 282.816 8.04837C263.189 17.6092 247.402 31.6587 235.455 50.1968C223.508 68.7349 217.599 87.6584 217.727 106.967L243.724 119.644C243.545 100.321 249.454 81.3938 261.453 62.8629C273.451 44.332 289.264 30.2862 308.891 20.7253Z" fill="#721121"/>
<path opacity="0.2" d="M351.159 15.6239C348.057 14.1651 344.648 13.2291 341.123 12.8681C332.265 11.9458 321.522 14.5648 308.892 20.725C289.265 30.2786 273.478 44.3281 261.531 62.8734C261.031 63.6407 260.545 64.4188 260.071 65.1861L234.01 52.4876C234.483 51.7203 234.97 50.9421 235.469 50.1748C247.467 31.6511 263.254 17.6017 282.83 8.0264C295.469 1.87345 306.217 -0.741909 315.074 0.180312C318.761 0.542083 322.318 1.54679 325.52 3.1307C329.756 5.23812 348.112 14.1866 351.159 15.6239Z" fill="black"/>
<path opacity="0.3" d="M260.007 65.1652C248.99 82.954 243.567 101.107 243.737 119.623L217.74 106.946C217.578 88.4225 223.001 70.2699 234.009 52.4883L260.007 65.1652Z" fill="black"/>
<path d="M326.557 56.6469C321.838 54.5286 315.536 55.3572 307.651 59.1325C307.384 63.0934 306.418 66.9984 304.783 70.7179C302.812 75.1994 297.078 84.4432 287.58 98.4494C277.741 112.931 270.624 126.761 266.229 139.939C261.87 152.949 259.656 166.405 259.649 179.926L259.777 186.658L277.519 195.304L285.788 199.335L285.647 192.592V192.505C285.675 179.028 287.889 165.618 292.226 152.648C296.621 139.47 303.742 125.644 313.59 111.17C323.079 97.1634 328.81 87.9159 330.781 83.4273C332.749 78.9898 333.755 74.2893 333.751 69.5508C333.751 63.1024 331.353 58.8011 326.557 56.6469Z" fill="#721121"/>
<path opacity="0.3" d="M328.234 88.2808C325.298 93.4395 320.417 101.055 313.59 111.127C303.734 125.609 296.613 139.439 292.226 152.617C287.884 165.597 285.67 179.018 285.647 192.506V192.679L285.788 199.423L277.519 195.403L259.777 186.757L259.649 180.013C259.657 166.492 261.871 153.037 266.229 140.026C270.624 126.848 277.741 113.019 287.58 98.537C294.407 88.4502 299.296 80.8382 302.249 75.7012L328.234 88.2808Z" fill="black"/>
<path opacity="0.4" d="M333.749 69.5508C333.751 74.2741 332.75 78.9595 330.792 83.3841C330.241 84.6485 329.384 86.2804 328.232 88.2798L302.247 75.6136C303.382 73.6107 304.235 71.9788 304.807 70.7179C306.442 66.9984 307.408 63.0934 307.674 59.1325C315.559 55.3572 321.861 54.5286 326.581 56.6469C331.3 58.7651 333.689 63.0664 333.749 69.5508Z" fill="black"/>
<path d="M278.928 102.46L243.739 119.622C243.56 100.299 249.47 81.3716 261.468 62.8407C273.466 44.3098 289.253 30.2603 308.829 20.6923C321.45 14.5321 332.194 11.9132 341.06 12.8354C349.927 13.7576 357.023 17.8608 362.347 25.1449C367.681 32.429 370.348 41.5143 370.348 52.4009C370.295 58.7213 369.437 65.0186 367.788 71.1839C365.793 78.559 363.1 85.7871 359.736 92.7985C357.586 97.3808 352.436 105.839 344.286 118.174C336.495 129.932 331.614 137.933 329.643 142.177C327.454 147.214 325.83 152.414 324.791 157.707C323.241 165.619 322.386 173.616 322.231 181.634L285.84 199.38L285.699 192.636C285.706 179.115 287.92 165.66 292.278 152.649C296.673 139.472 303.794 125.645 313.642 111.171C323.131 97.1646 328.862 87.9172 330.833 83.4286C332.784 78.9884 333.773 74.2879 333.751 69.552C333.751 63.0677 331.358 58.7664 326.57 56.6481C321.783 54.5299 315.357 55.4161 307.293 59.3067C299.05 63.327 292.287 69.3575 287.005 77.3981C281.839 85.0387 279.059 93.6631 278.928 102.46Z" fill="#721121"/>
<path d="M304.589 207.453C311.117 204.261 316.69 204.063 321.306 206.858C325.923 209.654 328.231 214.629 328.231 221.783C328.091 229.385 325.74 236.841 321.383 243.495C316.826 250.808 311.318 256.039 304.858 259.187C298.398 262.336 292.911 262.465 288.396 259.576C283.874 256.694 281.612 251.669 281.612 244.5C281.724 236.939 284.031 229.517 288.332 222.885C292.813 215.695 298.231 210.551 304.589 207.453Z" fill="#721121"/>
</svg>
