<svg width="24" height="24" viewBox="0 0 24 24" fill="none" xmlns="http://www.w3.org/2000/svg">
<path d="M22.379 7.58078C22.379 7.93792 22.254 8.24149 22.004 8.49149L12.3076 18.1879L10.4862 20.0093C10.2362 20.2593 9.93262 20.3843 9.57547 20.3843C9.21833 20.3843 8.91476 20.2593 8.66476 20.0093L6.84333 18.1879L1.99512 13.3397C1.74512 13.0897 1.62012 12.7861 1.62012 12.429C1.62012 12.0718 1.74512 11.7683 1.99512 11.5183L3.81655 9.69685C4.06655 9.44685 4.37012 9.32185 4.72726 9.32185C5.0844 9.32185 5.38797 9.44685 5.63797 9.69685L9.57547 13.6477L18.3612 4.84863C18.6112 4.59863 18.9148 4.47363 19.2719 4.47363C19.629 4.47363 19.9326 4.59863 20.1826 4.84863L22.004 6.67006C22.254 6.92006 22.379 7.22363 22.379 7.58078Z" fill="#FFC07F"/>
</svg>
