<svg width="88" height="88" viewBox="0 0 88 88" fill="none" xmlns="http://www.w3.org/2000/svg">
<path d="M79.0534 39.38L74.0667 33.5867C73.1134 32.4867 72.3434 30.4334 72.3434 28.9667V22.7334C72.3434 18.8467 69.1534 15.6567 65.2667 15.6567H59.0334C57.6034 15.6567 55.5134 14.8867 54.4134 13.9334L48.62 8.94672C46.09 6.78339 41.9467 6.78339 39.38 8.94672L33.6234 13.9701C32.5234 14.8867 30.4334 15.6567 29.0034 15.6567H22.66C18.7734 15.6567 15.5834 18.8467 15.5834 22.7334V29.0034C15.5834 30.4334 14.8134 32.4867 13.8967 33.5867L8.94668 39.4167C6.82002 41.9467 6.82002 46.0534 8.94668 48.5834L13.8967 54.4134C14.8134 55.5134 15.5834 57.5667 15.5834 58.9967V65.2667C15.5834 69.1534 18.7734 72.3434 22.66 72.3434H29.0034C30.4334 72.3434 32.5234 73.1134 33.6234 74.0667L39.4167 79.0534C41.9467 81.2167 46.09 81.2167 48.6567 79.0534L54.45 74.0667C55.55 73.1134 57.6034 72.3434 59.07 72.3434H65.3033C69.19 72.3434 72.38 69.1534 72.38 65.2667V59.0334C72.38 57.6034 73.15 55.5134 74.1034 54.4134L79.09 48.62C81.2167 46.09 81.2167 41.91 79.0534 39.38ZM59.2534 37.07L41.5434 54.78C41.03 55.2934 40.3334 55.5867 39.6 55.5867C38.8667 55.5867 38.17 55.2934 37.6567 54.78L28.7833 45.9067C27.72 44.8434 27.72 43.0834 28.7833 42.0201C29.8467 40.9567 31.6067 40.9567 32.67 42.0201L39.6 48.9501L55.3667 33.1834C56.43 32.1201 58.19 32.1201 59.2534 33.1834C60.3167 34.2467 60.3167 36.0067 59.2534 37.07Z" fill="#D5A06A"/>
</svg>
