<svg width="32" height="32" viewBox="0 0 32 32" fill="none" xmlns="http://www.w3.org/2000/svg">
<path d="M21.587 2.6665H10.4137C5.56033 2.6665 2.66699 5.55984 2.66699 10.4132V21.5732C2.66699 26.4398 5.56033 29.3332 10.4137 29.3332H21.5737C26.427 29.3332 29.3203 26.4398 29.3203 21.5865V10.4132C29.3337 5.55984 26.4403 2.6665 21.587 2.6665ZM22.667 22.9998H9.33366C8.78699 22.9998 8.33366 22.5465 8.33366 21.9998C8.33366 21.4532 8.78699 20.9998 9.33366 20.9998H22.667C23.2137 20.9998 23.667 21.4532 23.667 21.9998C23.667 22.5465 23.2137 22.9998 22.667 22.9998ZM22.667 16.9998H9.33366C8.78699 16.9998 8.33366 16.5465 8.33366 15.9998C8.33366 15.4532 8.78699 14.9998 9.33366 14.9998H22.667C23.2137 14.9998 23.667 15.4532 23.667 15.9998C23.667 16.5465 23.2137 16.9998 22.667 16.9998ZM22.667 10.9998H9.33366C8.78699 10.9998 8.33366 10.5465 8.33366 9.99984C8.33366 9.45317 8.78699 8.99984 9.33366 8.99984H22.667C23.2137 8.99984 23.667 9.45317 23.667 9.99984C23.667 10.5465 23.2137 10.9998 22.667 10.9998Z" fill="#721121"/>
</svg>
