<svg width="32" height="32" viewBox="0 0 32 32" fill="none" xmlns="http://www.w3.org/2000/svg">
<path d="M22.4 2.66699H18.9333C14.6667 2.66699 12 5.33366 12 9.60033V15.0003H20.3333C20.88 15.0003 21.3333 15.4537 21.3333 16.0003C21.3333 16.547 20.88 17.0003 20.3333 17.0003H12V22.4003C12 26.667 14.6667 29.3337 18.9333 29.3337H22.3867C26.6533 29.3337 29.32 26.667 29.32 22.4003V9.60033C29.3333 5.33366 26.6667 2.66699 22.4 2.66699Z" fill="#721121"/>
<path d="M6.08187 15.0004L8.84188 12.2404C9.04188 12.0404 9.13521 11.7871 9.13521 11.5338C9.13521 11.2804 9.04188 11.0138 8.84188 10.8271C8.45521 10.4404 7.81521 10.4404 7.42854 10.8271L2.96188 15.2938C2.57521 15.6804 2.57521 16.3204 2.96188 16.7071L7.42854 21.1738C7.81521 21.5604 8.45521 21.5604 8.84188 21.1738C9.22854 20.7871 9.22854 20.1471 8.84188 19.7604L6.08187 17.0004H12.0019V15.0004H6.08187V15.0004Z" fill="#721121"/>
</svg>
