<svg width="64" height="64" viewBox="0 0 64 64" fill="none" xmlns="http://www.w3.org/2000/svg">
<path d="M17.0667 42.6666C16.0192 42.6949 14.9765 42.5136 14.0001 42.1333C13.1948 41.9302 12.4584 41.516 11.8667 40.9333C11.3483 40.3674 10.9005 39.7406 10.5334 39.0666C10.2588 38.3894 10.1228 37.664 10.1334 36.9333C10.1368 36.2471 10.2726 35.568 10.5334 34.9333C10.9005 34.2593 11.3483 33.6325 11.8667 33.0666C12.4584 32.4839 13.1948 32.0697 14.0001 31.8666C14.9765 31.4864 16.0192 31.305 17.0667 31.3333H17.3334C17.8235 30.2132 18.6065 29.2459 19.6001 28.5333C20.3712 27.9541 21.3027 27.6281 22.2667 27.6C22.6897 27.5251 23.1256 27.5884 23.5098 27.7805C23.894 27.9726 24.2062 28.2833 24.4001 28.6666C24.6084 28.8982 24.7446 29.1856 24.792 29.4935C24.8394 29.8014 24.7958 30.1164 24.6667 30.4C24.5615 30.6698 24.3787 30.9024 24.1414 31.0685C23.9041 31.2346 23.623 31.3268 23.3334 31.3333H23.0667L21.7334 31.0666L20.5334 30.2666L19.4667 30C18.8001 30 18.2667 30.4 17.8667 31.3333C18.8283 31.4135 19.7722 31.6383 20.6667 32C21.401 32.3335 22.0764 32.7838 22.6667 33.3333C23.1484 33.8744 23.5117 34.5102 23.7334 35.2C23.9941 35.8347 24.13 36.5138 24.1334 37.2C24.099 37.8968 23.9173 38.5785 23.6001 39.2C23.2655 39.8545 22.8136 40.4421 22.2667 40.9333C21.5977 41.5107 20.8298 41.9624 20.0001 42.2666C19.0484 42.5488 18.0592 42.6836 17.0667 42.6666ZM14.4001 47.6C13.3386 47.6781 12.2879 47.3438 11.4667 46.6666C11.1625 46.4323 10.9189 46.1283 10.7565 45.7803C10.5941 45.4323 10.5176 45.0504 10.5334 44.6666C10.5032 44.0443 10.6919 43.431 11.0667 42.9333C11.3973 42.3996 11.9238 42.0167 12.5334 41.8666C12.4001 42.5333 12.5334 42.9333 12.9334 43.2C13.3976 43.5295 13.9687 43.6723 14.5334 43.6L17.2001 43.3333C18.1197 43.135 19.0595 43.0454 20.0001 43.0666C20.8339 43.0199 21.6645 43.2045 22.4001 43.6C23.0509 43.9428 23.6021 44.448 24.0001 45.0666L24.8001 47.0666C24.9335 47.7715 24.9335 48.4951 24.8001 49.2C24.6392 49.9042 24.3693 50.579 24.0001 51.2C23.6021 51.8186 23.0509 52.3238 22.4001 52.6666C21.7061 53.0447 20.9231 53.229 20.1334 53.2C19.0968 53.2399 18.0729 52.9606 17.2001 52.4C16.842 52.0575 16.5616 51.6423 16.3776 51.1823C16.1936 50.7223 16.1103 50.2282 16.1334 49.7333C16.1194 49.4656 16.1595 49.1977 16.2511 48.9458C16.3427 48.6938 16.4841 48.4629 16.6667 48.2666C17.0582 47.9967 17.5247 47.8568 18.0001 47.8666C18.2168 47.8482 18.4349 47.8742 18.6413 47.943C18.8476 48.0118 19.0377 48.1219 19.2001 48.2666C19.3895 48.4581 19.5353 48.6884 19.6273 48.9415C19.7194 49.1947 19.7556 49.4648 19.7334 49.7333C19.7334 51.4666 20.2667 52.4 21.3334 52.4C21.6661 52.4217 21.9989 52.3598 22.3017 52.2201C22.6044 52.0804 22.8674 51.8672 23.0667 51.6C23.4809 51.064 23.7143 50.4104 23.7334 49.7333C23.7465 49.3626 23.6821 48.9933 23.5443 48.6489C23.4066 48.3045 23.1985 47.9927 22.9334 47.7333C22.2659 47.28 21.4733 47.0469 20.6667 47.0666L17.8667 47.3333L14.4001 47.6ZM17.2001 31.6C16.6096 31.6474 16.0494 31.8808 15.6001 32.2666C15.1852 32.6812 14.8665 33.1819 14.6667 33.7333C14.4111 34.4226 14.2322 35.1381 14.1334 35.8666C13.9999 36.5715 13.9999 37.2951 14.1334 38C14.2322 38.7285 14.4111 39.444 14.6667 40.1333C14.8482 40.6935 15.1694 41.1983 15.6001 41.6C15.7646 41.7967 15.9679 41.9575 16.1973 42.0722C16.4267 42.1869 16.6773 42.2531 16.9334 42.2666C17.4906 42.2446 18.0171 42.0053 18.4001 41.6C18.8295 41.1693 19.1893 40.6745 19.4667 40.1333C19.7224 39.444 19.9012 38.7285 20.0001 38C20.1108 37.2946 20.1555 36.5803 20.1334 35.8666L19.7334 33.7333C19.5338 33.148 19.162 32.6368 18.6667 32.2666C18.2838 31.8612 17.7573 31.6219 17.2001 31.6Z" fill="#721121"/>
<path d="M32.5329 47.4662C31.3208 47.4265 30.1344 47.107 29.0662 46.5329C28.1231 45.9916 27.3408 45.2093 26.7996 44.2662C26.2401 43.2663 25.8355 42.1874 25.5996 41.0662C25.3535 39.9273 25.3084 38.754 25.4662 37.5996C25.7266 36.528 26.1302 35.4965 26.6662 34.5329C27.2203 33.5533 28.0566 32.7635 29.0662 32.2662C30.1534 31.6199 31.402 31.2962 32.6662 31.3329L34.7996 31.5996C35.4537 31.7844 36.0812 32.0533 36.6662 32.3995C37.2106 32.7873 37.6653 33.2875 37.9996 33.8662C38.3801 34.5107 38.5653 35.2518 38.5329 35.9995C38.5771 36.5467 38.4855 37.0963 38.2662 37.5996C38.0289 38.0134 37.7116 38.376 37.3329 38.6662L35.9996 39.4662L34.5329 39.9995L32.9329 40.3995L31.5996 40.9329C30.9329 41.1996 30.3996 41.5995 30.3996 42.1329C30.3306 42.4228 30.3441 42.7262 30.4383 43.0089C30.5325 43.2916 30.7038 43.5423 30.9329 43.7329C31.3368 44.1926 31.8377 44.5569 32.3996 44.7995L34.2662 45.0662C35.1597 45.1151 36.0459 44.8819 36.7996 44.3995C37.5822 43.7695 38.1809 42.9406 38.5329 41.9995C38.4625 43.0587 38.0926 44.076 37.4662 44.9329C36.9226 45.7239 36.189 46.3657 35.3329 46.7995C34.4657 47.2407 33.5059 47.4692 32.5329 47.4662ZM34.3996 32.7995C34.2224 32.4914 33.971 32.2325 33.6683 32.0462C33.3656 31.8599 33.0211 31.7522 32.6662 31.7329C32.2959 31.7629 31.9367 31.874 31.6141 32.0584C31.2915 32.2427 31.0134 32.4957 30.7996 32.7995C30.2441 33.5119 29.8362 34.3278 29.5996 35.1995C29.3725 36.2953 29.2829 37.415 29.3329 38.5329C29.3325 39.6341 29.5595 40.7235 29.9996 41.7329C30.1764 41.3181 30.4509 40.9522 30.7996 40.6662L31.8662 39.8662C32.3219 39.6943 32.7323 39.4207 33.0662 39.0662C33.41 38.7896 33.7229 38.4767 33.9996 38.1329C34.3699 37.7081 34.643 37.2076 34.7996 36.6662C34.9711 36.0132 35.0607 35.3414 35.0662 34.6662C35.0472 33.9891 34.8137 33.3355 34.3996 32.7995Z" fill="#721121"/>
<path d="M40.1338 47.0663C40.4005 46.6663 40.5338 44.533 40.5338 40.3997V31.5997C41.3757 32.3784 42.4568 32.8484 43.6005 32.933L45.0671 32.533L46.9338 31.733L48.9338 31.333C52.0005 31.333 53.6005 32.933 53.6005 36.2663V40.3997C53.6005 44.533 53.7338 46.6663 54.0005 47.0663H49.2005C49.4671 46.6663 49.6005 44.533 49.6005 40.3997V35.5997C49.6005 33.4663 49.0671 32.3997 47.8671 32.133H46.6671L45.4671 32.6663L44.5338 33.0663V40.2663C44.5338 44.3997 44.6671 46.533 45.0671 46.933L40.1338 47.0663Z" fill="#721121"/>
<path d="M10.6667 14.5331C9.4667 14.5331 8.6667 14.2665 8.2667 13.5998C7.81618 12.7369 7.72049 11.7322 8.00003 10.7998C8.29993 11.0857 8.65697 11.3047 9.04766 11.4426C9.43835 11.5805 9.85381 11.6341 10.2667 11.5998L12.4 11.1998L14.6667 10.9331C15.4267 10.9481 16.1667 11.1794 16.8 11.5998C17.091 11.7509 17.3331 11.9815 17.4984 12.2647C17.6636 12.5479 17.745 12.8721 17.7334 13.1998C17.7236 13.5706 17.6326 13.9347 17.4667 14.2665C17.2936 14.6505 17.0694 15.0093 16.8 15.3331L16 16.3998L15.0667 17.8665C14.7651 18.504 14.5413 19.1755 14.4 19.8665C14.1195 20.7317 13.9405 21.6266 13.8667 22.5331C13.7505 23.7294 13.706 24.9316 13.7334 26.1331H10.6667C10.6898 25.2831 10.7789 24.4361 10.9334 23.5998C11.0581 22.8432 11.3299 22.1185 11.7334 21.4665C12.0418 20.9032 12.3987 20.3678 12.8 19.8665C13.0898 19.333 13.4485 18.8399 13.8667 18.3998L14.9334 17.0665C15.3071 16.8055 15.5875 16.4317 15.7334 15.9998C15.8642 15.8829 15.9678 15.7388 16.037 15.5775C16.1061 15.4163 16.139 15.2418 16.1334 15.0665C16.1527 14.9788 16.1542 14.8881 16.1376 14.7998C16.1211 14.7116 16.0869 14.6276 16.0371 14.5529C15.9873 14.4782 15.9229 14.4143 15.8478 14.3651C15.7727 14.3159 15.6884 14.2823 15.6 14.2665L14.5334 13.9998L12.6667 14.2665L10.6667 14.5331Z" fill="#721121"/>
<path d="M24.5334 26.7998C23.6784 26.845 22.8232 26.7145 22.0206 26.4164C21.2179 26.1183 20.4849 25.6589 19.8667 25.0665C19.4802 24.6889 19.1836 24.2292 18.999 23.7214C18.8143 23.2136 18.7463 22.6708 18.8001 22.1331C18.8001 21.6095 18.9064 21.0913 19.1127 20.61C19.319 20.1287 19.6209 19.6943 20.0001 19.3331C20.7031 18.6604 21.5808 18.1985 22.5334 17.9998C21.6084 17.8319 20.7647 17.3632 20.1334 16.6665C19.6428 16.0607 19.3621 15.3121 19.3334 14.5331C19.3162 13.7457 19.6027 12.9818 20.1334 12.3998C20.6196 11.8199 21.2706 11.4014 22.0001 11.1998C22.8191 10.9376 23.6735 10.8027 24.5334 10.7998H26.5334C27.1453 10.9853 27.7286 11.2545 28.2667 11.5998C28.727 11.8811 29.1334 12.2424 29.4667 12.6665C29.7378 13.2036 29.875 13.7982 29.8667 14.3998C29.8381 15.1788 29.5573 15.9274 29.0667 16.5331C28.4355 17.2299 27.5918 17.6986 26.6667 17.8665C27.8386 18.1121 28.8812 18.7756 29.6001 19.7331C30.2424 20.5675 30.5299 21.6215 30.4001 22.6665C30.3596 23.2231 30.1949 23.7636 29.918 24.2481C29.6411 24.7327 29.2591 25.149 28.8001 25.4665C27.5687 26.379 26.0652 26.8489 24.5334 26.7998ZM25.8667 18.6665C25.4753 18.3966 25.0088 18.2567 24.5334 18.2665L23.3334 18.6665C22.9268 18.9531 22.6415 19.3809 22.5334 19.8665C22.2626 20.3557 22.1247 20.9073 22.1334 21.4665C22.0022 22.0368 22.0022 22.6295 22.1334 23.1998C22.1411 23.7569 22.2781 24.3046 22.5334 24.7998C22.7053 25.2555 22.9789 25.6659 23.3334 25.9998L24.5334 26.3998C25.0088 26.4096 25.4753 26.2697 25.8667 25.9998C26.1787 25.6319 26.4471 25.2293 26.6667 24.7998L27.0667 23.1998C27.1979 22.6295 27.1979 22.0368 27.0667 21.4665C27.0755 20.9073 26.9376 20.3557 26.6667 19.8665C26.5586 19.3809 26.2734 18.9531 25.8667 18.6665ZM22.5334 14.6665C22.568 15.4487 22.7489 16.2175 23.0667 16.9331C23.2074 17.2041 23.4171 17.4331 23.6746 17.597C23.9321 17.7609 24.2284 17.8538 24.5334 17.8665C24.7289 17.8743 24.924 17.843 25.1072 17.7743C25.2903 17.7056 25.4579 17.6009 25.6001 17.4665C25.8667 17.3331 26.0001 17.0665 26.2667 16.6665C26.5334 16.2665 26.4001 15.9998 26.5334 15.5998C26.6667 15.1998 26.6667 14.9331 26.6667 14.5331C26.6837 13.6432 26.4529 12.7661 26.0001 11.9998C25.8497 11.7369 25.6375 11.5146 25.382 11.352C25.1265 11.1894 24.8353 11.0914 24.5334 11.0665C24.0001 11.0665 23.6001 11.4665 23.2001 11.9998C22.7297 12.8076 22.4985 13.7324 22.5334 14.6665Z" fill="#721121"/>
<path d="M32.0002 14.2663L31.2002 11.333H43.2002L42.4002 14.2663C42.0094 13.7247 41.5099 13.2706 40.9335 12.933C40.2792 12.3933 39.4998 12.0266 38.6669 11.8663V21.1997C38.6669 24.2663 38.8002 25.8663 39.0669 26.133H35.3335C35.6002 25.8663 35.6002 24.2663 35.6002 21.1997V11.8663C34.1485 12.2025 32.8688 13.0556 32.0002 14.2663Z" fill="#721121"/>
<path d="M50.1331 26.4C49.1644 26.3685 48.212 26.1418 47.3331 25.7334C46.4827 25.3519 45.7472 24.7543 45.1998 24C44.5998 23.2969 44.1464 22.4809 43.8664 21.6C43.4869 20.7637 43.3044 19.8514 43.3331 18.9334C43.2721 17.8821 43.4302 16.8295 43.7974 15.8426C44.1647 14.8556 44.733 13.9557 45.4664 13.2C46.1908 12.4999 47.0471 11.9507 47.9855 11.5845C48.924 11.2182 49.926 11.0422 50.9331 11.0667C51.7513 11.0453 52.566 11.1811 53.3331 11.4667C53.9957 11.6611 54.5943 12.0294 55.0664 12.5334C55.323 12.7118 55.5308 12.9517 55.6706 13.2313C55.8103 13.5108 55.8777 13.821 55.8664 14.1334C55.8327 14.5444 55.6417 14.9265 55.3331 15.2C55.191 15.3345 55.0234 15.4391 54.8402 15.5078C54.657 15.5765 54.4619 15.6079 54.2664 15.6C54.0911 15.6056 53.9166 15.5727 53.7554 15.5036C53.5941 15.4345 53.45 15.3309 53.3331 15.2C53.1589 15.0841 53.0181 14.9247 52.9245 14.7376C52.831 14.5505 52.788 14.3422 52.7997 14.1334C52.884 13.423 52.6931 12.7074 52.2664 12.1334C52.041 11.9062 51.7699 11.7293 51.4712 11.6144C51.1724 11.4995 50.8527 11.4491 50.5331 11.4667C49.8695 11.4376 49.2145 11.6248 48.6664 12C48.164 12.3403 47.7521 12.798 47.4664 13.3334C47.1853 13.9329 46.962 14.558 46.7997 15.2C46.6454 15.8563 46.5561 16.5262 46.5331 17.2C46.5257 18.2357 46.6603 19.2676 46.9331 20.2667C47.2481 21.0643 47.6505 21.8245 48.1331 22.5334C48.5807 23.1254 49.1794 23.5859 49.8664 23.8667C50.4219 24.2257 51.0717 24.4114 51.7331 24.4C52.6398 24.4008 53.5246 24.1213 54.2664 23.6C55.1258 23.0165 55.779 22.1766 56.1331 21.2C55.9992 22.2034 55.6341 23.1619 55.0664 24C54.519 24.7543 53.7834 25.3519 52.9331 25.7334C52.0541 26.1418 51.1018 26.3685 50.1331 26.4Z" fill="#721121"/>
</svg>
