<svg width="88" height="88" viewBox="0 0 88 88" fill="none" xmlns="http://www.w3.org/2000/svg">
<path d="M67.9801 15.1064L47.8134 7.55309C45.7234 6.78309 42.3134 6.78309 40.2234 7.55309L20.0567 15.1064C16.1701 16.5731 13.0167 21.1198 13.0167 25.2631V54.9631C13.0167 57.9331 14.9601 61.8564 17.3434 63.6164L37.5101 78.6864C41.0667 81.3631 46.8967 81.3631 50.4534 78.6864L70.6201 63.6164C73.0034 61.8198 74.9467 57.9331 74.9467 54.9631V25.2631C74.9834 21.1198 71.8301 16.5731 67.9801 15.1064ZM56.7601 35.6398L40.9934 51.4064C40.4434 51.9564 39.7467 52.2131 39.0501 52.2131C38.3534 52.2131 37.6567 51.9564 37.1067 51.4064L31.2401 45.4664C30.1767 44.4031 30.1767 42.6431 31.2401 41.5798C32.3034 40.5164 34.0634 40.5164 35.1267 41.5798L39.0867 45.5398L52.9101 31.7164C53.9734 30.6531 55.7334 30.6531 56.7967 31.7164C57.8601 32.7798 57.8601 34.5764 56.7601 35.6398Z" fill="#D5A06A"/>
</svg>
