<svg width="88" height="88" viewBox="0 0 88 88" fill="none" xmlns="http://www.w3.org/2000/svg">
<path d="M41.9744 59.4933L42.8842 58.5898L48.3375 64.0437L47.4277 64.9535V64.9541C47.2865 65.0958 47.1138 65.2026 46.9232 65.2651L41.4589 67.0778C40.9968 67.2316 40.4877 67.1105 40.1439 66.7655C39.8001 66.4206 39.6807 65.9115 39.8351 65.4494L41.661 59.9977V59.9983C41.7241 59.8077 41.8314 59.6344 41.9743 59.4932L41.9744 59.4933ZM44.7048 56.7749L50.1565 62.2266L75.5459 36.8343L70.0896 31.3781L44.7048 56.7749ZM79.244 29.4842L77.4211 27.6739C76.939 27.1941 76.2863 26.9249 75.6057 26.9249C74.9255 26.9249 74.2729 27.1946 73.7907 27.6751L71.907 29.5594L77.3638 35.0162L79.2464 33.1331H79.2469C79.7296 32.6486 80.0005 31.9926 80 31.3084C79.9994 30.6242 79.7279 29.9682 79.2441 29.4843L79.244 29.4842ZM49.2452 66.7711L59.427 56.5893V78.7138C59.427 79.0547 59.2915 79.3819 59.0504 79.6229C58.8094 79.864 58.4822 79.9995 58.1413 79.9995H9.28595C8.57595 79.9995 8.00024 79.4238 8.00024 78.7138V23.4285H22.1412C22.4822 23.4285 22.8093 23.293 23.0504 23.0519C23.2915 22.8109 23.4269 22.4837 23.4269 22.1427V8H58.141C58.4819 8 58.8091 8.13546 59.0501 8.37653C59.2912 8.6176 59.4267 8.94477 59.4267 9.2857V38.4088L41.9881 55.8561L40.1601 57.6715C39.7347 58.0951 39.4139 58.6123 39.2227 59.1816L37.3969 64.6343V64.6349C37.1679 65.3128 37.1334 66.0417 37.2965 66.7385C37.46 67.4353 37.8153 68.073 38.3216 68.5786C38.8273 69.0865 39.4649 69.4435 40.1623 69.6094C40.8597 69.7759 41.5892 69.7443 42.2699 69.5187L47.729 67.7067C48.3006 67.5179 48.8201 67.197 49.246 66.7711L49.2452 66.7711ZM15.7126 32.4288C15.7126 32.7698 15.848 33.0969 16.0891 33.338C16.3302 33.5791 16.6573 33.7145 16.9983 33.7145H50.4251C51.1351 33.7145 51.7108 33.1388 51.7108 32.4288C51.7108 31.7188 51.1351 31.1431 50.4251 31.1431H16.9983C16.2883 31.1431 15.7126 31.7188 15.7126 32.4288ZM15.7126 37.5716C15.7126 37.9126 15.848 38.2398 16.0891 38.4808C16.3302 38.7219 16.6573 38.8573 16.9983 38.8573H50.4251C51.1351 38.8573 51.7108 38.2816 51.7108 37.5716C51.7108 36.8616 51.1351 36.2859 50.4251 36.2859H16.9983C16.2883 36.2859 15.7126 36.8616 15.7126 37.5716ZM15.7126 42.7145C15.7126 43.0554 15.848 43.3826 16.0891 43.6236C16.3302 43.8647 16.6573 44.0002 16.9983 44.0002H47.8552C48.5652 44.0002 49.1409 43.4245 49.1409 42.7145C49.1409 42.0045 48.5652 41.4288 47.8552 41.4288H16.9983C16.6573 41.4288 16.3302 41.5642 16.0891 41.8053C15.848 42.0464 15.7126 42.3735 15.7126 42.7145ZM33.7124 65.8571C33.7124 65.5162 33.577 65.189 33.3359 64.948C33.0948 64.7069 32.7677 64.5714 32.4267 64.5714H16.9983C16.2883 64.5714 15.7126 65.1471 15.7126 65.8571C15.7126 66.5672 16.2883 67.1429 16.9983 67.1429H32.4267C33.1367 67.1423 33.7119 66.5672 33.7119 65.8571H33.7124ZM20.8554 8.7557L8.75315 20.8579H20.8554V8.7557Z" fill="#D5A06A"/>
</svg>
