<svg width="588" height="468" viewBox="0 0 588 468" fill="none" xmlns="http://www.w3.org/2000/svg">
<path d="M510.241 451.82C488.39 421.055 456.308 405.995 424.574 406.296C401.394 406.501 377.213 415.771 355.678 404.324C335.738 393.727 323.086 368.001 307.581 348.189C283.436 317.594 251.53 300.401 218.296 300.077C195.995 299.981 171.446 306.841 153.049 289.945C140.642 278.54 134.295 258.893 125.577 242.45C100.026 194.242 50.8356 174.143 9.66797 195.447V451.478L510.241 451.82Z" fill="#FFF2E5"/>
<path d="M80.2922 56.7513C80.2922 57.2579 77.5122 57.6823 74.068 57.6823C70.6237 57.6823 67.8438 57.2579 67.8438 56.7513C67.8438 56.2447 70.6339 55.834 74.068 55.834C77.502 55.834 80.2922 56.2447 80.2922 56.7513Z" fill="#263238"/>
<path d="M86.9022 34.0791C87.2802 34.0791 87.5867 37.858 87.5867 42.5405C87.5867 47.223 87.2802 51.0018 86.9022 51.0018C86.5242 51.0018 86.2178 47.2093 86.2178 42.5405C86.2178 37.8716 86.5242 34.0791 86.9022 34.0791Z" fill="#263238"/>
<path d="M93.9453 56.2171C93.9453 55.6969 96.7253 55.2861 100.159 55.2861C103.593 55.2861 106.383 55.6969 106.383 56.2171C106.383 56.7374 103.604 57.1345 100.159 57.1345C96.715 57.1345 93.9453 56.7237 93.9453 56.2171Z" fill="#263238"/>
<path d="M87.3319 78.8915C86.9539 78.8915 86.6475 75.0989 86.6475 70.4301C86.6475 65.7613 86.9539 61.9688 87.3319 61.9688C87.7099 61.9688 88.0164 65.7613 88.0164 70.4301C88.0164 75.0989 87.7099 78.8915 87.3319 78.8915Z" fill="#263238"/>
<path d="M97.3898 69.1833C97.1036 69.4982 95.8772 68.1839 94.6507 66.2123C93.4243 64.2407 92.6782 62.406 92.9644 62.1048C93.2505 61.8036 94.4872 63.1043 95.7034 65.0622C96.9197 67.0201 97.6862 68.841 97.3898 69.1833Z" fill="#263238"/>
<path d="M96.8065 43.4417C97.0825 43.7977 96.2648 45.4818 94.9975 47.1932C93.7302 48.9046 92.4833 50.0137 92.2176 49.6577C91.9518 49.3017 92.7593 47.6176 94.0266 45.8925C95.2939 44.1674 96.5408 43.0857 96.8065 43.4417Z" fill="#263238"/>
<path d="M82.5407 50.0149C82.3056 50.3982 81.1302 49.6315 79.914 48.2761C78.6978 46.9206 77.9313 45.5377 78.1663 45.127C78.4014 44.7163 79.587 45.5104 80.8032 46.8658C82.0194 48.2213 82.7655 49.6041 82.5407 50.0149Z" fill="#263238"/>
<path d="M81.9881 61.3244C82.264 61.6803 81.5588 63.3233 80.4039 65.0211C79.249 66.7188 78.0941 67.7594 77.8182 67.4582C77.5422 67.157 78.2372 65.4729 79.3921 63.7751C80.547 62.0774 81.7428 60.9684 81.9881 61.3244Z" fill="#263238"/>
<path d="M431.462 12.8706C431.462 13.1579 429.878 13.3905 427.926 13.3905C425.974 13.3905 424.39 13.1579 424.39 12.8706C424.39 12.5832 425.974 12.3506 427.926 12.3506C429.878 12.3506 431.462 12.5832 431.462 12.8706Z" fill="#263238"/>
<path d="M435.212 0C435.427 0 435.601 2.14957 435.601 4.79203C435.601 7.4345 435.427 9.59775 435.212 9.59775C434.998 9.59775 434.824 7.44819 434.824 4.79203C434.824 2.13588 434.998 0 435.212 0Z" fill="#263238"/>
<path d="M439.209 12.5551C439.209 12.2678 440.793 12.0352 442.745 12.0352C444.697 12.0352 446.271 12.2678 446.271 12.5551C446.271 12.8425 444.697 13.0888 442.745 13.0888C440.793 13.0888 439.209 12.8562 439.209 12.5551Z" fill="#263238"/>
<path d="M435.458 25.4376C435.243 25.4376 435.069 23.288 435.069 20.6319C435.069 17.9757 435.243 15.8262 435.458 15.8262C435.672 15.8262 435.846 17.9757 435.846 20.6319C435.846 23.288 435.672 25.4376 435.458 25.4376Z" fill="#263238"/>
<path d="M441.173 19.8936C440.999 20.0716 440.304 19.3186 439.609 18.2095C438.914 17.1005 438.495 16.0463 438.658 15.8546C438.822 15.6629 439.517 16.4296 440.212 17.5386C440.907 18.6477 441.336 19.7293 441.173 19.8936Z" fill="#263238"/>
<path d="M440.834 5.31291C440.987 5.51828 440.527 6.47668 439.812 7.44878C439.096 8.42088 438.381 9.037 438.228 8.81793C438.074 8.59887 438.534 7.66784 439.25 6.69574C439.965 5.72364 440.681 5.10753 440.834 5.31291Z" fill="#263238"/>
<path d="M432.741 9.03707C432.598 9.25614 431.934 8.81801 431.249 8.05128C430.564 7.28456 430.115 6.49045 430.227 6.27138C430.34 6.05232 431.035 6.47674 431.719 7.24347C432.404 8.01019 432.874 8.81801 432.741 9.03707Z" fill="#263238"/>
<path d="M432.422 15.4711C432.575 15.6627 432.177 16.5938 431.523 17.5659C430.869 18.538 430.215 19.1404 430.052 18.935C429.888 18.7296 430.297 17.7986 430.951 16.8402C431.604 15.8818 432.299 15.2794 432.422 15.4711Z" fill="#263238"/>
<path d="M270.952 120.567C269.168 121.096 267.319 121.096 265.535 120.567C267.318 120.019 269.17 120.019 270.952 120.567Z" fill="#263238"/>
<path d="M273.884 110.695C274.28 113.117 274.28 115.625 273.884 118.048C273.476 115.627 273.476 113.116 273.884 110.695Z" fill="#263238"/>
<path d="M276.889 120.321C278.673 119.792 280.521 119.792 282.305 120.321C280.523 120.868 278.671 120.868 276.889 120.321Z" fill="#263238"/>
<path d="M274.016 130.193C273.621 127.766 273.621 125.254 274.016 122.827C274.411 125.254 274.411 127.766 274.016 130.193Z" fill="#263238"/>
<path d="M278.391 125.962C278.268 126.098 277.737 125.523 277.206 124.675C276.675 123.826 276.338 123.018 276.47 122.867C276.603 122.717 277.134 123.305 277.666 124.154C278.197 125.003 278.524 125.825 278.391 125.962Z" fill="#263238"/>
<path d="M278.146 114.761C278.259 114.926 277.911 115.651 277.36 116.404C276.808 117.158 276.257 117.623 276.144 117.472C276.032 117.322 276.379 116.582 276.931 115.843C277.482 115.104 278.024 114.611 278.146 114.761Z" fill="#263238"/>
<path d="M271.932 117.623C271.83 117.788 271.32 117.459 270.788 116.87C270.257 116.282 269.92 115.666 270.032 115.501C270.145 115.337 270.645 115.666 271.177 116.254C271.708 116.843 272.035 117.445 271.932 117.623Z" fill="#263238"/>
<path d="M271.686 122.582C271.809 122.732 271.502 123.444 271.002 124.184C270.501 124.923 269.98 125.402 269.878 125.252C269.776 125.101 270.062 124.389 270.562 123.65C271.063 122.91 271.564 122.404 271.686 122.582Z" fill="#263238"/>
<path d="M414.843 135.916C414.843 136.203 413.259 136.435 411.307 136.435C409.355 136.435 407.771 136.271 407.771 135.916C407.771 135.56 409.344 135.382 411.297 135.382C413.249 135.382 414.843 135.628 414.843 135.916Z" fill="#FFF2E5"/>
<path d="M418.594 123.032C418.809 123.032 418.982 125.182 418.982 127.838C418.982 130.494 418.809 132.644 418.594 132.644C418.38 132.644 418.206 130.494 418.206 127.838C418.206 125.182 418.38 123.032 418.594 123.032Z" fill="#FFF2E5"/>
<path d="M422.592 135.602C422.592 135.315 424.176 135.082 426.128 135.082C428.08 135.082 429.654 135.315 429.654 135.602C429.654 135.889 428.08 136.122 426.128 136.122C424.176 136.122 422.592 135.889 422.592 135.602Z" fill="#FFF2E5"/>
<path d="M418.841 148.485C418.627 148.485 418.453 146.322 418.453 143.68C418.453 141.037 418.627 138.874 418.841 138.874C419.056 138.874 419.23 141.024 419.23 143.68C419.23 146.336 419.015 148.485 418.841 148.485Z" fill="#FFF2E5"/>
<path d="M424.552 142.952C424.379 143.144 423.684 142.391 422.989 141.282C422.294 140.173 421.875 139.105 422.038 138.927C422.202 138.749 422.897 139.488 423.592 140.597C424.287 141.706 424.716 142.774 424.552 142.952Z" fill="#FFF2E5"/>
<path d="M424.217 128.358C424.37 128.563 423.91 129.508 423.195 130.48C422.479 131.452 421.764 132.082 421.611 131.849C421.457 131.616 421.917 130.699 422.633 129.713C423.348 128.728 424.063 128.152 424.217 128.358Z" fill="#FFF2E5"/>
<path d="M416.122 132.066C415.979 132.299 415.315 131.861 414.63 131.094C413.945 130.327 413.496 129.52 413.608 129.301C413.72 129.081 414.415 129.52 415.1 130.286C415.785 131.053 416.255 131.847 416.122 132.066Z" fill="#FFF2E5"/>
<path d="M415.804 138.504C415.957 138.71 415.558 139.641 414.905 140.599C414.251 141.557 413.597 142.187 413.434 141.968C413.27 141.749 413.679 140.832 414.333 139.873C414.986 138.915 415.64 138.313 415.804 138.504Z" fill="#FFF2E5"/>
<path d="M228.588 13.7061L229.048 15.1847C229.447 16.4593 230.029 17.616 230.762 18.5886C231.495 19.5613 232.364 20.3307 233.32 20.853L234.526 21.5102L233.371 22.1264C232.4 22.6555 231.519 23.441 230.78 24.436C230.041 25.431 229.458 26.6151 229.068 27.9179L228.741 28.9858L228.25 27.6166C227.372 25.1505 225.804 23.247 223.886 22.318L222.864 21.7977L224.234 20.9215C225.96 19.7829 227.313 17.8336 228.036 15.4449L228.588 13.7061Z" fill="#FFF2E5"/>
<path d="M49.0876 124.499L49.3942 125.485C49.6582 126.333 50.0452 127.103 50.533 127.749C51.0207 128.395 51.5994 128.906 52.2355 129.25L53.0326 129.688L52.2661 130.099C51.6218 130.452 51.0367 130.975 50.5452 131.635C50.0538 132.296 49.6659 133.082 49.4044 133.946L49.1898 134.658L48.8627 133.768C48.2795 132.13 47.2416 130.863 45.9704 130.236L45.2754 129.907L46.185 129.318C47.3202 128.567 48.216 127.294 48.7094 125.731L49.0876 124.499Z" fill="#FFF2E5"/>
<path d="M501.391 28.9863L501.687 29.9721C502.226 31.6839 503.247 33.0419 504.528 33.751L505.326 34.1754L504.569 34.5999C503.923 34.9481 503.336 35.467 502.842 36.1256C502.349 36.7842 501.96 37.5691 501.697 38.4335L501.483 39.1591L501.166 38.2555C500.577 36.6211 499.536 35.3587 498.263 34.7368L497.568 34.3945L498.478 33.8057C499.623 33.0715 500.523 31.7928 501.002 30.2186L501.391 28.9863Z" fill="#FFF2E5"/>
<path d="M502.75 70.5527L503.21 72.0314C503.607 73.3093 504.189 74.4693 504.922 75.4445C505.655 76.4197 506.525 77.1908 507.482 77.7134L508.688 78.3569L507.533 78.9867C506.562 79.5148 505.681 80.2982 504.94 81.2906C504.199 82.283 503.614 83.4643 503.22 84.7645L502.903 85.8462L502.412 84.477C501.534 82.0109 499.967 80.1073 498.048 79.1784L497.026 78.6718L498.396 77.7819C500.112 76.6653 501.464 74.7467 502.198 72.3874L502.75 70.5527Z" fill="#263238"/>
<path d="M313.907 4.73828L314.121 5.43656C314.313 6.03945 314.592 6.585 314.943 7.04114C315.294 7.49728 315.71 7.85481 316.165 8.09272L316.728 8.40762L316.186 8.69515C315.724 8.94167 315.305 9.3116 314.953 9.78239C314.602 10.2532 314.326 10.815 314.142 11.4335L313.988 11.94L313.753 11.3102C313.345 10.15 312.61 9.2539 311.709 8.81837L311.219 8.58562L311.863 8.16116C312.67 7.638 313.306 6.73697 313.651 5.62824L313.907 4.73828Z" fill="#263238"/>
<path d="M171.435 118.239L171.711 119.129C171.949 119.901 172.299 120.601 172.741 121.189C173.183 121.776 173.709 122.24 174.286 122.552L175.012 122.949L174.317 123.319C173.731 123.636 173.198 124.109 172.752 124.709C172.306 125.309 171.955 126.024 171.721 126.81L171.527 127.467L171.23 126.646C170.695 125.163 169.749 124.019 168.594 123.456L167.96 123.141L168.788 122.607C169.823 121.929 170.64 120.771 171.087 119.348L171.435 118.239Z" fill="#263238"/>
<path d="M144.25 143.213C144.077 147.608 139.805 153.468 141.123 157.493C143.556 164.914 142.145 173.8 138.997 180.769C135.849 187.738 131.138 193.091 126.508 198.266C126.742 187.446 126.039 176.626 124.413 166.023C123.902 162.709 123.064 159.013 120.805 157.507C117.872 155.562 114.152 158.369 111.147 156.644C107.948 154.782 107.304 148.922 104.606 145.965C102.163 143.295 98.5757 143.582 95.5811 144.924C92.5865 146.266 89.8373 148.525 86.761 149.442C83.6846 150.36 79.9746 149.538 78.2678 145.978C77.2458 143.788 77.9714 145.13 76.9698 142.898C76.9698 142.898 70.9705 143.172 68.906 133.82C68.906 133.82 66.0852 123.429 72.3298 118.842C72.3298 118.842 73.7504 100.057 87.8443 108.505C91.9325 110.942 96.6951 103.11 100.65 105.766C103.941 107.998 104.912 114.132 108.203 116.377C111.985 118.951 116.38 115.118 120.611 114.885C123.321 114.885 125.921 116.327 127.838 118.895C129.754 121.463 130.831 124.945 130.831 128.577C130.831 128.577 131.495 124.825 136.084 126.468C140.673 128.111 144.578 134.642 144.25 143.213Z" fill="#263238"/>
<path d="M138.273 173.445C138.361 171.32 138.067 169.198 137.415 167.257C136.822 165.655 134.604 162.013 132.172 161.78L132.529 142.434C132.556 140.514 132.047 138.65 131.102 137.207C130.157 135.763 128.843 134.844 127.419 134.63L99.119 130.632C96.8058 130.304 94.467 130.607 92.2435 131.522C90.02 132.437 87.9577 133.946 86.1807 135.957C84.4037 137.967 82.9489 140.439 81.9037 143.223C80.8585 146.007 80.2445 149.045 80.0989 152.155C79.4141 166.736 79.0053 184.576 80.2931 195.447C82.889 217.354 95.3987 220.092 95.3987 220.092L95.0921 235.372C94.6118 251.651 103.708 261.454 113.09 261.454C122.472 261.454 131.139 250.597 130.863 234.482L131.783 185.193C133.368 184.997 134.843 184.021 135.922 182.454C137.478 179.919 138.312 176.727 138.273 173.445Z" fill="#FFBE9D"/>
<path d="M86.3731 164.023C86.3702 164.759 86.5824 165.468 86.9643 165.998C87.3463 166.527 87.8677 166.836 88.4171 166.857C88.9528 166.898 89.4792 166.656 89.8827 166.182C90.2861 165.708 90.5343 165.041 90.5736 164.324C90.5833 163.956 90.5375 163.59 90.4391 163.247C90.3407 162.903 90.1916 162.59 90.0008 162.326C89.8101 162.061 89.5815 161.851 89.3287 161.707C89.0759 161.564 88.8041 161.49 88.5296 161.49C87.9939 161.448 87.4675 161.691 87.0641 162.165C86.6606 162.639 86.4124 163.306 86.3731 164.023Z" fill="#263238"/>
<path d="M82.9383 161.437C83.1938 161.806 84.778 160.232 87.0265 160.232C89.275 160.232 90.9307 161.752 91.1759 161.382C91.2884 161.218 91.0227 160.561 90.3072 159.862C89.3327 158.956 88.172 158.477 86.9856 158.493C85.8173 158.468 84.674 158.948 83.7253 159.862C83.0405 160.615 82.7646 161.272 82.9383 161.437Z" fill="#263238"/>
<path d="M108.122 164.586C108.117 165.324 108.328 166.034 108.71 166.565C109.093 167.095 109.616 167.403 110.166 167.42C110.702 167.462 111.228 167.22 111.632 166.746C112.035 166.272 112.283 165.604 112.323 164.888C112.328 164.15 112.117 163.439 111.734 162.909C111.352 162.379 110.829 162.071 110.279 162.053C109.743 162.012 109.217 162.254 108.813 162.728C108.41 163.202 108.162 163.869 108.122 164.586Z" fill="#263238"/>
<path d="M105.087 161.998C105.343 162.368 106.927 160.793 109.175 160.807C111.424 160.82 113.08 162.313 113.325 161.943C113.437 161.779 113.182 161.122 112.456 160.423C111.482 159.517 110.321 159.038 109.135 159.054C107.967 159.036 106.825 159.516 105.874 160.423C105.189 161.176 104.954 161.834 105.087 161.998Z" fill="#263238"/>
<path d="M96.8994 184.383C95.7109 183.891 94.4824 183.592 93.2405 183.493C92.6682 183.425 92.1265 183.261 92.0243 182.74C91.9808 181.944 92.1161 181.147 92.4126 180.454L94.1092 174.608C96.4804 166.242 98.1974 159.369 97.9316 159.246C97.6659 159.123 95.5605 165.79 93.1996 174.156C92.6273 176.21 92.0856 178.181 91.5746 180.057C91.2108 180.986 91.1023 182.057 91.268 183.083C91.3527 183.354 91.4823 183.596 91.6469 183.79C91.8116 183.985 92.007 184.127 92.2185 184.205C92.5517 184.327 92.8951 184.391 93.2405 184.397C94.4554 184.605 95.6854 184.601 96.8994 184.383Z" fill="#263238"/>
<path d="M95.3467 220.105C103.037 220.259 110.608 217.553 117.218 212.287C117.218 212.287 111.556 228.717 95.2139 226.704L95.3467 220.105Z" fill="#EB996E"/>
<path d="M104.064 156.713C104.289 157.534 106.537 157.151 109.174 157.576C111.811 158 113.957 158.945 114.284 158.233C114.437 157.877 114.069 157.11 113.211 156.316C112.063 155.324 110.757 154.71 109.399 154.522C108.048 154.305 106.679 154.521 105.403 155.152C104.462 155.686 103.972 156.33 104.064 156.713Z" fill="#263238"/>
<path d="M82.5712 154.413C82.9698 155.098 84.5131 154.413 86.3834 154.413C88.2537 154.413 89.8277 154.865 90.1956 154.153C90.3591 153.797 90.1036 153.113 89.4188 152.469C88.4917 151.697 87.4146 151.309 86.3233 151.355C85.232 151.402 84.1754 151.88 83.2866 152.729C82.6121 153.373 82.3974 154.071 82.5712 154.413Z" fill="#263238"/>
<path d="M97.4014 201.47C97.4014 201.401 97.5547 201.032 98.0146 200.648C98.6331 200.158 99.3398 199.903 100.059 199.91C100.775 199.898 101.481 200.143 102.103 200.621C102.563 201.004 102.767 201.36 102.726 201.428C101.878 201.004 100.991 200.737 100.089 200.635C99.1667 200.728 98.2602 201.009 97.4014 201.47Z" fill="#EB996E"/>
<path d="M130.668 179.262C131.202 178.97 131.721 178.632 132.221 178.249C132.782 177.757 133.246 177.093 133.574 176.311C133.903 175.53 134.088 174.654 134.112 173.758C134.123 172.856 133.976 171.963 133.681 171.152C133.386 170.34 132.953 169.634 132.416 169.089C131.952 168.66 131.42 168.383 130.862 168.281C130.811 168.199 131.618 167.829 132.63 168.665C133.267 169.209 133.79 169.963 134.147 170.855C134.505 171.746 134.687 172.746 134.674 173.758C134.661 174.881 134.398 175.973 133.918 176.893C133.537 177.635 133.033 178.249 132.446 178.687C131.927 179.167 131.293 179.372 130.668 179.262Z" fill="#EB996E"/>
<path d="M76.9701 125.414C74.3333 134.861 80.5983 141.707 85.4837 143.213C92.3109 145.349 99.5673 139.571 104.238 142.022C107.723 143.856 111.014 147.498 114.714 146.745C116.513 146.389 118.291 145.006 120.039 145.636C122.277 146.458 123.187 150.1 123.105 153.208C123.043 157.041 122.083 160.847 122.441 164.654C122.798 168.46 125.333 172.389 128.103 171.376C129.404 170.793 130.543 169.697 131.372 168.231C132.2 166.765 132.677 164.998 132.743 163.161C133.07 157.89 132.344 151.619 132.538 146.334C132.712 141.679 132.722 136.559 130.494 132.958C128.266 129.357 124.505 128.385 121.04 127.755C106.428 125.06 91.6722 124.015 76.9292 124.633" fill="#263238"/>
<path d="M68.3754 127.427C68.2872 127.111 68.2389 126.778 68.2323 126.441C68.1947 125.463 68.3423 124.488 68.6616 123.607C69.1669 122.192 70.0438 121.075 71.1247 120.471C71.8083 120.123 72.5472 120.014 73.271 120.157C74.0375 120.252 74.804 120.526 75.6114 120.581C76.4489 120.643 77.2831 120.397 78.0234 119.869C78.8316 119.265 79.583 118.535 80.2617 117.692C80.9976 116.843 81.7436 115.912 82.6021 115.077C83.496 114.203 84.5214 113.6 85.6069 113.311C87.952 112.838 90.3484 113.385 92.4444 114.872C94.6215 116.482 96.6519 118.426 98.4948 120.663C100.285 122.895 102.323 124.743 104.535 126.14C105.584 126.728 106.724 126.963 107.857 126.824C108.93 126.606 109.967 126.143 110.923 125.455C112.716 124.014 114.622 122.838 116.605 121.95C118.389 121.268 120.271 121.188 122.083 121.717C123.578 122.171 124.952 123.16 126.059 124.579C126.886 125.652 127.53 126.95 127.95 128.385C128.211 129.29 128.353 130.249 128.369 131.219C128.382 131.47 128.382 131.722 128.369 131.972C128.369 132.137 128.369 132.219 128.369 132.219C128.356 130.943 128.169 129.681 127.817 128.495C127.381 127.12 126.733 125.883 125.916 124.866C124.833 123.533 123.502 122.615 122.063 122.21C120.313 121.735 118.503 121.838 116.789 122.511C114.837 123.418 112.963 124.602 111.199 126.044C110.178 126.759 109.071 127.222 107.928 127.413C106.714 127.577 105.489 127.337 104.361 126.715C102.099 125.298 100.014 123.423 98.178 121.156C96.3651 118.954 94.3692 117.038 92.2297 115.447C90.2369 114.02 87.957 113.478 85.7194 113.9C83.5833 114.379 82.04 116.391 80.6092 118.089C79.8976 118.947 79.1118 119.687 78.2687 120.293C77.459 120.853 76.5514 121.108 75.6421 121.033C74.7938 120.951 74.0273 120.663 73.2914 120.54C72.6053 120.393 71.9028 120.478 71.2473 120.786C70.2211 121.337 69.3762 122.362 68.866 123.675C68.5343 124.52 68.3591 125.459 68.355 126.414C68.3345 127.084 68.4572 127.413 68.3754 127.427Z" fill="#FFC07F"/>
<path d="M76.2764 142.651C76.0424 142.739 75.7949 142.739 75.5609 142.651C75.2164 142.56 74.8904 142.371 74.6048 142.097C74.3193 141.823 74.0807 141.47 73.9053 141.063C73.4122 139.732 73.2751 138.214 73.5169 136.764C73.7578 134.846 74.332 133.031 75.193 131.465C76.2357 129.543 77.6847 128.083 79.3527 127.275C81.2668 126.323 83.3631 126.251 85.3112 127.07C87.3824 128.106 89.3177 129.575 91.0448 131.424C92.8412 133.385 94.878 134.914 97.0646 135.942C99.2981 136.702 101.651 136.53 103.81 135.449C105.851 134.47 107.813 133.218 109.666 131.711C111.367 130.343 113.124 129.104 114.93 128.001C116.517 127.033 118.219 126.444 119.958 126.262C121.224 126.122 122.497 126.329 123.701 126.871C124.905 127.412 126.013 128.277 126.959 129.411C127.45 130.056 127.857 130.806 128.165 131.629C128.275 131.916 128.357 132.219 128.41 132.533C128.016 131.443 127.479 130.455 126.826 129.617C125.884 128.559 124.794 127.762 123.621 127.271C122.447 126.78 121.213 126.604 119.989 126.755C118.295 126.968 116.642 127.574 115.104 128.549C113.321 129.66 111.587 130.908 109.912 132.286C108.034 133.825 106.044 135.105 103.974 136.106C101.714 137.241 99.2499 137.423 96.9113 136.627C94.6845 135.566 92.6103 134 90.7791 131.999C89.1017 130.184 87.2221 128.734 85.209 127.7C83.3591 126.908 81.3664 126.951 79.5367 127.823C77.9421 128.584 76.5492 129.955 75.5303 131.766C74.6831 133.256 74.1089 134.991 73.8541 136.832C73.5929 138.203 73.6903 139.653 74.1301 140.94C74.2809 141.332 74.4902 141.68 74.745 141.96C74.9999 142.24 75.295 142.447 75.612 142.569C75.8313 142.622 76.0536 142.649 76.2764 142.651Z" fill="#FFC07F"/>
<path d="M138.864 179.14C138.864 179.14 139.232 178.482 139.774 177.223C140.516 175.424 140.933 173.417 140.99 171.363C141.036 169.974 140.905 168.585 140.601 167.255C140.226 165.717 139.675 164.267 138.966 162.956C138.251 161.587 137.402 160.081 136.656 158.438C135.809 156.753 135.344 154.774 135.317 152.742C135.463 150.738 135.93 148.8 136.687 147.06C137.34 145.514 137.731 143.794 137.832 142.022C137.86 140.526 137.597 139.046 137.068 137.728C136.539 136.41 135.763 135.299 134.817 134.505C133.497 133.46 131.949 133.053 130.432 133.355C129.879 133.488 129.333 133.666 128.797 133.889C128.912 133.766 129.039 133.665 129.175 133.588C129.569 133.36 129.98 133.19 130.401 133.081C131.973 132.658 133.606 133.008 135.001 134.067C136.03 134.884 136.88 136.052 137.463 137.451C138.047 138.851 138.343 140.433 138.322 142.036C138.23 143.904 137.832 145.722 137.157 147.362C136.439 149.014 135.992 150.853 135.849 152.756C135.874 154.657 136.311 156.507 137.106 158.082C137.821 159.67 138.66 161.122 139.375 162.587C140.098 163.964 140.657 165.483 141.031 167.091C141.333 168.505 141.447 169.978 141.368 171.445C141.28 173.533 140.81 175.559 139.998 177.346C139.776 177.834 139.519 178.293 139.232 178.715C138.976 179.016 138.874 179.153 138.864 179.14Z" fill="#FFC07F"/>
<path d="M96.0522 163.161C95.9575 162.015 95.8142 160.877 95.6229 159.752C95.2611 157.877 94.6108 156.125 93.7138 154.606C92.8167 153.088 91.6928 151.838 90.4139 150.935C89.135 150.033 87.7295 149.499 86.2875 149.366C84.8455 149.234 83.3987 149.507 82.0401 150.168C80.142 151.12 78.491 152.789 77.2876 154.974C75.9967 157.325 75.3005 160.167 75.3005 163.086C75.3005 166.005 75.9967 168.847 77.2876 171.198C77.8843 172.328 78.6164 173.318 79.4543 174.128C80.2384 174.929 81.1107 175.562 82.0401 176.004C83.6554 176.801 85.3941 177.043 87.0973 176.709C88.8006 176.374 90.414 175.472 91.7903 174.087C93.6641 172.197 95.013 169.523 95.6229 166.488C95.8127 165.368 95.956 164.234 96.0522 163.093C96.1164 164.256 96.0405 165.426 95.8273 166.557C95.2835 169.764 93.9162 172.613 91.964 174.607C90.5448 176.078 88.8715 177.044 87.0992 177.417C85.327 177.791 83.513 177.559 81.8254 176.743C80.8455 176.291 79.9247 175.634 79.0966 174.799C78.2211 173.949 77.4518 172.919 76.8174 171.746C75.4502 169.279 74.7119 166.288 74.7119 163.216C74.7119 160.144 75.4502 157.153 76.8174 154.686C78.0812 152.391 79.8237 150.647 81.8254 149.675C83.6332 148.809 85.581 148.606 87.4671 149.086C89.4684 149.609 91.3155 150.89 92.7886 152.779C94.2617 154.667 95.2987 157.083 95.7762 159.738C96.0023 160.853 96.0955 162.008 96.0522 163.161Z" fill="#263238"/>
<path d="M120.008 163.161C119.92 162.014 119.776 160.875 119.578 159.752C119.218 157.878 118.569 156.125 117.673 154.607C116.777 153.089 115.654 151.838 114.375 150.936C113.097 150.034 111.693 149.499 110.251 149.367C108.81 149.234 107.364 149.507 106.006 150.168C104.103 151.115 102.448 152.785 101.243 154.974C99.9522 157.325 99.256 160.167 99.256 163.086C99.256 166.005 99.9522 168.847 101.243 171.198C101.843 172.325 102.574 173.315 103.41 174.128C104.199 174.927 105.074 175.559 106.006 176.004C107.356 176.66 108.793 176.933 110.226 176.806C111.659 176.679 113.057 176.155 114.331 175.267C115.604 174.379 116.727 173.146 117.627 171.647C118.527 170.148 119.184 168.414 119.558 166.557C119.754 165.438 119.898 164.304 119.987 163.161C120.058 164.325 119.982 165.496 119.762 166.625C119.231 169.793 117.894 172.615 115.981 174.607C114.562 176.078 112.888 177.044 111.116 177.417C109.344 177.791 107.53 177.559 105.842 176.743C104.862 176.291 103.942 175.634 103.113 174.799C102.235 173.949 101.463 172.919 100.824 171.746C99.463 169.276 98.7285 166.286 98.7285 163.216C98.7285 160.146 99.463 157.156 100.824 154.686C102.095 152.394 103.84 150.652 105.842 149.675C107.65 148.809 109.598 148.606 111.484 149.086C113.483 149.613 115.327 150.896 116.798 152.784C118.269 154.672 119.305 157.086 119.783 159.738C119.998 160.855 120.074 162.012 120.008 163.161Z" fill="#263238"/>
<path d="M99.5678 160.807V160.943V160.697V160.971C99.0045 161.139 98.4277 161.212 97.8508 161.19C96.8288 161.19 95.9805 161.025 95.9805 160.834C95.9805 160.642 96.8185 160.478 97.8508 160.478C98.4279 160.448 99.0053 160.522 99.5678 160.697V160.971V160.724V160.861V160.807Z" fill="#263238"/>
<path d="M132.63 163.9C130.482 164.057 128.328 163.97 126.191 163.64C124.042 163.557 121.902 163.232 119.793 162.669C121.941 162.528 124.094 162.615 126.232 162.929C128.381 163.02 130.52 163.345 132.63 163.9Z" fill="#263238"/>
<path d="M106.271 183.629C106.461 184.337 106.486 185.106 106.342 185.833C106.124 187.655 105.414 189.306 104.348 190.474C103.282 191.642 101.934 192.246 100.558 192.172C99.9947 192.218 99.4347 192.032 98.9531 191.638C98.9531 191.529 99.5868 191.748 100.558 191.638C101.82 191.58 103.034 190.969 104.012 189.898C104.991 188.827 105.68 187.356 105.975 185.71C106.271 184.464 106.21 183.629 106.271 183.629Z" fill="#263238"/>
<path d="M65.7888 281.922C65.8019 282.067 65.8019 282.214 65.7888 282.36V283.647C65.7888 284.824 65.7888 286.495 65.8399 288.603C65.8399 292.944 65.8399 299.146 65.9115 306.799C65.9115 322.161 65.564 343.383 64.6748 366.796C63.7857 390.208 62.8658 411.362 62.2424 426.751C61.9562 434.377 61.7211 440.579 61.5576 444.919C61.4758 447.028 61.4145 448.671 61.3736 449.848C61.3736 450.382 61.3225 450.807 61.3123 451.135C61.323 451.281 61.323 451.428 61.3123 451.574C61.2969 451.428 61.2969 451.281 61.3123 451.135C61.3123 450.807 61.3123 450.382 61.3123 449.848C61.3123 448.671 61.3634 447.014 61.4043 444.906C61.4963 440.607 61.6598 434.391 61.9153 426.723C62.3957 411.375 63.3257 390.181 64.1945 366.768C65.0632 343.356 65.5333 322.148 65.5946 306.786C65.5946 299.146 65.6662 292.944 65.6866 288.603C65.6866 286.495 65.6866 284.824 65.7377 283.647V282.36C65.7415 282.212 65.7586 282.065 65.7888 281.922Z" fill="#263238"/>
<path d="M164.527 258.345C159.028 249.842 148.286 248.596 143.524 253.21C138.761 257.825 136.114 265.656 135.634 273.501C135.153 281.347 136.656 289.219 138.884 296.489C142.471 308.155 147.775 317.602 155.696 329.623L176.137 365.522L136.737 417.057L153.09 451.573L186.582 415.428L214.279 376.106" fill="#721121"/>
<path d="M22.0654 369.028C22.7048 368.399 23.4256 367.935 24.1913 367.659C26.0027 366.84 27.9139 366.492 29.8227 366.632C31.7355 366.772 33.6115 367.394 35.3519 368.466C36.1061 368.845 36.7997 369.412 37.396 370.137C37.396 370.233 36.5783 369.63 35.2497 368.932C33.5221 368.02 31.6969 367.484 29.8431 367.344C27.9906 367.222 26.1352 367.49 24.3446 368.138C22.9239 368.644 22.1063 369.137 22.0654 369.028Z" fill="#263238"/>
<path d="M169.832 266.409C156.086 241.984 141.287 243.996 133.744 243.709V232.988C128.174 232.988 120.56 239.711 116.625 244.517L112.731 251.677C111.731 247.756 110.06 244.203 107.853 241.3C105.645 238.398 102.962 236.226 100.017 234.96C97.8926 234.056 95.7146 233.397 93.5067 232.988V242.572C75.0283 243.271 65.1452 250.034 52.799 269.175C52.1653 270.161 50.9082 271.845 49.4671 273.748L12.9396 331.252C5.4787 342.315 -1.36894 357.54 0.235656 372.327C1.98334 388.976 9.22958 399.929 23.0986 412.484L61.5272 445.85L61.3432 451.587H153.05C153.05 451.587 215.241 390.126 216.764 367.357C217.95 349.366 196.528 311.235 169.832 266.409ZM63.0704 396.903L36.1807 370.027L65.2269 329.76L63.0704 396.903ZM151.129 399.039L150.403 379.145L154.308 326.885C161.973 338.659 176.159 362.031 176.159 365.522L151.129 399.039Z" fill="#721121"/>
<path d="M133.723 243.765C133.529 244.335 133.296 244.88 133.028 245.394C132.538 246.407 131.833 247.872 130.903 249.638C128.508 254.27 125.817 258.613 122.859 262.618C121.991 263.795 121.112 264.904 120.253 265.959L119.824 266.493V265.712C119.775 261.213 118.427 256.915 116.063 253.718C115.44 252.718 114.633 251.953 113.722 251.5C113.372 251.408 113.008 251.491 112.7 251.733C112.82 251.533 112.979 251.382 113.16 251.297C113.341 251.213 113.535 251.198 113.722 251.254C114.706 251.623 115.59 252.365 116.267 253.39C117.374 254.799 118.287 256.458 118.965 258.291C119.813 260.599 120.273 263.127 120.314 265.698L119.885 265.438C120.723 264.384 121.602 263.289 122.461 262.111C125.393 258.123 128.108 253.858 130.586 249.351L132.834 245.243C133.092 244.711 133.39 244.216 133.723 243.765Z" fill="#263238"/>
<path d="M93.4863 242.626C93.7852 243.011 94.0524 243.438 94.2835 243.899L96.3276 247.5C98.0344 250.567 100.344 254.839 102.879 259.576L104.535 262.67L104.075 262.766C104.569 260.554 105.255 258.426 106.119 256.427C106.833 254.804 107.851 253.459 109.072 252.525C109.878 251.9 110.789 251.561 111.719 251.539C112.067 251.492 112.417 251.558 112.741 251.731C112.741 251.731 112.394 251.731 111.719 251.731C110.838 251.85 109.988 252.239 109.236 252.867C108.102 253.825 107.161 255.142 106.497 256.701C105.675 258.675 105.016 260.764 104.535 262.931L104.371 263.574L104.075 263.026L102.419 259.932C99.8843 255.195 97.6154 250.882 95.9903 247.747C95.2442 246.254 94.6106 245.008 94.0995 244.009C93.8582 243.579 93.6526 243.115 93.4863 242.626Z" fill="#263238"/>
<g opacity="0.1">
<path d="M112.711 251.733C114.243 253.981 115.393 256.646 116.083 259.546C116.773 262.446 116.986 265.512 116.707 268.533C116.513 270.532 116.339 273.201 117.729 273.941C118.7 274.447 119.773 273.557 120.56 272.681C126.523 266.244 131.429 258.227 134.971 249.132C135.314 248.416 135.498 247.586 135.502 246.736C135.495 246.314 135.366 245.913 135.144 245.615C134.921 245.316 134.621 245.144 134.307 245.134C133.887 245.29 133.524 245.645 133.285 246.133C129.033 252.705 124.331 259.537 120.08 266.096C120.271 262.445 119.428 258.832 117.719 255.977C116.033 253.239 114.193 250.405 112.742 251.733" fill="black"/>
</g>
<path d="M151.926 449.287C151.806 449.111 151.7 448.918 151.61 448.712C151.385 448.274 151.109 447.699 150.751 446.987L147.613 440.47C144.946 434.802 141.215 426.902 136.872 417.715L136.77 417.482L136.913 417.304L146.499 404.489L167.359 376.832C170.016 373.354 172.183 370.534 173.716 368.507L175.474 366.275C175.671 366.003 175.883 365.752 176.108 365.522C175.94 365.828 175.752 366.112 175.546 366.371C175.127 366.96 174.524 367.74 173.869 368.713L167.594 377.242L146.837 405.05C143.464 409.554 140.214 413.867 137.24 417.824V417.413C141.512 426.655 145.191 434.596 147.818 440.306C149.085 443.044 150.107 445.317 150.833 446.932C151.16 447.658 151.415 448.301 151.62 448.712C151.738 448.888 151.84 449.081 151.926 449.287Z" fill="#263238"/>
<path d="M140.654 257.647L140.5 257.907L140.03 258.646C139.591 259.276 139.008 260.262 138.272 261.549C136.25 265.244 134.909 269.527 134.358 274.049C133.706 280.791 134.497 287.642 136.637 293.806C137.8 297.487 139.311 300.952 141.134 304.116C143.066 307.416 145.11 310.715 147.205 314.261C155.453 328.186 162.535 341.152 167.748 350.462L173.88 361.511C174.585 362.771 175.137 363.784 175.546 364.523L175.965 365.317L176.098 365.591C176.098 365.591 176.026 365.522 175.924 365.358L175.464 364.605L173.727 361.607C172.224 359.046 170.078 355.322 167.441 350.653C162.167 341.425 155.023 328.501 146.796 314.604C144.752 311.112 142.708 307.758 140.725 304.513C138.883 301.292 137.358 297.767 136.187 294.025C134.033 287.746 133.27 280.77 133.99 273.926C134.781 268.102 136.877 262.739 140 258.551L140.511 257.866C140.582 257.715 140.643 257.633 140.654 257.647Z" fill="#263238"/>
<path d="M175.127 275.321C175.127 275.39 174.565 275.65 173.604 276.334C172.261 277.328 171.038 278.588 169.976 280.072C168.411 282.294 167.039 284.747 165.888 287.384C164.487 290.68 162.963 293.879 161.32 296.968C159.777 299.78 157.782 302.092 155.482 303.732C153.182 305.372 150.636 306.298 148.033 306.442C146.47 306.547 144.904 306.349 143.383 305.853C142.97 305.728 142.564 305.568 142.167 305.374C142.026 305.312 141.889 305.234 141.758 305.141C143.804 305.801 145.91 306.068 148.013 305.936C150.282 305.728 152.5 304.933 154.543 303.594C157.041 301.951 159.207 299.528 160.86 296.529C162.669 293.38 164.038 290.012 165.428 287.082C166.617 284.421 168.041 281.962 169.67 279.757C170.779 278.271 172.063 277.041 173.472 276.115C173.856 275.875 174.252 275.669 174.657 275.499C174.807 275.412 174.965 275.352 175.127 275.321Z" fill="#FAFAFA"/>
<path d="M150.752 395.713H150.507L149.822 395.494C149.515 395.384 149.137 395.316 148.687 395.22C148.173 395.105 147.654 395.028 147.134 394.987C143.798 394.783 140.46 395.357 137.271 396.685C135.055 397.539 132.886 398.601 130.781 399.861C128.512 401.231 126.162 402.901 123.627 404.503C120.979 406.245 118.214 407.648 115.369 408.692C113.849 409.218 112.295 409.548 110.729 409.678C109.109 409.782 107.486 409.626 105.895 409.213C102.786 408.27 99.8177 406.631 97.1154 404.366C94.4785 402.257 92.1176 399.861 89.8589 397.643C85.3926 393.153 81.1205 389.428 77.063 387.813C75.2508 387.059 73.3695 386.645 71.4725 386.581C70.0425 386.544 68.6154 386.77 67.2311 387.252C66.0548 387.695 64.9173 388.305 63.8379 389.073L64.0321 388.881L64.6453 388.388C65.4489 387.805 66.2992 387.346 67.18 387.019C68.5797 386.487 70.0279 386.22 71.4827 386.225C73.4072 386.246 75.32 386.629 77.1653 387.361C81.3147 388.936 85.6584 392.687 90.1451 397.151C92.414 399.369 94.7749 401.723 97.3811 403.805C100.033 406.026 102.946 407.632 105.997 408.556C107.544 408.964 109.123 409.116 110.698 409.007C112.23 408.89 113.75 408.573 115.236 408.063C118.051 407.038 120.788 405.663 123.412 403.955C125.947 402.367 128.308 400.697 130.567 399.369C132.695 398.117 134.888 397.074 137.128 396.247C140.359 394.947 143.738 394.441 147.103 394.754C148.347 394.845 149.575 395.167 150.752 395.713Z" fill="#FAFAFA"/>
<path d="M49.7242 383.554C49.7242 383.554 49.7753 383.718 49.806 384.033C49.8701 384.485 49.9111 384.942 49.9286 385.402C50.0307 387.098 49.9757 388.804 49.7651 390.482C49.4629 393.004 48.736 395.402 47.6393 397.492C46.2344 399.977 44.4461 402.027 42.3962 403.502C40.3522 405.186 38.2365 406.597 36.5502 408.24C35.0259 409.626 33.6914 411.353 32.6051 413.346C31.8874 414.694 31.4789 416.293 31.4298 417.947C31.4298 419.124 31.5626 419.768 31.5013 419.782C31.4409 419.642 31.3993 419.489 31.3787 419.33C31.291 418.882 31.2362 418.423 31.2152 417.961C31.1737 416.229 31.5305 414.523 32.2372 413.073C33.3086 410.976 34.6558 409.157 36.2129 407.706C37.9299 405.994 40.0047 404.557 42.0692 402.9C44.0524 401.462 45.7923 399.49 47.1794 397.108C48.2533 395.108 48.9892 392.819 49.3358 390.399C49.5697 388.757 49.6793 387.088 49.6629 385.416C49.6503 384.794 49.6708 384.172 49.7242 383.554Z" fill="#FAFAFA"/>
<path d="M203.956 326.886C201.859 327.358 199.819 328.215 197.896 329.432C195.837 330.779 193.989 332.637 192.448 334.909C191.548 336.257 190.772 337.747 190.139 339.345C189.464 341.002 189.004 342.877 188.34 344.726C187.731 346.587 186.812 348.236 185.652 349.545C184.561 350.737 183.323 351.664 181.993 352.283C179.755 353.276 177.394 353.667 175.043 353.434C173.473 353.307 171.911 353.06 170.362 352.694C169.792 352.594 169.228 352.434 168.676 352.215C169.251 352.218 169.826 352.286 170.393 352.42C171.497 352.571 173.081 352.858 175.053 352.927C177.352 353.083 179.652 352.651 181.829 351.654C183.154 351.079 184.374 350.141 185.413 348.898C186.451 347.656 187.284 346.137 187.859 344.438C188.503 342.631 188.973 340.742 189.679 339.03C190.35 337.398 191.17 335.885 192.121 334.526C193.714 332.193 195.635 330.304 197.773 328.967C199.199 328.06 200.713 327.424 202.27 327.077C202.693 326.984 203.12 326.92 203.548 326.886C203.683 326.856 203.821 326.856 203.956 326.886Z" fill="#FAFAFA"/>
<path d="M153.163 338.441L152.927 338.537L152.232 338.743C151.619 338.921 150.71 339.14 149.524 339.386C146.187 340.076 142.813 340.396 139.437 340.345C134.411 340.297 129.424 339.164 124.668 336.99C121.882 335.635 119.193 333.944 116.635 331.938C113.924 329.785 111.087 327.931 108.152 326.393C106.66 325.686 105.108 325.226 103.532 325.024C101.999 324.869 100.458 324.97 98.9435 325.325C96.0882 326.107 93.3336 327.445 90.7672 329.295C85.8103 332.814 81.6404 336.73 77.8691 339.455C74.9528 341.773 71.7733 343.438 68.4562 344.384C67.5592 344.642 66.6447 344.775 65.7273 344.781H65.0119C64.9305 344.796 64.848 344.796 64.7666 344.781H65.0119L65.7171 344.671C66.6264 344.599 67.5293 344.421 68.4153 344.137C71.6831 343.098 74.8104 341.384 77.6851 339.058C81.3951 336.319 85.5446 332.335 90.5321 328.748C93.148 326.831 95.9621 325.447 98.8822 324.64C100.44 324.269 102.026 324.159 103.604 324.312C105.226 324.526 106.823 325.009 108.356 325.749C111.319 327.299 114.181 329.177 116.911 331.363C119.449 333.345 122.109 335.03 124.862 336.401C129.564 338.581 134.493 339.75 139.467 339.865C142.825 339.965 146.184 339.722 149.514 339.14C150.699 338.934 151.609 338.756 152.232 338.619L152.938 338.496C153.011 338.465 153.086 338.447 153.163 338.441Z" fill="#FAFAFA"/>
<path d="M53.2586 346.354C53.3582 345.654 53.3372 344.933 53.1973 344.245C52.9103 343.359 52.4693 342.577 51.9111 341.965C51.3529 341.353 50.6936 340.928 49.9881 340.726C49.0989 340.37 48.0871 340.165 47.0037 339.837C45.8028 339.539 44.6756 338.848 43.723 337.824C42.7243 336.618 41.9477 335.118 41.4541 333.443C40.9512 331.663 40.5581 329.831 40.2788 327.966C40.0135 326.151 39.6235 324.373 39.1136 322.654C38.6228 321.07 37.9804 319.579 37.2024 318.218C35.8898 315.888 34.2027 313.983 32.266 312.645C30.9786 311.742 29.6022 311.087 28.1778 310.701C27.1558 310.427 26.5732 310.372 26.5732 310.304C26.7149 310.266 26.8608 310.266 27.0025 310.304C27.4064 310.321 27.8092 310.371 28.2085 310.455C29.6975 310.731 31.1434 311.328 32.4908 312.221C34.4945 313.545 36.2432 315.471 37.601 317.848C38.4316 319.238 39.1191 320.772 39.6451 322.407C40.1742 324.178 40.578 326.012 40.8511 327.884C41.122 329.697 41.5013 331.478 41.9855 333.21C42.4473 334.774 43.167 336.178 44.091 337.317C44.9776 338.294 46.031 338.962 47.1571 339.261C48.1791 339.617 49.2011 339.85 50.1516 340.247C50.8993 340.488 51.5914 340.97 52.167 341.653C52.7427 342.336 53.1842 343.198 53.4528 344.163C53.5566 344.706 53.5566 345.276 53.4528 345.82C53.418 346.015 53.3517 346.197 53.2586 346.354Z" fill="#FAFAFA"/>
<path d="M133.979 276.13C133.029 275.429 132.02 274.882 130.974 274.501C129.733 274.159 128.454 274.159 127.213 274.501C125.559 274.937 123.955 275.659 122.44 276.65C120.733 277.677 118.934 279.019 116.972 280.402C114.893 281.953 112.688 283.179 110.4 284.058C107.827 284.901 105.15 285.018 102.541 284.4C99.7607 283.719 97.0641 282.526 94.5283 280.854C89.3057 277.445 84.962 272.872 80.7717 269.312C77.1604 265.945 73.1276 263.473 68.8649 262.014C65.985 261.067 62.9812 261.02 60.0856 261.877C59.0466 262.262 58.0232 262.719 57.0195 263.246C57.9818 262.52 59.0133 261.972 60.0856 261.617C63.0091 260.639 66.0646 260.611 68.9978 261.535C73.323 262.938 77.4204 265.388 81.0885 268.764C85.3197 272.31 89.6634 276.869 94.8042 280.224C97.2958 281.868 99.9436 283.047 102.674 283.729C105.214 284.333 107.82 284.23 110.329 283.428C112.586 282.587 114.764 281.402 116.819 279.895C118.781 278.526 120.6 277.157 122.338 276.199C123.89 275.229 125.528 274.53 127.213 274.117C128.497 273.825 129.812 273.89 131.076 274.309C131.862 274.601 132.618 275.024 133.325 275.569C133.55 275.74 133.769 275.927 133.979 276.13Z" fill="#FAFAFA"/>
<path d="M128.206 449.957L131.047 451.86H147.399L150.701 448.246L138.804 421.876C137.343 422.739 130.924 424.08 128.849 425.052C127.06 425.894 125.176 426.32 123.279 426.312C121.165 426.375 119.051 426.141 116.973 425.614L116.524 425.422C116.246 425.262 115.947 425.178 115.645 425.176C113.877 424.97 112.476 427.448 113.468 429.406C114.459 431.364 119.293 433.979 125.467 433.747H125.763C131.18 433.747 126.213 439.826 122.993 443.44C122.425 444.055 121.983 444.855 121.711 445.763C121.439 446.672 121.346 447.659 121.44 448.629C121.458 448.978 121.533 449.318 121.658 449.625C121.783 449.932 121.956 450.2 122.165 450.409C123.535 451.573 128.206 449.957 128.206 449.957Z" fill="#FFBE9D"/>
<path d="M61.4752 446.686C61.4643 446.559 61.4643 446.43 61.4752 446.303C61.4752 446.002 61.4752 445.632 61.4752 445.167C61.4752 444.112 61.5366 442.647 61.5877 440.799C61.7103 436.965 61.8738 431.503 62.0885 424.766C62.5075 411.184 63.1105 392.509 63.7339 371.876C64.3574 351.243 64.756 332.499 65.0422 318.958C65.1546 312.222 65.2363 306.759 65.2977 302.912C65.2977 301.063 65.3488 299.598 65.3692 298.544C65.3692 298.079 65.3692 297.709 65.3692 297.421C65.3562 297.29 65.3562 297.156 65.3692 297.024C65.3845 297.156 65.3845 297.29 65.3692 297.421C65.3692 297.709 65.3692 298.092 65.3692 298.544C65.3692 299.598 65.3692 301.063 65.3692 302.912C65.3692 306.704 65.3692 312.181 65.2874 318.958C65.1443 332.513 64.7355 351.229 64.1325 371.903C63.5295 392.578 62.8652 411.266 62.3337 424.794C62.0476 431.516 61.8227 436.979 61.6592 440.813C61.5672 442.661 61.4957 444.126 61.4446 445.167L61.373 446.303C61.4177 446.425 61.452 446.554 61.4752 446.686Z" fill="#263238"/>
<path d="M105.966 449.286C105.95 449.118 105.95 448.948 105.966 448.78C105.966 448.41 105.915 447.917 105.874 447.288L105.578 441.523C105.455 439.032 105.302 435.965 105.22 432.405C105.138 428.845 104.944 424.806 104.924 420.329C104.903 415.852 104.781 410.937 104.832 405.665C104.832 403.037 104.832 400.312 104.832 397.45C104.832 394.589 104.924 391.755 104.975 388.797C105.23 376.954 105.69 363.947 106.406 350.31C107.836 323.023 109.656 298.392 110.821 280.552C111.393 271.653 111.843 264.451 112.19 259.412C112.344 256.962 112.477 255.031 112.558 253.676C112.609 253.046 112.64 252.553 112.671 252.183C112.701 251.814 112.722 251.677 112.722 251.677C112.736 251.845 112.736 252.015 112.722 252.183L112.671 253.689C112.599 255.059 112.507 256.975 112.395 259.44C112.16 264.437 111.741 271.666 111.199 280.593C110.126 298.392 108.368 323.037 106.937 350.352C106.222 364.043 105.752 376.982 105.465 388.811C105.465 391.768 105.353 394.657 105.302 397.464C105.251 400.271 105.302 402.941 105.23 405.679C105.169 410.937 105.23 415.838 105.23 420.315C105.23 424.792 105.384 428.845 105.445 432.391C105.506 435.937 105.619 439.018 105.711 441.51C105.803 444.002 105.864 445.918 105.915 447.274V448.78C105.946 448.946 105.963 449.116 105.966 449.286Z" fill="#263238"/>
<path d="M113.489 314.397C113.438 314.329 114.01 314.014 114.644 314.74C114.825 314.955 114.965 315.225 115.052 315.527C115.139 315.83 115.171 316.156 115.144 316.478C115.079 316.876 114.926 317.239 114.705 317.52C114.484 317.8 114.205 317.985 113.905 318.052C113.605 318.118 113.297 318.062 113.02 317.892C112.744 317.721 112.512 317.443 112.354 317.094C112.252 316.803 112.203 316.484 112.212 316.162C112.221 315.84 112.287 315.526 112.405 315.246C112.824 314.274 113.427 314.329 113.427 314.425C113.427 314.52 112.988 314.657 112.753 315.465C112.678 315.679 112.639 315.913 112.639 316.15C112.639 316.386 112.678 316.62 112.753 316.834C112.873 317.041 113.033 317.2 113.215 317.295C113.397 317.39 113.595 317.417 113.788 317.374C113.981 317.33 114.161 317.218 114.31 317.048C114.459 316.878 114.571 316.658 114.633 316.41C114.655 316.183 114.64 315.952 114.591 315.733C114.542 315.513 114.459 315.31 114.347 315.137C113.959 314.438 113.489 314.52 113.489 314.397Z" fill="#263238"/>
<path d="M110.616 375.872C110.564 375.804 111.147 375.475 111.781 376.214C111.959 376.429 112.097 376.697 112.182 376.997C112.268 377.297 112.298 377.62 112.271 377.939C112.219 378.345 112.07 378.717 111.847 379.001C111.625 379.284 111.34 379.464 111.035 379.514C110.734 379.594 110.423 379.546 110.144 379.377C109.866 379.207 109.634 378.925 109.481 378.569C109.382 378.274 109.336 377.952 109.346 377.628C109.357 377.305 109.424 376.989 109.542 376.707C109.961 375.735 110.564 375.804 110.564 375.886C110.564 375.968 110.125 376.132 109.89 376.926C109.812 377.139 109.772 377.374 109.772 377.611C109.772 377.848 109.812 378.082 109.89 378.295C109.996 378.529 110.153 378.714 110.338 378.827C110.524 378.94 110.731 378.976 110.932 378.93C111.133 378.885 111.32 378.759 111.467 378.571C111.615 378.382 111.717 378.138 111.76 377.871C111.784 377.646 111.771 377.416 111.721 377.199C111.672 376.981 111.587 376.781 111.474 376.611C111.096 375.872 110.616 375.968 110.616 375.872Z" fill="#263238"/>
<path d="M183.946 418.112C183.485 418.097 183.026 418.019 182.576 417.879C181.341 417.527 180.136 417.009 178.979 416.332C175.126 414.04 171.909 410.185 169.781 405.31C168.705 402.598 167.852 399.738 167.236 396.781C166.731 394.409 165.97 392.149 164.977 390.072C164.292 388.694 163.41 387.512 162.381 386.594C161.635 385.978 161.165 385.773 161.185 385.704C161.305 385.716 161.422 385.753 161.533 385.814C161.862 385.956 162.18 386.14 162.483 386.361C163.595 387.208 164.552 388.378 165.284 389.784C166.347 391.887 167.164 394.196 167.706 396.63C168.333 399.533 169.182 402.341 170.24 405.009C172.32 409.775 175.422 413.591 179.142 415.962C180.699 416.845 182.305 417.564 183.946 418.112Z" fill="#FAFAFA"/>
<path d="M288.645 451.82L271.27 384.266L279.304 319.45C281.644 301.966 282.952 286.591 279.447 277.787C270.075 254.333 258.761 252.225 243.307 246.844C240.119 245.735 215.866 244.64 213.198 245.475C192.155 248.638 178.684 263.589 171.295 287.919L163.282 331.184L152.275 376.366C151.354 378.991 150.004 381.306 148.325 383.138C146.646 384.97 144.681 386.272 142.576 386.95L100.141 406.378L100.498 417.509L100.141 432.57L156.659 418.317C167.983 415.469 179.502 409.869 182.752 395.233L188.833 371.108C191.807 381.322 195.047 390.687 195.047 390.687L190.959 451.519L288.645 451.82Z" fill="#FFC07F"/>
<path d="M274.092 331.8L257.944 404.133C256.712 409.647 254.48 414.668 251.449 418.748C248.418 422.828 244.68 425.841 240.569 427.518L173.36 451.505L164.448 420.426L225.198 390.167L240.11 317.739C240.11 317.739 243.554 277.24 270.893 279.321" fill="#FFC07F"/>
<path d="M270.88 279.32H270.062C269.521 279.32 268.723 279.238 267.671 279.32C264.593 279.437 261.554 280.266 258.687 281.77C256.615 282.857 254.665 284.322 252.892 286.124C250.791 288.29 248.929 290.844 247.363 293.709C243.616 300.845 241.188 309.072 240.28 317.711C236.192 337.865 231.082 362.537 225.43 390.18V390.344H225.318L164.527 420.753L164.68 420.301L166.264 425.778C168.768 434.54 171.242 443.166 173.582 451.34L173.265 451.121L231.01 430.584L237.521 428.256C238.543 427.873 239.657 427.517 240.699 427.106C241.722 426.675 242.726 426.163 243.704 425.573C249.307 422.176 253.814 416.201 256.408 408.732C257.18 406.42 257.816 404.03 258.309 401.585C259.385 396.802 260.407 392.238 261.375 387.893C265.31 370.45 268.468 356.403 270.645 346.819L273.169 335.729L273.834 332.867C273.987 332.224 274.079 331.895 274.079 331.895C274.079 331.895 274.018 332.237 273.885 332.881C273.752 333.524 273.537 334.51 273.261 335.77C272.699 338.33 271.882 342.068 270.829 346.901L261.712 388.071C260.752 392.444 259.729 397.007 258.646 401.763C258.156 404.236 257.52 406.653 256.745 408.992C255.921 411.423 254.893 413.72 253.679 415.838C251.082 420.297 247.724 423.856 243.888 426.216C242.888 426.817 241.865 427.342 240.822 427.791C239.8 428.201 238.706 428.557 237.633 428.954L231.123 431.282L173.388 451.929L173.163 452.011L173.081 451.723C170.741 443.508 168.257 434.91 165.753 426.161L164.169 420.685L164.077 420.356L164.322 420.233L225.082 390.002L224.929 390.221C230.642 362.605 235.742 337.933 239.902 317.807C240.83 309.094 243.305 300.808 247.118 293.641C248.703 290.75 250.593 288.181 252.729 286.015C254.525 284.212 256.499 282.751 258.595 281.675C261.485 280.174 264.552 279.381 267.65 279.333C268.447 279.274 269.245 279.274 270.042 279.333L270.88 279.32Z" fill="#263238"/>
<path d="M228.539 373.914C228.274 373.993 228.002 374.021 227.731 373.997C226.999 373.99 226.269 373.875 225.554 373.654C223.175 372.912 220.978 371.361 219.177 369.15C217.351 366.988 215.93 364.282 215.028 361.25C214.864 360.73 214.731 360.195 214.629 359.648C214.536 359.245 214.468 358.833 214.425 358.416C214.343 357.731 214.312 357.348 214.353 357.348C214.394 357.348 214.629 358.826 215.375 361.044C216.348 363.929 217.762 366.508 219.524 368.616C221.277 370.749 223.377 372.305 225.657 373.161C227.394 373.791 228.539 373.764 228.539 373.914Z" fill="#263238"/>
<path d="M188.628 318.902C188.49 319.631 188.301 320.342 188.066 321.025C187.667 322.394 187.044 324.324 186.4 326.761C185.071 331.594 183.201 338.454 183.006 346.34C182.91 350.05 183.286 353.754 184.121 357.293C184.805 360.165 185.734 362.922 186.89 365.508C187.668 367.263 188.518 368.958 189.435 370.588C189.806 371.168 190.147 371.781 190.457 372.422C190.457 372.422 190.334 372.299 190.13 372.012C189.926 371.724 189.65 371.327 189.302 370.766C188.305 369.192 187.397 367.522 186.584 365.768C185.372 363.162 184.394 360.372 183.671 357.458C182.805 353.865 182.407 350.1 182.495 346.326C182.816 339.52 184.016 332.84 186.042 326.583C186.768 324.174 187.422 322.257 187.871 320.929C188.084 320.228 188.336 319.55 188.628 318.902Z" fill="#263238"/>
<path d="M231.103 399.82C230.452 397.821 229.621 395.936 228.63 394.206C227.503 392.635 226.237 391.255 224.858 390.099C225.355 390.154 225.833 390.375 226.248 390.742C228.38 392.273 230.012 394.81 230.827 397.862C231.038 398.474 231.132 399.147 231.103 399.82Z" fill="#263238"/>
<path d="M165.683 424.752C165.683 424.752 146.459 427.052 146.724 443.783L170.66 442.154L165.683 424.752Z" fill="#B78876"/>
<path d="M196.671 144.39C194.913 155.781 193.237 167.191 191.643 178.619C189.599 193.104 187.759 208.247 190.815 222.432C192.491 230.208 195.577 237.273 198.633 244.256C200.35 248.172 202.231 252.307 205.277 254.333C209.416 257.071 214.649 254.908 217.95 250.568C221.251 246.228 222.917 240.176 224.082 234.138C226.3 222.445 226.79 210.301 227.148 198.239C227.506 186.177 227.69 173.663 225.104 161.97C222.518 150.277 216.856 139.215 208.424 134.587" fill="#263238"/>
<path d="M198.061 135.244C200.466 132.738 203.388 131.281 206.431 131.068C208.884 124.414 214.699 121.361 220.137 119.951C228.149 117.856 227.291 117.568 234.741 121.977C242.192 126.386 252.801 138.845 254.16 149.634C255.395 159.097 257.657 168.267 260.875 176.853C262.919 182.535 266.905 186.437 269.266 191.913C270.539 194.883 271.289 198.203 271.457 201.62C271.625 205.038 271.208 208.461 270.237 211.629C268.315 217.804 264.237 223.253 264.626 229.907C264.84 233.782 264.738 236.548 265.883 240.121C269.756 252.224 267.927 268.353 259.608 275.336C251.288 282.318 239.249 279.881 232.82 269.859C227.24 261.206 226.167 248.856 226.688 237.438C227.209 226.019 229.171 214.669 228.619 203.209" fill="#263238"/>
<path d="M207.607 451.505L207.484 447.562L164.15 441.442L145.16 368.315L63.8369 365.851L88.4373 451.505C128.644 451.915 168.367 451.915 207.607 451.505Z" fill="#263238"/>
<path d="M108.959 409.857C109.379 410.833 110.005 411.621 110.758 412.121C111.512 412.62 112.359 412.809 113.193 412.664C114.027 412.518 114.81 412.045 115.443 411.303C116.076 410.562 116.531 409.585 116.75 408.497C116.968 407.41 116.941 406.259 116.672 405.192C116.403 404.125 115.903 403.189 115.237 402.502C114.57 401.815 113.767 401.408 112.928 401.333C112.089 401.258 111.252 401.518 110.523 402.08C109.546 402.834 108.832 404.076 108.539 405.535C108.246 406.993 108.397 408.548 108.959 409.857Z" fill="white"/>
<path d="M227.342 275.132C237.092 275.132 245.861 264 245.575 247.461L247.333 152.99C247.364 151.012 246.839 149.091 245.862 147.607C244.886 146.123 243.528 145.186 242.059 144.98L213.003 140.873C210.629 140.538 208.228 140.85 205.946 141.79C203.664 142.73 201.547 144.279 199.724 146.343C197.9 148.408 196.407 150.945 195.334 153.802C194.262 156.66 193.632 159.779 193.482 162.971C192.787 177.922 192.368 196.227 193.687 207.386C196.344 229.826 209.191 232.688 209.191 232.688L208.874 248.365C208.383 265.068 217.715 275.118 227.342 275.118V275.132Z" fill="#B78876"/>
<path d="M199.982 175.155C199.976 175.899 200.185 176.618 200.567 177.159C200.948 177.7 201.471 178.023 202.026 178.058C202.298 178.088 202.573 178.044 202.832 177.929C203.092 177.814 203.332 177.631 203.538 177.389C203.744 177.148 203.911 176.854 204.031 176.524C204.15 176.195 204.219 175.836 204.233 175.47C204.242 174.725 204.033 174.005 203.651 173.463C203.269 172.921 202.745 172.6 202.189 172.568C201.917 172.538 201.642 172.582 201.382 172.696C201.123 172.811 200.883 172.995 200.677 173.236C200.471 173.477 200.303 173.772 200.184 174.101C200.065 174.431 199.996 174.789 199.982 175.155Z" fill="#263238"/>
<path d="M196.446 172.499C196.712 172.869 198.347 171.267 200.657 171.267C202.967 171.267 204.663 172.828 204.908 172.444C205.031 172.28 204.765 171.609 204.029 170.884C203.023 169.97 201.832 169.492 200.616 169.514C199.415 169.511 198.245 170.019 197.274 170.966C196.558 171.65 196.323 172.335 196.446 172.499Z" fill="#263238"/>
<path d="M222.303 175.731C222.294 176.476 222.503 177.196 222.885 177.738C223.267 178.28 223.791 178.601 224.347 178.633C224.621 178.665 224.896 178.623 225.157 178.509C225.418 178.395 225.659 178.212 225.866 177.97C226.073 177.729 226.242 177.434 226.362 177.103C226.482 176.773 226.551 176.413 226.565 176.046C226.571 175.301 226.361 174.583 225.98 174.042C225.599 173.501 225.076 173.178 224.521 173.143C224.247 173.111 223.972 173.154 223.711 173.268C223.45 173.382 223.209 173.565 223.002 173.806C222.795 174.048 222.626 174.343 222.506 174.673C222.386 175.004 222.317 175.364 222.303 175.731Z" fill="#263238"/>
<path d="M219.176 173.075C219.442 173.458 221.067 171.843 223.377 171.843C225.687 171.843 227.383 173.404 227.639 173.02C227.761 172.856 227.496 172.185 226.749 171.46C225.746 170.549 224.558 170.072 223.346 170.09C222.142 170.087 220.969 170.595 219.994 171.542C219.289 172.226 219.043 172.911 219.176 173.075Z" fill="#263238"/>
<path d="M210.785 196.049C209.567 195.54 208.307 195.237 207.034 195.146C206.441 195.064 205.879 194.899 205.777 194.365C205.731 193.545 205.869 192.724 206.175 192.01C206.727 190.107 207.31 188.095 207.923 186C210.345 177.415 212.103 170.364 211.838 170.241C211.572 170.118 209.405 176.963 206.983 185.534C206.4 187.657 205.838 189.642 205.307 191.6C204.942 192.553 204.833 193.646 205 194.694C205.086 194.973 205.218 195.223 205.386 195.424C205.555 195.626 205.754 195.774 205.971 195.858C206.304 195.979 206.648 196.038 206.993 196.036C208.251 196.259 209.526 196.264 210.785 196.049Z" fill="#263238"/>
<path d="M209.191 232.701C217.079 232.86 224.846 230.082 231.625 224.678C231.625 224.678 226.178 240.094 209.416 238L209.191 232.701Z" fill="#AA6550"/>
<path d="M211.767 203.511C212.202 202.763 212.774 202.18 213.428 201.817C214.082 201.455 214.795 201.326 215.497 201.444C216.006 201.505 216.501 201.703 216.952 202.025C217.404 202.347 217.802 202.787 218.124 203.319C218.434 203.836 218.618 204.467 218.651 205.129C218.684 205.79 218.564 206.449 218.308 207.016C217.934 207.582 217.441 207.984 216.894 208.167C216.346 208.35 215.77 208.307 215.242 208.043C214.152 207.523 213.149 206.723 212.288 205.688C212.03 205.438 211.808 205.127 211.634 204.771C211.546 204.599 211.499 204.396 211.499 204.189C211.499 203.981 211.546 203.778 211.634 203.607" fill="#AA6550"/>
<path d="M217.593 198.185C217.214 198.185 217.204 201.525 215.058 203.908C212.912 206.29 210.244 205.92 210.224 206.4C210.224 206.605 210.816 207.043 211.951 207.084C213.437 207.128 214.885 206.463 216.039 205.208C217.131 204.007 217.831 202.284 217.991 200.403C218.042 199.006 217.756 198.171 217.593 198.185Z" fill="#263238"/>
<path d="M218.133 167.653C218.358 168.502 220.667 168.105 223.386 168.543C226.105 168.981 228.292 169.912 228.65 169.214C228.813 168.844 228.425 168.064 227.546 167.242C226.372 166.223 225.033 165.594 223.642 165.407C222.26 165.192 220.86 165.412 219.553 166.051C218.542 166.599 218.041 167.256 218.133 167.653Z" fill="#263238"/>
<path d="M197.294 163.533C197.702 164.245 199.338 163.533 201.218 163.533C203.099 163.533 204.754 163.998 205.122 163.273C205.286 162.917 205.03 162.205 204.325 161.547C203.375 160.742 202.266 160.337 201.142 160.383C200.019 160.43 198.931 160.926 198.019 161.808C197.345 162.465 197.12 163.19 197.294 163.533Z" fill="#263238"/>
<path d="M193.83 159.246C200.136 154.344 206.278 149.812 210.183 141.598C212.36 149.812 216.611 153.92 222.253 158.287C227.895 162.655 234.2 165.215 240.445 167.721C237.287 171.828 236.868 178.469 237.594 184.288C238.319 190.107 239.985 195.706 240.261 201.594C240.619 209.453 238.473 217.161 238.34 225.034C238.156 235.836 241.712 246.036 245.198 255.771L260.334 243.955L258.157 191.311L258.341 154.057L234.742 124.675L204.858 129.056L193.83 159.246Z" fill="#263238"/>
<path d="M190.466 269.942C198.142 280.334 197.324 298.859 205.797 308.155C210.968 313.851 218.521 314.385 224.868 311.509C231.215 308.634 236.55 302.815 241.446 296.682C246.341 290.548 250.971 283.962 256.541 278.992C261.948 274.159 271.207 271.188 272.515 262.644C273.476 256.401 268.57 248.884 267.651 242.627C266.189 232.687 274.212 225.006 275.551 215.039C278.229 195.118 270.379 171.733 262.203 154.796C254.027 137.86 249.407 118.678 228.68 117.104C210.13 115.995 197.498 127.92 191.325 145.171C188.259 153.811 187.513 163.586 186.91 173.143C185.509 195.46 184.733 219.119 192.429 238.999C194.023 243.107 195.924 248.337 193.778 251.979C191.815 255.306 187.37 255.169 186.123 259.071C184.876 262.973 188.157 266.807 190.466 269.942ZM213.585 137.641C216.068 137.504 223.437 137.641 231.654 152.305C236.57 161.081 236.56 175.293 236.458 187.683C236.366 196.898 236.458 220.214 236.458 220.214C236.458 220.214 237.541 249.665 230.07 252.266C220.872 255.47 212.869 253.266 206.012 244.517C199.154 235.768 195.229 223.487 193.665 210.973C192.102 198.459 191.223 185.698 192.449 173.116C193.095 165.394 195 157.958 198.029 151.332C199.755 147.71 202.033 144.617 204.714 142.257C207.395 139.897 210.418 138.324 213.585 137.641Z" fill="#721121"/>
<g opacity="0.3">
<path d="M270.881 253.019C264.749 257.482 260.507 264.123 255.551 270.667C250.594 277.212 244.983 283.551 238.176 285.906C231.369 288.261 223.183 285.454 219.779 277.253C238.963 281.634 261.233 261.11 267.815 236.562C267.422 238.694 267.401 240.92 267.754 243.065C268.641 246.466 269.686 249.791 270.881 253.019Z" fill="black"/>
</g>
<g opacity="0.3">
<path d="M194.606 246.242C195.272 249.565 196.438 252.671 198.032 255.369C199.626 258.068 201.615 260.301 203.876 261.933C204.926 262.519 205.909 263.297 206.799 264.247C207.237 264.733 207.556 265.385 207.715 266.117C207.873 266.85 207.864 267.629 207.688 268.354C207.364 269.092 206.859 269.657 206.259 269.952C205.658 270.246 205.001 270.253 204.397 269.97C203.221 269.334 202.171 268.34 201.331 267.067C197.989 262.74 194.545 258.359 193.604 252.28C194.148 251.394 194.527 250.348 194.708 249.227C194.755 248.23 194.721 247.229 194.606 246.242Z" fill="black"/>
</g>
<path d="M266.291 241.423C266.221 241.703 266.125 241.97 266.005 242.217C265.79 242.724 265.514 243.504 265.075 244.435C263.873 247.107 262.548 249.677 261.109 252.13C258.993 255.795 256.652 259.216 254.108 262.357C251.011 266.258 247.497 269.52 243.684 272.037C241.672 273.214 239.602 274.207 237.49 275.008C235.525 275.774 233.524 276.369 231.501 276.788C228.079 277.535 224.602 277.71 221.148 277.308C218.825 277.024 216.528 276.437 214.29 275.556C213.493 275.268 212.9 274.94 212.491 274.748C212.277 274.67 212.071 274.555 211.878 274.406C211.878 274.406 212.757 274.734 214.351 275.282C216.591 276.064 218.88 276.573 221.189 276.802C224.603 277.129 228.034 276.908 231.409 276.145C233.405 275.71 235.378 275.106 237.316 274.337C239.407 273.539 241.456 272.556 243.449 271.394C247.213 268.882 250.687 265.654 253.761 261.81C256.3 258.715 258.652 255.355 260.793 251.76C262.253 249.348 263.618 246.834 264.881 244.23C265.341 243.326 265.647 242.573 265.903 242.094C266.02 241.857 266.149 241.633 266.291 241.423Z" fill="#263238"/>
<path d="M219.248 266.821C218.858 267.033 218.449 267.176 218.031 267.245C216.905 267.519 215.762 267.656 214.618 267.656C210.795 267.673 207.042 266.291 203.764 263.658C200.486 261.025 197.807 257.243 196.017 252.718C195.475 251.361 195.026 249.941 194.678 248.474C194.529 247.945 194.433 247.393 194.392 246.831C194.971 248.756 195.626 250.639 196.354 252.472C198.181 256.834 200.825 260.482 204.027 263.056C207.228 265.63 210.875 267.041 214.607 267.149C217.479 267.259 219.237 266.67 219.248 266.821Z" fill="#263238"/>
<path d="M215.271 300.748C215.461 300.642 215.66 300.573 215.864 300.542C216.253 300.419 216.886 300.309 217.581 300.063C219.682 299.458 221.753 298.685 223.785 297.749C230.475 294.57 236.769 290.061 242.458 284.373C248.136 278.663 253.514 272.437 258.555 265.738L263.195 259.714C263.706 259.043 264.135 258.509 264.462 258.085C264.604 257.885 264.762 257.706 264.932 257.551C264.819 257.777 264.689 257.988 264.544 258.181L263.338 259.906C262.316 261.384 260.752 263.507 258.82 266.094C253.839 272.923 248.475 279.23 242.774 284.961C237.047 290.689 230.68 295.166 223.908 298.228C221.852 299.127 219.752 299.832 217.622 300.337C216.876 300.542 216.273 300.611 215.874 300.679C215.676 300.735 215.474 300.758 215.271 300.748Z" fill="#263238"/>
<path d="M575.192 329.473L539.134 272.516L539.052 272.625C537.632 270.75 536.385 269.079 535.751 268.107C523.262 248.72 513.338 242.093 494.216 241.737L457.054 242.805C450.145 243.572 434.467 239.615 419.965 265.369C393.545 309.716 372.358 347.436 373.554 365.235C375.056 387.757 439.179 451.971 439.179 451.971L527.319 451.875L527.135 442.879L565.165 409.814C578.881 397.396 586.046 386.539 587.783 370.109C589.306 355.486 582.54 340.426 575.192 329.473ZM413.71 363.373C413.71 359.909 427.61 338.071 435.173 326.406L439.107 376.832L438.433 396.534L413.71 363.373ZM525.531 394.411L523.436 327.953L552.175 367.781L525.531 394.411Z" fill="#FFC07F"/>
<path d="M470.453 357.303L405.3 400.441C403.569 401.587 402.859 404.395 403.715 406.713L424.776 463.801C425.631 466.119 427.728 467.07 429.458 465.924L494.612 422.787C496.343 421.641 497.052 418.832 496.197 416.514L475.136 359.426C474.28 357.108 472.184 356.158 470.453 357.303Z" fill="#FFF2E5"/>
<path d="M449.674 406.255C450.356 405.697 451.145 405.422 451.943 405.465C452.741 405.508 453.511 405.868 454.157 406.497C454.802 407.127 455.294 407.999 455.569 409.003C455.845 410.007 455.892 411.098 455.705 412.137C455.517 413.177 455.104 414.119 454.517 414.845C453.93 415.57 453.196 416.046 452.407 416.212C451.618 416.378 450.811 416.227 450.086 415.778C449.361 415.329 448.752 414.602 448.336 413.689C447.777 412.466 447.605 410.995 447.856 409.601C448.107 408.207 448.761 407.003 449.674 406.255Z" fill="white"/>
<path d="M522.882 280.661C522.895 280.807 522.895 280.954 522.882 281.099C522.882 281.428 522.882 281.839 522.882 282.373C522.882 283.536 522.882 285.179 522.882 287.26C522.882 291.56 522.943 297.693 522.984 305.265C523.045 320.462 523.485 341.438 524.364 364.604C525.243 387.77 526.142 408.732 526.623 423.916C526.868 431.501 527.031 437.607 527.123 441.906C527.123 443.987 527.185 445.63 527.205 446.794C527.205 447.328 527.205 447.739 527.205 448.067C527.216 448.213 527.216 448.36 527.205 448.505C527.195 448.36 527.195 448.213 527.205 448.067C527.205 447.739 527.205 447.328 527.144 446.794C527.144 445.63 527.031 444.056 526.96 441.906C526.796 437.621 526.561 431.487 526.285 423.943C525.662 408.718 524.814 387.77 523.873 364.631C522.933 341.493 522.606 320.462 522.647 305.265C522.647 297.707 522.647 291.573 522.718 287.26C522.718 285.179 522.718 283.536 522.77 282.373C522.77 281.839 522.77 281.428 522.77 281.099C522.798 280.949 522.835 280.803 522.882 280.661Z" fill="#FFC727"/>
<path d="M431.114 250.881C435.815 246.295 441.283 247.678 445.995 252.25C450.706 256.823 453.323 264.573 453.793 272.336C454.263 280.099 452.771 287.876 450.573 295.078C447.027 306.62 441.784 315.957 433.945 327.841L413.749 363.371L452.74 414.358L436.582 448.505L403.938 413.304C392.787 400.694 383.303 387.797 376.343 374.461" fill="#FFC07F"/>
<path d="M376.333 374.503L376.568 374.914L377.253 376.146C377.856 377.227 378.755 378.884 379.971 380.883C383.47 386.738 387.224 392.311 391.214 397.573C393.769 400.982 396.682 404.638 399.932 408.526C403.182 412.415 406.841 416.262 410.725 420.438L436.684 448.341L436.327 448.423C441.345 437.812 446.792 426.284 452.464 414.263V414.701L432.351 388.413L413.484 363.769L413.32 363.563L413.453 363.317C420.608 350.789 427.373 338.878 433.669 327.801C437.516 322.129 441.083 316.129 444.349 309.838C447.266 304.105 449.625 297.899 451.371 291.368C453.027 285.571 453.805 279.39 453.66 273.186C453.49 267.965 452.303 262.896 450.216 258.481C448.5 254.93 446.108 252.057 443.287 250.156C441.219 248.681 438.89 247.99 436.551 248.158C435.101 248.311 433.691 248.87 432.412 249.801C431.533 250.43 431.124 250.855 431.114 250.827L431.421 250.512C431.722 250.212 432.04 249.942 432.371 249.705C433.653 248.731 435.074 248.133 436.541 247.952C438.914 247.744 441.283 248.416 443.389 249.896C446.262 251.782 448.702 254.672 450.451 258.262C452.593 262.732 453.82 267.879 454.008 273.186C454.179 279.373 453.443 285.546 451.841 291.354C450.1 297.942 447.737 304.204 444.809 309.988C441.544 316.306 437.976 322.334 434.129 328.034C427.833 339.11 421.057 351.036 413.944 363.632V363.166L432.821 387.811L452.924 414.112L453.078 414.318L452.965 414.551C447.283 426.572 441.825 438.086 436.797 448.684L436.654 448.998L436.439 448.766L410.53 420.767C406.657 416.577 402.978 412.689 399.758 408.8C396.539 404.912 393.626 401.256 391.061 397.847C387.077 392.54 383.34 386.911 379.869 380.993C378.673 378.939 377.825 377.296 377.212 376.187C376.926 375.653 376.711 375.229 376.558 374.927C376.405 374.626 376.333 374.503 376.333 374.503Z" fill="#263238"/>
<path d="M566.188 366.836C565.492 366.618 564.809 366.334 564.143 365.987C560.875 364.596 557.341 364.844 554.199 366.686C553.561 367.122 552.902 367.501 552.227 367.822C552.752 367.145 553.365 366.603 554.036 366.22C555.608 365.153 557.329 364.538 559.089 364.415C560.85 364.293 562.61 364.665 564.256 365.508C564.953 365.795 565.607 366.245 566.188 366.836Z" fill="#263238"/>
<path d="M460.722 446.904L453.629 451.627C451.908 452.774 449.976 453.232 448.066 452.946C446.155 452.659 444.346 451.64 442.857 450.012L438.432 445.179L450.696 419.343C452.137 420.178 458.065 421.301 460.109 422.273C461.879 423.104 463.742 423.52 465.618 423.505C467.711 423.565 469.804 423.335 471.862 422.82C471.995 422.752 472.179 422.697 472.302 422.629C472.58 422.474 472.88 422.404 473.181 422.423C474.929 422.204 476.319 424.669 475.337 426.531C474.356 428.393 469.573 431.049 463.461 430.816H463.175C457.809 430.816 462.736 436.827 465.914 440.4C466.477 441.008 466.914 441.799 467.183 442.699C467.451 443.598 467.542 444.575 467.447 445.535C467.431 445.881 467.359 446.219 467.235 446.524C467.112 446.829 466.94 447.094 466.732 447.301C465.342 448.506 460.722 446.904 460.722 446.904Z" fill="#A36853"/>
<path d="M477.136 265.52C467.733 265.52 459.281 254.786 459.363 238.794L457.666 147.732H457.86C457.832 145.82 458.343 143.965 459.289 142.534C460.236 141.103 461.55 140.202 462.97 140.01L490.995 136.039C493.284 135.716 495.598 136.016 497.798 136.922C499.998 137.828 502.039 139.321 503.797 141.312C505.555 143.302 506.994 145.749 508.027 148.504C509.061 151.259 509.667 154.266 509.81 157.343C510.485 171.761 510.894 189.409 509.616 200.17C507.02 221.844 494.643 224.61 494.643 224.61L494.94 239.67C495.42 255.772 486.416 265.465 477.136 265.465V265.52Z" fill="#A36853"/>
<path d="M503.517 169.129C503.517 169.844 503.309 170.53 502.936 171.042C502.564 171.553 502.057 171.85 501.524 171.868C501.26 171.897 500.994 171.856 500.742 171.745C500.49 171.634 500.258 171.456 500.058 171.223C499.859 170.989 499.697 170.703 499.582 170.384C499.466 170.064 499.4 169.717 499.388 169.362C499.388 168.636 499.603 167.939 499.986 167.426C500.37 166.912 500.89 166.624 501.432 166.624C501.952 166.607 502.457 166.857 502.845 167.323C503.232 167.789 503.473 168.435 503.517 169.129Z" fill="#263238"/>
<path d="M506.91 166.556C506.655 166.926 505.091 165.365 502.822 165.379C500.553 165.392 498.969 166.871 498.734 166.515C498.499 166.159 498.877 165.694 499.592 164.995C500.556 164.1 501.701 163.622 502.873 163.626C504.03 163.616 505.16 164.095 506.103 164.995C506.818 165.748 507.053 166.392 506.91 166.556Z" fill="#263238"/>
<path d="M482 169.678C482.007 170.043 481.959 170.406 481.859 170.747C481.76 171.087 481.61 171.397 481.42 171.658C481.229 171.92 481.002 172.128 480.75 172.27C480.499 172.412 480.229 172.485 479.956 172.484C479.427 172.519 478.909 172.277 478.51 171.81C478.112 171.342 477.864 170.686 477.82 169.979C477.813 169.614 477.861 169.25 477.961 168.91C478.06 168.57 478.21 168.26 478.4 167.998C478.591 167.737 478.818 167.529 479.07 167.387C479.321 167.245 479.591 167.172 479.864 167.172C480.393 167.138 480.911 167.38 481.31 167.847C481.708 168.314 481.956 168.971 482 169.678Z" fill="#263238"/>
<path d="M485.007 167.118C484.751 167.487 483.177 165.927 480.919 165.927C478.66 165.927 477.055 167.433 476.831 167.063C476.708 166.912 476.974 166.255 477.689 165.557C478.65 164.655 479.797 164.177 480.97 164.188C482.127 164.177 483.257 164.657 484.199 165.557C484.905 166.296 485.14 166.953 485.007 167.118Z" fill="#263238"/>
<path d="M493.102 189.27C494.275 188.77 495.491 188.476 496.72 188.394C497.293 188.312 497.834 188.161 497.926 187.641C497.975 186.854 497.843 186.066 497.548 185.382C497.007 183.533 496.455 181.603 495.862 179.577C493.521 171.362 491.835 164.516 492.08 164.379C492.326 164.242 494.431 170.855 496.761 179.125C497.334 181.165 497.865 183.109 498.376 184.971C498.737 185.892 498.843 186.955 498.672 187.97C498.589 188.235 498.462 188.473 498.301 188.664C498.14 188.856 497.949 188.998 497.742 189.079C497.425 189.191 497.099 189.251 496.772 189.257C495.554 189.464 494.321 189.469 493.102 189.27Z" fill="#263238"/>
<path d="M494.644 224.609C487.037 224.759 479.547 222.082 473.008 216.873C473.008 216.873 478.609 233.152 494.767 231.126L494.644 224.609Z" fill="#8F5039"/>
<path d="M486.008 161.886C485.793 162.707 483.565 162.31 480.949 162.735C478.333 163.159 476.217 164.104 475.839 163.392C475.675 163.036 476.043 162.269 476.861 161.489C477.999 160.523 479.287 159.919 480.626 159.722C481.965 159.525 483.32 159.741 484.587 160.353C485.62 160.914 486.11 161.503 486.008 161.886Z" fill="#263238"/>
<path d="M506.102 157.917C505.714 158.602 504.171 157.917 502.331 157.917C500.491 157.917 498.917 158.369 498.56 157.657C498.396 157.315 498.652 156.644 499.326 156.001C500.237 155.211 501.309 154.823 502.392 154.892C503.477 154.909 504.529 155.389 505.397 156.261C506.061 156.89 506.276 157.589 506.102 157.917Z" fill="#263238"/>
<path d="M457.851 168.418C460.6 167.761 462.797 168.897 463.574 172.526C464.729 177.934 463.942 180.604 464.136 184.328L468.224 182.685C467.202 170.212 469.522 160.984 468.51 148.456C474.193 150.92 482.001 146.211 484.424 138.324C486.835 140.698 489.699 142.108 492.684 142.389C495.669 142.67 498.652 141.811 501.287 139.913C501.95 141.53 502.98 142.823 504.227 143.605C505.474 144.388 506.875 144.619 508.227 144.266C511.293 143.103 514.543 137.256 515.432 133.108C517.027 125.646 516.25 114.939 511.732 110.079C507.215 105.218 498.16 106.382 494.644 112.557C493.254 114.994 493.09 119.498 490.852 120.115C488.859 120.662 487.05 118.745 485.231 117.486C479.559 113.721 471.72 118.718 470.319 126.988C465.577 123.195 459.833 120.717 454.529 122.757C449.225 124.797 444.993 132.683 446.802 139.666C447.549 142.596 449.235 145.143 449.419 148.196C449.777 154.152 444.442 159.546 446.148 165.064C447.099 168.158 449.889 169.527 451.146 172.416C452.557 175.647 451.678 179.727 451.8 183.465C451.984 189.709 454.376 198.95 458.842 200.73" fill="#263238"/>
<path d="M458.272 168.351C457.587 168.481 456.941 168.856 456.401 169.437C455.862 170.018 455.449 170.782 455.206 171.65C454.611 173.309 454.327 175.137 454.378 176.976C454.287 179.851 454.977 182.672 456.32 184.917C457.008 186.009 457.934 186.784 458.968 187.135C460.001 187.486 461.091 187.395 462.084 186.875" fill="#A36853"/>
<path d="M461.06 182.179C461.06 182.247 460.457 182.548 459.507 182.096C458.958 181.814 458.475 181.342 458.107 180.727C457.664 179.931 457.405 178.98 457.361 177.989C457.31 177.042 457.455 176.094 457.78 175.251C458.053 174.558 458.446 173.962 458.924 173.512C459.762 172.772 460.416 172.814 460.406 172.896C459.971 173.193 459.554 173.536 459.159 173.923C458.716 174.418 458.368 175.051 458.147 175.767C457.927 176.482 457.839 177.259 457.892 178.03C457.921 178.79 458.099 179.527 458.41 180.164C458.721 180.802 459.152 181.317 459.66 181.658C460.116 181.88 460.584 182.054 461.06 182.179Z" fill="#8F5039"/>
<path d="M486.009 199.842C488.053 201.718 491.917 200.732 493.368 197.953C490.249 195.675 487.375 192.842 484.824 189.532C484.824 189.532 481.921 195.995 486.009 199.842Z" fill="#FAFAFA"/>
<path d="M492.601 206.164C491.771 205.721 490.896 205.444 490.005 205.343C489.117 205.442 488.244 205.705 487.409 206.123C487.409 206.123 487.563 205.699 488.022 205.329C488.627 204.863 489.313 204.618 490.01 204.618C490.708 204.618 491.393 204.863 491.998 205.329C492.458 205.726 492.662 206.095 492.601 206.164Z" fill="#AA6550"/>
<path d="M467.734 293.836C472.048 285.31 475.97 276.44 479.477 267.274C483.698 256.485 482.983 255.938 481.971 255.458C479.252 254.158 474.009 274.038 473.314 268.835C472.619 263.632 481.797 245.559 478.915 244.409C475.154 242.849 469.952 263.81 469.42 265.535C468.889 267.26 467.019 266.206 467.571 264.686C468.357 262.51 476.186 239.248 472.497 237.673C470.453 236.811 469.717 241.931 469.717 241.931C469.717 241.931 463.585 264.454 461.857 263.632C460.13 262.811 463.39 249.407 464.729 244.998C466.068 240.589 465.067 237.974 463.155 238.741C461.847 239.261 457.503 252.624 456.257 257.019C455.01 261.414 451.739 273.586 449.756 265.713C449.756 265.59 449.685 265.481 449.644 265.357C447.855 257.526 444.534 252.296 442.807 251.666C441.079 251.036 439.822 253.583 440.538 255.773C440.63 256.156 440.783 256.506 440.987 256.8C441.079 256.937 441.171 257.142 441.263 257.293C442.288 259.737 443.124 262.316 443.757 264.988C444.362 267.367 444.663 269.867 444.646 272.381C444.646 275.297 445.668 283.786 445.587 285.881" fill="#FFAD9D"/>
<path d="M444.564 282.772L419.841 348.492C419.841 348.492 405.859 294.314 398.317 272.764C395.445 264.549 389.68 258.853 384.151 255.074V254.924L382.996 254.308C379.028 251.767 374.859 249.833 370.568 248.544C344.486 238.535 319.916 242.026 291.473 255.389C291.473 255.389 276.704 260.702 269.54 286.51C263.101 309.786 255.875 345.384 254.639 351.682C245.778 391.634 258.43 413.882 276.04 411.144C283.297 409.611 289.47 401.56 292.199 398.438L301.509 386.718L301.714 395.796L291.258 451.863L398.306 451.561L378.99 385.171L383.282 354.735L390.631 378.12C392.939 385.473 396.799 391.764 401.738 396.221C406.676 400.678 412.479 403.107 418.433 403.21C424.387 403.313 430.234 401.086 435.257 396.802C440.28 392.518 444.26 386.363 446.71 379.092L471.74 294.67L444.564 282.772Z" fill="#721121"/>
<path d="M315.655 364.702C315.372 365.352 315.05 365.97 314.694 366.551C314.05 367.701 313.079 369.357 311.842 371.343C309.379 375.327 305.833 380.68 301.714 386.335C297.595 391.989 293.671 396.85 290.727 400.204C289.266 401.902 288.049 403.216 287.191 404.093C286.768 404.607 286.31 405.066 285.821 405.462C286.202 404.912 286.616 404.403 287.058 403.942C287.876 402.997 289.051 401.614 290.482 399.835C293.343 396.371 297.217 391.469 301.326 385.828C305.434 380.187 309.032 374.875 311.546 371.014C312.823 369.07 313.825 367.468 314.52 366.373C314.861 365.773 315.241 365.214 315.655 364.702Z" fill="#263238"/>
<path d="M379.338 383.036C379.33 382.778 379.347 382.52 379.389 382.269C379.471 381.694 379.552 380.982 379.665 380.106L380.779 372.137C381.719 365.415 383.007 356.132 384.029 345.795C384.288 343.212 384.52 340.697 384.724 338.251C384.976 335.926 385.075 333.575 385.02 331.227C384.831 327.245 384.39 323.293 383.702 319.411C383.15 316.07 382.68 313.387 382.363 311.511C382.22 310.566 382.138 309.827 382.097 309.334C382.073 309.075 382.073 308.813 382.097 308.554C382.162 308.797 382.204 309.05 382.22 309.307C382.292 309.8 382.414 310.525 382.588 311.456C382.925 313.305 383.487 315.961 384.09 319.302C384.839 323.201 385.321 327.183 385.531 331.199C385.593 333.578 385.504 335.96 385.266 338.319C385.071 340.77 384.836 343.303 384.581 345.891C383.559 356.255 382.2 365.538 381.167 372.233C380.636 375.505 380.207 378.189 379.89 380.16C379.736 381.023 379.614 381.735 379.522 382.31C379.479 382.559 379.417 382.803 379.338 383.036Z" fill="#263238"/>
<path d="M417.663 364.566C418.053 359.168 418.794 353.826 419.88 348.602C419.768 351.332 419.477 354.044 419.012 356.707C418.729 359.373 418.278 362.002 417.663 364.566Z" fill="#263238"/>
<path d="M421.434 366.508C420.921 363.466 420.58 360.377 420.413 357.266C420.055 354.181 419.874 351.064 419.871 347.942C420.384 350.984 420.725 354.074 420.893 357.184C421.251 360.269 421.432 363.386 421.434 366.508Z" fill="#263238"/>
<path d="M342.472 451.562C342.329 451.562 342.206 429.546 342.206 402.409C342.206 375.273 342.329 353.243 342.472 353.243C342.615 353.243 342.738 375.245 342.738 402.409C342.738 429.573 342.615 451.562 342.472 451.562Z" fill="#263238"/>
<g opacity="0.2">
<path d="M382.64 312.525C387.658 325.409 392.022 338.224 392.421 352.751C392.727 364.047 389.354 373.466 392.84 383.762C392.666 383.94 389.692 375.068 388.373 370.906C385.665 362.335 383.263 354.682 383.263 354.682C383.263 354.682 385.123 335.335 385.307 332.036C385.491 328.736 382.64 312.525 382.64 312.525Z" fill="black"/>
</g>
<g opacity="0.2">
<path d="M258.43 377.983C258.43 384.445 255.436 363.114 258.236 357.87C260.209 354.187 263.581 352.393 266.852 351.312C270.123 350.23 273.546 349.504 276.449 347.204C280.2 344.233 282.581 338.989 285.208 334.389C287.834 329.789 291.34 310.087 295.673 309.662V338.414C285.295 347.414 274.501 355.522 263.357 362.689C261.77 364.621 260.509 366.985 259.66 369.623C258.81 372.26 258.391 375.111 258.43 377.983Z" fill="black"/>
</g>
<g opacity="0.2">
<path d="M301.479 386.732C308.479 381.461 313.59 374.409 321.5 372.588C329.114 370.781 336.953 372.588 344.66 371.876C344.244 366.665 343.818 361.444 343.382 356.213L321.337 355.885L301.479 386.732Z" fill="black"/>
</g>
<path d="M295.675 309.334C295.818 309.334 295.941 315.728 295.941 323.614C295.941 331.501 295.818 337.908 295.675 337.908C295.405 333.153 295.316 328.382 295.409 323.614C295.316 318.851 295.405 314.085 295.675 309.334Z" fill="#263238"/>
<path d="M258.411 377.834C258.246 377.004 258.204 376.138 258.289 375.287C258.392 373.224 258.758 371.2 259.372 369.304C259.978 367.406 260.825 365.664 261.876 364.156C262.279 363.491 262.771 362.934 263.327 362.513C261.95 364.663 260.786 367.042 259.863 369.591C259.1 372.237 258.612 375.01 258.411 377.834Z" fill="#263238"/>
<path d="M262.816 362.948C263.367 362.753 263.904 362.491 264.421 362.168C265.443 361.62 266.915 360.799 268.703 359.662C272.28 357.472 277.156 354.186 282.327 350.078C287.499 345.971 292.006 341.932 295.164 338.838C296.748 337.277 298.015 335.99 298.864 335.072C299.323 334.624 299.754 334.125 300.151 333.58C299.649 333.946 299.171 334.368 298.721 334.84L294.929 338.4C291.709 341.384 287.192 345.369 282.031 349.435C276.869 353.501 272.045 356.815 268.519 359.128L264.329 361.867C263.802 362.166 263.296 362.528 262.816 362.948Z" fill="#263238"/>
<path d="M397.11 186.685C395.352 183.604 392.562 181.208 392 177.443C391.294 172.391 395.066 167.654 394.381 162.588C393.931 159.124 391.55 156.687 389.118 155.345C386.685 154.003 384.007 153.36 381.779 151.566C379.105 149.268 377.052 145.879 375.923 141.9C375.59 140.812 375.3 139.702 375.054 138.573C374.826 136.153 374.412 133.772 373.818 131.467C373.726 130.865 373.644 130.262 373.562 129.66L373.675 131.029C373.335 129.889 372.889 128.813 372.346 127.825C370.476 124.484 366.735 122.622 364.17 124.964L365.396 123.868C363.845 118.844 361.354 114.44 358.161 111.082C354.969 107.724 351.185 105.526 347.173 104.7C345.643 104.413 344.095 104.344 342.554 104.495C337.045 104.111 329.083 106.261 325.721 109.122C321.428 112.764 317.033 117.762 314.877 123.937C313.722 127.264 312.935 131.111 310.789 133.329C307.866 136.286 303.767 135.136 300.119 135.684C294.109 136.601 288.876 142.776 286.832 150.402C285.881 154.263 285.538 158.346 285.827 162.392C286.115 166.439 287.028 170.362 288.508 173.911C289.142 175.485 289.888 177.306 289.387 178.963C288.869 180.193 288.06 181.156 287.088 181.701C284.638 183.394 282.68 186.137 281.528 189.492C280.506 192.901 280.894 197.214 282.959 199.623C283.824 200.548 284.859 201.146 285.955 201.355C287.051 201.565 288.169 201.378 289.193 200.815C288.584 202.877 288.262 205.072 288.243 207.291C288.199 209.715 288.642 212.11 289.524 214.226C290.407 216.343 291.697 218.104 293.261 219.326C296.46 221.557 300.936 220.38 302.817 216.259C302.805 219.297 303.407 222.284 304.559 224.901C305.711 227.519 307.37 229.67 309.361 231.127C311.351 232.583 313.599 233.292 315.866 233.176C318.132 233.061 320.333 232.126 322.235 230.47C323.748 229.101 325.302 227.294 327.09 227.732C328.879 228.17 329.891 230.47 331.117 232.141C334.387 236.7 339.968 237.22 344.271 234.633C348.573 232.045 351.742 226.87 354.021 221.338C354.815 222.931 355.929 224.191 357.234 224.975C358.539 225.758 359.982 226.032 361.399 225.766C362.815 225.5 364.146 224.705 365.24 223.471C366.334 222.238 367.146 220.616 367.583 218.792C369.176 221.552 371.364 223.591 373.85 224.632C376.336 225.672 379.001 225.665 381.484 224.61C383.967 223.556 386.149 221.505 387.733 218.736C389.318 215.966 390.229 212.611 390.344 209.125C392.142 208.769 393.839 207.791 395.268 206.288C396.697 204.784 397.808 202.807 398.493 200.552C399.177 198.297 399.41 195.842 399.17 193.429C398.929 191.017 398.222 188.73 397.12 186.794L397.11 186.685ZM294.324 190.916C294.324 190.916 294.324 190.916 294.324 190.833L294.426 190.765L294.324 190.916Z" fill="#263238"/>
<path d="M359.161 225.269C359.161 225.269 372.253 222.366 374.962 199.487C376.311 188.11 375.882 169.462 375.166 154.223C375.014 150.97 374.372 147.792 373.28 144.88C372.187 141.969 370.666 139.383 368.808 137.279C366.95 135.175 364.794 133.596 362.468 132.637C360.143 131.679 357.697 131.36 355.277 131.701L325.638 135.904C324.135 136.117 322.747 137.08 321.751 138.603C320.755 140.125 320.223 142.095 320.262 144.119L323.38 243.492C321.223 244.108 316.328 245.532 313.926 246.463C313.926 246.463 336.84 315.071 342.451 314.277C348.062 313.483 370.485 248.558 370.485 248.558C366.58 246.981 362.616 245.679 358.609 244.656C358.546 238.185 358.73 231.714 359.161 225.269Z" fill="#FFAD9D"/>
<path d="M368.545 166.683C368.551 167.446 368.334 168.182 367.941 168.734C367.547 169.287 367.009 169.611 366.439 169.64C366.159 169.68 365.876 169.642 365.608 169.528C365.339 169.414 365.091 169.228 364.879 168.979C364.667 168.731 364.496 168.427 364.376 168.086C364.255 167.745 364.189 167.375 364.181 166.998C364.175 166.234 364.392 165.498 364.785 164.946C365.178 164.394 365.717 164.069 366.286 164.04C366.565 164.01 366.845 164.056 367.11 164.173C367.375 164.29 367.621 164.478 367.831 164.724C368.042 164.97 368.213 165.27 368.336 165.607C368.458 165.943 368.529 166.309 368.545 166.683Z" fill="#263238"/>
<path d="M372.151 163.97C371.875 164.354 370.22 162.711 367.859 162.725C365.498 162.738 363.771 164.313 363.525 163.929C363.392 163.751 363.668 163.067 364.425 162.327C365.453 161.396 366.668 160.904 367.91 160.917C369.136 160.915 370.331 161.433 371.323 162.396C371.998 163.108 372.284 163.806 372.151 163.97Z" fill="#263238"/>
<path d="M345.805 167.27C345.811 168.035 345.593 168.773 345.197 169.326C344.802 169.878 344.261 170.202 343.689 170.227C343.409 170.267 343.126 170.229 342.858 170.115C342.59 170.001 342.341 169.814 342.129 169.566C341.917 169.318 341.746 169.014 341.626 168.673C341.505 168.332 341.439 167.961 341.431 167.584C341.425 166.819 341.643 166.081 342.039 165.528C342.434 164.976 342.975 164.652 343.546 164.627C343.825 164.597 344.105 164.642 344.37 164.76C344.636 164.877 344.881 165.065 345.091 165.311C345.302 165.557 345.473 165.857 345.596 166.194C345.719 166.53 345.79 166.896 345.805 167.27Z" fill="#263238"/>
<path d="M348.982 164.56C348.716 164.944 347.05 163.301 344.7 163.314C342.349 163.328 340.612 164.902 340.356 164.519C340.233 164.341 340.509 163.657 341.266 162.917C342.287 161.974 343.5 161.472 344.741 161.48C345.966 161.479 347.161 161.997 348.154 162.958C348.87 163.657 349.115 164.396 348.982 164.56Z" fill="#263238"/>
<path d="M357.539 187.971C358.782 187.45 360.07 187.142 361.371 187.054C361.964 186.972 362.537 186.808 362.639 186.26C362.691 185.425 362.552 184.589 362.24 183.864C361.668 181.92 361.085 179.866 360.462 177.73C357.988 168.995 356.2 161.807 356.466 161.67C356.731 161.533 358.939 168.516 361.412 177.265L363.119 183.439C363.5 184.411 363.608 185.533 363.426 186.602C363.336 186.892 363.197 187.15 363.02 187.354C362.842 187.559 362.631 187.705 362.404 187.78C362.07 187.896 361.727 187.96 361.382 187.971C360.106 188.184 358.815 188.184 357.539 187.971Z" fill="#263238"/>
<path d="M359.163 225.268C351.121 225.419 343.206 222.575 336.3 217.053C336.3 217.053 341.849 232.757 358.938 230.621L359.163 225.268Z" fill="#ED9482"/>
<path d="M350.903 192.915C351.421 192.427 352.009 192.087 352.63 191.915C352.943 191.838 353.266 191.895 353.554 192.077C353.842 192.258 354.08 192.556 354.235 192.928C354.3 193.202 354.382 193.468 354.48 193.723C354.827 194.352 355.553 194.12 356.105 194.339C356.313 194.457 356.502 194.629 356.661 194.845C356.82 195.061 356.945 195.317 357.029 195.598C357.114 195.879 357.156 196.18 357.154 196.483C357.151 196.786 357.104 197.086 357.015 197.364C356.809 197.921 356.522 198.416 356.171 198.82C355.82 199.225 355.412 199.53 354.971 199.719C353.814 200.358 352.554 200.589 351.312 200.39C350.877 200.368 350.451 200.223 350.061 199.963C349.672 199.703 349.328 199.336 349.053 198.884C348.795 198.279 348.674 197.587 348.705 196.892C348.736 196.196 348.917 195.528 349.227 194.968C349.862 193.855 350.658 192.923 351.567 192.23" fill="#ED9482"/>
<path d="M350.607 190.163C350.985 190.163 350.995 193.558 353.182 195.982C355.369 198.405 358.088 198.035 358.108 198.515C358.108 198.734 357.505 199.185 356.351 199.227C354.863 199.246 353.416 198.568 352.262 197.31C351.134 196.097 350.401 194.345 350.218 192.422C350.147 191.039 350.433 190.135 350.607 190.163Z" fill="#263238"/>
<path d="M350.044 159.042C349.809 159.891 347.459 159.494 344.699 159.932C341.94 160.37 339.691 161.397 339.333 160.616C339.17 160.26 339.558 159.453 340.458 158.617C341.663 157.599 343.025 156.961 344.442 156.752C345.859 156.543 347.292 156.769 348.634 157.413C349.635 157.96 350.146 158.631 350.044 159.042Z" fill="#263238"/>
<path d="M371.283 156.81C370.864 157.536 369.239 156.81 367.287 156.81C365.335 156.81 363.689 157.29 363.311 156.537C363.137 156.181 363.403 155.455 364.119 154.784C365.089 153.97 366.218 153.561 367.362 153.607C368.507 153.653 369.615 154.154 370.547 155.044C371.242 155.756 371.467 156.496 371.283 156.81Z" fill="#263238"/>
<path d="M365.184 128.358C364.546 132.411 363.309 136.252 361.546 139.654C359.782 143.056 357.528 145.951 354.916 148.168C352.305 150.384 349.388 151.877 346.338 152.56C343.289 153.242 340.168 153.1 337.16 152.14C336.666 157.166 335.212 161.935 332.94 165.988C330.668 170.041 327.655 173.241 324.19 175.279C328.916 186.756 330.843 199.927 329.699 212.944C329.198 218.421 328.003 224.267 324.896 228.005C320.153 233.701 312.161 232.318 307.603 226.376C303.228 220.666 301.685 211.74 302.922 203.73C304.158 195.721 307.909 188.669 312.621 183.521C310.636 183.066 308.785 181.878 307.277 180.091C305.769 178.304 304.662 175.988 304.082 173.405C303.503 170.821 303.472 168.072 303.995 165.467C304.517 162.862 305.572 160.504 307.041 158.658C308.379 156.96 310.107 155.7 311.129 153.633C312.151 151.565 312.314 149.265 312.897 147.061C314.42 141.297 318.263 137.313 321.921 133.643C324.988 130.549 328.422 127.318 332.285 127.331C334.329 127.331 336.373 128.29 338.417 127.92C341.228 127.414 343.425 124.552 345.745 122.444C348.972 119.226 352.988 117.759 356.988 118.336C360.943 119.171 364.632 123.128 365.378 128.386" fill="#263238"/>
<path d="M363.66 130.619C363.057 135.041 364.682 139.573 367.155 142.667C369.628 145.761 372.684 147.678 375.74 149.513C374.675 145.163 373.187 141.02 371.315 137.19C370.37 135.267 369.15 133.614 367.726 132.326C366.301 131.038 364.7 130.141 363.016 129.688" fill="#263238"/>
<path d="M288.56 183.356C288.443 182.894 288.411 182.401 288.468 181.919C288.619 180.52 289.169 179.255 290.001 178.386C291.346 177.074 293.005 176.47 294.661 176.689C296.572 176.689 298.688 177.538 301.028 177.346C302.295 177.203 303.518 176.661 304.598 175.764C305.678 174.867 306.584 173.64 307.242 172.184C307.972 170.556 308.374 168.702 308.408 166.803C308.51 164.845 308.408 162.792 308.459 160.656C308.474 158.416 308.994 156.236 309.951 154.399C311.015 152.565 312.427 151.146 314.039 150.291C317.258 148.334 320.927 148.306 324.443 147.43C326.188 147.049 327.869 146.261 329.41 145.102C330.855 143.87 332.107 142.275 333.1 140.406C335.093 136.737 336.432 132.643 338.261 129.152C340.46 124.767 343.695 121.5 347.446 119.873C351.197 118.247 355.248 118.356 358.947 120.184C360.481 120.926 361.93 121.954 363.25 123.237C364.395 124.291 365.411 125.575 366.265 127.043C366.19 126.971 366.122 126.889 366.061 126.797L365.498 126.044C364.763 125.105 363.973 124.244 363.138 123.47C360.038 120.607 356.344 119.127 352.58 119.239C349.817 119.365 347.115 120.363 344.694 122.152C342.274 123.941 340.203 126.471 338.65 129.535C336.861 132.958 335.532 137.052 333.539 140.831C332.509 142.776 331.203 144.432 329.697 145.705C328.114 146.913 326.384 147.733 324.586 148.128C320.989 149.018 317.432 149.045 314.284 150.866C312.757 151.682 311.417 153.023 310.401 154.755C309.495 156.48 309.003 158.533 308.99 160.642C308.898 162.71 308.99 164.75 308.919 166.79C308.868 168.788 308.435 170.735 307.661 172.444C306.963 173.969 306.004 175.248 304.863 176.177C303.722 177.106 302.432 177.656 301.1 177.784C298.657 177.948 296.552 177.099 294.682 177.031C293.088 176.78 291.481 177.321 290.164 178.551C289.355 179.368 288.802 180.558 288.611 181.891C288.548 182.375 288.531 182.867 288.56 183.356Z" fill="#FAFAFA"/>
<path d="M313.948 289.044L315.032 325.518L317.771 360.432L346.725 358.775L344.64 289.838L313.948 289.044Z" fill="#263238"/>
<path d="M303.388 288.919L304.353 325.516L306.794 360.43L332.597 358.773L330.739 289.727L303.388 288.919Z" fill="#FFC07F"/>
<path d="M306.977 364.701C314.661 364.232 322.317 363.135 329.901 361.415C338.875 359.485 338.783 358.403 338.466 357.02C337.608 353.324 322.584 359.594 325.282 355.733C327.98 351.872 344.261 350.941 343.239 347.135C341.921 342.165 326.273 349.12 324.924 349.572C323.575 350.024 323.084 347.409 324.321 347.08C326.099 346.615 344.69 341.111 343.423 336.209C342.728 333.471 339.222 335.771 339.222 335.771C339.222 335.771 322.073 342.617 321.531 340.33C320.989 338.044 330.964 333.485 334.398 332.252C337.832 331.02 338.803 328.405 337.199 326.776C336.105 325.694 325.517 329.021 322.144 330.322C318.771 331.623 309.532 335.374 313.048 328.528C313.109 328.419 313.15 328.309 313.201 328.2C316.809 321.6 317.944 314.905 317.29 312.66C316.635 310.414 314.356 310.62 313.488 312.66C313.317 312.989 313.198 313.362 313.14 313.755C313.14 313.933 313.048 314.166 313.007 314.357C312.172 316.914 311.145 319.35 309.941 321.628C308.883 323.708 307.566 325.528 306.047 327.008C304.299 328.72 299.915 334.991 298.535 336.1" fill="#FFAD9D"/>
<path d="M300.345 334.088L315.655 364.702L290.421 399.177L291.279 343.261L300.345 334.088Z" fill="#721121"/>
</svg>
