<svg width="486" height="400" viewBox="0 0 486 400" fill="none" xmlns="http://www.w3.org/2000/svg">
<path d="M232.696 400C354.341 400 452.954 394.133 452.954 386.897C452.954 379.66 354.341 373.793 232.696 373.793C111.051 373.793 12.4385 379.66 12.4385 386.897C12.4385 394.133 111.051 400 232.696 400Z" fill="white"/>
<path opacity="0.6" d="M232.696 400C354.341 400 452.954 394.133 452.954 386.897C452.954 379.66 354.341 373.793 232.696 373.793C111.051 373.793 12.4385 379.66 12.4385 386.897C12.4385 394.133 111.051 400 232.696 400Z" fill="#721121"/>
<path d="M52.8065 109.261H419.589C422.853 109.261 425.985 110.558 428.293 112.868C430.602 115.177 431.899 118.309 431.899 121.576V363.398H40.5078V121.576C40.5078 118.311 41.8032 115.181 44.1093 112.872C46.4154 110.563 49.5436 109.264 52.8065 109.261Z" fill="#721121" stroke="#721121" stroke-width="0.5" stroke-miterlimit="10"/>
<path d="M416.023 129.122H56.3848V332.434H416.023V129.122Z" fill="white"/>
<g style="mix-blend-mode:multiply" opacity="0.4">
<path d="M416.023 332.434V158.885L118.537 332.434H416.023Z" fill="#721121"/>
</g>
<path d="M416.023 129.122H56.3848V332.434H416.023V129.122Z" stroke="#721121" stroke-width="0.690452" stroke-miterlimit="10"/>
<path d="M371.583 351.165H102.602V364.422H371.583V351.165Z" fill="#721121" stroke="#721121" stroke-width="0.691688" stroke-miterlimit="10"/>
<path d="M371.583 357.558H102.602V364.433H371.583V357.558Z" fill="#721121" stroke="#721121" stroke-width="0.691688" stroke-miterlimit="10"/>
<path d="M8.84961 372.286C8.84961 372.286 13.2748 377.69 26.5032 382.105H447.67C447.67 382.105 457.485 379.644 461.911 372.769L8.84961 372.286Z" fill="#721121" stroke="#721121" stroke-width="0.920603" stroke-miterlimit="10"/>
<path d="M459.686 362.608H11.1327C9.37776 362.608 7.95508 364.032 7.95508 365.787V369.755C7.95508 371.51 9.37776 372.934 11.1327 372.934H459.686C461.441 372.934 462.864 371.51 462.864 369.755V365.787C462.864 364.032 461.441 362.608 459.686 362.608Z" fill="#721121" stroke="#721121" stroke-width="0.920603" stroke-miterlimit="10"/>
<path d="M236.121 120.386C238.019 120.386 239.558 118.847 239.558 116.949C239.558 115.05 238.019 113.511 236.121 113.511C234.223 113.511 232.685 115.05 232.685 116.949C232.685 118.847 234.223 120.386 236.121 120.386Z" fill="#721121"/>
<path d="M190.716 113.511H104.802C104.577 113.511 104.353 113.467 104.145 113.38C103.936 113.294 103.747 113.167 103.587 113.008C103.428 112.848 103.301 112.658 103.215 112.45C103.128 112.241 103.084 112.018 103.084 111.792C103.084 111.566 103.128 111.343 103.215 111.134C103.301 110.926 103.428 110.736 103.587 110.577C103.747 110.417 103.936 110.29 104.145 110.204C104.353 110.118 104.577 110.073 104.802 110.073H190.716C191.171 110.076 191.606 110.258 191.928 110.58C192.249 110.902 192.431 111.337 192.435 111.792C192.435 112.248 192.253 112.685 191.931 113.008C191.609 113.33 191.172 113.511 190.716 113.511Z" fill="#721121" stroke="#721121" stroke-width="0.691688" stroke-miterlimit="10"/>
<path d="M365.946 113.511H280.032C279.576 113.511 279.139 113.33 278.817 113.008C278.494 112.685 278.313 112.248 278.313 111.792C278.317 111.337 278.499 110.902 278.82 110.58C279.142 110.258 279.577 110.076 280.032 110.073H365.946C366.401 110.073 366.839 110.254 367.161 110.577C367.483 110.899 367.664 111.336 367.664 111.792C367.664 112.248 367.483 112.685 367.161 113.008C366.839 113.33 366.401 113.511 365.946 113.511Z" fill="#721121" stroke="#721121" stroke-width="0.691688" stroke-miterlimit="10"/>
<path d="M428.534 180.783C428.273 180.783 428.024 180.681 427.839 180.498C427.654 180.315 427.548 180.067 427.545 179.806V151.327C427.548 151.066 427.653 150.816 427.838 150.631C428.023 150.446 428.272 150.341 428.534 150.338C428.794 150.341 429.042 150.447 429.225 150.632C429.408 150.817 429.51 151.067 429.51 151.327V179.806C429.51 180.065 429.407 180.314 429.224 180.497C429.041 180.681 428.793 180.783 428.534 180.783Z" fill="#721121" stroke="#721121" stroke-width="0.691688" stroke-miterlimit="10"/>
<path d="M44.1917 180.783C44.0634 180.783 43.9364 180.758 43.8179 180.709C43.6993 180.66 43.5917 180.588 43.5009 180.497C43.4102 180.407 43.3383 180.299 43.2892 180.18C43.2401 180.062 43.2148 179.935 43.2148 179.806V151.327C43.2148 151.067 43.3174 150.817 43.5002 150.632C43.6831 150.447 43.9315 150.341 44.1917 150.338C44.4529 150.341 44.7026 150.446 44.8873 150.631C45.0721 150.816 45.1772 151.066 45.1803 151.327V179.806C45.1772 180.067 45.0716 180.315 44.8866 180.498C44.7015 180.681 44.4518 180.783 44.1917 180.783Z" fill="#721121" stroke="#721121" stroke-width="0.691688" stroke-miterlimit="10"/>
<path d="M313.197 188.246C314.868 187.069 316.668 184.973 316.727 182.76C316.749 182.241 316.663 181.724 316.473 181.241C316.283 180.758 315.995 180.319 315.625 179.955C315.256 179.59 314.815 179.306 314.33 179.122C313.845 178.938 313.326 178.858 312.808 178.886C309.689 179.169 306.924 184.067 306.265 186.786C306.265 187.022 305.794 190.801 305.853 190.789C305.912 190.777 311.219 189.647 313.197 188.246Z" fill="#263238"/>
<path d="M286.258 247.277C286.183 246.857 286.02 246.458 285.78 246.105C285.539 245.753 285.227 245.456 284.863 245.233C284.499 245.01 284.092 244.868 283.669 244.814C283.246 244.76 282.817 244.797 282.409 244.922C280.055 245.735 278.725 250.15 278.761 252.434C278.761 252.575 278.984 254.294 279.114 255.165C278.843 254.494 278.584 253.811 278.313 253.105C277.925 252.08 277.548 250.997 277.137 249.938L276.607 248.254C276.419 247.689 276.301 247.077 276.148 246.559C275.936 245.711 275.76 244.828 275.583 243.945C277.496 243.414 279.315 242.588 280.973 241.496C282.256 240.319 283.562 238.588 283.433 236.787C283.418 236.364 283.313 235.948 283.127 235.568C282.94 235.188 282.675 234.851 282.35 234.58C282.025 234.309 281.646 234.11 281.238 233.995C280.831 233.88 280.404 233.853 279.985 233.914C277.478 234.362 275.548 238.529 275.277 240.79C275.277 240.86 275.277 241.343 275.277 241.967C275.136 241.096 274.983 240.236 274.865 239.353C274.512 236.858 274.241 234.303 273.959 231.748C273.9 231.206 273.829 230.677 273.771 230.147C275.738 229.595 277.61 228.75 279.326 227.639C280.608 226.462 281.915 224.731 281.785 222.93C281.768 222.507 281.663 222.093 281.475 221.713C281.288 221.334 281.024 220.998 280.699 220.728C280.374 220.457 279.996 220.257 279.589 220.142C279.182 220.026 278.756 219.998 278.337 220.057C275.83 220.505 273.9 224.672 273.629 226.933C273.629 227.015 273.629 227.592 273.629 228.228C273.453 226.85 273.264 225.461 273.029 224.095C272.644 221.751 272.106 219.435 271.417 217.161C271.735 217.067 275.701 215.866 277.148 214.606C278.419 213.429 279.737 211.698 279.596 209.897C279.581 209.474 279.476 209.058 279.29 208.678C279.103 208.298 278.839 207.961 278.513 207.69C278.188 207.419 277.809 207.22 277.402 207.105C276.994 206.99 276.567 206.963 276.148 207.024C273.641 207.472 271.711 211.639 271.44 213.9C271.44 214.053 271.37 216.148 271.381 216.89C271.376 216.863 271.376 216.835 271.381 216.808C270.642 214.595 269.708 212.452 268.592 210.403C267.608 208.566 266.516 206.789 265.32 205.082C264.226 203.48 263.131 202.091 262.143 200.867C261.613 200.207 261.107 199.607 260.636 199.065C260.636 199.065 259.789 196.11 259.707 195.922C258.8 193.838 255.823 190.342 253.281 190.601C252.861 190.653 252.458 190.794 252.097 191.013C251.736 191.233 251.425 191.526 251.185 191.874C250.945 192.222 250.782 192.617 250.705 193.032C250.628 193.448 250.639 193.875 250.739 194.286C251.092 196.052 252.833 197.405 254.375 198.147C256.336 198.764 258.381 199.07 260.436 199.054C260.919 199.642 261.425 200.231 261.966 200.961C262.92 202.209 263.991 203.622 265.038 205.235C265.32 205.67 265.603 206.141 265.885 206.589C265.25 205.929 264.367 205.023 264.261 204.952C262.496 203.516 258.247 201.785 256.117 203.174C255.769 203.416 255.475 203.729 255.256 204.091C255.036 204.454 254.895 204.859 254.841 205.28C254.788 205.7 254.824 206.128 254.946 206.534C255.069 206.94 255.275 207.315 255.552 207.636C256.194 208.27 256.964 208.759 257.811 209.07C258.657 209.38 259.561 209.506 260.46 209.438C262.225 209.438 265.568 207.789 266.344 207.436C266.968 208.449 267.521 209.508 268.145 210.65C269.203 212.696 270.078 214.831 270.758 217.031C270.758 217.161 270.758 217.302 270.852 217.432C270.593 217.043 269.028 215.077 268.898 214.924C267.298 213.299 263.261 211.109 260.989 212.263C260.616 212.464 260.29 212.742 260.032 213.078C259.773 213.414 259.589 213.801 259.49 214.213C259.391 214.625 259.38 215.054 259.458 215.47C259.536 215.887 259.701 216.283 259.942 216.631C260.907 218.138 263.025 218.786 264.72 218.915C266.674 219.068 270.722 217.573 270.875 217.514C271.491 219.73 271.962 221.983 272.288 224.26C272.535 225.944 272.723 227.651 272.888 229.382C272.547 228.887 271.075 227.027 270.958 226.909C269.357 225.284 265.32 223.106 263.049 224.248C262.676 224.45 262.35 224.727 262.091 225.063C261.833 225.399 261.648 225.786 261.549 226.198C261.45 226.61 261.44 227.039 261.518 227.455C261.595 227.872 261.76 228.268 262.002 228.616C262.967 230.135 265.085 230.771 266.78 230.9C268.686 231.053 272.57 229.641 272.9 229.523C272.982 230.3 273.053 231.089 273.123 231.877C273.359 234.444 273.57 237.011 273.865 239.542C273.971 240.413 274.1 241.272 274.23 242.132C273.688 241.414 272.664 240.131 272.57 240.025C270.97 238.412 266.933 236.222 264.661 237.376C264.288 237.575 263.96 237.85 263.701 238.185C263.441 238.519 263.255 238.905 263.155 239.316C263.055 239.727 263.044 240.155 263.121 240.572C263.197 240.988 263.362 241.383 263.602 241.732C264.579 243.25 266.697 243.886 268.392 244.016C270.409 243.886 272.394 243.445 274.277 242.709C274.5 244.145 274.747 245.558 275.065 246.935C275.218 247.536 275.336 248.113 275.512 248.701C275.689 249.29 275.83 249.879 275.995 250.397C276.372 251.574 276.713 252.598 277.089 253.658C277.278 254.188 277.466 254.682 277.654 255.2C277.219 254.388 276.477 253.116 276.407 253.01C275.077 251.174 271.417 248.395 268.992 249.184C268.594 249.327 268.23 249.552 267.924 249.845C267.618 250.137 267.377 250.491 267.217 250.884C267.057 251.276 266.982 251.697 266.996 252.12C267.01 252.544 267.112 252.959 267.298 253.34C268.027 254.988 270.028 255.942 271.676 256.33C273.323 256.719 277.431 255.989 277.901 255.895C278.372 257.155 278.843 258.379 279.29 259.521C280.738 263.124 282.068 266.067 283.033 268.115C283.998 270.164 284.598 271.318 284.598 271.318C284.71 271.518 284.895 271.667 285.115 271.733C285.335 271.799 285.571 271.777 285.775 271.671C285.973 271.557 286.12 271.372 286.186 271.153C286.251 270.934 286.231 270.698 286.128 270.494C286.128 270.494 285.528 269.387 284.527 267.374C283.527 265.361 282.174 262.488 280.644 258.956C280.208 257.932 279.761 256.849 279.314 255.73C279.773 255.506 283.362 253.776 284.563 252.339C285.763 250.903 286.658 249.031 286.258 247.277Z" fill="#263238"/>
<path d="M266.345 206.942C266.345 206.942 270.146 204.588 271.241 202.928C272.182 201.503 272.971 199.396 272.417 197.748C272.29 197.344 272.079 196.973 271.798 196.656C271.517 196.34 271.173 196.087 270.787 195.913C270.402 195.738 269.985 195.647 269.562 195.645C269.139 195.642 268.721 195.729 268.334 195.899C265.98 196.982 265.274 201.515 265.568 203.775C265.568 203.964 266.345 206.966 266.345 206.942Z" fill="#263238"/>
<path d="M324.272 188.246C326.237 189.706 331.628 190.789 331.628 190.789C331.628 190.789 331.274 187.021 331.216 186.786C330.592 184.066 327.803 179.169 324.684 178.886C324.165 178.856 323.646 178.935 323.16 179.118C322.674 179.302 322.232 179.585 321.862 179.95C321.493 180.315 321.204 180.754 321.015 181.238C320.826 181.722 320.741 182.24 320.765 182.76C320.788 184.914 322.589 186.951 324.272 188.246Z" fill="#263238"/>
<path d="M346.633 240.46C343.514 240.59 340.466 245.334 339.713 248.03C339.713 248.183 339.383 249.961 339.218 251.091C339.218 250.409 339.218 249.761 339.218 249.066C339.218 247.689 339.148 246.311 339.089 244.84C339.089 244.133 338.995 243.415 338.936 242.685C338.877 241.955 338.771 241.202 338.689 240.46C338.465 238.73 338.159 236.999 337.806 235.245C338.983 235.245 343.291 235.115 345.185 234.244C347.08 233.373 349.246 231.724 349.716 229.535C349.848 229.031 349.871 228.505 349.784 227.992C349.698 227.479 349.504 226.99 349.214 226.557C348.925 226.125 348.548 225.758 348.107 225.482C347.666 225.206 347.172 225.026 346.656 224.955C343.549 224.59 339.819 228.828 338.665 231.383C338.595 231.536 337.971 233.455 337.653 234.515C337.43 233.467 337.218 232.419 336.971 231.371C336.229 228.334 335.382 225.284 334.558 222.235C334.299 221.305 334.064 220.363 333.816 219.433C334.487 219.433 339.383 219.433 341.455 218.421C343.526 217.408 345.515 215.901 345.986 213.711C346.115 213.208 346.137 212.683 346.049 212.17C345.962 211.658 345.768 211.17 345.479 210.737C345.19 210.305 344.813 209.939 344.373 209.662C343.934 209.385 343.44 209.205 342.926 209.132C339.819 208.778 336.1 213.017 334.946 215.56C334.852 215.748 333.958 218.515 333.769 219.233C333.228 217.173 332.71 215.124 332.287 213.076C331.7 210.323 331.295 207.534 331.074 204.728C331.439 204.728 336.618 204.728 338.759 203.716C340.654 202.845 342.82 201.196 343.302 199.007C343.43 198.502 343.45 197.977 343.361 197.465C343.272 196.952 343.076 196.464 342.786 196.032C342.497 195.6 342.12 195.234 341.679 194.958C341.239 194.681 340.745 194.5 340.231 194.427C337.124 194.074 333.405 198.312 332.251 200.855C332.157 201.055 331.204 204.034 331.074 204.575C331.074 204.422 331.074 204.246 331.074 204.081C330.917 201.256 331.011 198.424 331.357 195.616C331.533 194.062 331.78 192.578 332.063 191.154C333.075 191.26 337.571 191.66 339.63 190.966C341.69 190.271 343.95 188.917 344.656 186.821C344.837 186.335 344.914 185.816 344.883 185.297C344.851 184.779 344.71 184.273 344.471 183.813C344.231 183.352 343.898 182.947 343.492 182.624C343.085 182.3 342.616 182.066 342.114 181.935C339.054 181.241 334.887 185.044 333.463 187.445C333.393 187.575 332.746 188.988 332.287 190.035C332.416 189.388 332.545 188.717 332.687 188.105C333.216 185.75 333.864 183.713 334.405 181.877C334.734 180.841 335.052 179.899 335.358 179.027C336.382 178.615 340.478 176.932 341.961 175.39C343.444 173.847 344.844 171.575 344.503 169.397C344.442 168.881 344.273 168.383 344.006 167.936C343.74 167.49 343.382 167.104 342.957 166.805C342.531 166.506 342.048 166.301 341.537 166.202C341.027 166.102 340.502 166.112 339.995 166.23C336.971 167.019 335.029 172.317 334.864 175.107C334.864 175.342 335.076 179.145 335.123 179.122H335.182C334.876 179.958 334.546 180.852 334.205 181.841C333.605 183.666 332.934 185.738 332.357 188.046C331.705 190.522 331.198 193.034 330.839 195.569C330.428 198.406 330.271 201.275 330.368 204.14V204.246C330.062 203.386 329.121 200.996 329.026 200.832C327.708 198.359 323.707 194.38 320.635 194.945C319.947 195.068 319.314 195.401 318.823 195.899C318.333 195.399 317.699 195.065 317.01 194.945C313.939 194.392 309.949 198.371 308.631 200.832C308.537 200.996 307.583 203.386 307.277 204.246C307.277 204.246 307.277 204.175 307.277 204.14C307.371 201.274 307.209 198.406 306.795 195.569C306.434 193.035 305.931 190.523 305.288 188.046C304.712 185.691 304.041 183.666 303.429 181.841C303.088 180.852 302.77 179.958 302.452 179.122H302.511C302.511 179.122 302.782 175.342 302.77 175.107C302.617 172.317 300.663 167.019 297.638 166.23C297.132 166.112 296.607 166.102 296.096 166.202C295.586 166.301 295.102 166.506 294.677 166.805C294.251 167.104 293.894 167.49 293.628 167.936C293.361 168.383 293.192 168.881 293.131 169.397C292.79 171.575 294.225 173.894 295.673 175.39C297.121 176.885 301.252 178.615 302.275 179.027C302.581 179.899 302.899 180.841 303.241 181.877C303.805 183.713 304.417 185.797 304.947 188.105C305.088 188.717 305.218 189.388 305.359 190.035C304.9 188.988 304.264 187.575 304.182 187.445C302.758 185.091 298.592 181.241 295.544 181.935C295.04 182.064 294.57 182.298 294.163 182.621C293.755 182.944 293.421 183.349 293.181 183.81C292.941 184.271 292.801 184.778 292.77 185.297C292.739 185.815 292.818 186.335 293.001 186.821C293.708 188.917 296.038 190.353 298.015 190.966C299.992 191.578 304.57 191.26 305.594 191.154C305.865 192.578 306.112 194.062 306.289 195.616C306.638 198.423 306.737 201.256 306.583 204.081C306.583 204.246 306.583 204.422 306.524 204.575C306.395 204.034 305.43 201.043 305.347 200.855C304.17 198.312 300.463 194.074 297.356 194.427C296.842 194.5 296.348 194.681 295.908 194.957C295.468 195.234 295.092 195.601 294.803 196.033C294.514 196.465 294.32 196.953 294.232 197.466C294.145 197.978 294.167 198.503 294.296 199.007C294.767 201.161 296.932 202.809 298.827 203.716C300.969 204.705 306.147 204.728 306.512 204.728C306.279 207.542 305.866 210.338 305.277 213.099C304.841 215.148 304.323 217.196 303.782 219.257C303.594 218.538 302.699 215.725 302.605 215.583C301.428 213.04 297.721 208.802 294.614 209.155C294.099 209.228 293.606 209.409 293.166 209.686C292.726 209.962 292.35 210.329 292.061 210.761C291.772 211.193 291.578 211.681 291.49 212.194C291.403 212.706 291.425 213.231 291.554 213.735C292.025 215.889 294.19 217.538 296.085 218.444C298.156 219.398 303.064 219.457 303.723 219.457C303.476 220.387 303.241 221.329 302.982 222.259C302.158 225.308 301.31 228.357 300.628 231.395C300.369 232.443 300.157 233.49 299.933 234.538C299.616 233.479 298.992 231.56 298.921 231.407C297.744 228.852 294.037 224.613 290.93 224.978C290.416 225.051 289.922 225.232 289.482 225.509C289.042 225.786 288.666 226.152 288.377 226.584C288.088 227.016 287.894 227.505 287.807 228.017C287.719 228.53 287.741 229.055 287.87 229.558C288.341 231.713 290.506 233.349 292.401 234.267C294.296 235.186 298.556 235.256 299.78 235.268C299.427 237.022 299.121 238.8 298.898 240.484C298.815 241.225 298.686 241.991 298.651 242.709C298.615 243.427 298.545 244.157 298.498 244.863C298.439 246.335 298.392 247.712 298.38 249.09C298.38 249.785 298.38 250.432 298.38 251.115C298.215 249.938 297.921 248.207 297.874 248.054C297.121 245.358 294.084 240.613 290.954 240.484C290.435 240.48 289.921 240.585 289.445 240.792C288.969 240.999 288.542 241.304 288.191 241.687C287.841 242.07 287.574 242.522 287.41 243.015C287.245 243.507 287.185 244.029 287.235 244.546C287.376 246.759 289.271 248.701 291.012 249.855C292.754 251.009 297.603 251.892 298.368 252.01C298.368 253.67 298.368 255.271 298.368 256.778C298.498 261.546 298.78 265.502 299.015 268.28C299.251 271.059 299.451 272.636 299.451 272.636C299.518 272.903 299.682 273.135 299.911 273.287C300.14 273.439 300.417 273.5 300.689 273.459C300.961 273.418 301.207 273.277 301.381 273.064C301.555 272.851 301.643 272.581 301.628 272.307C301.628 272.307 301.405 270.776 301.11 268.033C300.816 265.29 300.451 261.381 300.216 256.672C300.157 255.318 300.098 253.87 300.063 252.386C300.84 252.316 305.606 251.833 307.548 250.726C309.49 249.62 311.385 247.866 311.667 245.676C311.75 245.163 311.725 244.638 311.593 244.136C311.46 243.634 311.224 243.165 310.899 242.76C310.574 242.354 310.167 242.022 309.706 241.784C309.244 241.546 308.737 241.408 308.219 241.379C305.088 241.296 301.746 245.841 300.816 248.442C300.757 248.607 300.275 250.679 300.063 251.739C300.063 250.844 300.063 249.961 300.063 249.019C300.063 247.689 300.063 246.264 300.063 244.887C300.063 244.181 300.145 243.462 300.181 242.732C300.216 242.002 300.31 241.296 300.369 240.578C300.487 239.507 300.651 238.423 300.828 237.329C302.228 237.399 306.218 237.517 308.089 236.799C309.961 236.081 312.314 234.55 312.915 232.431C313.076 231.937 313.132 231.415 313.078 230.898C313.024 230.381 312.862 229.881 312.602 229.431C312.342 228.982 311.991 228.591 311.57 228.287C311.149 227.982 310.669 227.769 310.161 227.663C307.089 227.098 303.099 231.089 301.769 233.549L301.252 234.833C301.44 233.773 301.64 232.713 301.875 231.654C302.534 228.628 303.311 225.567 304.076 222.494L304.535 220.575C305.712 220.634 310.043 220.811 312.008 220.057C313.974 219.304 316.234 217.808 316.846 215.689C317.005 215.195 317.059 214.672 317.004 214.155C316.948 213.638 316.785 213.139 316.524 212.689C316.263 212.24 315.911 211.85 315.49 211.545C315.069 211.241 314.588 211.028 314.08 210.921C311.008 210.356 307.018 214.347 305.688 216.808C305.688 216.902 305.383 217.549 305.088 218.291C305.477 216.619 305.841 214.948 306.159 213.276C306.717 210.411 307.079 207.512 307.242 204.599C307.901 204.599 312.809 204.905 314.939 204.081C316.433 203.534 317.768 202.624 318.823 201.432C319.878 202.624 321.212 203.534 322.707 204.081C324.837 204.905 329.768 204.634 330.403 204.599C330.573 207.512 330.934 210.411 331.486 213.276C331.804 214.948 332.169 216.619 332.557 218.291C332.263 217.549 332.004 216.902 331.957 216.808C330.639 214.347 326.649 210.356 323.566 210.921C323.057 211.028 322.577 211.24 322.156 211.545C321.736 211.85 321.384 212.24 321.124 212.69C320.864 213.14 320.702 213.639 320.648 214.156C320.594 214.673 320.65 215.195 320.812 215.689C321.424 217.808 323.695 219.304 325.637 220.057C327.579 220.811 331.957 220.634 333.11 220.575C333.263 221.223 333.416 221.858 333.581 222.494C334.334 225.567 335.111 228.628 335.782 231.654C336.017 232.713 336.206 233.773 336.406 234.833C336.147 234.185 335.923 233.655 335.876 233.549C334.558 231.089 330.568 227.098 327.485 227.663C326.976 227.769 326.496 227.982 326.075 228.287C325.655 228.591 325.303 228.982 325.043 229.431C324.783 229.881 324.621 230.381 324.567 230.898C324.514 231.415 324.569 231.937 324.731 232.431C325.343 234.55 327.614 236.045 329.556 236.799C331.498 237.552 335.441 237.399 336.829 237.329C336.994 238.423 337.171 239.507 337.277 240.578C337.347 241.296 337.453 241.991 337.477 242.732C337.5 243.474 337.547 244.181 337.583 244.887C337.583 246.264 337.583 247.689 337.583 249.019C337.583 249.961 337.583 250.844 337.583 251.739C337.359 250.679 336.876 248.607 336.818 248.442C335.888 245.805 332.545 241.261 329.415 241.379C328.896 241.408 328.39 241.546 327.928 241.784C327.466 242.022 327.06 242.354 326.735 242.76C326.41 243.165 326.173 243.634 326.041 244.136C325.909 244.638 325.883 245.163 325.967 245.676C326.249 247.866 328.32 249.69 330.086 250.726C331.851 251.762 336.794 252.316 337.571 252.386C337.571 253.87 337.488 255.318 337.418 256.672C337.194 261.381 336.829 265.302 336.535 268.033C336.241 270.764 336.006 272.307 336.006 272.307C335.991 272.581 336.079 272.851 336.253 273.064C336.426 273.277 336.673 273.418 336.945 273.459C337.216 273.5 337.494 273.439 337.723 273.287C337.951 273.135 338.115 272.903 338.183 272.636C338.183 272.636 338.383 271.047 338.63 268.28C338.877 265.514 339.148 261.546 339.266 256.778C339.266 255.271 339.324 253.67 339.324 252.01C340.089 251.892 344.809 251.103 346.692 249.855C348.575 248.607 350.328 246.759 350.458 244.546C350.512 244.018 350.453 243.484 350.283 242.982C350.114 242.479 349.838 242.018 349.476 241.631C349.113 241.244 348.672 240.939 348.181 240.737C347.691 240.535 347.163 240.441 346.633 240.46Z" fill="#263238"/>
<path d="M65.3174 300.364C65.3174 300.364 65.5175 308.358 66.8709 312.643C67.8547 315.576 69.0343 318.439 70.4016 321.214C70.4016 321.214 65.3409 323.945 62.9989 324.145C60.6568 324.346 57.5498 313.809 57.5498 306.603C57.5498 299.398 60.2567 297.244 65.3174 300.364Z" fill="white" stroke="#263238" stroke-width="0.48509" stroke-linecap="round" stroke-linejoin="round"/>
<path d="M51.2066 279.419C51.2066 279.419 59.4449 279.113 62.5873 281.456C65.7296 283.799 66.8712 294.124 67.848 298.221L68.8249 302.318C66.5329 303.222 64.1713 303.939 61.7634 304.461C60.8456 304.529 59.9334 304.658 59.033 304.849C59.033 304.849 56.5498 290.674 53.631 286.53C52.1551 284.398 50.5267 282.375 48.7586 280.478C48.7586 280.478 47.4405 278.901 51.2066 279.419Z" fill="white" stroke="#263238" stroke-width="0.48509" stroke-linecap="round" stroke-linejoin="round"/>
<path d="M44.474 266.833C43.7935 269.442 42.7432 271.939 41.3552 274.25C39.0014 278.147 38.0364 280.867 30.8337 281.067C23.6311 281.267 19.9238 287.142 16.8403 304.649C13.7568 322.155 11.9679 341.487 17.2287 353.767C22.4895 366.046 38.0246 364.845 48.1695 361.172C58.3144 357.499 60.6447 345.973 60.833 333.505C61.0213 321.037 61.0331 301.34 59.0794 291.392C57.1257 281.444 51.4884 279.313 48.9463 278.536C46.4041 277.759 49.7348 273.073 49.7348 273.073L44.474 266.833Z" fill="white"/>
<g style="mix-blend-mode:multiply" opacity="0.4">
<path d="M23.902 305.084C23.902 305.084 22.1837 309.793 25.2319 313.455C28.2801 317.116 35.824 315.362 34.3647 317.069C32.9053 318.776 26.3735 320.884 25.2319 322.591C24.8974 323.021 24.7004 323.542 24.6668 324.086C24.6332 324.63 24.7645 325.172 25.0436 325.64C25.0436 325.64 19.0414 326.711 18.6177 325.699C18.194 324.686 22.1484 310.5 22.1484 310.5L23.902 305.084Z" fill="#92E3A9"/>
</g>
<g style="mix-blend-mode:multiply" opacity="0.4">
<path d="M25.7379 330.974C25.7379 330.974 21.5599 335.542 21.7482 336.86C21.9365 338.179 25.7379 335.153 24.9846 337.049C24.2314 338.944 20.9832 342.005 20.0299 343.524C19.0766 345.043 15.3223 347.739 15.3223 347.739L13.9806 337.437L13.7217 335.636L25.7379 330.974Z" fill="#92E3A9"/>
</g>
<path d="M44.474 266.833C43.7935 269.442 42.7432 271.939 41.3552 274.25C39.0014 278.147 38.0364 280.867 30.8337 281.067C23.6311 281.267 19.9238 287.142 16.8403 304.649C13.7568 322.155 11.9679 341.487 17.2287 353.767C22.4895 366.046 38.0246 364.845 48.1695 361.172C58.3144 357.499 60.6447 345.973 60.833 333.505C61.0213 321.037 61.0331 301.34 59.0794 291.392C57.1257 281.444 51.4884 279.313 48.9463 278.536C46.4041 277.759 49.7348 273.073 49.7348 273.073L44.474 266.833Z" stroke="#263238" stroke-width="0.48509" stroke-linecap="round" stroke-linejoin="round"/>
<path d="M51.2058 279.419C50.4775 279.064 49.7219 278.769 48.9461 278.536C46.4158 277.759 49.7346 273.073 49.7346 273.073L44.4739 266.833C43.7933 269.442 42.7431 271.939 41.3551 274.25C39.3661 277.558 38.354 280.019 33.6699 280.808C35.1556 282.949 36.2402 285.343 36.8711 287.872C38.048 292.946 40.5666 301.128 45.2507 299.186C49.6993 297.337 53.0771 286.659 51.2058 279.419Z" fill="white"/>
<g style="mix-blend-mode:multiply" opacity="0.4">
<path d="M39.0605 280.714C37.8264 281.591 36.4482 282.245 34.9884 282.645L33.8115 280.632C33.8115 280.632 38.6721 281.232 43.5328 270.036C44.5898 272.109 46.0834 273.929 47.9108 275.369L42.1087 276.111" fill="#92E3A9"/>
</g>
<path d="M51.2058 279.419C50.4775 279.064 49.7219 278.769 48.9461 278.536C46.4158 277.759 49.7347 273.073 49.7347 273.073L44.4739 266.833C43.7933 269.442 42.7431 271.939 41.3551 274.25C39.3661 277.558 38.354 280.019 33.6699 280.808C35.1556 282.949 36.2402 285.343 36.8711 287.872C38.048 292.946 40.5666 301.128 45.2507 299.186C49.6993 297.337 53.0771 286.659 51.2058 279.419Z" stroke="#263238" stroke-width="0.48509" stroke-linecap="round" stroke-linejoin="round"/>
<path d="M24.3848 303.272L29.9868 298.292" stroke="#263238" stroke-width="0.48509" stroke-linecap="round" stroke-linejoin="round"/>
<path d="M30.834 281.066C30.834 281.066 32.4816 283.327 33.7292 289.873C34.9767 296.419 38.7075 302.341 42.45 303.577C46.1926 304.813 48.0521 303.577 48.0521 303.577" stroke="#263238" stroke-width="0.48509" stroke-linecap="round" stroke-linejoin="round"/>
<path d="M12.3208 302.706C12.3208 302.706 9.40207 328.607 9.202 333.105C9.00192 337.602 10.7555 336.425 13.686 335.648C16.6165 334.871 33.3638 327.406 37.2241 326.088C41.0843 324.769 41.7081 324.333 44.8269 324.722C47.557 325.131 50.307 325.394 53.0652 325.511C55.0189 325.511 52.8651 321.025 49.9464 320.248C47.0277 319.471 47.216 319.66 43.9089 320.437C40.6018 321.214 35.3293 323.556 29.6801 324.722C24.031 325.888 19.1586 326.288 18.5819 325.699C18.0052 325.111 22.1126 308.157 22.1126 308.157L12.3208 302.706Z" fill="white" stroke="#263238" stroke-width="0.48509" stroke-linecap="round" stroke-linejoin="round"/>
<path d="M33.67 280.808C31.4975 281.067 29.3032 281.087 27.1264 280.867C25.1353 280.725 23.1366 281 21.258 281.675C19.3794 282.35 17.6623 283.41 16.2165 284.787C13.0977 287.895 10.332 298.032 9.15508 300.575C7.97817 303.118 7.60156 304.272 7.60156 304.272L22.0186 310.511L28.0561 293.358" fill="white"/>
<g style="mix-blend-mode:multiply" opacity="0.4">
<path d="M33.5177 280.68C30.6841 280.985 27.8349 281.122 24.9851 281.092C23.2636 281.117 21.569 281.523 20.0227 282.28C18.4763 283.037 17.1165 284.127 16.0407 285.471C13.3691 288.521 7.89648 304.156 7.89648 304.156L11.2507 305.592C11.2507 305.592 14.8991 288.521 19.0771 285.86C22.7502 283.67 26.9865 282.609 31.258 282.811C32.4349 282.811 33.7531 282.728 34.5887 282.646L33.5177 280.68Z" fill="#92E3A9"/>
</g>
<path d="M33.67 280.808C31.4975 281.067 29.3031 281.087 27.1264 280.867C25.1353 280.725 23.1366 281 21.258 281.675C19.3794 282.35 17.6623 283.41 16.2165 284.787C13.0977 287.895 10.332 298.032 9.15508 300.575C7.97817 303.118 7.60156 304.272 7.60156 304.272L22.0186 310.511L28.0561 293.358" stroke="#FFC07F" stroke-width="0.48509" stroke-linecap="round" stroke-linejoin="round"/>
<path d="M15.3457 346.008C15.3457 346.008 21.2302 340.71 25.3141 340.404" stroke="#263238" stroke-width="0.48509" stroke-linecap="round" stroke-linejoin="round"/>
<path d="M25.9383 337.861C23.0453 339.137 20.2349 340.591 17.5234 342.217" stroke="#263238" stroke-width="0.48509" stroke-linecap="round" stroke-linejoin="round"/>
<path d="M62.4248 261.405C64.724 252.269 62.3365 243.791 57.0923 242.471C51.848 241.15 45.7328 247.486 43.4336 256.623C41.1344 265.759 43.5218 274.237 48.7661 275.557C54.0103 276.878 60.1255 270.542 62.4248 261.405Z" fill="white"/>
<g style="mix-blend-mode:multiply" opacity="0.4">
<path d="M47.77 275.203C47.111 273.885 46.24 270.718 46.8638 268.716C47.8171 265.679 52.9484 262.265 52.9484 262.265C52.9484 262.265 50.5946 262.83 48.2408 263.195C45.887 263.56 42.627 264.09 42.627 264.09L43.439 269.788C44.5335 272.354 45.8634 274.45 47.77 275.203Z" fill="#92E3A9"/>
</g>
<path d="M62.4248 261.405C64.724 252.269 62.3365 243.791 57.0923 242.471C51.848 241.15 45.7328 247.486 43.4336 256.623C41.1344 265.759 43.5218 274.237 48.7661 275.557C54.0103 276.878 60.1255 270.542 62.4248 261.405Z" stroke="#263238" stroke-width="0.48509" stroke-linecap="round" stroke-linejoin="round"/>
<g style="mix-blend-mode:multiply" opacity="0.4">
<path d="M43.5089 270.295C42.6145 272.061 39.837 277.571 36.9653 279.384C36.1548 279.906 35.27 280.303 34.3408 280.561" fill="#92E3A9"/>
</g>
<g style="mix-blend-mode:multiply" opacity="0.4">
<path d="M48.1936 299.187C48.1936 299.187 48.9586 310.03 48.1936 312.702C47.4286 315.375 44.3922 315.175 45.9104 316.693C47.5642 318.071 49.35 319.281 51.2418 320.308L53.9016 322.98L54.5018 318.93C54.5018 318.93 52.5952 319.507 50.6886 312.843C49.4718 308.37 48.6371 303.801 48.1936 299.187Z" fill="#92E3A9"/>
</g>
<path d="M57.2552 263.761C56.6367 264.657 56.2339 265.685 56.0783 266.763C56.0783 267.116 56.0783 267.434 56.0783 267.693C56.0888 267.817 56.0724 267.941 56.0301 268.058C55.9879 268.175 55.9208 268.281 55.8336 268.37C55.7463 268.458 55.641 268.527 55.5247 268.57C55.4085 268.614 55.2841 268.632 55.1603 268.623L53.7598 268.517" stroke="#263238" stroke-width="0.48509" stroke-linecap="round" stroke-linejoin="round"/>
<path d="M51.2649 271.342C50.6143 271.414 49.9607 271.235 49.4378 270.842C48.9148 270.448 48.5622 269.869 48.4521 269.224" stroke="#263238" stroke-width="0.48509" stroke-linecap="round" stroke-linejoin="round"/>
<path d="M53.3837 263.407L52.6776 264.82C52.2649 265.016 51.7987 265.071 51.3517 264.975C50.9046 264.88 50.5018 264.639 50.2061 264.29" stroke="#263238" stroke-width="0.48509" stroke-linecap="round" stroke-linejoin="round"/>
<path d="M59.0086 265.526L57.9611 266.939C57.9611 266.939 56.5488 266.939 56.5488 265.879" stroke="#263238" stroke-width="0.48509" stroke-linecap="round" stroke-linejoin="round"/>
<path d="M64.5875 253C66.9413 246.065 61.2098 238.872 52.6537 239.025C44.0976 239.178 38.1072 247.549 35.2708 253.282C32.6185 255.941 30.3382 258.947 28.4919 262.218C24.9611 268.258 24.9611 271.766 22.2543 275.663C19.5474 279.56 11.5444 279.76 6.86036 284.834C2.17628 289.909 2.15274 295.748 4.33001 299.645C6.50729 303.542 7.86073 308.605 5.10677 312.113C2.35282 315.621 -0.342291 320.354 1.79967 328.301C2.20254 330.076 3.13738 331.685 4.47918 332.914C5.82099 334.142 7.5058 334.932 9.30832 335.177C9.19078 334.513 9.15521 333.836 9.2024 333.164C9.35539 329.632 11.1443 313.373 11.9328 306.179L7.64888 304.319C7.64888 304.319 8.03726 303.142 9.2024 300.622C10.3675 298.103 13.0979 287.943 16.2638 284.834C17.7106 283.46 19.4281 282.402 21.3067 281.729C23.1852 281.056 25.1835 280.783 27.1737 280.926C29.3505 281.146 31.5449 281.126 33.7173 280.867C35.0295 280.707 36.283 280.23 37.3698 279.478C38.4565 278.725 39.3438 277.719 39.9549 276.546L40.2609 276.04V275.981C40.5904 275.439 40.92 274.863 41.2848 274.262C42.1298 272.838 42.8541 271.345 43.4503 269.8C42.8563 267.958 42.5389 266.037 42.5088 264.102C46.3455 263.972 56.9612 263.03 62.3278 256.72C62.6456 256.332 62.9398 255.943 63.1987 255.543C63.1221 257.529 62.8381 259.502 62.3514 261.429C61.3611 265.856 59.1276 269.908 55.9137 273.108L55.3488 273.591L54.9957 273.874C54.8192 274.003 54.6544 274.133 54.4779 274.239C54.3539 274.329 54.2242 274.412 54.0895 274.486C53.93 274.593 53.765 274.691 53.5952 274.78L53.1833 274.992L52.689 275.204L52.2771 275.357L51.7828 275.51L51.3709 275.616C50.4916 275.816 49.5786 275.816 48.6993 275.616L48.358 275.498C47.9835 276.201 47.8629 277.012 48.0167 277.794C48.0773 277.991 48.1886 278.169 48.3393 278.309C48.4901 278.45 48.6751 278.548 48.8758 278.595C49.6312 278.822 50.3672 279.109 51.0766 279.454C50.6284 284.213 49.8418 288.935 48.7228 293.582C46.7692 301.764 48.9111 309.558 51.2532 315.209C53.5952 320.861 60.7979 324.369 63.3282 321.096C65.8586 317.823 65.0818 314.279 63.5283 306.474C61.9748 298.668 57.8791 287.378 57.8791 278.795C57.8791 270.212 62.9398 267.493 65.4819 262.43C67.3061 258.769 65.682 254.907 64.5875 253Z" fill="#721121"/>
<path d="M62.21 250.374C62.21 250.374 53.2185 258.25 44.5565 259.098C35.8944 259.946 35 259.934 35 259.934" stroke="white" stroke-width="0.345985" stroke-linecap="round" stroke-linejoin="round"/>
<path d="M60.2451 244.464C60.2451 244.464 52.0892 253.753 45.3455 256.002C38.6019 258.25 35.7891 258.25 35.7891 258.25" stroke="white" stroke-width="0.345985" stroke-linecap="round" stroke-linejoin="round"/>
<path d="M55.466 241.098C55.466 241.098 53.2181 248.162 47.875 251.505" stroke="white" stroke-width="0.345985" stroke-linecap="round" stroke-linejoin="round"/>
<path d="M40.0016 267.528C40.0016 267.528 39.7192 276.535 34.6585 277.936C29.5978 279.337 23.984 276.535 17.511 279.902C14.9846 281.262 12.9321 283.359 11.6265 285.914C10.3209 288.469 9.82417 291.362 10.2024 294.206" stroke="white" stroke-width="0.345985" stroke-linecap="round" stroke-linejoin="round"/>
<path d="M8.23745 332.21C6.89666 330.264 6.00027 328.046 5.6118 325.715C5.22333 323.383 5.3523 320.994 5.98956 318.718C8.23745 311.124 9.92042 308.311 9.92042 308.311" stroke="white" stroke-width="0.345985" stroke-linecap="round" stroke-linejoin="round"/>
<path d="M58.0319 282.15C58.0319 282.15 59.4325 292.84 54.6542 299.587C49.876 306.333 52.9713 315.622 52.9713 315.622" stroke="white" stroke-width="0.345985" stroke-linecap="round" stroke-linejoin="round"/>
<path d="M58.2797 272.308C58.2797 272.308 58.5621 275.404 54.6195 283.28C50.6769 291.157 49.5588 293.688 49.2764 299.315" stroke="white" stroke-width="0.345985" stroke-linecap="round" stroke-linejoin="round"/>
<path d="M85.2659 361.856C85.2659 361.856 91.5859 361.244 95.2461 362.868C98.9062 364.493 99.7301 367.142 100.542 364.705C101.354 362.268 101.354 360.832 98.306 359.207C95.2578 357.582 94.0221 358.595 92.8099 357.37C92.2148 356.731 91.5287 356.184 90.7738 355.746C90.7738 355.746 87.5138 355.334 87.302 357.17C87.0901 359.007 84.0537 359.607 84.0537 359.607L85.2659 361.856Z" fill="white" stroke="#263238" stroke-width="0.48509" stroke-miterlimit="10"/>
<path d="M111.687 314.009C109.545 309.135 100.613 312.479 90.2558 320.826C76.8508 331.634 66.4352 334.153 60.8332 334.589V334.412C57.9145 333.047 53.7718 332.988 48.8405 333.788C48.6875 333.565 48.5345 333.341 48.3933 333.106C38.9781 318.495 36.5066 315.964 33.3878 318.495C30.269 321.026 26.7618 324.923 27.927 337.014C28.0309 337.965 28.212 338.906 28.4683 339.828C23.8333 342.031 19.4262 344.685 15.3105 347.751C15.7633 349.81 16.4014 351.824 17.2171 353.768C22.4544 366.012 37.9659 364.893 48.0991 361.208C51.1633 362.866 54.4926 363.978 57.938 364.493C65.9645 365.494 71.39 365.199 74.5677 363.987L79.9579 368.39C88.4426 361.95 95.6308 353.96 101.142 344.843C103.829 340.297 106.212 335.577 108.274 330.716C111.628 323.122 112.77 316.458 111.687 314.009Z" fill="#FFC07F"/>
<path d="M48.3702 333.058C49.4923 334.813 50.7185 336.5 52.0421 338.108L88.632 331.539L77.1101 322.309L44.4746 327.089C45.5927 328.807 46.899 330.809 48.3702 333.058Z" fill="#92E3A9" stroke="#263238" stroke-width="0.48509" stroke-linecap="round" stroke-linejoin="round"/>
<path opacity="0.5" d="M48.3702 333.058C49.4923 334.813 50.7185 336.5 52.0421 338.108L88.632 331.539L77.1101 322.309L44.4746 327.089C45.5927 328.807 46.899 330.809 48.3702 333.058Z" fill="white" stroke="#263238" stroke-width="0.52825" stroke-linecap="round" stroke-linejoin="round"/>
<path d="M56.5136 311.43L50.8174 336.59C51.2175 337.119 51.6294 337.637 51.9943 338.144L88.6313 331.539L95.8693 305.19L56.5136 311.43Z" fill="#92E3A9" stroke="#263238" stroke-width="0.48509" stroke-linecap="round" stroke-linejoin="round"/>
<path d="M75.1563 326.064C74.4479 326.265 73.6959 326.253 72.9945 326.028C72.2932 325.804 71.6736 325.377 71.2134 324.802C70.7532 324.227 70.4728 323.529 70.4074 322.795C70.3419 322.062 70.4943 321.325 70.8455 320.677C71.1966 320.03 71.7309 319.5 72.3815 319.155C73.032 318.81 73.7699 318.665 74.5027 318.737C75.2356 318.809 75.9308 319.096 76.5013 319.562C77.0719 320.028 77.4924 320.651 77.7102 321.355C77.9887 322.318 77.8768 323.352 77.3989 324.234C76.9209 325.115 76.1153 325.773 75.1563 326.064Z" fill="white"/>
<path opacity="0.5" d="M56.5136 311.43L50.8174 336.59C51.2175 337.119 51.6294 337.637 51.9943 338.144L88.6313 331.539L95.8693 305.19L56.5136 311.43Z" fill="white" stroke="#FFC07F" stroke-width="0.52825" stroke-linecap="round" stroke-linejoin="round"/>
<path d="M75.1563 326.064C74.4479 326.265 73.6959 326.253 72.9945 326.028C72.2932 325.804 71.6736 325.377 71.2134 324.802C70.7532 324.227 70.4728 323.529 70.4074 322.795C70.3419 322.062 70.4943 321.325 70.8455 320.677C71.1966 320.03 71.7309 319.5 72.3815 319.155C73.032 318.81 73.7699 318.665 74.5027 318.737C75.2356 318.809 75.9308 319.096 76.5013 319.562C77.0719 320.028 77.4924 320.651 77.7102 321.355C77.9887 322.318 77.8768 323.352 77.3989 324.234C76.9209 325.115 76.1153 325.773 75.1563 326.064Z" fill="white" stroke="#263238" stroke-width="0.52825" stroke-linecap="round" stroke-linejoin="round"/>
<path d="M73.3324 361.938C73.3324 361.938 68.2952 365.682 65.4589 367.236C62.6225 368.79 61.7163 368.26 58.9977 370.851C56.279 373.441 53.9723 375.242 53.325 376.278C52.6777 377.314 51.901 378.338 51.5126 376.019C51.3538 374.829 51.5092 373.618 51.9635 372.507C52.4177 371.396 53.155 370.423 54.1018 369.685C55.9024 368.39 58.3622 367.872 58.3622 366.153C58.3029 365.403 58.5392 364.659 59.0208 364.08C59.5024 363.501 60.191 363.134 60.9396 363.057C62.3636 363.057 63.2934 364.469 65.9767 363.057C67.8211 361.917 69.3347 360.313 70.3666 358.406L73.3324 361.938Z" fill="white" stroke="#263238" stroke-width="0.48509" stroke-miterlimit="10"/>
<path d="M28.7744 341.122C28.7744 341.122 34.3412 354.438 47.1694 360.489" stroke="#721121" stroke-width="0.345985" stroke-miterlimit="10"/>
<path d="M72.0488 352.025C72.0488 352.025 80.0165 348.034 91.6913 327.854" stroke="white" stroke-width="0.345985" stroke-miterlimit="10"/>
<path d="M50.6885 337.002C50.6885 337.002 59.1269 349.376 68.9658 353.59" stroke="white" stroke-width="0.345985" stroke-miterlimit="10"/>
<path d="M202.133 211.028H129.871C124.885 211.028 120.844 215.071 120.844 220.058V372.663C120.844 377.65 124.885 381.693 129.871 381.693H202.133C207.118 381.693 211.159 377.65 211.159 372.663V220.058C211.159 215.071 207.118 211.028 202.133 211.028Z" fill="#721121"/>
<path d="M207.147 229.771H124.857V362.962H207.147V229.771Z" fill="white"/>
<g style="mix-blend-mode:multiply" opacity="0.4">
<path d="M207.146 318.2L130.436 362.95H207.146V318.2Z" fill="#FFC07F"/>
</g>
<path d="M207.147 229.771H124.857V362.962H207.147V229.771Z" stroke="#721121" stroke-width="0.52825" stroke-miterlimit="10"/>
<path d="M174.946 220.447H157.057C156.745 220.447 156.445 220.323 156.225 220.102C156.004 219.881 155.88 219.582 155.88 219.27C155.88 218.958 156.004 218.658 156.225 218.437C156.445 218.217 156.745 218.093 157.057 218.093H174.946C175.258 218.093 175.557 218.217 175.778 218.437C175.999 218.658 176.123 218.958 176.123 219.27C176.123 219.582 175.999 219.881 175.778 220.102C175.557 220.323 175.258 220.447 174.946 220.447Z" fill="#FFC07F"/>
<path opacity="0.4" d="M174.946 220.447H157.057C156.745 220.447 156.445 220.323 156.225 220.102C156.004 219.881 155.88 219.582 155.88 219.27C155.88 218.958 156.004 218.658 156.225 218.437C156.445 218.217 156.745 218.093 157.057 218.093H174.946C175.258 218.093 175.557 218.217 175.778 218.437C175.999 218.658 176.123 218.958 176.123 219.27C176.123 219.582 175.999 219.881 175.778 220.102C175.557 220.323 175.258 220.447 174.946 220.447Z" fill="white"/>
<path d="M170.885 370.473C170.885 369.506 170.599 368.562 170.062 367.758C169.526 366.955 168.763 366.329 167.87 365.959C166.978 365.589 165.996 365.492 165.048 365.681C164.101 365.869 163.231 366.335 162.548 367.018C161.865 367.701 161.399 368.572 161.211 369.52C161.023 370.467 161.119 371.45 161.489 372.343C161.859 373.235 162.485 373.998 163.288 374.535C164.091 375.072 165.035 375.359 166.001 375.359C167.297 375.359 168.539 374.844 169.455 373.928C170.371 373.011 170.885 371.769 170.885 370.473Z" fill="#FFC07F" stroke="#721121" stroke-width="0.704333" stroke-miterlimit="10"/>
<path d="M168.473 368.001H163.53V372.946H168.473V368.001Z" fill="#FFC07F" stroke="#721121" stroke-width="0.52825" stroke-linecap="round" stroke-linejoin="round"/>
<path opacity="0.6" d="M168.473 368.001H163.53V372.946H168.473V368.001Z" fill="white" stroke="#721121" stroke-width="0.52825" stroke-linecap="round" stroke-linejoin="round"/>
<path d="M168.473 368.001H163.53V372.946H168.473V368.001Z" stroke="#721121" stroke-width="0.52825" stroke-linecap="round" stroke-linejoin="round"/>
<path d="M446.622 368.955V263.619C446.622 256.35 440.731 250.457 433.464 250.457L211.182 250.457C203.916 250.457 198.025 256.35 198.025 263.619V368.955C198.025 376.224 203.916 382.117 211.182 382.117H433.464C440.731 382.117 446.622 376.224 446.622 368.955Z" fill="#721121" stroke="#721121" stroke-width="0.868674" stroke-miterlimit="10"/>
<path d="M433.37 376.266V256.309H211.277V376.266H433.37Z" fill="#FFCB94"/>
<g style="mix-blend-mode:multiply" opacity="0.4">
<path d="M433.37 280.385L269.039 376.254H433.37V280.385Z" fill="#721121"/>
</g>
<path d="M433.37 376.266V256.309H211.277V376.266H433.37Z" stroke="#721121" stroke-width="0.651505" stroke-miterlimit="10"/>
<path d="M439.349 318.082C438.99 318.082 438.639 317.976 438.34 317.776C438.042 317.576 437.81 317.292 437.673 316.96C437.536 316.628 437.501 316.263 437.572 315.911C437.643 315.559 437.817 315.236 438.071 314.983C438.326 314.73 438.65 314.558 439.002 314.489C439.355 314.421 439.719 314.458 440.05 314.597C440.381 314.737 440.664 314.971 440.861 315.27C441.059 315.57 441.163 315.922 441.161 316.281C441.158 316.76 440.966 317.218 440.626 317.555C440.286 317.893 439.827 318.082 439.349 318.082Z" fill="#721121"/>
<path d="M407.172 251.657H415.116C415.357 251.657 415.552 251.462 415.552 251.222V250.892C415.552 250.652 415.357 250.457 415.116 250.457H407.172C406.932 250.457 406.737 250.652 406.737 250.892V251.222C406.737 251.462 406.932 251.657 407.172 251.657Z" fill="#721121" stroke="#721121" stroke-width="0.652671" stroke-miterlimit="10"/>
<path d="M379.115 251.646H394.332C394.412 251.647 394.491 251.633 394.566 251.604C394.64 251.574 394.707 251.53 394.764 251.474C394.821 251.418 394.867 251.352 394.897 251.278C394.928 251.205 394.944 251.125 394.944 251.046C394.944 250.966 394.928 250.887 394.897 250.813C394.867 250.74 394.821 250.673 394.764 250.617C394.707 250.561 394.64 250.517 394.566 250.488C394.491 250.458 394.412 250.444 394.332 250.445H379.115C378.956 250.445 378.803 250.509 378.69 250.621C378.578 250.734 378.515 250.886 378.515 251.046C378.515 251.205 378.578 251.358 378.69 251.47C378.803 251.583 378.956 251.646 379.115 251.646Z" fill="#721121" stroke="#721121" stroke-width="0.652671" stroke-miterlimit="10"/>
<path d="M420.93 385.448C420.93 387.203 410.432 388.627 397.486 388.627C384.54 388.627 374.03 387.214 374.03 385.448C374.03 383.682 384.528 382.258 397.486 382.258C410.444 382.258 420.93 383.682 420.93 385.448Z" fill="#721121"/>
<path d="M377.303 338.261C377.303 365.056 398.487 386.766 398.487 386.766C398.487 386.766 419.671 365.056 419.671 338.261C419.671 311.465 398.487 289.755 398.487 289.755C398.487 289.755 377.303 311.465 377.303 338.261Z" fill="#263238"/>
<path d="M398.521 386.766V289.755" stroke="#FFC07F" stroke-width="0.738" stroke-miterlimit="10"/>
<path d="M398.522 324.238L386.635 313.866" stroke="#FFC07F" stroke-width="0.738" stroke-miterlimit="10"/>
<path d="M398.71 340.274L413.409 318.953" stroke="#FFC07F" stroke-width="0.738" stroke-miterlimit="10"/>
<path d="M398.522 349.516L380.986 333.857" stroke="#FFC07F" stroke-width="0.738" stroke-miterlimit="10"/>
<path d="M398.71 361.96L416.058 346.49" stroke="#FFC07F" stroke-width="0.738" stroke-miterlimit="10"/>
<path d="M398.71 372.709L385.129 361.96" stroke="#FFC07F" stroke-width="0.738" stroke-miterlimit="10"/>
<path d="M362.603 373.086C372.913 384.718 390.46 385.966 390.46 385.966C390.46 385.966 391.319 368.389 381.045 356.757C370.771 345.125 353.188 343.877 353.188 343.877C353.188 343.877 352.258 361.513 362.603 373.086Z" fill="#263238"/>
<path d="M390.46 386.013L353.152 343.924" stroke="#FFC07F" stroke-width="0.738" stroke-miterlimit="10"/>
<path d="M366.416 358.887L357.271 358.957" stroke="#FFC07F" stroke-width="0.738" stroke-miterlimit="10"/>
<path d="M372.665 365.774L370.841 350.869" stroke="#FFC07F" stroke-width="0.738" stroke-miterlimit="10"/>
<path d="M376.137 369.848L362.509 369.812" stroke="#FFC07F" stroke-width="0.738" stroke-miterlimit="10"/>
<path d="M381.01 375.181L382.587 361.795" stroke="#FFC07F" stroke-width="0.738" stroke-miterlimit="10"/>
<path d="M385.14 379.844L375.113 380.409" stroke="#FFC07F" stroke-width="0.738" stroke-miterlimit="10"/>
<path d="M416.67 356.403C405.843 367.541 405.901 385.153 405.901 385.153C405.901 385.153 423.496 384.694 434.312 373.545C445.128 362.396 445.081 344.83 445.081 344.83C445.081 344.83 427.486 345.254 416.67 356.403Z" fill="#263238"/>
<path d="M405.901 385.154L445.081 344.795" stroke="#FFC07F" stroke-width="0.738" stroke-miterlimit="10"/>
<path d="M431.158 359.135L430.404 350.022" stroke="#FFC07F" stroke-width="0.738" stroke-miterlimit="10"/>
<path d="M424.755 365.881L439.478 362.961" stroke="#FFC07F" stroke-width="0.738" stroke-miterlimit="10"/>
<path d="M420.942 369.648L419.977 356.05" stroke="#FFC07F" stroke-width="0.738" stroke-miterlimit="10"/>
<path d="M415.999 374.91L429.463 375.475" stroke="#FFC07F" stroke-width="0.738" stroke-miterlimit="10"/>
<path d="M411.656 379.385L410.35 369.425" stroke="#FFC07F" stroke-width="0.738" stroke-miterlimit="10"/>
</svg>
