<svg width="486" height="509" viewBox="0 0 486 509" fill="none" xmlns="http://www.w3.org/2000/svg">
<path d="M243 508.423C377.205 508.423 486 445.607 486 368.12C486 290.634 377.205 227.818 243 227.818C108.795 227.818 0 290.634 0 368.12C0 445.607 108.795 508.423 243 508.423Z" fill="#F5F5F5"/>
<path d="M67.2734 403.055C86.8558 403.055 102.73 393.89 102.73 382.585C102.73 371.28 86.8558 362.115 67.2734 362.115C47.6911 362.115 31.8164 371.28 31.8164 382.585C31.8164 393.89 47.6911 403.055 67.2734 403.055Z" fill="#E0E0E0"/>
<path d="M213.658 337.765L115.985 394.161L44.9727 352.85L142.646 296.466L213.658 337.765Z" fill="#E0E0E0"/>
<path d="M372.827 453.575L132.716 314.941C132.215 314.655 131.799 314.241 131.509 313.743C131.22 313.244 131.067 312.678 131.067 312.101C131.067 311.525 131.22 310.958 131.509 310.46C131.799 309.961 132.215 309.548 132.716 309.262L171.475 286.885C173.055 285.969 174.848 285.486 176.674 285.486C178.5 285.486 180.294 285.969 181.874 286.885L421.985 425.508C422.488 425.793 422.907 426.207 423.198 426.707C423.489 427.206 423.643 427.775 423.643 428.353C423.643 428.931 423.489 429.499 423.198 429.999C422.907 430.499 422.488 430.913 421.985 431.198L383.236 453.575C381.653 454.486 379.858 454.965 378.032 454.965C376.205 454.965 374.411 454.486 372.827 453.575Z" fill="#E0E0E0"/>
<path d="M410.29 381.942L423.784 389.779C423.784 389.779 416.971 368.044 420.754 346.179C422.181 337.917 425.179 333.819 426.203 331.617C427.228 329.415 435.403 315.769 428.242 309.491C421.081 303.212 404.262 315.704 405.025 349.384C405.396 360.415 407.165 371.355 410.29 381.942Z" fill="#721121"/>
<path opacity="0.3" d="M410.29 381.942L423.784 389.779C423.784 389.779 416.971 368.044 420.754 346.179C422.181 337.917 425.179 333.819 426.203 331.617C427.228 329.415 435.403 315.769 428.242 309.491C421.081 303.212 404.262 315.704 405.025 349.384C405.396 360.415 407.165 371.355 410.29 381.942Z" fill="black"/>
<path d="M416.557 386.072C416.457 386.072 416.36 386.042 416.279 385.985C416.197 385.929 416.134 385.849 416.099 385.756C416.044 385.615 410.954 371.467 411.216 348.762C411.477 326.058 423.467 313.785 423.587 313.665C423.68 313.572 423.805 313.521 423.936 313.521C424.067 313.521 424.192 313.572 424.285 313.665C424.377 313.757 424.429 313.883 424.429 314.014C424.429 314.145 424.377 314.27 424.285 314.363C424.165 314.482 412.458 326.352 412.197 348.773C411.935 371.194 416.971 385.277 417.015 385.418C417.037 385.478 417.048 385.541 417.046 385.604C417.044 385.668 417.029 385.73 417.003 385.788C416.976 385.846 416.939 385.898 416.892 385.941C416.846 385.984 416.791 386.018 416.731 386.04C416.675 386.061 416.616 386.072 416.557 386.072Z" fill="#721121"/>
<path d="M414.126 383.969L436.427 397.049C436.427 397.049 446.629 395.545 445.855 385.942C445.082 376.34 440.94 374.061 446.106 369.843C451.273 365.625 452.646 365.342 452.352 361.2C452.057 357.058 449.322 355.259 447.992 353.57C446.662 351.88 443.032 348.491 445.594 343.498C448.155 338.506 451.654 333.689 446.477 331.4C443.392 330.037 438.204 331.748 434.759 335.4C431.315 339.051 428.492 341.678 425.233 342.528C421.974 343.379 415.173 343.444 415.423 349.068C415.674 354.693 417.113 356.622 415.75 359.118C413.134 363.914 402.136 366.399 414.126 383.969Z" fill="#721121"/>
<path d="M423.163 389.801C423.041 389.799 422.923 389.752 422.833 389.67C422.743 389.588 422.686 389.475 422.672 389.354C422.672 389.016 420.231 355.837 443.284 334.048C443.328 334.002 443.382 333.966 443.441 333.941C443.5 333.916 443.563 333.903 443.627 333.903C443.691 333.903 443.754 333.916 443.813 333.941C443.872 333.966 443.926 334.002 443.97 334.048C444.061 334.142 444.112 334.267 444.112 334.397C444.112 334.527 444.061 334.652 443.97 334.746C421.266 356.207 423.642 388.929 423.675 389.245C423.684 389.374 423.643 389.502 423.559 389.602C423.476 389.702 423.357 389.765 423.228 389.779L423.163 389.801Z" fill="#721121"/>
<path d="M427.206 361.309C427.083 361.309 426.965 361.263 426.874 361.181C426.783 361.098 426.727 360.984 426.716 360.862C426.527 358.297 425.821 355.796 424.641 353.511C423.461 351.226 421.831 349.203 419.849 347.564C419.796 347.526 419.752 347.478 419.718 347.423C419.684 347.368 419.662 347.307 419.652 347.243C419.641 347.179 419.644 347.114 419.659 347.051C419.674 346.989 419.702 346.929 419.74 346.877C419.777 346.825 419.823 346.781 419.877 346.747C419.932 346.714 419.992 346.691 420.055 346.681C420.118 346.671 420.182 346.673 420.244 346.688C420.306 346.703 420.364 346.73 420.416 346.768C422.531 348.481 424.268 350.616 425.514 353.037C426.76 355.458 427.488 358.111 427.653 360.829C427.659 360.958 427.615 361.085 427.53 361.183C427.444 361.28 427.324 361.341 427.195 361.352L427.206 361.309Z" fill="#721121"/>
<path d="M425.517 366.987C425.456 366.988 425.396 366.977 425.34 366.954C425.284 366.932 425.233 366.898 425.19 366.856C425.144 366.811 425.107 366.758 425.083 366.699C425.058 366.64 425.045 366.577 425.045 366.513C425.045 366.449 425.058 366.385 425.083 366.326C425.107 366.267 425.144 366.214 425.19 366.169C425.429 365.908 431.217 359.629 444.58 361.504C444.709 361.521 444.826 361.587 444.905 361.689C444.985 361.791 445.021 361.921 445.005 362.049C444.987 362.179 444.918 362.295 444.814 362.375C444.71 362.454 444.579 362.49 444.45 362.474C431.631 360.709 425.974 366.758 425.92 366.834C425.869 366.889 425.806 366.932 425.736 366.958C425.666 366.985 425.591 366.995 425.517 366.987Z" fill="#721121"/>
<path d="M389.123 283.844L358.004 265.619L376.534 291.103L389.123 283.844Z" fill="#721121"/>
<path opacity="0.6" d="M389.123 283.844L358.004 265.619L376.534 291.103L389.123 283.844Z" fill="#721121"/>
<path d="M370.626 351.292L188.501 246.13C187.719 245.68 187.07 245.032 186.619 244.252C186.167 243.471 185.929 242.585 185.929 241.683V117.328C185.929 116.426 186.167 115.54 186.618 114.759C187.069 113.978 187.717 113.33 188.497 112.878C189.278 112.426 190.163 112.188 191.065 112.187C191.967 112.185 192.853 112.421 193.635 112.87L375.781 218.031C376.563 218.483 377.212 219.133 377.664 219.916C378.115 220.698 378.353 221.585 378.354 222.489V346.844C378.353 347.748 378.115 348.636 377.662 349.419C377.209 350.201 376.558 350.851 375.775 351.302C374.991 351.752 374.103 351.989 373.199 351.987C372.295 351.985 371.407 351.745 370.626 351.292Z" fill="#FFC07F"/>
<path d="M376.533 291.103L389.122 283.844V430.991C389.124 432.318 388.775 433.621 388.11 434.769C387.446 435.918 386.491 436.87 385.34 437.531L372.903 444.736L376.533 291.103Z" fill="#721121"/>
<path opacity="0.3" d="M376.533 291.103L389.122 283.844V430.991C389.124 432.318 388.775 433.621 388.11 434.769C387.446 435.918 386.491 436.87 385.34 437.531L372.903 444.736L376.533 291.103Z" fill="#721121"/>
<path d="M362.363 355.946L180.217 250.784C179.438 250.33 178.791 249.679 178.342 248.897C177.893 248.114 177.656 247.228 177.655 246.326V121.938C177.655 121.036 177.891 120.149 178.342 119.368C178.793 118.587 179.442 117.938 180.223 117.487C181.004 117.036 181.891 116.799 182.793 116.8C183.695 116.8 184.581 117.039 185.361 117.491L367.508 222.652C368.289 223.102 368.939 223.75 369.39 224.531C369.842 225.311 370.08 226.197 370.08 227.099V351.488C370.081 352.391 369.843 353.278 369.392 354.061C368.941 354.843 368.291 355.493 367.509 355.945C366.727 356.397 365.839 356.635 364.936 356.635C364.033 356.635 363.145 356.397 362.363 355.946Z" fill="#FFC07F"/>
<path d="M354.091 360.807L171.955 255.657C171.173 255.204 170.524 254.554 170.073 253.772C169.621 252.989 169.383 252.102 169.383 251.199V126.843C169.382 125.941 169.619 125.055 170.07 124.273C170.521 123.492 171.169 122.843 171.951 122.392C172.732 121.941 173.618 121.704 174.52 121.705C175.422 121.706 176.308 121.944 177.089 122.396L359.235 227.557C360.02 228.009 360.672 228.66 361.123 229.445C361.575 230.23 361.811 231.121 361.808 232.026V356.36C361.806 357.262 361.568 358.149 361.115 358.93C360.663 359.71 360.014 360.359 359.232 360.809C358.45 361.26 357.563 361.497 356.661 361.496C355.759 361.496 354.872 361.258 354.091 360.807Z" fill="#FFC07F"/>
<path d="M143.746 125.208V307.998C143.746 310.592 144.429 313.14 145.726 315.387C147.023 317.633 148.889 319.498 151.136 320.794L365.862 444.747C366.947 445.372 368.178 445.701 369.43 445.7C370.682 445.699 371.912 445.37 372.996 444.743C374.081 444.117 374.981 443.217 375.608 442.133C376.235 441.049 376.565 439.819 376.566 438.566V291.103L263.317 225.704L243.752 180.579C240.1 172.152 233.832 165.123 225.876 160.535L154.21 119.115C153.146 118.501 151.938 118.178 150.709 118.181C149.48 118.183 148.274 118.51 147.212 119.128C146.15 119.747 145.27 120.635 144.661 121.702C144.053 122.77 143.737 123.979 143.746 125.208Z" fill="#721121"/>
<path opacity="0.2" d="M143.746 125.208V307.998C143.746 310.592 144.429 313.14 145.726 315.387C147.023 317.633 148.889 319.498 151.136 320.794L365.862 444.747C366.947 445.372 368.178 445.701 369.43 445.7C370.682 445.699 371.912 445.37 372.996 444.743C374.081 444.117 374.981 443.217 375.608 442.133C376.235 441.049 376.565 439.819 376.566 438.566V291.103L263.317 225.704L243.752 180.579C240.1 172.152 233.832 165.123 225.876 160.535L154.21 119.115C153.146 118.501 151.938 118.178 150.709 118.181C149.48 118.183 148.274 118.51 147.212 119.128C146.15 119.747 145.27 120.635 144.661 121.702C144.053 122.77 143.737 123.979 143.746 125.208Z" fill="#721121"/>
<path d="M313.914 324.675C313.314 324.326 312.715 324.021 312.126 323.748C311.669 309.687 301.859 293.065 289.869 286.133C285.825 283.79 282.032 282.863 278.762 283.146C274.184 268.301 263.666 253.717 251.415 246.61C235.784 237.585 222.966 244.093 221.723 261.053C220.971 260.529 220.208 260.039 219.445 259.592C207.576 252.747 197.962 258.295 197.962 271.996C197.962 285.697 207.576 302.363 219.445 309.208L313.947 363.772C323.31 369.222 330.896 364.797 330.896 353.962C330.896 343.128 323.277 330.026 313.914 324.675Z" fill="#721121"/>
<path opacity="0.4" d="M313.914 324.675C313.314 324.326 312.715 324.021 312.126 323.748C311.669 309.687 301.859 293.065 289.869 286.133C285.825 283.79 282.032 282.863 278.762 283.146C274.184 268.301 263.666 253.717 251.415 246.61C235.784 237.585 222.966 244.093 221.723 261.053C220.971 260.529 220.208 260.039 219.445 259.592C207.576 252.747 197.962 258.295 197.962 271.996C197.962 285.697 207.576 302.363 219.445 309.208L313.947 363.772C323.31 369.222 330.896 364.797 330.896 353.962C330.896 343.128 323.277 330.026 313.914 324.675Z" fill="white"/>
<path d="M233.397 323.399L255.666 364L279.46 349.58L270.053 344.272V304.084L244.701 289.479V329.993L233.397 323.399Z" fill="#FFC07F"/>
<path d="M169.34 66.8066C145.607 66.8062 122.49 74.361 103.338 88.3766C84.1866 102.392 69.9937 122.141 62.8158 144.762L53.8017 139.574C53.5375 139.419 53.2383 139.334 52.9322 139.327C52.6261 139.321 52.3234 139.392 52.0527 139.535C51.782 139.678 51.5523 139.888 51.3854 140.145C51.2184 140.401 51.1197 140.696 51.0986 141.002C49.4608 158.473 51.982 176.084 58.4559 192.394C61.6395 200.489 65.9473 208.096 71.2523 214.989C71.4221 215.204 71.6453 215.37 71.8996 215.47C72.1538 215.571 72.4301 215.603 72.7007 215.564C72.9713 215.524 73.2267 215.414 73.4412 215.244C73.6557 215.074 73.8218 214.851 73.9227 214.597C77.8509 204.745 83.2696 195.554 89.989 187.347C94.3351 181.954 99.2219 177.02 104.573 172.622C104.873 172.377 105.11 172.062 105.261 171.705C105.413 171.349 105.475 170.96 105.443 170.574C105.411 170.187 105.285 169.815 105.076 169.488C104.868 169.161 104.583 168.89 104.246 168.698L93.4334 162.452C99.1968 141.626 111.794 123.342 129.2 110.537C146.606 97.7319 167.812 91.1496 189.409 91.8476C211.007 92.5455 231.743 100.483 248.286 114.385C264.83 128.287 276.22 147.347 280.626 168.502C278.115 140.72 265.305 114.881 244.712 96.0638C224.12 77.2463 197.235 66.8104 169.34 66.8066Z" fill="#721121"/>
<path opacity="0.4" d="M169.34 66.8066C145.607 66.8062 122.49 74.361 103.338 88.3766C84.1866 102.392 69.9937 122.141 62.8158 144.762L53.8017 139.574C53.5375 139.419 53.2383 139.334 52.9322 139.327C52.6261 139.321 52.3234 139.392 52.0527 139.535C51.782 139.678 51.5523 139.888 51.3854 140.145C51.2184 140.401 51.1197 140.696 51.0986 141.002C49.4608 158.473 51.982 176.084 58.4559 192.394C61.6395 200.489 65.9473 208.096 71.2523 214.989C71.4221 215.204 71.6453 215.37 71.8996 215.47C72.1538 215.571 72.4301 215.603 72.7007 215.564C72.9713 215.524 73.2267 215.414 73.4412 215.244C73.6557 215.074 73.8218 214.851 73.9227 214.597C77.8509 204.745 83.2696 195.554 89.989 187.347C94.3351 181.954 99.2219 177.02 104.573 172.622C104.873 172.377 105.11 172.062 105.261 171.705C105.413 171.349 105.475 170.96 105.443 170.574C105.411 170.187 105.285 169.815 105.076 169.488C104.868 169.161 104.583 168.89 104.246 168.698L93.4334 162.452C99.1968 141.626 111.794 123.342 129.2 110.537C146.606 97.7319 167.812 91.1496 189.409 91.8476C211.007 92.5455 231.743 100.483 248.286 114.385C264.83 128.287 276.22 147.347 280.626 168.502C278.115 140.72 265.305 114.881 244.712 96.0638C224.12 77.2463 197.235 66.8104 169.34 66.8066Z" fill="#721121"/>
<path d="M384.226 89.9541C396.519 82.8568 396.52 59.8434 384.227 38.5523C371.935 17.2612 352.004 5.75494 339.711 12.8523C327.419 19.9496 327.418 42.963 339.711 64.254C352.003 85.5451 371.933 97.0514 384.226 89.9541Z" fill="#721121"/>
<path opacity="0.2" d="M384.226 89.9541C396.519 82.8568 396.52 59.8434 384.227 38.5523C371.935 17.2612 352.004 5.75494 339.711 12.8523C327.419 19.9496 327.418 42.963 339.711 64.254C352.003 85.5451 371.933 97.0514 384.226 89.9541Z" fill="black"/>
<path d="M382.377 91.0215C394.67 83.9241 394.67 60.9108 382.378 39.6197C370.085 18.3286 350.155 6.82231 337.862 13.9196C325.569 21.017 325.568 44.0303 337.861 65.3214C350.153 86.6125 370.084 98.1188 382.377 91.0215Z" fill="#721121"/>
<path d="M347.638 63.0792L371.868 77.1399C372.163 77.3129 372.499 77.4047 372.841 77.4062C373.183 77.4076 373.519 77.3186 373.816 77.1482C374.112 76.9778 374.359 76.732 374.53 76.4358C374.701 76.1396 374.79 75.8034 374.789 75.4613V45.4869C374.784 44.7365 374.579 44.0011 374.196 43.3557C373.813 42.7104 373.265 42.1783 372.609 41.8137L348.379 27.7965C348.084 27.6236 347.748 27.5318 347.406 27.5303C347.064 27.5288 346.728 27.6178 346.432 27.7882C346.135 27.9586 345.889 28.2044 345.718 28.5007C345.547 28.7969 345.457 29.1331 345.458 29.4751V59.4495C345.471 60.1925 345.68 60.9189 346.063 61.5559C346.445 62.193 346.988 62.7183 347.638 63.0792Z" fill="#721121"/>
<path opacity="0.6" d="M347.638 63.0792L371.868 77.1399C372.163 77.3129 372.499 77.4047 372.841 77.4062C373.183 77.4076 373.519 77.3186 373.816 77.1482C374.112 76.9778 374.359 76.732 374.53 76.4358C374.701 76.1396 374.79 75.8034 374.789 75.4613V45.4869C374.784 44.7365 374.579 44.0011 374.196 43.3557C373.813 42.7104 373.265 42.1783 372.609 41.8137L348.379 27.7965C348.084 27.6236 347.748 27.5318 347.406 27.5303C347.064 27.5288 346.728 27.6178 346.432 27.7882C346.135 27.9586 345.889 28.2044 345.718 28.5007C345.547 28.7969 345.457 29.1331 345.458 29.4751V59.4495C345.471 60.1925 345.68 60.9189 346.063 61.5559C346.445 62.193 346.988 62.7183 347.638 63.0792Z" fill="white"/>
<path d="M350.069 58.7195L369.547 69.9136C369.785 70.0543 370.058 70.1283 370.335 70.1278C370.612 70.1274 370.884 70.0525 371.122 69.9111C371.361 69.7696 371.557 69.5668 371.69 69.3237C371.823 69.0807 371.888 68.8063 371.879 68.5293V46.0758C371.879 45.4792 371.722 44.8932 371.423 44.3766C371.125 43.8601 370.696 43.4311 370.179 43.1328L350.701 31.8951C350.464 31.7596 350.196 31.6887 349.923 31.6895C349.65 31.6902 349.382 31.7627 349.146 31.8995C348.909 32.0363 348.713 32.2328 348.577 32.4692C348.441 32.7057 348.369 32.9738 348.368 33.2467V55.733C348.361 56.337 348.515 56.932 348.814 57.4569C349.112 57.9818 349.546 58.4176 350.069 58.7195Z" fill="#721121"/>
<path opacity="0.4" d="M371.879 46.0751V68.5286C371.882 68.8029 371.812 69.073 371.677 69.3114C371.541 69.5498 371.345 69.7479 371.107 69.8854C370.87 70.0229 370.601 70.0949 370.326 70.094C370.052 70.0931 369.783 70.0193 369.547 69.8802L350.069 58.7188C349.551 58.424 349.121 57.9973 348.823 57.4823C348.524 56.9672 348.367 56.3822 348.368 55.7868V33.246C348.365 32.9718 348.435 32.7016 348.571 32.4632C348.706 32.2248 348.903 32.0267 349.14 31.8892C349.377 31.7517 349.647 31.6798 349.921 31.6807C350.195 31.6816 350.464 31.7554 350.701 31.8944L370.179 43.143C370.696 43.4378 371.126 43.8645 371.425 44.3796C371.723 44.8946 371.88 45.4797 371.879 46.0751Z" fill="white"/>
<path d="M371.879 67.7331V68.5288C371.882 68.803 371.812 69.0732 371.677 69.3116C371.541 69.55 371.345 69.7481 371.107 69.8856C370.87 70.0231 370.6 70.0951 370.326 70.0941C370.052 70.0932 369.783 70.0195 369.546 69.8804L350.069 58.719C349.551 58.4242 349.121 57.9975 348.823 57.4824C348.524 56.9674 348.367 56.3823 348.368 55.7869V53.607L353.469 49.2471L359.486 57.8143L365.361 50.8275L371.879 67.7331Z" fill="#FAFAFA"/>
<path d="M355.083 42.4999C355.133 43.4094 355.396 44.2944 355.85 45.0839C356.304 45.8733 356.938 46.5451 357.699 47.0451C359.149 47.8844 360.326 47.2086 360.326 45.5301C360.275 44.6197 360.01 43.734 359.554 42.9445C359.098 42.155 358.462 41.4838 357.699 40.9849C356.26 40.1892 355.083 40.8323 355.083 42.4999Z" fill="#FAFAFA"/>
<path d="M438.78 201.861C451.073 194.764 451.073 171.751 438.781 150.46C426.488 129.168 406.558 117.662 394.265 124.759C381.972 131.857 381.972 154.87 394.264 176.161C406.557 197.452 426.487 208.959 438.78 201.861Z" fill="#721121"/>
<path opacity="0.2" d="M438.78 201.861C451.073 194.764 451.073 171.751 438.781 150.46C426.488 129.168 406.558 117.662 394.265 124.759C381.972 131.857 381.972 154.87 394.264 176.161C406.557 197.452 426.487 208.959 438.78 201.861Z" fill="black"/>
<path d="M436.935 202.939C449.228 195.842 449.229 172.829 436.936 151.538C424.644 130.247 404.713 118.74 392.42 125.838C380.127 132.935 380.127 155.948 392.419 177.239C404.712 198.53 424.642 210.037 436.935 202.939Z" fill="#721121"/>
<path d="M402.933 139.705C402.636 139.535 402.301 139.446 401.959 139.446C401.617 139.447 401.282 139.537 400.986 139.708C400.69 139.879 400.445 140.125 400.274 140.421C400.103 140.717 400.012 141.052 400.012 141.394V171.368C400.012 172.112 400.208 172.842 400.582 173.486C400.955 174.129 401.492 174.662 402.137 175.031L426.422 189.059C426.721 189.245 427.065 189.347 427.418 189.352C427.77 189.358 428.118 189.267 428.423 189.09C428.727 188.913 428.978 188.656 429.148 188.347C429.318 188.038 429.4 187.689 429.387 187.337V165.09L422.847 151.149L402.933 139.705Z" fill="#721121"/>
<path opacity="0.6" d="M402.933 139.705C402.636 139.535 402.301 139.446 401.959 139.446C401.617 139.447 401.282 139.537 400.986 139.708C400.69 139.879 400.445 140.125 400.274 140.421C400.103 140.717 400.012 141.052 400.012 141.394V171.368C400.012 172.112 400.208 172.842 400.582 173.486C400.955 174.129 401.492 174.662 402.137 175.031L426.422 189.059C426.721 189.245 427.065 189.347 427.418 189.352C427.77 189.358 428.118 189.267 428.423 189.09C428.727 188.913 428.978 188.656 429.148 188.347C429.318 188.038 429.4 187.689 429.387 187.337V165.09L422.847 151.149L402.933 139.705Z" fill="white"/>
<path d="M421.898 156.251L422.748 151.149L429.288 165.101L423.348 160.207C422.78 159.733 422.348 159.117 422.093 158.423C421.839 157.728 421.772 156.979 421.898 156.251Z" fill="#721121"/>
<path opacity="0.4" d="M421.898 156.251L422.748 151.149L429.288 165.101L423.348 160.207C422.78 159.733 422.348 159.117 422.093 158.423C421.839 157.728 421.772 156.979 421.898 156.251Z" fill="white"/>
<path d="M424.263 167.957C424.144 167.955 424.027 167.921 423.926 167.859L404.753 156.817C404.601 156.726 404.491 156.579 404.446 156.408C404.401 156.237 404.425 156.055 404.513 155.901C404.602 155.75 404.747 155.64 404.916 155.595C405.085 155.551 405.266 155.574 405.418 155.662L424.601 166.725C424.753 166.816 424.863 166.963 424.908 167.134C424.953 167.305 424.929 167.487 424.841 167.641C424.781 167.74 424.696 167.821 424.595 167.877C424.493 167.932 424.379 167.96 424.263 167.957Z" fill="#FAFAFA"/>
<path d="M424.263 174.453C424.146 174.45 424.03 174.42 423.926 174.366L404.753 163.292C404.601 163.201 404.491 163.054 404.446 162.883C404.401 162.712 404.425 162.53 404.513 162.376C404.602 162.225 404.747 162.115 404.916 162.07C405.085 162.025 405.266 162.049 405.418 162.136L424.601 173.167C424.753 173.258 424.863 173.404 424.908 173.576C424.953 173.747 424.929 173.929 424.841 174.082C424.789 174.192 424.707 174.284 424.605 174.35C424.503 174.415 424.385 174.451 424.263 174.453Z" fill="#FAFAFA"/>
<path d="M424.263 180.949C424.146 180.946 424.03 180.916 423.926 180.862L404.753 169.788C404.601 169.697 404.491 169.55 404.446 169.379C404.401 169.208 404.425 169.026 404.513 168.872C404.602 168.721 404.747 168.611 404.916 168.566C405.085 168.521 405.266 168.545 405.418 168.632L424.601 179.707C424.729 179.78 424.83 179.893 424.886 180.029C424.943 180.165 424.953 180.317 424.914 180.459C424.875 180.601 424.79 180.726 424.673 180.815C424.555 180.904 424.411 180.951 424.263 180.949Z" fill="#FAFAFA"/>
<path d="M324.895 137.127C337.244 130.03 337.29 106.937 324.998 85.5486C312.705 64.1598 292.729 52.5743 280.38 59.6716C268.031 66.7689 267.984 89.8615 280.277 111.25C292.569 132.639 312.545 144.225 324.895 137.127Z" fill="#721121"/>
<path opacity="0.2" d="M324.895 137.127C337.244 130.03 337.29 106.937 324.998 85.5486C312.705 64.1598 292.729 52.5743 280.38 59.6716C268.031 66.7689 267.984 89.8615 280.277 111.25C292.569 132.639 312.545 144.225 324.895 137.127Z" fill="black"/>
<path d="M321.739 137.567C334.032 130.47 334.032 107.457 321.74 86.1656C309.447 64.8745 289.517 53.3682 277.224 60.4655C264.931 67.5629 264.931 90.5762 277.223 111.867C289.516 133.158 309.446 144.665 321.739 137.567Z" fill="#721121"/>
<path d="M286.937 109.676L311.222 123.693C311.517 123.866 311.853 123.958 312.195 123.959C312.537 123.961 312.873 123.872 313.17 123.701C313.466 123.531 313.713 123.285 313.884 122.989C314.055 122.693 314.144 122.357 314.143 122.015V92.0401C314.143 91.2951 313.946 90.5633 313.573 89.9185C313.2 89.2736 312.664 88.7385 312.018 88.3669L287.69 74.3498C287.395 74.1796 287.06 74.0899 286.72 74.0898C286.379 74.0898 286.045 74.1793 285.75 74.3494C285.455 74.5194 285.21 74.7641 285.04 75.0588C284.869 75.3536 284.78 75.6879 284.779 76.0283V106.003C284.784 106.751 284.986 107.484 285.365 108.129C285.744 108.774 286.286 109.308 286.937 109.676Z" fill="#721121"/>
<path opacity="0.6" d="M286.937 109.676L311.222 123.693C311.517 123.866 311.853 123.958 312.195 123.959C312.537 123.961 312.873 123.872 313.17 123.701C313.466 123.531 313.713 123.285 313.884 122.989C314.055 122.693 314.144 122.357 314.143 122.015V92.0401C314.143 91.2951 313.946 90.5633 313.573 89.9185C313.2 89.2736 312.664 88.7385 312.018 88.3669L287.69 74.3498C287.395 74.1796 287.06 74.0899 286.72 74.0898C286.379 74.0898 286.045 74.1793 285.75 74.3494C285.455 74.5194 285.21 74.7641 285.04 75.0588C284.869 75.3536 284.78 75.6879 284.779 76.0283V106.003C284.784 106.751 284.986 107.484 285.365 108.129C285.744 108.774 286.286 109.308 286.937 109.676Z" fill="white"/>
<path d="M293.554 93.936V104.106C293.554 104.507 293.713 104.893 293.997 105.177C294.282 105.461 294.667 105.621 295.069 105.621H303.887C304.177 105.62 304.461 105.537 304.705 105.38C304.95 105.223 305.144 104.999 305.264 104.735C305.385 104.471 305.427 104.177 305.386 103.89C305.344 103.603 305.221 103.333 305.031 103.114L296.213 92.9442C296.011 92.711 295.742 92.5451 295.443 92.4688C295.144 92.3926 294.829 92.4095 294.539 92.5174C294.25 92.6253 294.001 92.8189 293.825 93.0725C293.648 93.326 293.554 93.6273 293.554 93.936Z" fill="#FAFAFA"/>
<path d="M361.971 95.2553C361.766 95.2553 361.569 95.1738 361.424 95.0286C361.279 94.8835 361.197 94.6867 361.197 94.4814V92.4213C361.197 92.2161 361.279 92.0193 361.424 91.8741C361.569 91.729 361.766 91.6475 361.971 91.6475C362.072 91.6475 362.172 91.6675 362.266 91.7066C362.359 91.7456 362.444 91.8028 362.515 91.8748C362.586 91.9468 362.642 92.0322 362.679 92.126C362.717 92.2198 362.736 92.3202 362.734 92.4213V94.4814C362.736 94.5825 362.717 94.6829 362.679 94.7767C362.642 94.8706 362.586 94.956 362.515 95.028C362.444 95.1 362.359 95.1572 362.266 95.1962C362.172 95.2352 362.072 95.2553 361.971 95.2553Z" fill="#721121"/>
<path d="M361.971 210.553C361.766 210.553 361.569 210.471 361.424 210.326C361.279 210.181 361.197 209.984 361.197 209.779V205.659C361.197 205.454 361.279 205.257 361.424 205.112C361.569 204.966 361.766 204.885 361.971 204.885C362.072 204.885 362.172 204.905 362.266 204.944C362.359 204.983 362.444 205.04 362.515 205.112C362.586 205.184 362.642 205.27 362.679 205.363C362.717 205.457 362.736 205.558 362.734 205.659V209.779C362.736 209.88 362.717 209.98 362.679 210.074C362.642 210.168 362.586 210.253 362.515 210.325C362.444 210.397 362.359 210.455 362.266 210.494C362.172 210.533 362.072 210.553 361.971 210.553ZM361.971 202.313C361.766 202.313 361.569 202.231 361.424 202.086C361.279 201.941 361.197 201.744 361.197 201.539V197.429C361.197 197.224 361.279 197.027 361.424 196.882C361.569 196.737 361.766 196.656 361.971 196.656C362.072 196.656 362.172 196.676 362.266 196.715C362.359 196.754 362.444 196.811 362.515 196.883C362.586 196.955 362.642 197.04 362.679 197.134C362.717 197.228 362.736 197.328 362.734 197.429V201.506C362.74 201.61 362.725 201.714 362.689 201.811C362.653 201.909 362.598 201.998 362.527 202.074C362.455 202.149 362.369 202.21 362.274 202.251C362.178 202.292 362.075 202.313 361.971 202.313ZM361.971 194.083C361.766 194.083 361.569 194.002 361.424 193.857C361.279 193.711 361.197 193.515 361.197 193.309V189.189C361.197 188.984 361.279 188.787 361.424 188.642C361.569 188.497 361.766 188.415 361.971 188.415C362.072 188.415 362.172 188.435 362.266 188.474C362.359 188.513 362.444 188.571 362.515 188.643C362.586 188.715 362.642 188.8 362.679 188.894C362.717 188.988 362.736 189.088 362.734 189.189V193.309C362.736 193.41 362.717 193.511 362.679 193.605C362.642 193.698 362.586 193.784 362.515 193.856C362.444 193.928 362.359 193.985 362.266 194.024C362.172 194.063 362.072 194.083 361.971 194.083ZM361.971 185.843C361.766 185.843 361.569 185.761 361.424 185.616C361.279 185.471 361.197 185.274 361.197 185.069V180.949C361.197 180.848 361.217 180.748 361.256 180.654C361.295 180.561 361.353 180.477 361.425 180.406C361.497 180.335 361.582 180.279 361.676 180.241C361.77 180.203 361.87 180.185 361.971 180.186C362.173 180.186 362.368 180.266 362.511 180.409C362.654 180.553 362.734 180.747 362.734 180.949V185.069C362.736 185.17 362.717 185.271 362.679 185.364C362.642 185.458 362.586 185.544 362.515 185.616C362.444 185.688 362.359 185.745 362.266 185.784C362.172 185.823 362.072 185.843 361.971 185.843ZM361.971 177.614C361.766 177.614 361.569 177.532 361.424 177.387C361.279 177.242 361.197 177.045 361.197 176.84V172.72C361.197 172.514 361.279 172.318 361.424 172.172C361.569 172.027 361.766 171.946 361.971 171.946C362.072 171.946 362.172 171.966 362.266 172.005C362.359 172.044 362.444 172.101 362.515 172.173C362.586 172.245 362.642 172.33 362.679 172.424C362.717 172.518 362.736 172.619 362.734 172.72V176.84C362.736 176.941 362.717 177.041 362.679 177.135C362.642 177.229 362.586 177.314 362.515 177.386C362.444 177.458 362.359 177.516 362.266 177.555C362.172 177.594 362.072 177.614 361.971 177.614ZM361.971 169.373C361.766 169.373 361.569 169.292 361.424 169.147C361.279 169.002 361.197 168.805 361.197 168.6V164.447C361.197 164.241 361.279 164.045 361.424 163.899C361.569 163.754 361.766 163.673 361.971 163.673C362.072 163.673 362.172 163.693 362.266 163.732C362.359 163.771 362.444 163.828 362.515 163.9C362.586 163.972 362.642 164.058 362.679 164.151C362.717 164.245 362.736 164.346 362.734 164.447V168.567C362.74 168.671 362.725 168.775 362.689 168.872C362.653 168.97 362.598 169.059 362.527 169.135C362.455 169.21 362.369 169.27 362.274 169.311C362.178 169.352 362.075 169.374 361.971 169.373ZM361.971 161.133C361.87 161.135 361.77 161.116 361.676 161.078C361.582 161.041 361.497 160.985 361.425 160.914C361.353 160.843 361.295 160.758 361.256 160.665C361.217 160.571 361.197 160.471 361.197 160.37V156.25C361.197 156.045 361.279 155.848 361.424 155.703C361.569 155.558 361.766 155.476 361.971 155.476C362.072 155.476 362.172 155.496 362.266 155.535C362.359 155.574 362.444 155.631 362.515 155.703C362.586 155.775 362.642 155.861 362.679 155.955C362.717 156.049 362.736 156.149 362.734 156.25V160.37C362.74 160.474 362.725 160.578 362.689 160.676C362.653 160.773 362.598 160.863 362.527 160.938C362.455 161.014 362.369 161.074 362.274 161.115C362.178 161.156 362.075 161.177 361.971 161.177V161.133ZM361.971 152.904C361.766 152.904 361.569 152.822 361.424 152.677C361.279 152.532 361.197 152.335 361.197 152.13V148.01C361.197 147.805 361.279 147.608 361.424 147.463C361.569 147.317 361.766 147.236 361.971 147.236C362.072 147.236 362.172 147.256 362.266 147.295C362.359 147.334 362.444 147.391 362.515 147.463C362.586 147.535 362.642 147.621 362.679 147.714C362.717 147.808 362.736 147.909 362.734 148.01V152.13C362.736 152.231 362.717 152.331 362.679 152.425C362.642 152.519 362.586 152.604 362.515 152.676C362.444 152.748 362.359 152.806 362.266 152.845C362.172 152.884 362.072 152.904 361.971 152.904ZM361.971 144.664C361.87 144.664 361.769 144.644 361.675 144.605C361.581 144.566 361.496 144.509 361.424 144.437C361.352 144.365 361.295 144.28 361.256 144.186C361.217 144.092 361.197 143.991 361.197 143.89V139.78C361.197 139.575 361.279 139.378 361.424 139.233C361.569 139.088 361.766 139.007 361.971 139.007C362.072 139.007 362.172 139.027 362.266 139.066C362.359 139.105 362.444 139.162 362.515 139.234C362.586 139.306 362.642 139.391 362.679 139.485C362.717 139.579 362.736 139.679 362.734 139.78V143.89C362.736 143.991 362.717 144.091 362.679 144.185C362.642 144.279 362.586 144.364 362.515 144.436C362.444 144.508 362.359 144.565 362.266 144.604C362.172 144.643 362.072 144.664 361.971 144.664ZM361.971 136.434C361.766 136.434 361.569 136.353 361.424 136.208C361.279 136.062 361.197 135.866 361.197 135.66V131.54C361.197 131.335 361.279 131.138 361.424 130.993C361.569 130.848 361.766 130.766 361.971 130.766C362.072 130.766 362.172 130.786 362.266 130.825C362.359 130.864 362.444 130.922 362.515 130.994C362.586 131.066 362.642 131.151 362.679 131.245C362.717 131.339 362.736 131.439 362.734 131.54V135.66C362.736 135.761 362.717 135.862 362.679 135.956C362.642 136.049 362.586 136.135 362.515 136.207C362.444 136.279 362.359 136.336 362.266 136.375C362.172 136.414 362.072 136.434 361.971 136.434ZM361.971 128.194C361.766 128.194 361.569 128.112 361.424 127.967C361.279 127.822 361.197 127.625 361.197 127.42V123.3C361.197 123.199 361.217 123.099 361.256 123.005C361.295 122.912 361.353 122.828 361.425 122.757C361.497 122.686 361.582 122.63 361.676 122.592C361.77 122.554 361.87 122.536 361.971 122.537C362.173 122.537 362.368 122.617 362.511 122.76C362.654 122.904 362.734 123.098 362.734 123.3V127.387C362.74 127.491 362.725 127.595 362.689 127.693C362.653 127.79 362.598 127.88 362.527 127.955C362.455 128.031 362.369 128.091 362.274 128.132C362.178 128.173 362.075 128.194 361.971 128.194ZM361.971 119.965C361.766 119.965 361.569 119.883 361.424 119.738C361.279 119.593 361.197 119.396 361.197 119.191V115.071C361.197 114.865 361.279 114.669 361.424 114.523C361.569 114.378 361.766 114.297 361.971 114.297C362.072 114.297 362.172 114.317 362.266 114.356C362.359 114.395 362.444 114.452 362.515 114.524C362.586 114.596 362.642 114.681 362.679 114.775C362.717 114.869 362.736 114.97 362.734 115.071V119.191C362.736 119.292 362.717 119.392 362.679 119.486C362.642 119.58 362.586 119.665 362.515 119.737C362.444 119.809 362.359 119.867 362.266 119.906C362.172 119.945 362.072 119.965 361.971 119.965ZM361.971 111.724C361.766 111.724 361.569 111.643 361.424 111.498C361.279 111.353 361.197 111.156 361.197 110.951V106.83C361.197 106.625 361.279 106.428 361.424 106.283C361.569 106.138 361.766 106.056 361.971 106.056C362.072 106.056 362.172 106.077 362.266 106.116C362.359 106.155 362.444 106.212 362.515 106.284C362.586 106.356 362.642 106.441 362.679 106.535C362.717 106.629 362.736 106.729 362.734 106.83V110.951C362.736 111.052 362.717 111.152 362.679 111.246C362.642 111.34 362.586 111.425 362.515 111.497C362.444 111.569 362.359 111.626 362.266 111.665C362.172 111.704 362.072 111.724 361.971 111.724ZM361.971 103.484C361.87 103.486 361.77 103.467 361.676 103.429C361.582 103.392 361.497 103.336 361.425 103.265C361.353 103.194 361.295 103.109 361.256 103.016C361.217 102.922 361.197 102.822 361.197 102.721V98.601C361.197 98.3958 361.279 98.1989 361.424 98.0538C361.569 97.9087 361.766 97.8271 361.971 97.8271C362.072 97.8271 362.172 97.8472 362.266 97.8863C362.359 97.9253 362.444 97.9825 362.515 98.0545C362.586 98.1265 362.642 98.2119 362.679 98.3057C362.717 98.3995 362.736 98.4999 362.734 98.601V102.721C362.734 102.821 362.714 102.921 362.676 103.013C362.638 103.106 362.582 103.19 362.511 103.261C362.44 103.332 362.356 103.388 362.263 103.426C362.171 103.464 362.071 103.484 361.971 103.484Z" fill="#721121"/>
<path d="M361.971 216.766C361.87 216.767 361.77 216.749 361.676 216.711C361.582 216.673 361.497 216.617 361.425 216.546C361.353 216.475 361.295 216.391 361.256 216.297C361.217 216.204 361.197 216.104 361.197 216.003V213.943C361.197 213.738 361.279 213.541 361.424 213.396C361.569 213.25 361.766 213.169 361.971 213.169C362.072 213.169 362.172 213.189 362.266 213.228C362.359 213.267 362.444 213.324 362.515 213.396C362.586 213.468 362.642 213.554 362.679 213.648C362.717 213.741 362.736 213.842 362.734 213.943V216.003C362.734 216.205 362.654 216.399 362.511 216.542C362.368 216.685 362.173 216.766 361.971 216.766Z" fill="#721121"/>
<path d="M381.428 166.071C381.285 166.073 381.144 166.034 381.022 165.959C380.901 165.884 380.803 165.775 380.741 165.646C380.695 165.556 380.667 165.457 380.659 165.355C380.652 165.254 380.665 165.152 380.697 165.055C380.73 164.959 380.781 164.87 380.849 164.793C380.916 164.717 380.998 164.655 381.09 164.611L382.932 163.695C383.022 163.65 383.12 163.623 383.221 163.616C383.321 163.609 383.422 163.622 383.518 163.654C383.614 163.686 383.702 163.736 383.778 163.802C383.854 163.868 383.917 163.948 383.962 164.039C384.007 164.129 384.034 164.227 384.041 164.328C384.048 164.428 384.035 164.529 384.004 164.625C383.972 164.72 383.921 164.809 383.855 164.885C383.789 164.961 383.709 165.024 383.619 165.069L381.777 165.995C381.668 166.047 381.548 166.074 381.428 166.071Z" fill="#721121"/>
<path d="M372.359 170.584C372.216 170.585 372.075 170.546 371.954 170.471C371.832 170.396 371.735 170.287 371.672 170.158C371.617 170.066 371.582 169.962 371.569 169.854C371.557 169.747 371.568 169.638 371.601 169.535C371.634 169.432 371.688 169.337 371.761 169.256C371.833 169.176 371.922 169.112 372.021 169.069L376.555 166.812C376.649 166.758 376.752 166.725 376.859 166.713C376.967 166.702 377.075 166.713 377.178 166.746C377.28 166.779 377.375 166.833 377.455 166.904C377.536 166.976 377.601 167.063 377.645 167.161C377.699 167.254 377.733 167.358 377.744 167.465C377.756 167.572 377.745 167.68 377.712 167.783C377.679 167.886 377.625 167.98 377.554 168.061C377.482 168.141 377.395 168.206 377.297 168.251L372.708 170.507C372.599 170.56 372.48 170.586 372.359 170.584Z" fill="#721121"/>
<path d="M365.982 173.756C365.839 173.757 365.698 173.718 365.577 173.643C365.455 173.568 365.358 173.459 365.295 173.33C365.24 173.238 365.205 173.134 365.192 173.026C365.18 172.919 365.191 172.81 365.224 172.707C365.257 172.604 365.311 172.509 365.384 172.428C365.456 172.348 365.545 172.284 365.644 172.241L367.486 171.325C367.58 171.271 367.683 171.237 367.79 171.226C367.897 171.215 368.006 171.226 368.108 171.259C368.211 171.291 368.306 171.345 368.386 171.417C368.467 171.488 368.531 171.576 368.576 171.674C368.667 171.857 368.681 172.069 368.616 172.264C368.55 172.458 368.411 172.618 368.227 172.709L366.385 173.625C366.266 173.705 366.126 173.75 365.982 173.756Z" fill="#721121"/>
<path d="M337.447 117.905C337.315 117.906 337.185 117.872 337.07 117.807C336.956 117.742 336.86 117.648 336.793 117.534L335.703 115.768C335.644 115.682 335.604 115.583 335.584 115.48C335.565 115.377 335.567 115.271 335.591 115.169C335.614 115.066 335.659 114.97 335.721 114.886C335.784 114.801 335.863 114.731 335.954 114.678C336.042 114.623 336.141 114.586 336.244 114.569C336.347 114.552 336.452 114.556 336.554 114.58C336.655 114.605 336.751 114.649 336.835 114.711C336.919 114.773 336.99 114.85 337.044 114.94L338.134 116.706C338.206 116.823 338.246 116.957 338.249 117.094C338.252 117.232 338.217 117.368 338.149 117.487C338.081 117.607 337.982 117.706 337.862 117.773C337.742 117.841 337.606 117.875 337.469 117.872L337.447 117.905Z" fill="#721121"/>
<path d="M354.363 145.819C354.23 145.82 354.098 145.786 353.982 145.721C353.865 145.656 353.767 145.563 353.698 145.449L351.583 141.961C351.525 141.874 351.484 141.776 351.464 141.674C351.444 141.571 351.445 141.465 351.467 141.362C351.489 141.26 351.532 141.163 351.592 141.078C351.653 140.992 351.73 140.92 351.82 140.865C351.909 140.811 352.009 140.775 352.112 140.76C352.216 140.745 352.322 140.751 352.423 140.778C352.524 140.805 352.619 140.852 352.701 140.917C352.784 140.982 352.852 141.062 352.902 141.154L355.017 144.642C355.072 144.731 355.11 144.829 355.126 144.932C355.143 145.035 355.139 145.141 355.115 145.242C355.091 145.344 355.046 145.439 354.985 145.523C354.923 145.607 354.845 145.678 354.755 145.732C354.635 145.797 354.499 145.827 354.363 145.819ZM350.134 138.843C350 138.844 349.869 138.81 349.753 138.746C349.636 138.681 349.538 138.587 349.469 138.473L347.354 134.985C347.299 134.896 347.262 134.798 347.245 134.695C347.228 134.592 347.232 134.486 347.256 134.385C347.281 134.283 347.325 134.188 347.387 134.104C347.448 134.02 347.526 133.949 347.616 133.895C347.704 133.838 347.803 133.8 347.906 133.782C348.009 133.764 348.115 133.768 348.217 133.792C348.319 133.817 348.415 133.862 348.499 133.924C348.583 133.987 348.653 134.066 348.706 134.157L350.82 137.644C350.888 137.762 350.925 137.895 350.926 138.031C350.927 138.166 350.893 138.3 350.827 138.418C350.761 138.537 350.666 138.636 350.55 138.707C350.434 138.778 350.302 138.817 350.166 138.822L350.134 138.843ZM345.905 131.868C345.771 131.865 345.639 131.829 345.523 131.762C345.407 131.695 345.309 131.601 345.24 131.486L343.125 127.998C343.043 127.825 343.027 127.627 343.083 127.443C343.138 127.259 343.26 127.102 343.424 127.003C343.589 126.903 343.784 126.869 343.973 126.906C344.161 126.943 344.329 127.049 344.444 127.202L346.548 130.658C346.607 130.745 346.647 130.843 346.666 130.946C346.686 131.049 346.684 131.155 346.66 131.257C346.637 131.36 346.592 131.456 346.53 131.54C346.467 131.625 346.388 131.695 346.297 131.748C346.179 131.82 346.044 131.862 345.905 131.868ZM341.676 124.881C341.542 124.881 341.411 124.846 341.295 124.782C341.179 124.717 341.081 124.623 341.011 124.51L338.896 121.022C338.844 120.935 338.809 120.838 338.794 120.738C338.78 120.637 338.785 120.534 338.81 120.436C338.834 120.337 338.878 120.244 338.939 120.162C339 120.081 339.076 120.012 339.163 119.96C339.25 119.907 339.347 119.873 339.448 119.858C339.548 119.843 339.651 119.848 339.75 119.873C339.848 119.898 339.941 119.942 340.023 120.002C340.105 120.063 340.174 120.139 340.226 120.227L342.34 123.715C342.413 123.831 342.453 123.966 342.456 124.103C342.458 124.241 342.424 124.376 342.356 124.496C342.288 124.615 342.188 124.714 342.069 124.782C341.949 124.85 341.813 124.884 341.676 124.881Z" fill="#721121"/>
<path d="M357.535 151.073C357.402 151.071 357.272 151.036 357.158 150.969C357.043 150.902 356.948 150.806 356.881 150.691L355.791 148.936C355.696 148.762 355.671 148.558 355.722 148.365C355.774 148.173 355.897 148.008 356.066 147.905C356.236 147.801 356.439 147.767 356.633 147.808C356.828 147.85 356.998 147.965 357.11 148.13L358.2 149.895C358.259 149.983 358.298 150.082 358.317 150.185C358.335 150.289 358.332 150.395 358.308 150.498C358.283 150.6 358.238 150.696 358.174 150.78C358.111 150.864 358.03 150.934 357.939 150.985C357.815 151.051 357.675 151.081 357.535 151.073Z" fill="#721121"/>
<path d="M133.588 267.439L84.6914 296.357V323.377L59.1641 337.678V352.207L106.535 379.686L180.947 337.928V294.918L133.588 267.439Z" fill="#263238"/>
<path d="M59.1641 337.678L106.535 365.156V379.686L59.1641 352.207V337.678Z" fill="#455A64"/>
<path d="M132.051 323.846V350.867L106.534 365.156V379.686L180.947 337.929V294.918L132.051 323.846Z" fill="#263238"/>
<path d="M106.535 365.156L132.051 350.866L84.6914 323.377L59.1641 337.677L106.535 365.156Z" fill="#37474F"/>
<path d="M132.051 350.866V323.846L84.6914 296.356V323.377L132.051 350.866Z" fill="#455A64"/>
<path d="M132.051 323.846L84.6914 296.357L133.588 267.439L180.947 294.918L132.051 323.846Z" fill="#37474F"/>
<path d="M145.469 196.46C145.469 196.46 133.806 212.81 140.738 218.467C147.671 224.124 162.876 219.557 163.486 216.864C164.097 214.172 145.469 196.46 145.469 196.46Z" fill="#721121"/>
<path d="M93.3679 339.553L76.2334 362.355L80.9966 366.116C80.9966 366.116 87.8635 364.677 90.2941 355.608C91.7192 350.341 92.7466 344.974 93.3679 339.553Z" fill="#FFC07F"/>
<path d="M94.9159 338.005C94.9159 338.005 99.6791 342.365 97.5754 346.191C95.4718 350.016 91.8203 353.166 91.7113 358.257C91.6023 363.347 89.0518 372.426 83.4057 373.865C77.7596 375.304 72.2334 373.342 72.3424 371.336C72.4514 369.331 76.2336 362.355 76.2336 362.355C76.2336 362.355 81.4219 365.57 85.2478 362.464C89.0736 359.358 89.9565 346.311 89.9565 346.311L94.9159 338.005Z" fill="#FFC07F"/>
<path opacity="0.2" d="M94.9159 338.005C94.9159 338.005 99.6791 342.365 97.5754 346.191C95.4718 350.016 91.8203 353.166 91.7113 358.257C91.6023 363.347 89.0518 372.426 83.4057 373.865C77.7596 375.304 72.2334 373.342 72.3424 371.336C72.4514 369.331 76.2336 362.355 76.2336 362.355C76.2336 362.355 81.4219 365.57 85.2478 362.464C89.0736 359.358 89.9565 346.311 89.9565 346.311L94.9159 338.005Z" fill="#721121"/>
<path d="M124.192 267.418C124.192 267.418 85.9775 283.582 82.882 285.174C79.7865 286.765 74.3584 289.534 74.9034 301.992C75.4483 314.451 78.5766 345.308 78.5766 345.308L99.526 304.979L153.622 279.266L124.192 267.418Z" fill="#FFC07F"/>
<path opacity="0.5" d="M124.192 267.418C124.192 267.418 85.9775 283.582 82.882 285.174C79.7865 286.765 74.3584 289.534 74.9034 301.992C75.4483 314.451 78.5766 345.308 78.5766 345.308L99.526 304.979L153.622 279.266L124.192 267.418Z" fill="#721121"/>
<path d="M77.0176 329.339C77.8242 338.146 78.5544 345.307 78.5544 345.307L99.5039 304.978L138.078 286.612L129.358 279.756C117.031 285.947 99.1224 294.928 93.7706 297.675C86.9691 301.163 84.8654 311.027 79.0013 324.728C78.3365 326.233 77.6825 327.759 77.0176 329.339Z" fill="#FFC07F"/>
<path opacity="0.7" d="M77.0176 329.339C77.8242 338.146 78.5544 345.307 78.5544 345.307L99.5039 304.978L138.078 286.612L129.358 279.756C117.031 285.947 99.1224 294.928 93.7706 297.675C86.9691 301.163 84.8654 311.027 79.0013 324.728C78.3365 326.233 77.6825 327.759 77.0176 329.339Z" fill="#721121"/>
<path d="M127.342 275.658L131.288 281.62L128.203 282.089L127.342 275.658Z" fill="#FFC07F"/>
<path opacity="0.7" d="M127.342 275.658L131.288 281.62L128.203 282.089L127.342 275.658Z" fill="#721121"/>
<path d="M76.4403 371.336C76.4403 371.336 76.9853 372.252 76.9853 376.862C76.9853 381.473 75.1432 382.443 72.8651 383.217C70.5871 383.991 63.8183 388.95 61.9653 391.108C60.1124 393.266 52.6351 395.468 45.2451 394.182C37.855 392.896 36.2963 388.013 39.8497 384.884C43.403 381.756 53.5289 376.056 53.5289 376.056L76.4403 371.336Z" fill="#FFC07F"/>
<path d="M164.925 276.966L148.488 273.162C148.488 273.162 102.829 296.052 96.0271 299.54C89.2256 303.028 87.1329 312.903 81.247 326.604C76.8871 336.915 71.0775 351.063 67.2734 359.565C67.2734 359.565 69.9766 366.737 78.5438 364.938C81.4432 358.606 86.5661 352.949 94.0215 342.877C98.8054 336.656 102.202 329.483 103.984 321.841C104.268 320.48 104.929 319.227 105.894 318.227C106.858 317.226 108.085 316.518 109.434 316.184C116.966 314.352 132.323 310.374 148.542 304.793C171.399 296.924 164.925 276.966 164.925 276.966Z" fill="#FFC07F"/>
<path opacity="0.5" d="M164.925 276.966L148.488 273.162C148.488 273.162 102.829 296.052 96.0271 299.54C89.2256 303.028 87.1329 312.903 81.247 326.604C76.8871 336.915 71.0775 351.063 67.2734 359.565C67.2734 359.565 69.9766 366.737 78.5438 364.938C81.4432 358.606 86.5661 352.949 94.0215 342.877C98.8054 336.656 102.202 329.483 103.984 321.841C104.268 320.48 104.929 319.227 105.894 318.227C106.858 317.226 108.085 316.518 109.434 316.184C116.966 314.352 132.323 310.374 148.542 304.793C171.399 296.924 164.925 276.966 164.925 276.966Z" fill="#721121"/>
<path d="M67.2739 359.554C66.0204 362.355 64.9849 364.546 64.2764 365.777C61.4098 370.759 53.0496 376.154 50.1067 378.705C47.1637 381.255 46.5425 382.214 49.3546 384.373C56.4722 389.822 62.6415 383.871 66.6308 380.013C69.2946 377.567 72.2187 375.422 75.3506 373.614C75.5758 373.49 75.7713 373.319 75.9237 373.112C76.0761 372.905 76.1818 372.667 76.2335 372.415C76.6753 369.832 77.4559 367.318 78.5552 364.938C69.977 366.737 67.2739 359.554 67.2739 359.554Z" fill="#FFC07F"/>
<path d="M147.496 292.574L118.754 309.164L70.958 281.533L99.7008 264.595L147.496 292.574Z" fill="#37474F"/>
<path d="M121.838 287.844L111.058 281.62L117.815 277.718L128.606 283.942L121.838 287.844Z" fill="#721121"/>
<path d="M117.522 305.022L132.051 296.465L103.668 279.287L117.522 305.022Z" fill="#721121"/>
<path d="M118.371 253.738L106.872 259.188C103.437 260.057 100.05 261.105 96.7244 262.327C96.7244 262.327 88.7239 265.597 88.3533 267.777C87.9827 269.957 94.3591 275.091 99.9507 272.573C101.425 271.799 102.998 271.23 104.627 270.884C108.026 270.56 111.24 269.181 113.815 266.938L123.113 264.387C123.113 264.387 127.909 255.079 118.371 253.738Z" fill="#FFC07F"/>
<path d="M110.928 269.783C109.598 271.211 105.805 274.808 104.976 275.844C104.148 276.879 102.186 274.209 105.619 270.23C108.587 269.14 111.378 267.619 113.903 265.718C113.018 267.148 112.023 268.507 110.928 269.783Z" fill="#FFC07F"/>
<path d="M141.905 213.758C139.263 213.337 136.557 213.867 134.269 215.254C131.982 216.641 130.261 218.796 129.414 221.334C128.195 224.997 127.408 228.791 127.07 232.637C126.078 244.474 125.806 250.393 125.806 250.393L113.903 255.842C113.903 255.842 120.334 256.148 119.898 265.216L134.711 261.456L141.905 213.758Z" fill="#FFC07F"/>
<path opacity="0.3" d="M141.905 213.758C139.263 213.337 136.557 213.867 134.269 215.254C131.982 216.641 130.261 218.796 129.414 221.334C128.195 224.997 127.408 228.791 127.07 232.637C126.078 244.474 125.806 250.393 125.806 250.393L113.903 255.842C113.903 255.842 120.28 256.148 119.898 265.216L134.711 261.456L141.905 213.758Z" fill="white"/>
<path d="M125.806 250.392C127.142 250.808 128.35 251.559 129.315 252.572C129.315 252.572 127.877 249.847 125.871 249.008L125.806 250.392Z" fill="#FFC07F"/>
<path opacity="0.1" d="M125.806 250.392C127.142 250.808 128.35 251.559 129.315 252.572C129.315 252.572 127.877 249.847 125.871 249.008L125.806 250.392Z" fill="white"/>
<path d="M136.695 186.879C136.695 186.879 129.348 184.699 131.997 176.404C134.645 168.11 153.382 164.556 167.487 176.404C167.487 176.404 177.384 174.878 177.384 188.699C177.384 202.52 171.846 208.831 180.37 212.428C180.37 212.428 175.171 217.355 170.964 212.428C170.964 212.428 170.081 223.219 154.134 219.459L136.695 186.879Z" fill="#721121"/>
<path d="M160.674 218.467L169.024 222.02V246.501C166.41 252.765 164.994 259.465 164.849 266.251V278.372C164.849 278.372 147.78 284.454 134.548 277.87C128.138 274.688 124.171 267.417 124.171 267.417C124.171 267.417 131.223 263.265 131.223 258.196C131.086 254.236 130.616 250.295 129.817 246.414C128.273 244.88 127.104 243.012 126.399 240.953C125.694 238.895 125.472 236.702 125.751 234.544C126.689 226.456 141.905 213.758 141.905 213.758L147.573 214.532L160.674 218.467Z" fill="#FFC07F"/>
<path d="M160.674 218.467L147.572 214.532V198.673H160.674V218.467Z" fill="#FFC07F"/>
<path d="M147.572 214.586C150.241 213.589 152.68 212.06 154.741 210.093C156.801 208.126 158.442 205.761 159.562 203.141V198.781H147.572V214.586Z" fill="#F28F8F"/>
<path d="M144.52 177.189C144.52 177.189 132.53 177.886 134.013 198.389C134.699 207.861 136.912 212.766 144.215 212.406C152.477 212.003 164.216 206.324 163.453 190.105C162.69 173.886 144.52 177.189 144.52 177.189Z" fill="#FFC07F"/>
<path d="M160.674 198.673C160.674 198.673 157.404 199.545 157.404 194.836C157.404 194.836 142.799 193.844 139.572 179.347C139.572 179.347 141.011 174.987 150.134 174.987C159.257 174.987 166.909 183.042 164.533 194.127L160.674 198.673Z" fill="#721121"/>
<path d="M142.798 194.27V201.322L138.667 200.057L142.798 194.27Z" fill="#F28F8F"/>
<path d="M149.001 195.021C149.001 195.306 148.916 195.584 148.757 195.821C148.599 196.058 148.373 196.243 148.11 196.351C147.846 196.46 147.556 196.488 147.277 196.431C146.998 196.375 146.741 196.237 146.541 196.034C146.34 195.832 146.204 195.575 146.149 195.295C146.095 195.015 146.125 194.725 146.236 194.463C146.346 194.2 146.532 193.976 146.77 193.819C147.008 193.662 147.288 193.58 147.573 193.582C147.761 193.582 147.948 193.619 148.122 193.692C148.296 193.764 148.454 193.87 148.586 194.004C148.719 194.138 148.824 194.297 148.895 194.471C148.966 194.646 149.002 194.832 149.001 195.021Z" fill="#721121"/>
<path d="M139.561 194.019C139.563 194.304 139.48 194.584 139.323 194.822C139.166 195.06 138.941 195.247 138.678 195.357C138.415 195.467 138.124 195.496 137.844 195.441C137.564 195.386 137.307 195.249 137.105 195.047C136.903 194.845 136.766 194.588 136.711 194.308C136.656 194.028 136.685 193.737 136.795 193.474C136.905 193.211 137.092 192.986 137.33 192.829C137.568 192.672 137.848 192.589 138.133 192.591C138.511 192.594 138.873 192.745 139.14 193.012C139.407 193.279 139.558 193.641 139.561 194.019Z" fill="#721121"/>
<path d="M136.378 191.031L139.19 189.364C139.19 189.364 138.1 188.274 137.01 188.917C136.705 189.165 136.481 189.5 136.368 189.877C136.256 190.254 136.259 190.656 136.378 191.031Z" fill="#721121"/>
<path d="M143.158 203.687C144.795 203.804 146.423 203.367 147.78 202.444C147.78 202.444 148.096 204.886 146.058 205.344C145.457 205.447 144.84 205.338 144.311 205.035C143.782 204.733 143.374 204.256 143.158 203.687Z" fill="#F28F8F"/>
<path d="M159.519 199.207C159.468 198.014 159.688 196.825 160.162 195.729C160.391 195.046 160.815 194.445 161.383 194.001C161.951 193.557 162.637 193.29 163.355 193.233C167.029 193.135 167.53 196.678 167.476 197.942C167.345 201.212 164.663 204.831 159.671 204.973L159.519 199.207Z" fill="#FFC07F"/>
<path d="M147.573 214.586L143.703 219.611C143.268 220.176 142.963 220.83 142.807 221.526C142.652 222.222 142.65 222.944 142.803 223.64C142.955 224.337 143.259 224.992 143.691 225.559C144.123 226.127 144.674 226.593 145.305 226.925C147.021 227.822 148.995 228.095 150.89 227.698C152.785 227.3 154.483 226.256 155.693 224.745L160.674 218.521L147.573 214.586Z" fill="#FFC07F"/>
<path d="M147.496 274.972L136.597 280.934C134.92 280.809 133.237 280.809 131.561 280.934C129.621 281.174 124.476 282.111 123.146 282.166C121.816 282.22 123.092 284.705 126.58 284.487C126.58 284.487 118.721 288.084 118.438 290.242C118.154 292.4 124.738 297.305 130.231 294.602C131.666 293.767 133.21 293.136 134.82 292.727C138.208 292.247 141.363 290.723 143.845 288.368L153.034 285.425C153.034 285.425 157.066 275.909 147.496 274.972Z" fill="#FFC07F"/>
<path d="M169.023 222.021C169.023 222.021 162.342 226.577 163.486 240.746C164.152 249.319 164.152 257.93 163.486 266.503L147.485 274.972C149.202 276.113 150.601 277.67 151.554 279.497C152.507 281.325 152.982 283.364 152.935 285.425C152.935 285.425 175.912 280.694 177.285 275.342C178.659 269.99 179.16 244.387 179.16 239.94C179.16 235.493 177.373 225.574 169.023 222.021Z" fill="#FFC07F"/>
<path opacity="0.3" d="M169.023 222.021C169.023 222.021 162.342 226.577 163.486 240.746C164.152 249.319 164.152 257.93 163.486 266.503L147.485 274.972C149.202 276.113 150.601 277.67 151.554 279.497C152.507 281.325 152.982 283.364 152.935 285.425C152.935 285.425 175.912 280.694 177.285 275.342C178.659 269.99 179.16 244.387 179.16 239.94C179.16 235.493 177.373 225.574 169.023 222.021Z" fill="white"/>
<path d="M163.497 266.502C165.258 266.465 167.007 266.784 168.642 267.44C167.171 266.297 165.435 265.547 163.595 265.26L163.497 266.502Z" fill="#FFC07F"/>
<path opacity="0.1" d="M163.497 266.502C165.258 266.465 167.007 266.784 168.642 267.44C167.171 266.297 165.435 265.547 163.595 265.26L163.497 266.502Z" fill="white"/>
<path d="M64.2974 249.858L69.2895 282.558C69.2844 282.576 69.2844 282.594 69.2895 282.612L118.938 311.409C118.95 311.415 118.964 311.418 118.977 311.417C118.991 311.416 119.004 311.411 119.015 311.403C119.026 311.395 119.035 311.385 119.041 311.373C119.046 311.36 119.048 311.347 119.047 311.333L114.197 279.604C114.093 278.933 113.844 278.293 113.468 277.728C113.091 277.163 112.596 276.688 112.017 276.334L66.4992 248.376C66.2614 248.226 65.9849 248.148 65.7035 248.152C65.4221 248.156 65.1479 248.241 64.9145 248.399C64.681 248.556 64.4984 248.777 64.3888 249.037C64.2792 249.296 64.2475 249.581 64.2974 249.858Z" fill="#455A64"/>
<path d="M118.971 311.42L145.479 296.062C146.091 295.708 146.599 295.199 146.953 294.587C147.307 293.975 147.494 293.281 147.496 292.574L118.742 309.164L118.971 311.42Z" fill="#721121"/>
<path d="M93.019 281.38C93.019 283.723 91.384 284.65 89.3567 283.494C88.2907 282.799 87.4036 281.862 86.7673 280.76C86.131 279.658 85.7634 278.422 85.6943 277.151C85.6943 274.818 87.3402 273.881 89.3567 275.036C90.4232 275.731 91.3108 276.667 91.9472 277.77C92.5836 278.872 92.9508 280.109 93.019 281.38Z" fill="#37474F"/>
<path opacity="0.2" d="M141.904 248.169C141.904 248.169 151.921 250.894 157.24 243.373C157.24 243.373 153.796 253.085 141.904 248.169Z" fill="#721121"/>
</svg>
