<svg width="80" height="80" viewBox="0 0 80 80" fill="none" xmlns="http://www.w3.org/2000/svg">
<path fill-rule="evenodd" clip-rule="evenodd" d="M45 70C45 71.3261 45.5268 72.5979 46.4645 73.5355C47.4021 74.4732 48.6739 75 50 75H50.115C50.7748 75 51.428 74.8695 52.0371 74.6158C52.6462 74.3622 53.1991 73.9906 53.6639 73.5223C54.1286 73.054 54.4962 72.4984 54.7452 71.8874C54.9943 71.2765 55.1199 70.6223 55.115 69.9625L55.02 57.52C55.0167 57.1898 55.0789 56.8623 55.2032 56.5564C55.3274 56.2504 55.5111 55.9722 55.7436 55.7378C55.9762 55.5034 56.2529 55.3175 56.5579 55.1908C56.8628 55.0642 57.1898 54.9993 57.52 55H70C71.3261 55 72.5979 54.4732 73.5355 53.5355C74.4732 52.5979 75 51.3261 75 50C75 48.6739 74.4732 47.4021 73.5355 46.4645C72.5979 45.5268 71.3261 45 70 45H52.5C50.5109 45 48.6032 45.7902 47.1967 47.1967C45.7902 48.6032 45 50.5109 45 52.5V70ZM35 70C35 71.3261 34.4732 72.5979 33.5355 73.5355C32.5979 74.4732 31.3261 75 30 75H29.885C29.2252 75 28.572 74.8695 27.9629 74.6158C27.3538 74.3622 26.8009 73.9906 26.3361 73.5223C25.8714 73.054 25.5038 72.4984 25.2548 71.8874C25.0057 71.2765 24.8801 70.6223 24.885 69.9625L24.98 57.52C24.9833 57.1898 24.9211 56.8623 24.7968 56.5564C24.6726 56.2504 24.4889 55.9722 24.2564 55.7378C24.0238 55.5034 23.7471 55.3175 23.4421 55.1908C23.1372 55.0642 22.8102 54.9993 22.48 55H10C8.67392 55 7.40215 54.4732 6.46447 53.5355C5.52678 52.5979 5 51.3261 5 50C5 48.6739 5.52678 47.4021 6.46447 46.4645C7.40215 45.5268 8.67392 45 10 45H27.5C29.4891 45 31.3968 45.7902 32.8033 47.1967C34.2098 48.6032 35 50.5109 35 52.5V70ZM35 10C35 8.67392 34.4732 7.40215 33.5355 6.46447C32.5979 5.52678 31.3261 5 30 5H29.885C29.2252 4.99998 28.572 5.13054 27.9629 5.38416C27.3538 5.63777 26.8009 6.00943 26.3361 6.4777C25.8714 6.94597 25.5038 7.5016 25.2548 8.11256C25.0057 8.72353 24.8801 9.37774 24.885 10.0375L24.98 22.48C24.9833 22.8102 24.9211 23.1377 24.7968 23.4436C24.6726 23.7496 24.4889 24.0278 24.2564 24.2622C24.0238 24.4966 23.7471 24.6825 23.4421 24.8092C23.1372 24.9358 22.8102 25.0007 22.48 25H10C8.67392 25 7.40215 25.5268 6.46447 26.4645C5.52678 27.4021 5 28.6739 5 30C5 31.3261 5.52678 32.5979 6.46447 33.5355C7.40215 34.4732 8.67392 35 10 35H27.5C29.4891 35 31.3968 34.2098 32.8033 32.8033C34.2098 31.3968 35 29.4891 35 27.5V10ZM45 10C45 8.67392 45.5268 7.40215 46.4645 6.46447C47.4021 5.52678 48.6739 5 50 5H50.115C50.7748 4.99998 51.428 5.13054 52.0371 5.38416C52.6462 5.63777 53.1991 6.00943 53.6639 6.4777C54.1286 6.94597 54.4962 7.5016 54.7452 8.11256C54.9943 8.72353 55.1199 9.37774 55.115 10.0375L55.02 22.48C55.0167 22.8102 55.0789 23.1377 55.2032 23.4436C55.3274 23.7496 55.5111 24.0278 55.7436 24.2622C55.9762 24.4966 56.2529 24.6825 56.5579 24.8092C56.8628 24.9358 57.1898 25.0007 57.52 25H70C71.3261 25 72.5979 25.5268 73.5355 26.4645C74.4732 27.4021 75 28.6739 75 30C75 31.3261 74.4732 32.5979 73.5355 33.5355C72.5979 34.4732 71.3261 35 70 35H52.5C50.5109 35 48.6032 34.2098 47.1967 32.8033C45.7902 31.3968 45 29.4891 45 27.5V10Z" fill="#721121"/>
</svg>
