<svg width="81" height="80" viewBox="0 0 81 80" fill="none" xmlns="http://www.w3.org/2000/svg">
<path d="M43.998 2.51022C43.6015 2.55137 43.2206 2.68674 42.8871 2.90504C42.5535 3.12335 42.277 3.41825 42.0806 3.76515L22.0742 38.7533C21.8554 39.1343 21.7409 39.5663 21.7421 40.0056C21.7434 40.445 21.8605 40.8762 22.0815 41.2559C22.3025 41.6356 22.6197 41.9504 23.0012 42.1685C23.3826 42.3866 23.8147 42.5003 24.2541 42.4981H35.4535L21.9442 74.014C21.7041 74.5511 21.6612 75.1556 21.8228 75.7212C21.9845 76.2868 22.3404 76.7773 22.8281 77.1063C23.3157 77.4354 23.9037 77.582 24.4887 77.5202C25.0738 77.4585 25.6183 77.1924 26.0265 76.7689L71.0141 31.7562C71.3622 31.406 71.5988 30.9606 71.6941 30.4761C71.7894 29.9917 71.739 29.4898 71.5495 29.0339C71.3599 28.578 71.0395 28.1885 70.6288 27.9144C70.2181 27.6403 69.7355 27.494 69.2417 27.4939H58.6723L71.3841 6.29502C71.6114 5.9158 71.734 5.48309 71.7394 5.04103C71.7449 4.59897 71.6331 4.16337 71.4153 3.77864C71.1975 3.3939 70.8816 3.0738 70.4998 2.85098C70.1179 2.62815 69.6838 2.51057 69.2417 2.51022H44.258C44.1714 2.50571 44.0846 2.50571 43.998 2.51022ZM45.698 7.48996H64.832L52.1001 28.7139C51.8731 29.0927 51.7505 29.525 51.7448 29.9666C51.7391 30.4082 51.8505 30.8435 52.0677 31.2281C52.2849 31.6127 52.6001 31.9328 52.9813 32.156C53.3624 32.3792 53.7958 32.4974 54.2375 32.4987H63.207L31.6512 64.0545L41.5432 40.9857C41.7063 40.6064 41.7729 40.1925 41.737 39.7811C41.7012 39.3697 41.5639 38.9736 41.3376 38.6282C41.1113 38.2828 40.803 37.9988 40.4401 37.8017C40.0773 37.6045 39.6712 37.5003 39.2583 37.4984H28.5488L45.698 7.48996Z" fill="#721121"/>
</svg>
