<svg width="320" height="48" viewBox="0 0 320 48" fill="none" xmlns="http://www.w3.org/2000/svg">
<path d="M24.381 0L29.8548 16.5836H47.5686L33.2379 26.8328L38.7117 43.4164L24.381 33.1672L10.0502 43.4164L15.5241 26.8328L1.19329 16.5836H18.9071L24.381 0Z" fill="#721121"/>
<path d="M92.1905 0L97.6644 16.5836H115.378L101.047 26.8328L106.521 43.4164L92.1905 33.1672L77.8598 43.4164L83.3336 26.8328L69.0029 16.5836H86.7167L92.1905 0Z" fill="#721121"/>
<path d="M160 0L165.474 16.5836H183.188L168.857 26.8328L174.331 43.4164L160 33.1672L145.669 43.4164L151.143 26.8328L136.812 16.5836H154.526L160 0Z" fill="#721121"/>
<path d="M227.81 0L233.284 16.5836H250.997L236.667 26.8328L242.14 43.4164L227.81 33.1672L213.479 43.4164L218.953 26.8328L204.622 16.5836H222.336L227.81 0Z" fill="#721121"/>
<path d="M295.619 0L301.093 16.5836H318.807L304.476 26.8328L309.95 43.4164L295.619 33.1672L281.288 43.4164L286.762 26.8328L272.432 16.5836H290.145L295.619 0Z" fill="white"/>
</svg>
