<svg width="90" height="90" viewBox="0 0 90 90" fill="none" xmlns="http://www.w3.org/2000/svg">
<path d="M75.9379 26.25C75.9388 25.738 75.8349 25.2313 75.6325 24.761C75.4301 24.2907 75.1336 23.8668 74.7612 23.5155C74.3888 23.1642 73.9484 22.8928 73.4671 22.7182C72.9859 22.5435 72.4739 22.4693 71.9629 22.5H71.2504C66.6053 22.5503 62.0326 21.3473 58.0136 19.0178C53.9946 16.6882 50.678 13.3182 48.4129 9.2625V9.0375C48.2709 8.83315 48.1075 8.64457 47.9254 8.475C47.7571 8.29157 47.5684 8.12801 47.3629 7.9875L47.1004 7.7625H46.7254L45.9004 7.5H45.1879H44.5129C44.2537 7.54014 44.0013 7.61585 43.7629 7.725H43.3879H43.1629C42.9585 7.86697 42.77 8.0304 42.6004 8.2125C42.407 8.38529 42.2424 8.58784 42.1129 8.8125C42.0288 8.87781 41.9532 8.9534 41.8879 9.0375C39.6182 13.1857 36.2702 16.6439 32.1976 19.0465C28.1249 21.4492 23.4789 22.7071 18.7504 22.6875H18.2629C17.7466 22.6193 17.2217 22.6595 16.7217 22.8054C16.2218 22.9513 15.7577 23.1997 15.359 23.5349C14.9604 23.87 14.6359 24.2845 14.4063 24.752C14.1767 25.2195 14.047 25.7296 14.0254 26.25C14.0254 30 14.0254 33.5625 14.0254 37.5V39.075C13.5551 48.5911 16.2411 57.9961 21.6662 65.8285C27.0912 73.6609 34.9514 79.4821 44.0254 82.3875C44.3413 82.4818 44.6713 82.5199 45.0004 82.5C45.3118 82.5366 45.6265 82.5366 45.9379 82.5C55.0135 79.5941 62.885 73.7907 68.3448 65.9804C73.8046 58.17 76.5511 48.7841 76.1629 39.2625C76.1629 34.6125 76.1629 30.3375 75.9379 26.25ZM60.9379 40.3125L43.6129 57.6375C43.2184 58.0408 42.7282 58.3376 42.1879 58.5C41.514 59.0945 40.649 59.4272 39.7504 59.4375C38.7666 59.4334 37.8239 59.0428 37.1254 58.35L29.6254 50.85C29.2328 50.5138 28.914 50.1001 28.6889 49.6349C28.4638 49.1696 28.3373 48.6629 28.3174 48.1465C28.2974 47.63 28.3845 47.115 28.573 46.6338C28.7615 46.1526 29.0475 45.7155 29.4129 45.3501C29.7784 44.9846 30.2155 44.6986 30.6967 44.5101C31.1779 44.3216 31.6929 44.2346 32.2093 44.2545C32.7258 44.2745 33.2325 44.4009 33.6978 44.626C34.163 44.8511 34.5767 45.1699 34.9129 45.5625L39.8629 50.5125L55.5004 34.875C56.2178 34.2607 57.1406 33.9396 58.0843 33.9761C59.0281 34.0125 59.9234 34.4038 60.5913 35.0716C61.2591 35.7395 61.6504 36.6348 61.6868 37.5785C61.7233 38.5223 61.4022 39.4451 60.7879 40.1625L60.9379 40.3125Z" fill="#721121"/>
</svg>
