<svg width="40" height="40" viewBox="0 0 40 40" fill="none" xmlns="http://www.w3.org/2000/svg">
<path d="M30.7833 28.0497L31.4333 33.3163C31.5999 34.6997 30.1166 35.6663 28.9333 34.9497L23.1666 31.5163C22.7666 31.283 22.6666 30.783 22.8833 30.383C23.7166 28.8497 24.1666 27.1163 24.1666 25.383C24.1666 19.283 18.9333 14.3163 12.4999 14.3163C11.1833 14.3163 9.89994 14.5163 8.69994 14.9163C8.08328 15.1163 7.48328 14.5497 7.63328 13.9163C9.14995 7.84967 14.9833 3.33301 21.9499 3.33301C30.0833 3.33301 36.6666 9.48301 36.6666 17.0663C36.6666 21.5663 34.3499 25.5497 30.7833 28.0497Z" fill="#721121"/>
<path d="M21.6667 25.3831C21.6667 27.3664 20.9334 29.1997 19.7 30.6497C18.05 32.6497 15.4334 33.9331 12.5 33.9331L8.15004 36.5164C7.41671 36.9664 6.48337 36.3497 6.58337 35.4997L7.00004 32.2164C4.76671 30.6664 3.33337 28.1831 3.33337 25.3831C3.33337 22.4497 4.90004 19.8664 7.30004 18.3331C8.78337 17.3664 10.5667 16.8164 12.5 16.8164C17.5667 16.8164 21.6667 20.6497 21.6667 25.3831Z" fill="#721121"/>
</svg>
