<svg width="88" height="88" viewBox="0 0 88 88" fill="none" xmlns="http://www.w3.org/2000/svg">
<path d="M65.7783 5H22.1304C19.28 5 17 7.28011 17 10.1304V59.8857C17 62.7362 19.2801 65.0161 22.1304 65.0161H26.6093C26.6093 74.6249 34.4272 82.3613 43.9545 82.3613C53.4821 82.3613 61.2996 74.5435 61.2996 65.0161H65.7786C68.629 65.0161 70.909 62.736 70.909 59.8857L70.9078 10.1304C70.9078 7.27997 68.6277 5 65.7775 5H65.7783ZM43.9543 77.5565C37.0323 77.5565 31.3321 71.9375 31.3321 64.9343C31.3321 58.0122 36.9511 52.3121 43.9543 52.3121C50.9576 52.3121 56.5765 57.9311 56.5765 64.9343C56.5765 71.9375 50.8764 77.5565 43.9543 77.5565ZM58.938 43.5176H28.9707C27.6677 43.5176 26.6095 42.4588 26.6095 41.1564C26.6095 39.8533 27.6683 38.7951 28.9707 38.7951H58.938C60.241 38.7951 61.2992 39.8539 61.2992 41.1564C61.2998 42.4594 60.241 43.5176 58.938 43.5176ZM58.938 31.7912H28.9707C27.6677 31.7912 26.6095 30.7324 26.6095 29.4299C26.6095 28.1269 27.6683 27.0687 28.9707 27.0687H58.938C60.241 27.0687 61.2992 28.1275 61.2992 29.4299C61.2998 30.733 60.241 31.7912 58.938 31.7912ZM58.938 20.0653H28.9707C27.6677 20.0653 26.6095 19.0065 26.6095 17.7041C26.6095 16.401 27.6683 15.3428 28.9707 15.3428H58.938C60.241 15.3428 61.2992 16.4016 61.2992 17.7041C61.2998 19.0066 60.241 20.0653 58.938 20.0653Z" fill="#D5A06A"/>
<path d="M47.456 60.1297L41.837 65.7487L39.8824 63.7942C38.9866 62.8984 37.4393 62.8984 36.5435 63.7942C35.6478 64.69 35.6478 66.2373 36.5435 67.1331L40.1267 70.7162C40.534 71.1235 41.1855 71.449 41.8371 71.449C42.4887 71.449 43.0584 71.2047 43.5475 70.7162L50.795 63.4687C51.6908 62.5729 51.6908 61.0256 50.795 60.1298C49.8992 59.2341 48.3519 59.2341 47.4561 60.1298L47.456 60.1297Z" fill="#D5A06A"/>
</svg>
