<svg width="90" height="90" viewBox="0 0 90 90" fill="none" xmlns="http://www.w3.org/2000/svg">
<g clip-path="url(#clip0_1509_1304)">
<path d="M68.6426 1.31836H21.3574C20.6649 1.31832 19.9791 1.45469 19.3393 1.71969C18.6995 1.98469 18.1181 2.37313 17.6284 2.86282C17.1388 3.35251 16.7503 3.93387 16.4853 4.57369C16.2203 5.21351 16.0839 5.89927 16.084 6.5918V79.1385L13.4473 88.6816H68.6426C70.0411 88.6814 71.3823 88.1258 72.3712 87.1368C73.3601 86.1479 73.9158 84.8067 73.916 83.4082V6.5918C73.9158 5.19326 73.3601 3.85207 72.3712 2.86315C71.3823 1.87424 70.0411 1.31857 68.6426 1.31836Z" fill="#EDEDED"/>
<path d="M68.6426 1.31836H60.7324C62.131 1.31857 63.4722 1.87424 64.4611 2.86315C65.45 3.85207 66.0056 5.19326 66.0059 6.5918V83.4082C66.0056 84.8067 65.45 86.1479 64.4611 87.1368C63.4722 88.1258 62.131 88.6814 60.7324 88.6816H68.6426C70.0411 88.6814 71.3823 88.1258 72.3712 87.1368C73.3601 86.1479 73.9158 84.8067 73.916 83.4082V6.5918C73.9158 5.19326 73.3601 3.85207 72.3712 2.86315C71.3823 1.87424 70.0411 1.31857 68.6426 1.31836Z" fill="#E1E1E3"/>
<path d="M68.3789 88.6816H12.9199C12.2274 88.6817 11.5416 88.5453 10.9018 88.2803C10.262 88.0153 9.68064 87.6269 9.19095 87.1372C8.70125 86.6475 8.31282 86.0661 8.04782 85.4263C7.78282 84.7865 7.64644 84.1007 7.64648 83.4082V76.377H62.666L62.8418 76.7285V83.1445C62.8417 83.8717 62.9849 84.5918 63.2631 85.2636C63.5413 85.9354 63.9492 86.5459 64.4634 87.0601C64.9776 87.5742 65.588 87.9821 66.2598 88.2603C66.9317 88.5386 67.6517 88.6817 68.3789 88.6816ZM68.8184 88.6816H68.3789C68.5248 88.6816 68.6672 88.6763 68.8096 88.6658L68.8184 88.6816Z" fill="#C8C5CC"/>
<path d="M73.9158 27.0879V38.2746L50.1643 62.0262C49.2962 62.8942 48.1189 63.3819 46.8912 63.3819C45.6636 63.3819 44.4862 62.8942 43.6182 62.0262L41.2979 59.7059L73.9158 27.0879Z" fill="#DADADC"/>
<path d="M87.9098 21.6442L46.8912 62.6628L41.2979 57.0694L82.3164 16.0509C82.5612 15.8059 82.8518 15.6117 83.1716 15.4791C83.4915 15.3465 83.8343 15.2783 84.1806 15.2783C84.5268 15.2783 84.8697 15.3465 85.1895 15.4791C85.5094 15.6117 85.8 15.8059 86.0447 16.0509L87.9098 17.9159C88.4036 18.4106 88.681 19.081 88.681 19.78C88.681 20.4791 88.4036 21.1495 87.9098 21.6442Z" fill="#721121"/>
<path d="M87.9101 17.9153L86.0451 16.0503C85.6345 15.64 85.0999 15.3768 84.5244 15.3015C83.9488 15.2263 83.3645 15.3432 82.8623 15.6341C83.0617 15.7484 83.2453 15.8883 83.4084 16.0503L85.2734 17.9153C85.7673 18.41 86.0447 19.0804 86.0447 19.7795C86.0447 20.4785 85.7673 21.1489 85.2734 21.6436L45.5732 61.3438L46.8916 62.6622L87.9101 21.6436C88.404 21.1489 88.6814 20.4785 88.6814 19.7795C88.6814 19.0804 88.404 18.41 87.9101 17.9153Z" fill="#721121"/>
<path d="M46.891 62.6627L38.501 65.4594L41.2977 57.0693L46.891 62.6627Z" fill="#FDD8AE"/>
<path d="M45.4921 61.2637L39.2004 63.3609L38.501 65.4592L46.891 62.6625L45.4921 61.2637Z" fill="#FBBF7D"/>
<path d="M87.9103 21.6442L83.8902 25.6643L78.2969 20.071L82.317 16.0509C82.5618 15.8059 82.8524 15.6117 83.1722 15.4791C83.4921 15.3465 83.8349 15.2783 84.1812 15.2783C84.5274 15.2783 84.8703 15.3465 85.1901 15.4791C85.51 15.6117 85.8006 15.8059 86.0453 16.0509L87.9103 17.9159C88.4042 18.4106 88.6816 19.081 88.6816 19.78C88.6816 20.4791 88.4042 21.1495 87.9103 21.6442Z" fill="#FFC07F"/>
<path d="M87.9097 17.9153L86.0447 16.0503C85.6341 15.64 85.0995 15.3768 84.524 15.3015C83.9484 15.2263 83.3642 15.3432 82.8619 15.6341C83.0613 15.7484 83.2449 15.8883 83.408 16.0503L85.273 17.9153C85.7669 18.41 86.0443 19.0804 86.0443 19.7795C86.0443 20.4785 85.7669 21.1489 85.273 21.6436L82.5713 24.3454L83.8896 25.6638L87.9097 21.6436C88.4036 21.1489 88.681 20.4785 88.681 19.7795C88.681 19.0804 88.4036 18.41 87.9097 17.9153Z" fill="#FFC07F"/>
<path d="M28.2128 14.0625H61.787C62.1366 14.0625 62.472 13.9236 62.7192 13.6764C62.9664 13.4291 63.1053 13.0938 63.1053 12.7441C63.1053 12.3945 62.9664 12.0592 62.7192 11.8119C62.472 11.5647 62.1366 11.4258 61.787 11.4258H28.2128C27.8631 11.4258 27.5278 11.5647 27.2806 11.8119C27.0333 12.0592 26.8944 12.3945 26.8944 12.7441C26.8944 13.0938 27.0333 13.4291 27.2806 13.6764C27.5278 13.9236 27.8631 14.0625 28.2128 14.0625ZM28.2128 29.8828H61.787C62.1366 29.8828 62.472 29.7439 62.7192 29.4967C62.9664 29.2494 63.1053 28.9141 63.1053 28.5645C63.1053 28.2148 62.9664 27.8795 62.7192 27.6322C62.472 27.385 62.1366 27.2461 61.787 27.2461H28.2128C27.8631 27.2461 27.5278 27.385 27.2806 27.6322C27.0333 27.8795 26.8944 28.2148 26.8944 28.5645C26.8944 28.9141 27.0333 29.2494 27.2806 29.4967C27.5278 29.7439 27.8631 29.8828 28.2128 29.8828ZM28.2128 21.9727H61.787C62.1366 21.9727 62.472 21.8338 62.7192 21.5865C62.9664 21.3393 63.1053 21.0039 63.1053 20.6543C63.1053 20.3046 62.9664 19.9693 62.7192 19.7221C62.472 19.4748 62.1366 19.3359 61.787 19.3359H28.2128C27.8631 19.3359 27.5278 19.4748 27.2806 19.7221C27.0333 19.9693 26.8944 20.3046 26.8944 20.6543C26.8944 21.0039 27.0333 21.3393 27.2806 21.5865C27.5278 21.8338 27.8631 21.9727 28.2128 21.9727ZM88.8415 16.9828L86.9771 15.1184C86.2353 14.3767 85.2293 13.96 84.1804 13.96C83.1314 13.96 82.1254 14.3767 81.3837 15.1184L75.2343 21.2678V6.5918C75.2323 4.84415 74.5372 3.16864 73.3014 1.93286C72.0656 0.697088 70.3901 0.00196616 68.6425 0H21.3573C19.6097 0.00196663 17.9341 0.697089 16.6984 1.93286C15.4626 3.16864 14.7675 4.84415 14.7655 6.5918V75.0586H7.64551C7.47237 75.0586 7.30093 75.0927 7.14098 75.1589C6.98102 75.2252 6.83568 75.3223 6.71326 75.4447C6.59083 75.5671 6.49372 75.7125 6.42748 75.8724C6.36123 76.0324 6.32714 76.2038 6.32715 76.377V83.4082C6.32911 85.1559 7.02424 86.8314 8.26001 88.0671C9.49579 89.3029 11.1713 89.998 12.9189 90H68.8174C68.8652 89.9999 68.913 89.9972 68.9605 89.9919C70.651 89.9083 72.2448 89.1785 73.4124 87.9532C74.58 86.7278 75.2322 85.1008 75.2343 83.4082V36.1836L88.8415 22.5764C89.5821 21.834 89.998 20.8282 89.998 19.7796C89.998 18.731 89.5821 17.7252 88.8415 16.9828ZM12.9189 87.3633C11.8704 87.3621 10.8651 86.945 10.1236 86.2035C9.38215 85.4621 8.96507 84.4568 8.96387 83.4082V77.6953H61.5225V83.1445C61.5214 84.6745 62.0348 86.1604 62.9802 87.3633H12.9189ZM72.5975 76.36C72.5974 76.3657 72.5967 76.3712 72.5967 76.377V83.1445C72.5967 84.2634 72.1522 85.3365 71.361 86.1276C70.5699 86.9188 69.4968 87.3633 68.3779 87.3633C67.259 87.3633 66.186 86.9188 65.3948 86.1276C64.6037 85.3365 64.1592 84.2634 64.1592 83.1445V76.377C64.1592 76.2038 64.1251 76.0324 64.0588 75.8724C63.9926 75.7125 63.8955 75.5671 63.7731 75.4447C63.6506 75.3223 63.5053 75.2252 63.3453 75.1589C63.1854 75.0927 63.014 75.0586 62.8408 75.0586C62.8111 75.0586 62.7821 75.0611 62.7529 75.0631C62.7237 75.0611 62.6947 75.0586 62.665 75.0586H17.4022V6.5918C17.4034 5.54321 17.8205 4.53792 18.562 3.79646C19.3034 3.055 20.3087 2.63792 21.3573 2.63672H68.6425C69.691 2.63792 70.6963 3.055 71.4378 3.79646C72.1792 4.53792 72.5963 5.54321 72.5975 6.5918V23.9045L48.1622 48.3398H28.2128C27.8631 48.3398 27.5278 48.4787 27.2806 48.726C27.0333 48.9732 26.8944 49.3086 26.8944 49.6582C26.8944 50.0079 27.0333 50.3432 27.2806 50.5904C27.5278 50.8377 27.8631 50.9766 28.2128 50.9766H45.5255L40.3659 56.1362C40.3316 56.1707 40.2993 56.2071 40.269 56.2451L40.2654 56.25H28.2128C27.8631 56.25 27.5278 56.3889 27.2806 56.6361C27.0333 56.8834 26.8944 57.2187 26.8944 57.5684C26.8944 57.918 27.0333 58.2533 27.2806 58.5006C27.5278 58.7478 27.8631 58.8867 28.2128 58.8867H39.3024L37.5445 64.1602H28.2128C27.8631 64.1602 27.5278 64.2991 27.2806 64.5463C27.0333 64.7935 26.8944 65.1289 26.8944 65.4785C26.8944 65.8282 27.0333 66.1635 27.2806 66.4107C27.5278 66.658 27.8631 66.7969 28.2128 66.7969H38.0565C38.1518 66.7967 38.2467 66.7862 38.3398 66.7656C38.5344 66.7916 38.7325 66.7722 38.9184 66.7092L47.3086 63.9124C47.3171 63.9096 47.3251 63.9055 47.3336 63.9025C47.3658 63.891 47.3975 63.8785 47.4289 63.8644C47.4424 63.8584 47.4558 63.8523 47.469 63.8457C47.4996 63.8309 47.5296 63.8144 47.5593 63.797C47.5717 63.7897 47.5841 63.7828 47.5963 63.7751C47.6263 63.7561 47.6554 63.7353 47.6841 63.7136C47.6944 63.7058 47.7052 63.6988 47.7152 63.6907C47.7532 63.6605 47.7895 63.6282 47.8239 63.594L52.5312 58.8867H61.787C62.1366 58.8867 62.472 58.7478 62.7192 58.5006C62.9664 58.2533 63.1053 57.918 63.1053 57.5683C63.1053 57.2187 62.9664 56.8834 62.7192 56.6361C62.472 56.3889 62.1366 56.25 61.787 56.25H55.1679L72.5975 38.8204V76.36ZM41.8743 59.5092L44.4508 62.0856L40.5859 63.3739L41.8743 59.5092ZM46.8916 60.7971L43.1628 57.0685L74.8453 25.3859L74.8507 25.3806L78.2963 21.9349L82.025 25.6637L46.8916 60.7971ZM86.9769 20.7118L83.8896 23.7991L80.1609 20.0703L83.2483 16.983C83.3706 16.8605 83.516 16.7634 83.6759 16.6971C83.8358 16.6308 84.0073 16.5967 84.1804 16.5967C84.3535 16.5967 84.5249 16.6308 84.6849 16.6971C84.8448 16.7634 84.9901 16.8605 85.1125 16.983L86.9769 18.8474C87.2238 19.0948 87.3625 19.4301 87.3625 19.7796C87.3625 20.1291 87.2238 20.4644 86.9769 20.7118V20.7118Z" fill="#721121"/>
</g>
<defs>
<clipPath id="clip0_1509_1304">
<rect width="90" height="90" fill="white"/>
</clipPath>
</defs>
</svg>
